<svg width="546" height="502" viewBox="0 0 546 502" fill="none" xmlns="http://www.w3.org/2000/svg">
<path d="M96.5815 443.984C195.09 497.432 354.803 497.434 453.309 443.985C551.818 390.534 551.818 303.876 453.309 250.427C354.801 196.977 195.088 196.977 96.5793 250.426C-1.92783 303.875 -1.92783 390.535 96.5815 443.984Z" fill="#F5F5F5"/>
<path d="M427.123 432.779C453.774 432.779 475.379 421.31 475.379 407.163C475.379 393.016 453.774 381.547 427.123 381.547C400.471 381.547 378.866 393.016 378.866 407.163C378.866 421.31 400.471 432.779 427.123 432.779Z" fill="#E0E0E0"/>
<path d="M396.854 77.447L405.227 81.8927C405.186 81.5493 405.156 81.207 405.156 80.8736V78.6427C405.156 74.6739 408.188 73.0645 411.926 75.0494C413.439 75.8526 414.833 77.1267 415.961 78.6166C416.573 73.6258 420.832 71.7663 426.005 74.5123C431.598 77.4811 436.133 84.7019 436.133 90.6405V93.9778C436.133 95.516 435.824 96.8111 435.276 97.8432L442.232 101.535C444.306 102.636 445.987 105.313 445.987 107.515C445.987 109.717 444.307 110.609 442.232 109.508L396.854 85.4197C394.78 84.3184 393.099 81.6417 393.099 79.4399C393.1 77.2392 394.78 76.3466 396.854 77.447Z" fill="#EBEBEB"/>
<path d="M361.017 99.8805L367.337 103.235C367.305 102.976 367.283 102.718 367.283 102.466V100.782C367.283 97.7861 369.571 96.5723 372.393 98.0703C373.535 98.6767 374.587 99.6385 375.437 100.763C375.899 96.996 379.114 95.5934 383.018 97.6657C387.24 99.9066 390.662 105.356 390.662 109.838V112.356C390.662 113.517 390.428 114.495 390.014 115.274L395.264 118.06C396.828 118.89 398.097 120.911 398.097 122.573C398.097 124.235 396.828 124.908 395.264 124.077L361.016 105.897C359.45 105.067 358.183 103.046 358.183 101.384C358.184 99.7239 359.453 99.0502 361.017 99.8805Z" fill="#EBEBEB"/>
<path d="M80.6729 289.777C80.0548 290.085 68.6379 293.065 64.4075 287.929C60.1782 282.792 67.1954 274.785 63.2282 271.835C59.2609 268.884 48.1422 271.852 45.4657 265.636C42.7892 259.42 50.7226 256.756 46.264 250.501C43.4553 246.56 36.5604 244.353 35.9533 240.711C34.9377 234.622 45.9112 231.825 55.2959 237.572C64.6805 243.32 70.3557 240.686 73.3335 240.301C76.3114 239.915 82.7302 240.766 82.5249 250.376C82.3196 259.987 80.6729 289.777 80.6729 289.777Z" fill="#FE9F43"/>
<path d="M81.4273 276.109C81.1281 276.109 80.8649 275.91 80.8147 275.63C77.5463 257.392 54.4877 242.548 42.4975 239.363C42.1677 239.275 41.9766 238.958 42.0727 238.655C42.1677 238.353 42.5128 238.178 42.8426 238.264C55.1035 241.521 78.6886 256.732 82.0421 275.444C82.0978 275.756 81.8674 276.051 81.5289 276.102C81.495 276.107 81.4612 276.109 81.4273 276.109Z" fill="white"/>
<path d="M54.2414 260.843C54.0285 260.843 53.8221 260.743 53.7053 260.564C53.5305 260.293 53.6266 259.941 53.9226 259.78C54.296 259.576 63.1674 254.808 71.9089 257.038C72.2398 257.122 72.4341 257.437 72.3413 257.742C72.2496 258.046 71.91 258.228 71.5758 258.139C63.352 256.041 54.6433 260.715 54.557 260.763C54.4576 260.817 54.3484 260.843 54.2414 260.843Z" fill="white"/>
<path d="M85.0977 296.781C85.0977 299.381 87.215 302.614 89.8271 304L222.315 374.327C224.926 375.713 229.161 375.713 231.772 374.327L413.051 278.1C415.662 276.713 417.78 273.481 417.78 270.88C417.78 268.278 415.664 265.047 413.051 263.66L280.563 193.333C277.952 191.946 273.718 191.946 271.107 193.333L89.826 289.562C87.214 290.949 85.0977 294.181 85.0977 296.781Z" fill="#37474F"/>
<path d="M227.045 365.961V375.368C225.33 375.368 223.616 375.027 222.316 374.334L89.8241 304.004C87.2142 302.619 85.0957 299.386 85.0957 296.785C85.0957 294.346 86.963 291.354 89.3436 289.848C87.2251 291.243 87.3889 293.291 89.8241 294.587L222.316 364.917C223.616 365.609 225.331 365.961 227.045 365.961Z" fill="#263238"/>
<path d="M80.6624 289.72C78.213 288.42 76.2267 285.117 76.2267 282.345L76.2256 136.981C76.2256 134.209 78.343 130.838 80.9539 129.451L262.235 33.2238C264.846 31.8373 268.949 31.768 271.399 33.0682C273.849 34.3684 275.836 37.6705 275.836 40.4426V185.807C275.836 188.579 273.718 191.95 271.107 193.337L89.8264 289.564C87.2144 290.951 83.1117 291.02 80.6624 289.72Z" fill="#455A64"/>
<path d="M89.267 289.825C86.6571 290.95 82.9443 290.93 80.662 289.715C78.216 288.42 76.2285 285.116 76.2285 282.345V136.976C76.2285 135.591 76.7527 134.055 77.6154 132.699L86.4824 137.398V137.408C85.6306 138.773 85.0956 140.299 85.0956 141.685V287.054C85.0956 289.624 86.9203 290.779 89.267 289.825Z" fill="#263238"/>
<path d="M85.0977 141.691V287.055C85.0977 289.827 87.215 290.952 89.826 289.565L271.107 193.338C273.718 191.951 275.835 188.58 275.835 185.808V40.4437C275.835 37.6716 273.718 36.5471 271.107 37.9337L89.826 134.161C87.214 135.548 85.0977 138.919 85.0977 141.691Z" fill="#37474F"/>
<path d="M89.8262 294.584L222.315 364.911C224.926 366.298 229.161 366.298 231.772 364.911L413.053 268.684C415.664 267.297 415.664 265.05 413.053 263.664L280.565 193.337C277.954 191.95 273.719 191.95 271.108 193.337L89.8262 289.564C87.2142 290.951 87.2142 293.198 89.8262 294.584Z" fill="#455A64"/>
<path d="M92.3692 142.229L267.147 49.4772C268.714 48.6459 269.984 49.3196 269.984 50.9832V176.819C269.984 178.482 268.714 180.505 267.147 181.337L92.3692 274.086C90.8022 274.917 89.5322 274.244 89.5322 272.58V146.746C89.5322 145.083 90.8022 143.06 92.3692 142.229Z" fill="white"/>
<path opacity="0.6" d="M92.3692 142.229L267.147 49.4772C268.714 48.6459 269.984 49.3196 269.984 50.9832V176.819C269.984 178.482 268.714 180.505 267.147 181.337L92.3692 274.086C90.8022 274.917 89.5322 274.244 89.5322 272.58V146.746C89.5322 145.083 90.8022 143.06 92.3692 142.229Z" fill="#FE9F43"/>
<path d="M179.386 134.273C184.039 131.802 187.812 133.805 187.812 138.745C187.812 143.686 184.039 149.693 179.386 152.162C174.733 154.632 170.96 152.63 170.96 147.69C170.96 142.75 174.733 136.743 179.386 134.273Z" fill="#F0F0F0"/>
<path d="M195.99 160.693C195.99 152.577 189.792 148.973 182.148 153.031L177.369 155.568C169.725 159.626 163.526 169.495 163.526 177.611V179.796L195.99 162.576V160.693Z" fill="#F0F0F0"/>
<path d="M212.406 164.701C212.097 164.047 211.313 163.881 210.426 164.349L153.732 194.425C153.161 194.727 152.628 195.253 152.252 195.865C151.869 196.469 151.638 197.146 151.638 197.765V203.899C151.638 204.943 152.315 205.454 153.231 205.216C153.326 205.191 153.379 205.173 153.379 205.173C153.505 205.129 153.622 205.072 153.732 205.014L210.426 174.938C211.584 174.327 212.524 172.829 212.524 171.598V165.464C212.523 165.22 212.493 164.913 212.406 164.701Z" fill="#F0F0F0"/>
<path d="M158.856 195.187C159.956 194.604 160.848 195.077 160.848 196.245C160.848 197.412 159.957 198.832 158.856 199.416C157.755 200 156.864 199.527 156.864 198.359C156.864 197.191 157.755 195.771 158.856 195.187Z" fill="#FE9F43"/>
<path d="M165.444 191.688C166.544 191.103 167.436 191.577 167.436 192.745C167.436 193.913 166.544 195.332 165.444 195.917C164.344 196.5 163.452 196.027 163.452 194.859C163.452 193.692 164.343 192.271 165.444 191.688Z" fill="#FE9F43"/>
<path d="M172.032 188.191C173.131 187.608 174.024 188.081 174.024 189.248C174.024 190.416 173.133 191.836 172.032 192.42C170.931 193.004 170.04 192.531 170.04 191.363C170.04 190.195 170.931 188.776 172.032 188.191Z" fill="#FE9F43"/>
<path d="M178.62 184.696C179.719 184.111 180.612 184.585 180.612 185.753C180.612 186.92 179.72 188.34 178.62 188.924C177.519 189.509 176.628 189.035 176.628 187.867C176.628 186.7 177.519 185.28 178.62 184.696Z" fill="#FE9F43"/>
<path d="M185.209 181.199C186.308 180.616 187.2 181.089 187.2 182.256C187.2 183.424 186.308 184.844 185.209 185.428C184.109 186.011 183.217 185.538 183.217 184.371C183.217 183.203 184.108 181.783 185.209 181.199Z" fill="#FE9F43"/>
<path d="M191.796 177.699C192.895 177.116 193.787 177.589 193.787 178.756C193.787 179.924 192.896 181.344 191.796 181.928C190.695 182.512 189.804 182.038 189.804 180.871C189.804 179.703 190.696 178.283 191.796 177.699Z" fill="#FE9F43"/>
<path d="M198.383 174.203C199.483 173.62 200.375 174.093 200.375 175.26C200.375 176.428 199.484 177.847 198.383 178.432C197.284 179.016 196.392 178.542 196.392 177.375C196.392 176.207 197.284 174.787 198.383 174.203Z" fill="#FE9F43"/>
<path d="M204.971 170.707C206.071 170.124 206.963 170.596 206.963 171.764C206.963 172.932 206.072 174.351 204.971 174.936C203.872 175.519 202.979 175.046 202.979 173.878C202.981 172.711 203.872 171.29 204.971 170.707Z" fill="#FE9F43"/>
<path d="M105.205 290.819L273.472 201.5C274.779 200.807 276.895 200.807 278.201 201.5L286.807 206.068C288.113 206.761 288.113 207.885 286.807 208.578L118.514 297.883C117.208 298.576 115.091 298.576 113.786 297.883L105.205 293.329C103.899 292.635 103.899 291.512 105.205 290.819Z" fill="#37474F"/>
<path d="M127.386 302.594L295.651 213.273C296.957 212.581 299.074 212.581 300.38 213.273L353.317 241.374C354.623 242.067 354.623 243.192 353.317 243.884L185.244 333.082C183.938 333.775 181.819 333.778 180.511 333.089L127.392 305.098C126.082 304.408 126.08 303.287 127.386 302.594Z" fill="#263238"/>
<path d="M278.22 253.457L283.488 250.661C283.712 250.541 283.699 250.342 283.459 250.214L277.366 246.98C277.126 246.853 276.749 246.846 276.526 246.964L271.257 249.761C271.033 249.88 271.046 250.08 271.287 250.207L277.379 253.441C277.62 253.568 277.996 253.575 278.22 253.457ZM267.823 242.345L262.554 245.141C262.331 245.26 262.345 245.46 262.585 245.588L268.677 248.822C268.918 248.949 269.294 248.956 269.518 248.838L274.786 246.04C275.01 245.922 274.997 245.722 274.756 245.595L268.664 242.361C268.424 242.233 268.047 242.226 267.823 242.345ZM250.802 251.381L241.886 256.114C241.662 256.232 241.675 256.432 241.916 256.559L248.008 259.793C248.248 259.921 248.625 259.928 248.849 259.809L257.765 255.076C257.989 254.958 257.976 254.758 257.735 254.631L251.644 251.397C251.403 251.268 251.026 251.261 250.802 251.381ZM260.124 246.432L254.855 249.229C254.632 249.348 254.644 249.547 254.885 249.675L260.978 252.909C261.218 253.036 261.594 253.043 261.817 252.925L267.086 250.129C267.31 250.009 267.297 249.81 267.057 249.683L260.965 246.449C260.724 246.321 260.348 246.314 260.124 246.432ZM239.455 257.404L234.188 260.2C233.964 260.319 233.977 260.518 234.217 260.646L240.309 263.879C240.55 264.007 240.925 264.014 241.149 263.896L246.418 261.098C246.642 260.98 246.629 260.78 246.387 260.653L240.296 257.419C240.055 257.292 239.678 257.285 239.455 257.404ZM231.755 261.491L226.487 264.287C226.263 264.406 226.276 264.605 226.516 264.733L232.609 267.967C232.849 268.094 233.226 268.101 233.449 267.983L238.718 265.187C238.942 265.067 238.929 264.868 238.689 264.741L232.595 261.507C232.355 261.38 231.98 261.373 231.755 261.491ZM255.717 274.641L260.986 271.844C261.209 271.726 261.197 271.526 260.956 271.398L254.864 268.165C254.623 268.037 254.247 268.03 254.023 268.148L248.754 270.945C248.53 271.064 248.543 271.263 248.783 271.391L254.876 274.625C255.117 274.753 255.494 274.76 255.717 274.641ZM248.018 278.729L253.286 275.933C253.509 275.813 253.496 275.614 253.255 275.486L247.164 272.253C246.924 272.125 246.547 272.118 246.323 272.237L241.055 275.034C240.831 275.152 240.844 275.353 241.085 275.48L247.177 278.714C247.418 278.84 247.794 278.847 248.018 278.729ZM240.318 282.816L245.587 280.019C245.811 279.9 245.798 279.701 245.557 279.573L239.465 276.339C239.225 276.212 238.848 276.205 238.624 276.323L233.357 279.119C233.133 279.239 233.146 279.437 233.387 279.565L239.478 282.799C239.717 282.927 240.094 282.934 240.318 282.816ZM232.617 286.903L237.886 284.107C238.11 283.989 238.097 283.789 237.856 283.661L231.764 280.427C231.524 280.3 231.147 280.293 230.924 280.411L225.656 283.208C225.432 283.326 225.445 283.526 225.685 283.653L231.778 286.886C232.018 287.015 232.393 287.023 232.617 286.903ZM270.521 257.544L275.788 254.747C276.012 254.629 275.999 254.429 275.759 254.301L269.667 251.067C269.426 250.94 269.051 250.933 268.827 251.051L263.558 253.848C263.334 253.967 263.347 254.167 263.587 254.294L269.68 257.528C269.92 257.657 270.297 257.663 270.521 257.544ZM263.418 270.554L275.17 264.315C275.394 264.196 275.38 263.997 275.14 263.869L260.345 256.016C260.105 255.889 259.728 255.882 259.505 256L253.425 259.227C253.201 259.346 253.215 259.545 253.455 259.674L261.288 263.831C261.528 263.959 261.541 264.159 261.317 264.277L256.455 266.858C256.231 266.977 256.244 267.177 256.484 267.304L262.576 270.538C262.818 270.666 263.194 270.673 263.418 270.554ZM224.055 265.578L218.786 268.375C218.562 268.494 218.575 268.694 218.817 268.821L224.909 272.055C225.149 272.183 225.525 272.19 225.75 272.071L231.019 269.275C231.242 269.156 231.229 268.957 230.988 268.828L224.897 265.594C224.656 265.467 224.279 265.46 224.055 265.578ZM216.355 269.666L211.086 272.462C210.862 272.581 210.876 272.781 211.116 272.908L217.207 276.142C217.447 276.27 217.824 276.277 218.048 276.158L223.316 273.361C223.539 273.243 223.526 273.042 223.286 272.915L217.194 269.682C216.955 269.554 216.579 269.547 216.355 269.666ZM177.878 315.499C178.118 315.627 178.493 315.634 178.718 315.515L183.987 312.718C184.211 312.6 184.198 312.399 183.958 312.271L177.866 309.037C177.625 308.91 177.249 308.903 177.025 309.021L171.757 311.817C171.533 311.937 171.546 312.136 171.786 312.264L177.878 315.499ZM154.754 302.365L149.486 305.161C149.262 305.279 149.275 305.479 149.515 305.607L155.607 308.841C155.848 308.968 156.224 308.976 156.448 308.857L161.717 306.061C161.941 305.942 161.928 305.742 161.686 305.615L155.594 302.382C155.355 302.253 154.979 302.245 154.754 302.365ZM167.148 311.955C167.388 312.083 167.764 312.09 167.988 311.971L173.257 309.174C173.481 309.055 173.467 308.856 173.227 308.728L167.136 305.494C166.895 305.367 166.52 305.36 166.295 305.478L161.027 308.274C160.803 308.394 160.816 308.593 161.056 308.72L167.148 311.955ZM191.473 317.983L196.742 315.187C196.966 315.067 196.953 314.869 196.712 314.741L190.62 311.507C190.38 311.38 190.003 311.373 189.779 311.492L184.511 314.288C184.289 314.407 184.301 314.607 184.542 314.734L190.634 317.967C190.873 318.095 191.249 318.103 191.473 317.983ZM182.932 322.054C183.173 322.182 183.549 322.189 183.772 322.07L189.041 319.273C189.265 319.155 189.252 318.955 189.012 318.827L182.919 315.594C182.679 315.466 182.303 315.459 182.078 315.577L176.81 318.375C176.586 318.493 176.599 318.693 176.84 318.82L182.932 322.054ZM162.455 298.278L157.186 301.074C156.962 301.193 156.976 301.392 157.217 301.519L163.308 304.753C163.548 304.881 163.925 304.888 164.149 304.769L169.417 301.972C169.641 301.854 169.627 301.654 169.387 301.526L163.295 298.293C163.055 298.165 162.679 298.158 162.455 298.278ZM200.955 277.84L195.686 280.636C195.463 280.756 195.475 280.955 195.716 281.082L201.809 284.316C202.049 284.443 202.425 284.45 202.65 284.332L207.918 281.535C208.142 281.416 208.129 281.217 207.889 281.089L201.797 277.855C201.554 277.729 201.179 277.722 200.955 277.84ZM170.155 294.19L164.886 296.986C164.662 297.105 164.675 297.305 164.915 297.432L171.008 300.666C171.248 300.794 171.625 300.802 171.849 300.682L177.116 297.886C177.34 297.767 177.327 297.568 177.086 297.44L170.995 294.206C170.755 294.078 170.379 294.071 170.155 294.19ZM208.654 273.753L203.387 276.55C203.163 276.668 203.176 276.868 203.417 276.996L209.509 280.23C209.75 280.357 210.125 280.365 210.35 280.246L215.619 277.45C215.843 277.33 215.83 277.131 215.59 277.004L209.497 273.77C209.255 273.641 208.878 273.634 208.654 273.753ZM193.255 281.928L187.986 284.725C187.762 284.843 187.775 285.043 188.016 285.17L194.108 288.403C194.348 288.531 194.725 288.539 194.949 288.419L200.217 285.623C200.44 285.505 200.427 285.305 200.187 285.177L194.095 281.943C193.856 281.816 193.479 281.809 193.255 281.928ZM185.555 286.015L180.288 288.812C180.064 288.93 180.077 289.13 180.317 289.258L186.409 292.491C186.65 292.619 187.026 292.626 187.25 292.508L192.519 289.711C192.742 289.592 192.729 289.392 192.488 289.265L186.397 286.031C186.155 285.903 185.778 285.896 185.555 286.015ZM177.856 290.103L172.587 292.899C172.363 293.019 172.376 293.218 172.616 293.346L178.709 296.58C178.949 296.707 179.326 296.714 179.549 296.596L184.818 293.799C185.042 293.68 185.029 293.479 184.788 293.352L178.695 290.119C178.455 289.991 178.08 289.983 177.856 290.103ZM217.218 295.078L222.487 292.281C222.711 292.162 222.698 291.961 222.457 291.835L216.365 288.601C216.125 288.473 215.748 288.466 215.524 288.585L210.255 291.381C210.031 291.501 210.045 291.699 210.286 291.828L216.378 295.062C216.617 295.19 216.994 295.197 217.218 295.078ZM284.844 233.31L279.577 236.107C279.353 236.225 279.367 236.425 279.606 236.553L285.698 239.786C285.939 239.914 286.315 239.921 286.539 239.803L291.808 237.006C292.032 236.887 292.018 236.688 291.779 236.56L285.686 233.326C285.445 233.198 285.068 233.191 284.844 233.31ZM275.523 238.257L270.254 241.055C270.03 241.173 270.043 241.373 270.284 241.5L276.376 244.734C276.616 244.862 276.993 244.869 277.217 244.75L282.486 241.954C282.71 241.835 282.696 241.635 282.456 241.507L276.364 238.273C276.124 238.146 275.747 238.139 275.523 238.257ZM292.544 229.222L287.276 232.019C287.052 232.137 287.066 232.337 287.306 232.465L293.398 235.699C293.638 235.827 294.015 235.834 294.238 235.715L299.507 232.919C299.73 232.8 299.717 232.6 299.477 232.472L293.386 229.238C293.145 229.111 292.769 229.104 292.544 229.222ZM252.688 267.01L257.957 264.214C258.181 264.094 258.168 263.896 257.927 263.767L251.835 260.533C251.595 260.406 251.218 260.399 250.995 260.517L245.726 263.314C245.502 263.433 245.515 263.633 245.755 263.76L251.847 266.994C252.089 267.121 252.464 267.128 252.688 267.01ZM301.085 225.151C300.844 225.024 300.468 225.017 300.244 225.135L294.976 227.931C294.752 228.051 294.765 228.25 295.005 228.377L301.098 231.611C301.338 231.738 301.715 231.745 301.937 231.627L307.206 228.83C307.43 228.711 307.417 228.512 307.177 228.384L301.085 225.151ZM224.918 290.991L230.185 288.194C230.409 288.075 230.396 287.876 230.155 287.749L224.063 284.515C223.822 284.387 223.447 284.38 223.222 284.499L217.953 287.296C217.729 287.414 217.742 287.614 217.982 287.742L224.073 290.975C224.317 291.103 224.694 291.109 224.918 290.991ZM319.344 240.867L324.613 238.071C324.837 237.952 324.824 237.751 324.583 237.624L318.491 234.391C318.251 234.264 317.874 234.256 317.65 234.375L312.382 237.171C312.159 237.29 312.172 237.489 312.412 237.618L318.504 240.852C318.744 240.978 319.12 240.985 319.344 240.867ZM302.942 240.335L308.211 237.538C308.435 237.419 308.422 237.219 308.18 237.092L302.088 233.858C301.848 233.73 301.471 233.723 301.248 233.842L295.979 236.638C295.756 236.757 295.769 236.956 296.009 237.085L302.101 240.319C302.341 240.446 302.718 240.453 302.942 240.335ZM309.788 229.771C309.548 229.643 309.171 229.636 308.947 229.755L303.678 232.552C303.455 232.67 303.467 232.87 303.709 232.997L309.801 236.231C310.041 236.359 310.418 236.366 310.641 236.247L315.91 233.451C316.133 233.332 316.12 233.133 315.88 233.005L309.788 229.771ZM311.409 228.91L326.204 236.763C326.444 236.891 326.82 236.898 327.045 236.78L332.313 233.983C332.536 233.864 332.523 233.665 332.283 233.537L317.488 225.683C317.247 225.556 316.871 225.549 316.647 225.667L311.379 228.463C311.155 228.583 311.168 228.783 311.409 228.91ZM293.548 237.93L288.28 240.726C288.056 240.845 288.069 241.045 288.309 241.172L294.402 244.405C294.642 244.532 295.019 244.54 295.242 244.421L300.51 241.625C300.734 241.505 300.721 241.307 300.481 241.178L294.388 237.944C294.147 237.818 293.771 237.811 293.548 237.93ZM235.595 268.692L230.326 271.489C230.102 271.607 230.116 271.807 230.356 271.935L236.448 275.168C236.688 275.296 237.065 275.303 237.289 275.185L242.558 272.388C242.782 272.269 242.767 272.07 242.527 271.943L236.436 268.709C236.195 268.58 235.819 268.573 235.595 268.692ZM310.804 244.938C311.045 245.066 311.421 245.073 311.645 244.954L316.914 242.158C317.137 242.038 317.125 241.84 316.884 241.712L310.791 238.478C310.551 238.351 310.174 238.344 309.952 238.462L304.683 241.259C304.459 241.378 304.472 241.578 304.712 241.705L310.804 244.938ZM243.295 264.605L238.026 267.402C237.802 267.521 237.816 267.72 238.057 267.847L244.148 271.081C244.388 271.209 244.764 271.216 244.989 271.097L250.257 268.3C250.481 268.182 250.468 267.982 250.228 267.854L244.136 264.62C243.894 264.493 243.519 264.486 243.295 264.605ZM185.577 311.412C185.817 311.539 186.194 311.546 186.418 311.428L191.687 308.632C191.91 308.512 191.898 308.314 191.656 308.186L185.564 304.952C185.324 304.825 184.948 304.818 184.724 304.936L179.455 307.733C179.232 307.852 179.245 308.051 179.485 308.179L185.577 311.412ZM173.994 301.391L168.725 304.188C168.502 304.307 168.515 304.506 168.756 304.634L174.848 307.868C175.089 307.995 175.465 308.002 175.689 307.884L180.958 305.088C181.182 304.968 181.169 304.769 180.929 304.641L174.836 301.407C174.595 301.279 174.218 301.272 173.994 301.391ZM194.118 307.34L199.387 304.543C199.611 304.425 199.597 304.225 199.357 304.098L193.265 300.865C193.025 300.737 192.648 300.729 192.424 300.849L187.155 303.645C186.932 303.763 186.944 303.963 187.186 304.091L193.278 307.325C193.517 307.451 193.894 307.459 194.118 307.34ZM201.817 303.253L207.086 300.457C207.31 300.338 207.297 300.139 207.057 300.011L200.965 296.778C200.725 296.65 200.349 296.643 200.124 296.762L194.856 299.558C194.632 299.677 194.645 299.876 194.887 300.003L200.979 303.237C201.217 303.365 201.594 303.372 201.817 303.253ZM209.517 299.165L214.786 296.369C215.01 296.249 214.997 296.051 214.757 295.922L208.664 292.688C208.424 292.561 208.048 292.554 207.823 292.673L202.556 295.469C202.332 295.588 202.345 295.789 202.585 295.915L208.676 299.149C208.918 299.278 209.293 299.285 209.517 299.165ZM181.694 297.304L176.426 300.1C176.202 300.218 176.215 300.418 176.456 300.547L182.548 303.779C182.788 303.907 183.164 303.914 183.389 303.796L188.658 300.999C188.882 300.881 188.868 300.68 188.628 300.553L182.536 297.319C182.295 297.192 181.919 297.185 181.694 297.304ZM189.395 293.216L184.126 296.013C183.902 296.132 183.915 296.331 184.155 296.458L190.248 299.692C190.488 299.82 190.865 299.827 191.089 299.708L196.357 296.911C196.58 296.793 196.568 296.593 196.327 296.465L190.235 293.231C189.994 293.105 189.619 293.098 189.395 293.216ZM220.195 276.867L214.926 279.663C214.702 279.783 214.715 279.982 214.956 280.11L221.049 283.343C221.289 283.471 221.665 283.478 221.889 283.359L227.157 280.563C227.381 280.444 227.368 280.244 227.128 280.116L221.036 276.883C220.794 276.755 220.419 276.748 220.195 276.867ZM212.495 280.955L207.226 283.752C207.002 283.87 207.015 284.071 207.256 284.197L213.347 287.431C213.587 287.559 213.964 287.566 214.188 287.447L219.457 284.651C219.68 284.532 219.667 284.333 219.427 284.204L213.335 280.971C213.095 280.842 212.719 280.835 212.495 280.955ZM227.894 272.779L222.625 275.575C222.402 275.695 222.415 275.893 222.655 276.021L228.746 279.255C228.986 279.382 229.363 279.389 229.587 279.271L234.856 276.474C235.08 276.355 235.067 276.155 234.825 276.028L228.733 272.794C228.495 272.668 228.118 272.66 227.894 272.779ZM197.095 289.129L191.826 291.926C191.602 292.045 191.615 292.245 191.855 292.372L197.947 295.606C198.188 295.733 198.563 295.74 198.788 295.622L204.057 292.826C204.281 292.706 204.268 292.508 204.028 292.38L197.935 289.147C197.695 289.018 197.318 289.01 197.095 289.129ZM204.794 285.042L199.525 287.838C199.301 287.957 199.315 288.156 199.556 288.284L205.648 291.518C205.888 291.645 206.264 291.652 206.488 291.534L211.756 288.737C211.98 288.618 211.966 288.418 211.726 288.291L205.634 285.057C205.395 284.929 205.018 284.923 204.794 285.042ZM199.173 313.896L204.44 311.099C204.664 310.98 204.651 310.78 204.411 310.653L198.319 307.419C198.078 307.291 197.703 307.284 197.478 307.403L192.21 310.199C191.986 310.319 191.999 310.518 192.24 310.646L198.331 313.88C198.573 314.007 198.949 314.014 199.173 313.896ZM153.988 309.701L147.896 306.467C147.655 306.34 147.28 306.333 147.055 306.451L141.787 309.248C141.563 309.367 141.576 309.567 141.816 309.694L147.909 312.928C148.149 313.055 148.526 313.062 148.75 312.944L154.017 310.148C154.241 310.028 154.227 309.83 153.988 309.701ZM165.527 312.815L159.435 309.582C159.194 309.454 158.819 309.446 158.594 309.566L150.489 313.868C150.265 313.986 150.278 314.186 150.52 314.313L156.612 317.546C156.852 317.674 157.228 317.682 157.453 317.562L165.558 313.26C165.78 313.143 165.767 312.943 165.527 312.815ZM144.64 303.449L138.549 300.215C138.309 300.088 137.933 300.08 137.708 300.199L131.224 303.641C131 303.759 131.013 303.96 131.255 304.087L137.346 307.321C137.586 307.448 137.963 307.455 138.187 307.337L144.671 303.895C144.895 303.777 144.881 303.577 144.64 303.449ZM149.612 300.811C149.852 300.938 150.228 300.945 150.452 300.827L155.72 298.03C155.944 297.911 155.931 297.711 155.69 297.584L149.598 294.35C149.358 294.222 148.981 294.215 148.757 294.334L143.489 297.13C143.265 297.249 143.279 297.448 143.519 297.576L149.612 300.811ZM176.256 316.36L170.164 313.126C169.923 312.998 169.547 312.991 169.323 313.111L159.191 318.488C158.967 318.608 158.98 318.806 159.222 318.934L165.313 322.168C165.553 322.295 165.929 322.302 166.154 322.184L176.285 316.805C176.51 316.687 176.496 316.487 176.256 316.36ZM181.312 322.915L175.22 319.682C174.98 319.554 174.604 319.546 174.38 319.666L167.896 323.107C167.672 323.226 167.685 323.427 167.925 323.553L174.017 326.787C174.258 326.915 174.634 326.922 174.858 326.803L181.342 323.361C181.565 323.243 181.551 323.042 181.312 322.915ZM206.862 270.421C207.103 270.548 207.478 270.555 207.702 270.437L212.97 267.639C213.194 267.521 213.181 267.321 212.941 267.194L206.848 263.96C206.608 263.832 206.231 263.825 206.007 263.944L200.74 266.74C200.516 266.859 200.529 267.058 200.769 267.186L206.862 270.421ZM191.462 278.596C191.702 278.724 192.079 278.731 192.303 278.612L197.572 275.815C197.796 275.697 197.782 275.497 197.541 275.369L191.449 272.135C191.209 272.008 190.833 272.001 190.608 272.119L185.339 274.915C185.115 275.035 185.128 275.234 185.369 275.362L191.462 278.596ZM157.312 296.723C157.552 296.851 157.929 296.859 158.153 296.739L163.422 293.943C163.645 293.825 163.632 293.625 163.392 293.497L157.3 290.264C157.06 290.136 156.684 290.129 156.459 290.248L151.19 293.044C150.966 293.162 150.979 293.362 151.22 293.489L157.312 296.723ZM199.162 274.508C199.402 274.635 199.779 274.643 200.003 274.524L205.271 271.728C205.495 271.609 205.481 271.409 205.241 271.282L199.15 268.048C198.909 267.921 198.534 267.914 198.309 268.032L193.041 270.828C192.817 270.947 192.83 271.146 193.071 271.274L199.162 274.508ZM183.762 282.683C184.003 282.811 184.379 282.818 184.603 282.698L189.871 279.902C190.095 279.784 190.082 279.583 189.841 279.456L183.75 276.222C183.51 276.094 183.133 276.087 182.909 276.206L177.641 279.002C177.417 279.121 177.43 279.32 177.671 279.449L183.762 282.683ZM185.543 323.441C185.303 323.313 184.926 323.305 184.703 323.425L176.598 327.727C176.374 327.845 176.387 328.045 176.627 328.173L182.719 331.407C182.96 331.534 183.335 331.541 183.56 331.423L191.665 327.12C191.889 327.002 191.876 326.802 191.635 326.675L185.543 323.441ZM172.712 288.549C172.953 288.676 173.328 288.683 173.553 288.565L178.822 285.769C179.046 285.649 179.033 285.45 178.793 285.322L172.7 282.088C172.46 281.961 172.083 281.953 171.86 282.072L166.591 284.869C166.367 284.988 166.38 285.187 166.62 285.315L172.712 288.549ZM165.012 292.636C165.252 292.764 165.629 292.771 165.852 292.652L171.12 289.855C171.344 289.737 171.331 289.537 171.091 289.409L164.998 286.175C164.758 286.048 164.381 286.041 164.158 286.159L158.889 288.955C158.665 289.075 158.678 289.274 158.919 289.401L165.012 292.636ZM328.197 247.717C327.957 247.59 327.58 247.583 327.356 247.701L314.388 254.585C314.165 254.704 314.178 254.904 314.418 255.032L320.51 258.266C320.75 258.394 321.126 258.401 321.351 258.282L334.32 251.398C334.543 251.279 334.53 251.079 334.29 250.952L328.197 247.717ZM311.176 256.752C310.936 256.625 310.56 256.618 310.335 256.736L305.066 259.532C304.842 259.652 304.856 259.85 305.097 259.979L311.188 263.213C311.428 263.34 311.805 263.347 312.029 263.228L317.296 260.432C317.52 260.313 317.507 260.114 317.266 259.986L311.176 256.752ZM206.873 309.808L212.142 307.012C212.366 306.893 212.353 306.694 212.112 306.566L206.019 303.332C205.779 303.204 205.404 303.197 205.179 303.316L199.911 306.113C199.687 306.231 199.7 306.431 199.94 306.559L206.033 309.792C206.273 309.92 206.65 309.927 206.873 309.808ZM295.775 264.927C295.535 264.799 295.158 264.792 294.934 264.911L289.666 267.707C289.442 267.826 289.455 268.026 289.696 268.154L295.788 271.387C296.029 271.515 296.405 271.522 296.629 271.403L301.898 268.606C302.122 268.488 302.109 268.288 301.869 268.161L295.775 264.927ZM335.896 243.63C335.656 243.502 335.279 243.495 335.056 243.614L329.787 246.411C329.564 246.529 329.576 246.729 329.817 246.857L335.91 250.091C336.15 250.218 336.527 250.225 336.75 250.107L342.019 247.31C342.243 247.191 342.23 246.992 341.99 246.865L335.896 243.63ZM349.688 242.776L334.893 234.922C334.653 234.795 334.276 234.788 334.052 234.906L328.783 237.703C328.559 237.822 328.572 238.021 328.814 238.149L343.608 246.003C343.848 246.131 344.225 246.138 344.449 246.019L349.718 243.222C349.942 243.104 349.929 242.904 349.688 242.776ZM267.001 280.201C266.761 280.073 266.384 280.066 266.161 280.184L259.677 283.626C259.453 283.745 259.466 283.944 259.707 284.073L265.799 287.307C266.039 287.434 266.416 287.441 266.64 287.323L273.124 283.881C273.348 283.763 273.335 283.562 273.094 283.435L267.001 280.201ZM286.454 269.874C286.214 269.747 285.837 269.74 285.613 269.858L277.507 274.161C277.283 274.28 277.298 274.48 277.537 274.607L283.629 277.841C283.869 277.969 284.245 277.976 284.47 277.857L292.575 273.555C292.798 273.437 292.785 273.237 292.545 273.109L286.454 269.874ZM249.17 289.666C248.93 289.539 248.553 289.532 248.329 289.65L204.966 312.669C204.742 312.787 204.755 312.987 204.995 313.115L211.087 316.349C211.328 316.476 211.703 316.484 211.928 316.365L255.292 293.347C255.515 293.227 255.502 293.028 255.262 292.9L249.17 289.666ZM203.376 313.975C203.135 313.848 202.759 313.841 202.535 313.959L196.051 317.401C195.827 317.519 195.84 317.719 196.081 317.847L202.173 321.081C202.414 321.209 202.79 321.216 203.014 321.096L209.499 317.655C209.721 317.536 209.709 317.336 209.468 317.209L203.376 313.975ZM258.086 284.933C257.846 284.806 257.47 284.799 257.245 284.917L250.761 288.359C250.537 288.478 250.55 288.677 250.79 288.806L256.883 292.039C257.123 292.167 257.5 292.174 257.723 292.055L264.208 288.612C264.432 288.494 264.419 288.294 264.177 288.166L258.086 284.933ZM194.46 318.708C194.219 318.58 193.844 318.573 193.619 318.692L187.134 322.134C186.911 322.253 186.925 322.452 187.165 322.579L193.256 325.813C193.496 325.941 193.872 325.948 194.097 325.829L200.581 322.388C200.805 322.268 200.792 322.069 200.552 321.941L194.46 318.708ZM275.917 275.469C275.677 275.341 275.301 275.333 275.076 275.453L268.592 278.894C268.369 279.013 268.381 279.213 268.623 279.34L274.715 282.574C274.955 282.701 275.332 282.709 275.555 282.59L282.039 279.148C282.263 279.03 282.25 278.83 282.008 278.703L275.917 275.469ZM303.475 260.839C303.235 260.712 302.858 260.705 302.634 260.823L297.366 263.62C297.142 263.739 297.156 263.939 297.397 264.066L303.488 267.3C303.728 267.428 304.105 267.435 304.329 267.316L309.598 264.52C309.822 264.401 309.807 264.202 309.568 264.073L303.475 260.839ZM320.346 249.573L325.614 246.777C325.838 246.658 325.825 246.458 325.585 246.331L319.492 243.097C319.252 242.969 318.875 242.962 318.652 243.081L313.383 245.877C313.16 245.995 313.172 246.195 313.413 246.324L319.506 249.557C319.747 249.686 320.124 249.693 320.346 249.573ZM285.92 249.37L291.188 246.574C291.412 246.455 291.399 246.255 291.158 246.127L285.066 242.894C284.826 242.766 284.45 242.758 284.225 242.878L278.956 245.674C278.732 245.793 278.746 245.992 278.987 246.12L285.078 249.353C285.32 249.481 285.696 249.489 285.92 249.37ZM268.473 277.109L283.874 268.935C284.097 268.816 284.084 268.616 283.843 268.489L277.751 265.255C277.51 265.127 277.135 265.12 276.91 265.239L261.509 273.413C261.286 273.532 261.299 273.732 261.539 273.859L267.63 277.092C267.874 277.222 268.249 277.229 268.473 277.109ZM311.807 253.646C312.047 253.773 312.424 253.78 312.647 253.662L317.916 250.866C318.139 250.746 318.126 250.547 317.886 250.419L311.794 247.185C311.554 247.057 311.177 247.05 310.954 247.169L305.685 249.966C305.461 250.085 305.476 250.284 305.715 250.412L311.807 253.646ZM303.945 249.041L309.213 246.244C309.436 246.126 309.424 245.926 309.183 245.798L303.092 242.565C302.851 242.437 302.475 242.43 302.251 242.549L296.982 245.345C296.758 245.464 296.771 245.663 297.011 245.79L303.104 249.024C303.344 249.154 303.721 249.16 303.945 249.041ZM260.773 281.197L266.042 278.4C266.266 278.282 266.253 278.082 266.013 277.955L259.921 274.721C259.68 274.593 259.304 274.586 259.08 274.705L253.811 277.502C253.587 277.62 253.6 277.82 253.841 277.948L259.934 281.181C260.173 281.309 260.55 281.316 260.773 281.197ZM294.785 262.681C295.025 262.808 295.402 262.815 295.626 262.697L300.893 259.9C301.117 259.781 301.104 259.581 300.864 259.454L294.772 256.22C294.531 256.092 294.155 256.085 293.931 256.204L288.662 259C288.438 259.12 288.451 259.318 288.691 259.446L294.785 262.681ZM222.274 301.634L227.542 298.837C227.766 298.718 227.752 298.518 227.512 298.391L221.42 295.157C221.18 295.03 220.804 295.023 220.579 295.141L215.311 297.938C215.087 298.057 215.101 298.256 215.341 298.384L221.433 301.618C221.673 301.745 222.049 301.752 222.274 301.634ZM229.974 297.547L235.242 294.75C235.466 294.631 235.453 294.432 235.212 294.305L229.12 291.071C228.879 290.943 228.504 290.936 228.28 291.056L223.011 293.852C222.787 293.97 222.8 294.17 223.04 294.298L229.133 297.532C229.373 297.658 229.75 297.665 229.974 297.547ZM214.573 305.721L219.842 302.925C220.066 302.807 220.053 302.607 219.813 302.479L213.72 299.245C213.48 299.118 213.103 299.11 212.879 299.229L207.612 302.025C207.388 302.144 207.401 302.344 207.641 302.471L213.733 305.705C213.974 305.833 214.349 305.84 214.573 305.721ZM245.373 289.372L250.642 286.576C250.866 286.456 250.853 286.257 250.612 286.129L244.52 282.895C244.28 282.768 243.903 282.761 243.679 282.879L238.41 285.676C238.186 285.795 238.2 285.995 238.44 286.122L244.532 289.356C244.773 289.484 245.149 289.491 245.373 289.372ZM237.673 293.458L242.941 290.662C243.165 290.544 243.152 290.344 242.912 290.216L236.819 286.983C236.579 286.855 236.202 286.848 235.978 286.966L230.71 289.763C230.486 289.882 230.499 290.082 230.74 290.209L236.832 293.443C237.073 293.571 237.449 293.578 237.673 293.458ZM253.073 285.284L258.342 282.488C258.565 282.369 258.552 282.169 258.312 282.042L252.22 278.808C251.98 278.68 251.603 278.672 251.379 278.792L246.11 281.588C245.886 281.707 245.9 281.906 246.141 282.034L252.232 285.268C252.473 285.396 252.849 285.403 253.073 285.284ZM288.301 224.819C288.541 224.946 288.918 224.953 289.141 224.835L294.41 222.038C294.634 221.919 294.621 221.72 294.381 221.592L292.759 220.731C292.519 220.603 292.142 220.596 291.918 220.715L286.651 223.512C286.428 223.63 286.44 223.83 286.681 223.957L288.301 224.819ZM250.415 247.301C250.654 247.429 251.031 247.437 251.256 247.318L256.524 244.521C256.748 244.403 256.735 244.203 256.495 244.076L250.404 240.842C250.164 240.713 249.787 240.706 249.563 240.826L244.295 243.623C244.071 243.741 244.084 243.941 244.325 244.069L250.415 247.301ZM265.815 239.127C266.055 239.254 266.431 239.261 266.655 239.143L271.924 236.347C272.148 236.227 272.135 236.029 271.894 235.9L265.802 232.666C265.562 232.539 265.185 232.532 264.961 232.65L259.692 235.447C259.47 235.566 259.482 235.766 259.723 235.893L265.815 239.127ZM241.013 252.293C241.253 252.421 241.628 252.428 241.853 252.309L247.122 249.513C247.346 249.395 247.333 249.195 247.092 249.067L240.999 245.834C240.759 245.706 240.382 245.699 240.159 245.819L234.89 248.615C234.666 248.733 234.679 248.933 234.919 249.061L241.013 252.293ZM258.114 243.215C258.355 243.343 258.731 243.35 258.955 243.231L264.223 240.434C264.446 240.316 264.434 240.116 264.192 239.988L258.1 236.754C257.86 236.627 257.484 236.62 257.26 236.738L251.992 239.535C251.768 239.654 251.781 239.853 252.021 239.98L258.114 243.215ZM225.612 260.468C225.852 260.595 226.228 260.602 226.453 260.483L231.721 257.687C231.945 257.568 231.932 257.369 231.691 257.24L225.599 254.006C225.359 253.879 224.982 253.872 224.758 253.99L219.489 256.786C219.265 256.906 219.28 257.106 219.52 257.233L225.612 260.468ZM233.312 256.381C233.552 256.508 233.929 256.515 234.153 256.397L239.422 253.6C239.645 253.481 239.632 253.281 239.391 253.154L233.3 249.92C233.06 249.792 232.683 249.785 232.459 249.904L227.191 252.7C226.967 252.819 226.98 253.018 227.221 253.147L233.312 256.381ZM272.9 232.993C273.14 233.121 273.517 233.128 273.741 233.01L279.01 230.212C279.234 230.094 279.221 229.894 278.98 229.767L277.359 228.906C277.118 228.779 276.743 228.772 276.519 228.89L271.25 231.687C271.026 231.806 271.039 232.005 271.28 232.133L272.9 232.993ZM296 220.731C296.24 220.858 296.617 220.866 296.841 220.747L302.11 217.951C302.334 217.831 302.321 217.632 302.079 217.505L300.458 216.643C300.218 216.516 299.841 216.509 299.617 216.628L294.348 219.424C294.124 219.543 294.137 219.744 294.378 219.871L296 220.731ZM308.797 227.524C309.038 227.651 309.414 227.658 309.638 227.54L314.907 224.744C315.131 224.624 315.118 224.425 314.878 224.298L308.785 221.064C308.545 220.936 308.168 220.929 307.945 221.048L302.676 223.845C302.452 223.963 302.465 224.163 302.705 224.291L308.797 227.524ZM328.047 245.486L333.316 242.689C333.54 242.571 333.527 242.371 333.287 242.243L327.194 239.009C326.954 238.882 326.577 238.875 326.353 238.993L321.086 241.789C320.862 241.909 320.875 242.108 321.116 242.235L327.207 245.469C327.447 245.599 327.823 245.605 328.047 245.486ZM280.601 228.905C280.841 229.033 281.217 229.041 281.442 228.921L286.711 226.125C286.934 226.007 286.921 225.807 286.681 225.679L285.059 224.819C284.819 224.691 284.442 224.684 284.219 224.803L278.95 227.599C278.727 227.718 278.739 227.917 278.98 228.045L280.601 228.905ZM217.912 264.555C218.153 264.683 218.529 264.69 218.753 264.571L224.022 261.775C224.246 261.656 224.233 261.457 223.993 261.329L217.9 258.095C217.66 257.968 217.283 257.961 217.06 258.079L211.791 260.877C211.568 260.995 211.58 261.195 211.821 261.322L217.912 264.555Z" fill="#455A64"/>
<path d="M252.059 307.05L304.049 279.452C305.616 278.62 308.156 278.62 309.723 279.452L339.536 295.277C341.103 296.108 341.103 297.456 339.536 298.289L287.545 325.887C285.978 326.718 283.438 326.718 281.871 325.887L252.059 310.062C250.492 309.229 250.492 307.881 252.059 307.05Z" fill="#263238"/>
<path d="M347.669 174.333C347.669 174.323 347.68 174.323 347.68 174.323L347.614 174.283L338.738 169.583C338.225 169.372 337.472 169.572 336.565 170.205C328.305 176.017 317.205 177.818 308.129 175.164C307.549 174.667 306.992 174.142 306.468 173.58C306.413 173.52 306.358 173.46 306.304 173.41H306.293C305.987 173.099 305.681 172.868 305.376 172.717L305.223 172.637L296.336 167.946C295.32 167.504 294.403 167.946 293.792 169.332C285.209 188.94 266.918 208.809 254.72 213.779C253.814 214.15 252.973 214.722 252.317 215.425C251.455 216.339 250.92 217.463 250.963 218.638L252.722 262.663C252.722 275.384 258.564 288.818 270.477 295.354L279.67 300.235L279.834 300.315C284.398 302.715 289.826 304.12 296.126 304.12C297.404 304.12 298.703 304.07 300.047 303.95C302.296 303.749 305.419 302.253 306.992 300.757C333.647 275.446 346.609 241.19 346.609 222.234L348.368 176.181C348.411 175.187 348.149 174.574 347.669 174.333Z" fill="#FE9F43"/>
<path d="M348.368 176.18L346.61 222.233C346.61 241.189 333.648 275.445 306.992 300.756C305.419 302.252 302.296 303.748 300.047 303.949C298.704 304.069 297.404 304.12 296.127 304.12C289.826 304.12 284.398 302.714 279.834 300.315L279.67 300.234L279.353 300.053C267.44 293.517 261.598 280.084 261.598 267.363L259.839 223.338C259.796 222.163 260.331 221.039 261.193 220.125C261.849 219.422 262.69 218.85 263.596 218.478C275.794 213.509 294.085 193.64 302.668 174.031C303.279 172.646 304.207 172.194 305.223 172.636L305.376 172.716C305.682 172.867 305.987 173.098 306.293 173.409H306.304C306.359 173.459 306.413 173.519 306.468 173.58C315.575 183.328 333.484 183.318 345.441 174.905C346.348 174.272 347.101 174.072 347.614 174.282L347.68 174.323C347.68 174.323 347.669 174.323 347.669 174.333C348.149 174.574 348.412 175.186 348.368 176.18Z" fill="#FE9F43"/>
<path opacity="0.4" d="M347.618 174.275C347.105 174.065 346.352 174.265 345.445 174.898C334.187 182.82 317.643 183.291 308.153 175.159C317.228 177.82 328.312 176.012 336.567 170.199C337.474 169.567 338.227 169.366 338.74 169.577L347.618 174.275Z" fill="white"/>
<path opacity="0.4" d="M305.227 172.631C304.211 172.189 303.283 172.641 302.671 174.026C294.088 193.634 275.797 213.504 263.6 218.473C262.693 218.845 261.853 219.417 261.197 220.12C260.968 220.361 260.761 220.622 260.586 220.893L251.719 216.184C251.893 215.923 252.09 215.662 252.319 215.421C252.439 215.291 252.571 215.17 252.712 215.05L252.723 215.04C252.778 215 252.822 214.949 252.876 214.899C252.931 214.859 252.975 214.819 253.029 214.769C253.531 214.367 254.11 214.016 254.722 213.775C266.919 208.805 285.21 188.936 293.794 169.328C294.405 167.942 295.322 167.5 296.338 167.942L305.227 172.631Z" fill="white"/>
<path d="M252.723 215.029C252.767 214.979 252.821 214.939 252.876 214.898C252.821 214.949 252.778 214.999 252.723 215.039C252.723 215.039 252.711 215.029 252.723 215.029Z" fill="#FE9F43"/>
<path opacity="0.15" d="M252.876 214.898C252.822 214.949 252.778 214.999 252.724 215.039C252.724 215.039 252.713 215.029 252.724 215.029C252.766 214.979 252.821 214.939 252.876 214.898Z" fill="black"/>
<path opacity="0.15" d="M279.838 300.309L279.674 300.238L270.479 295.349C258.566 288.813 252.724 275.379 252.724 262.659L250.965 218.633C250.933 217.77 251.217 216.927 251.719 216.184L260.586 220.892C260.095 221.635 259.811 222.469 259.843 223.332L261.602 267.357C261.602 280.078 267.444 293.512 279.357 300.048L279.674 300.228L279.838 300.309Z" fill="black"/>
<path d="M311.2 259.802L297.009 267.335L299.208 243.732C297.51 242.907 296.429 240.877 296.429 237.961C296.429 232.764 299.865 226.727 304.105 224.476C308.345 222.226 311.781 224.614 311.781 229.812C311.781 232.727 310.699 235.906 309.002 238.534L311.2 259.802Z" fill="#455A64"/>
<path d="M311.2 259.804L298.346 252.98L297.009 267.338L311.2 259.804Z" fill="#37474F"/>
<path d="M304.105 224.476C301.331 225.948 298.908 229.044 297.559 232.462L309.002 238.537V238.534C310.7 235.906 311.781 232.727 311.781 229.812C311.781 224.614 308.343 222.226 304.105 224.476Z" fill="#37474F"/>
<path d="M126.582 396.917V400.841C126.565 405.453 129.869 410.067 136.497 413.585C146.479 418.883 161.14 420.175 173.416 417.473L184.817 423.526L193.577 421.704L199.556 424.878L199.883 431.521L203.103 433.231L211.192 433.885L217.006 436.867V440.612L224.302 444.484H242.855L249.505 440.956V436.995L190.167 409.459C192.9 406.793 194.271 403.837 194.277 400.882V396.916C193.385 393.086 189.915 391.11 184.374 388.17C171.153 381.152 149.718 381.152 136.497 388.17C130.554 391.326 127.182 392.791 126.582 396.917ZM144.756 392.332C148.502 390.344 154.573 390.344 158.319 392.332C162.064 394.32 162.064 397.544 158.319 399.532C154.573 401.52 148.502 401.52 144.756 399.532C141.011 397.544 141.011 394.32 144.756 392.332Z" fill="#FE9F43"/>
<path opacity="0.1" d="M126.582 396.917V400.841C126.565 405.453 129.869 410.067 136.497 413.585C146.479 418.883 161.14 420.175 173.416 417.473L184.817 423.526L193.577 421.704L199.556 424.878L199.883 431.521L203.103 433.231L211.192 433.885L217.006 436.867V440.612L224.302 444.484H242.855L249.505 440.956V436.995L190.167 409.459C192.9 406.793 194.271 403.837 194.277 400.882V396.916C193.385 393.086 189.915 391.11 184.374 388.17C171.153 381.152 149.718 381.152 136.497 388.17C130.554 391.326 127.182 392.791 126.582 396.917ZM144.756 392.332C148.502 390.344 154.573 390.344 158.319 392.332C162.064 394.32 162.064 397.544 158.319 399.532C154.573 401.52 148.502 401.52 144.756 399.532C141.011 397.544 141.011 394.32 144.756 392.332Z" fill="black"/>
<path d="M136.498 409.623C146.48 414.921 161.14 416.213 173.416 413.512L184.818 419.564L193.578 417.743L199.556 420.917L199.883 427.561L203.103 429.27L211.193 429.924L217.5 433.16L217.006 436.651L224.302 440.523H242.855L249.505 436.995L190.167 405.498C197.156 398.681 195.237 389.976 184.374 384.209C171.153 377.191 149.719 377.191 136.498 384.209C123.277 391.226 123.277 402.605 136.498 409.623ZM144.756 388.37C148.502 386.382 154.574 386.382 158.319 388.37C162.065 390.358 162.065 393.582 158.319 395.57C154.574 397.558 148.502 397.558 144.756 395.57C141.011 393.581 141.011 390.358 144.756 388.37Z" fill="#FE9F43"/>
<path opacity="0.3" d="M160.436 411.439C152.043 411.439 144.208 409.734 138.373 406.638C133.263 403.924 130.333 400.381 130.333 396.916C130.333 393.452 133.264 389.908 138.373 387.196C144.208 384.099 152.044 382.395 160.437 382.395C168.83 382.395 176.665 384.099 182.5 387.196C187.609 389.909 190.54 393.453 190.54 396.917C190.54 400.382 187.61 403.925 182.501 406.638C176.664 409.734 168.829 411.439 160.436 411.439ZM160.436 383.774C152.303 383.774 144.733 385.414 139.123 388.39C134.49 390.85 131.832 393.958 131.832 396.916C131.832 399.875 134.49 402.983 139.123 405.443C144.732 408.42 152.302 410.06 160.435 410.06C168.568 410.06 176.137 408.42 181.748 405.443C186.38 402.984 189.037 399.876 189.037 396.917C189.037 393.959 186.38 390.851 181.747 388.39C176.139 385.414 168.57 383.774 160.436 383.774Z" fill="black"/>
<path opacity="0.1" d="M148.252 413.677V417.637C156.339 419.293 165.388 419.238 173.416 417.471V413.512C165.389 415.278 156.34 415.333 148.252 413.677Z" fill="black"/>
<path opacity="0.1" d="M184.817 419.563V423.524L193.577 421.704V417.742L184.817 419.563Z" fill="black"/>
<path opacity="0.1" d="M199.557 420.918V424.88L199.883 431.523V427.562L199.557 420.918Z" fill="black"/>
<path opacity="0.1" d="M203.104 429.27V433.23L211.193 433.884V429.922L203.104 429.27Z" fill="black"/>
<path opacity="0.1" d="M242.856 440.523H224.303V444.484H242.856V440.523Z" fill="black"/>
<path opacity="0.15" d="M249.506 436.996V440.957L242.855 444.485V440.524L245.77 438.977V440.687L247.379 439.833V438.105L249.506 436.996Z" fill="black"/>
<path d="M247.378 438.105L245.77 438.977V440.687L247.378 439.833V438.105Z" fill="#FE9F43"/>
<path opacity="0.15" d="M247.378 438.106V439.833L186.526 407.528L188.135 406.656L247.378 438.106Z" fill="black"/>
<path opacity="0.15" d="M188.135 406.656V408.384L186.526 407.528L188.135 406.656Z" fill="black"/>
<path d="M452.671 289.715C453.436 263.566 451.156 257.299 443.584 252.508L440.651 267.66C440.651 267.66 444.101 285.516 443.731 291.463C443.405 296.688 442.853 303.224 441.508 307.448C441.27 308.196 440.721 308.825 440.002 309.239C438.074 310.348 437.296 311.486 435.844 312.884C434.707 313.979 433.739 314.251 433.888 314.599C434.081 315.047 434.892 315.771 436.285 315.38C436.986 315.184 437.892 314.68 439.021 314.016C439.021 314.016 438.214 316.195 436.219 318.443C433.515 321.491 433.396 323.363 438.855 323.407C442.276 323.435 445.005 321.496 447.579 314.565C448.32 312.569 449.481 309.417 449.983 306.783C451.292 299.924 452.547 293.924 452.671 289.715Z" fill="#B16668"/>
<path d="M437.214 250.522C440.828 250.04 445.741 250.737 448.915 255.955C452.088 261.174 452.867 270.151 453.228 279.078C453.228 279.078 446.924 283.925 439.362 281.541L437.214 250.522Z" fill="#FE9F43"/>
<path opacity="0.7" d="M437.214 250.522C440.828 250.04 445.741 250.737 448.915 255.955C452.088 261.174 452.867 270.151 453.228 279.078C453.228 279.078 446.924 283.925 439.362 281.541L437.214 250.522Z" fill="black"/>
<path d="M447.847 394.347C448.421 394.547 448.565 395.552 448.652 397.55C448.718 399.063 449.071 401.702 447.144 402.229C445.218 402.756 442.395 402.487 441.161 401.061C439.621 399.282 438.579 397.716 436.379 395.545C434.472 393.663 432.408 391.905 431.638 389.264C430.942 386.878 431.521 385.843 433.292 385.149C435.728 384.195 439.553 387.313 441.461 387.804C443.104 388.226 447.273 394.147 447.847 394.347Z" fill="#263238"/>
<path d="M447.846 392.498V394.952C447.846 394.952 445.072 396.912 441.102 395.119C440.985 394.882 440.402 391.609 440.402 391.609L447.846 392.498Z" fill="#B16668"/>
<path d="M426.234 408.488C426.234 408.488 427 410.623 427.413 412.488C427.74 413.971 428.211 416.451 427.645 417.567C427.08 418.683 424.876 419.404 421.459 419.38C419.246 419.365 415.797 420.746 413.436 421.957C410.998 423.208 405.925 423.707 403.345 423.428C400.305 423.099 397.156 421.479 396.664 420.321C396.173 419.164 396.826 417.962 403.989 415.155C404.055 415.129 413.948 412.171 417.415 408.654L426.234 408.488Z" fill="#263238"/>
<path d="M426.235 405.836C426.235 405.836 426.225 407.657 426.235 408.697C426.245 409.737 424.908 411.289 421.448 411.175C419.018 411.096 417.322 410.495 417.418 408.654V406.002L426.235 405.836Z" fill="#B16668"/>
<path d="M449.583 359.935C448.361 351.918 446.431 347.156 446.431 347.156C446.431 347.156 447.384 336.13 447.841 325.677C448.335 314.386 447.815 300.192 448.049 297.375C448.049 297.375 408.42 290.003 407.712 303.056C407.006 316.109 409.276 349.335 409.746 355.069C410.214 360.803 411.292 365.874 412.58 375.168C413.852 384.341 417.417 406.001 417.417 406.001C421.944 408.251 426.234 405.835 426.234 405.835C426.234 405.835 429.023 379.736 428.73 373.12C428.373 365.041 426.001 358.678 426.001 358.678C426.001 358.678 426.752 347.915 427.416 338.554C428.079 329.193 428.782 324.696 428.936 320.624L429.789 320.235C429.789 320.235 430.659 336.385 431.127 342.12C431.595 347.854 432.587 353.352 434.392 364.004C435.957 373.243 440.619 392.792 440.619 392.792C445.146 395.042 447.847 392.498 447.847 392.498C447.847 392.498 450.805 367.952 449.583 359.935Z" fill="#37474F"/>
<path d="M428.937 320.624C428.937 320.624 438.549 316.268 443.362 312.34C443.362 312.34 438.894 318.128 433.029 320.693C433.029 320.693 430.944 340.756 430.955 340.358L429.75 320.594L428.937 320.624Z" fill="#263238"/>
<path d="M420.38 246.388L422.724 258.254L434.383 257.471L431.934 244.02L420.38 246.388Z" fill="#B16668"/>
<path d="M446.695 256.602C445.541 253.375 441.089 249.864 436.633 250.624C428.449 252.022 421.957 253.517 417.124 255.104C413.045 256.444 409.329 259.685 408.992 272.02C408.992 272.02 407.626 300.776 407.602 306.338C417.843 310.064 428.496 309.95 434.384 308.767C446.641 306.305 448.119 301.631 448.119 301.631C448.119 301.631 448.277 280.951 447.911 272.021C447.597 264.432 447.488 258.818 446.695 256.602Z" fill="#FE9F43"/>
<g opacity="0.15">
<path d="M446.695 256.602C445.541 253.375 441.089 249.864 436.633 250.624C428.449 252.022 421.957 253.517 417.124 255.104C413.045 256.444 409.329 259.685 408.992 272.02C408.992 272.02 407.626 300.776 407.602 306.338C417.843 310.064 428.496 309.95 434.384 308.767C446.641 306.305 448.119 301.631 448.119 301.631C448.119 301.631 448.277 280.951 447.911 272.021C447.597 264.432 447.488 258.818 446.695 256.602Z" fill="black"/>
</g>
<path d="M411.386 231.953C411.386 231.953 408.43 236.286 408.788 236.699C409.147 237.112 411.409 237.443 411.409 237.443L411.386 231.953Z" fill="#9A4A4D"/>
<path d="M419.595 219.962C413.431 221.292 411.703 223.833 411.341 232.892C410.963 242.358 412.084 245.307 413.467 246.552C414.399 247.393 419.471 247.443 422.011 246.742C425.191 245.865 432.363 243.36 435.632 238.534C439.478 232.858 440.339 225.253 435.998 222.231C429.89 217.978 422.103 219.421 419.595 219.962Z" fill="#B16668"/>
<path d="M411.408 222.32C413.217 225.168 417.144 226.53 417.144 226.53C418.326 227.768 417.675 232.597 419.755 233.364C419.755 233.364 420.648 229.849 423.862 230.223C427.098 230.598 427.625 234.368 425.65 236.705C423.673 239.043 421.758 238.202 421.758 238.202C421.758 238.202 421.98 243.195 424.455 245.972C424.455 245.972 427.215 246.73 432.228 245.639C435.31 244.968 439.601 241.319 441.349 237.513C445.048 229.461 445.144 222.283 439.556 220.248C438.868 216.587 435.682 215.006 432.077 214.322C424.319 212.852 419.317 217.304 413.345 216.918C409.927 216.696 409.288 218.984 411.408 222.32Z" fill="#263238"/>
<path d="M439.685 221.474L443.342 219.389C442.715 218.46 441.389 218.175 440.379 218.75C439.369 219.326 439.059 220.545 439.685 221.474Z" fill="#263238"/>
<path d="M367.827 276.466C369.745 277.25 392.331 292.598 395.853 290.81C399.375 289.023 417.443 269.615 417.443 269.615C422.69 261.622 417.443 255.055 417.443 255.055C417.443 255.055 411.649 256.039 408.621 260.252C405.593 264.466 392.496 279.565 392.496 279.565C389.262 278.077 386.039 276.567 382.827 275.039C380.18 273.779 377.528 272.521 374.937 271.166C374.291 270.828 373.437 270.499 372.9 270.011C371.623 268.85 371.842 266.039 371.866 264.511C371.877 263.797 371.888 263.081 371.979 262.371C372.089 261.498 372.27 259.361 370.561 260.039C370.232 260.17 369.965 260.407 369.746 260.669C369.477 260.99 369.268 261.355 369.134 261.74C368.812 262.664 368.916 263.675 368.62 264.607C368.577 264.742 368.521 264.882 368.41 264.978C368.27 265.101 368.064 265.136 367.871 265.13C365.381 265.061 363.025 261.854 361.882 260.151C361.373 259.393 360.872 258.549 359.994 258.172C358.631 257.587 356.995 258.425 356.119 259.548C355 260.979 354.664 262.839 354.886 264.59C355.191 267.016 356.204 269.261 358.131 270.913C361.051 273.42 364.222 274.992 367.827 276.466Z" fill="#B16668"/>
<path d="M419.283 254.43C416.791 254.694 412.652 254.866 408.598 259.088C403.857 264.025 397.613 272.084 397.613 272.084C397.613 272.084 399.308 279.899 408.538 281.54C408.538 281.54 417.085 273.489 419.462 269.056C421.838 264.622 422.217 257.422 419.283 254.43Z" fill="#FE9F43"/>
<path opacity="0.7" d="M419.283 254.43C416.791 254.694 412.652 254.866 408.598 259.088C403.857 264.025 397.613 272.084 397.613 272.084C397.613 272.084 399.308 279.899 408.538 281.54C408.538 281.54 417.085 273.489 419.462 269.056C421.838 264.622 422.217 257.422 419.283 254.43Z" fill="black"/>
</svg>
