<svg width="570" height="665" viewBox="0 0 570 665" fill="none" xmlns="http://www.w3.org/2000/svg">
<path d="M142.768 517.692C221.321 561.372 348.68 561.373 427.233 517.694C505.786 474.012 505.786 403.194 427.233 359.514C348.68 315.834 221.319 315.834 142.767 359.513C64.2137 403.192 64.2137 474.012 142.768 517.692Z" fill="#F5F5F5"/>
<path d="M408.441 481.149C418.672 486.838 435.257 486.838 445.487 481.149C455.717 475.462 455.717 466.239 445.487 460.55C435.257 454.863 418.672 454.863 408.441 460.55C398.212 466.239 398.212 475.461 408.441 481.149Z" fill="#EBEBEB"/>
<path d="M136.748 472.935L146.009 466.697C146.009 466.697 153.649 460.146 157.433 447.983C160.295 438.779 159.901 431.777 157.848 428.268C155.323 423.95 148.789 424.704 148.529 433.809C148.019 451.736 143.535 464.14 136.748 472.935Z" fill="#FE9F43"/>
<path opacity="0.2" d="M136.748 472.935L146.009 466.697C146.009 466.697 153.649 460.146 157.433 447.983C160.295 438.779 159.901 431.777 157.848 428.268C155.323 423.95 148.789 424.704 148.529 433.809C148.019 451.736 143.535 464.14 136.748 472.935Z" fill="black"/>
<path d="M136.749 473.601C136.568 473.601 136.391 473.501 136.279 473.314C136.1 473.012 136.164 472.598 136.423 472.39C157.851 455.09 153.701 430.989 153.656 430.747C153.59 430.388 153.786 430.034 154.093 429.957C154.403 429.877 154.704 430.108 154.77 430.467C154.817 430.717 159.146 455.661 137.072 473.483C136.973 473.564 136.861 473.601 136.749 473.601Z" fill="white"/>
<path d="M118.225 485.413C118.225 485.413 115.001 482.35 115.781 478.205C116.562 474.058 118.641 471.077 115.066 465.728C111.491 460.377 110.567 453.251 114.772 449.386C118.022 446.398 123.094 450.634 124.926 442.715C126.262 436.943 125.806 424.163 132.118 419.911C138.429 415.66 142.348 422.06 141.379 430.729C140.513 438.484 139.292 445.951 140.234 447.984C142.075 451.958 145.239 451.425 145.096 458.711C144.961 465.495 139.464 471.109 139.464 471.109L118.225 485.413Z" fill="#FE9F43"/>
<path d="M128.818 478.942C128.533 478.942 128.288 478.695 128.252 478.357C126.621 462.598 130.508 435.389 133.724 427.301C133.857 426.967 134.193 426.819 134.481 426.978C134.767 427.132 134.891 427.527 134.758 427.86C131.599 435.808 127.824 463.134 129.384 478.199C129.422 478.562 129.199 478.893 128.886 478.938C128.863 478.941 128.841 478.942 128.818 478.942Z" fill="white"/>
<path d="M128.509 466.674C128.425 466.674 128.34 466.652 128.259 466.607C124.303 464.351 121.797 456.336 121.692 455.996C121.586 455.65 121.74 455.27 122.035 455.145C122.331 455.021 122.657 455.199 122.764 455.546C122.788 455.625 125.22 463.391 128.76 465.411C129.042 465.572 129.16 465.971 129.021 466.301C128.923 466.537 128.721 466.674 128.509 466.674Z" fill="white"/>
<path d="M128.445 471.985C128.219 471.985 128.005 471.827 127.916 471.566C127.8 471.226 127.941 470.839 128.233 470.703C134.89 467.591 139.039 458.337 139.08 458.244C139.225 457.918 139.568 457.787 139.847 457.958C140.128 458.125 140.237 458.527 140.093 458.854C139.917 459.252 135.704 468.643 128.656 471.937C128.588 471.969 128.516 471.985 128.445 471.985Z" fill="white"/>
<path d="M361.154 400.437C361.154 400.437 356.169 391.031 355.688 380.79C355.207 370.551 357.133 366.3 359.776 365.079C362.418 363.859 362.619 367.617 363.983 369.844C365.349 372.072 368.11 370.797 369.131 363.871C370.151 356.947 373.893 345.211 381.635 342.972C390.186 340.501 385.6 352.202 383.454 356.768C381.306 361.334 379.632 367.551 381.049 369.245C382.464 370.938 384.658 367.809 386.764 370.71C389.305 374.211 381.406 386.796 376.872 389.85L361.154 400.437Z" fill="#FE9F43"/>
<path d="M367.983 396.475C367.972 396.475 367.962 396.475 367.953 396.474C367.638 396.454 367.398 396.141 367.414 395.776C368.669 368.541 380.061 349.681 380.176 349.493C380.36 349.192 380.716 349.126 380.971 349.34C381.227 349.553 381.285 349.969 381.102 350.267C380.989 350.452 369.787 369.017 368.55 395.846C368.536 396.2 368.285 396.475 367.983 396.475Z" fill="white"/>
<path d="M368.633 388.624C368.54 388.624 368.445 388.597 368.357 388.54C365.164 386.479 363.396 380.363 363.323 380.103C363.224 379.754 363.386 379.378 363.685 379.262C363.982 379.142 364.307 379.337 364.405 379.684C364.422 379.742 366.107 385.568 368.909 387.375C369.184 387.553 369.284 387.958 369.131 388.279C369.029 388.5 368.834 388.624 368.633 388.624Z" fill="white"/>
<path d="M369.192 384.592C368.937 384.592 368.704 384.393 368.64 384.091C368.563 383.733 368.747 383.373 369.052 383.284C377.28 380.856 380.13 375.825 380.158 375.774C380.328 375.466 380.681 375.377 380.944 375.572C381.209 375.769 381.289 376.179 381.119 376.487C380.998 376.712 378.036 382.004 369.331 384.571C369.285 384.586 369.239 384.592 369.192 384.592Z" fill="white"/>
<path d="M237.145 379.76C237.145 379.76 226.213 376.65 225.644 352.77C225.03 326.994 228.323 296.922 215.43 294.476C202.538 292.03 195.303 310.474 195.469 331.907C195.613 350.725 202.109 391.556 237.144 399.558L237.145 379.76Z" fill="#FE9F43"/>
<path opacity="0.2" d="M237.145 379.76C237.145 379.76 226.213 376.65 225.644 352.77C225.03 326.994 228.323 296.922 215.43 294.476C202.538 292.03 195.303 310.474 195.469 331.907C195.613 350.725 202.109 391.556 237.144 399.558L237.145 379.76Z" fill="black"/>
<path d="M237.144 397.103C237.11 397.103 237.075 397.099 237.041 397.093C229.158 395.417 222.742 390.358 217.97 382.054C203.807 357.404 208.269 311.392 209.734 303.354C209.8 302.994 210.101 302.768 210.41 302.842C210.718 302.919 210.914 303.272 210.849 303.631C209.4 311.579 204.974 357.05 218.916 381.315C223.509 389.308 229.676 394.176 237.244 395.784C237.554 395.851 237.759 396.198 237.702 396.558C237.655 396.879 237.414 397.103 237.144 397.103Z" fill="white"/>
<path d="M237.145 458.41C225.842 460.198 207.483 460.166 196.909 450.435C186.334 440.705 188.533 432.318 192.602 428.82C196.669 425.321 200.202 421.323 193.205 413.56C186.206 405.797 174.958 393.321 171.321 374.605C167.684 355.891 169.474 344.195 176.633 340.294C183.579 336.51 185.408 342.522 189.659 354.919C193.91 367.317 203.478 356.688 211.659 360.558C219.839 364.427 219.518 372.089 220.033 378.675C220.55 385.26 223.251 387.081 227.882 387.081C232.514 387.081 237.143 390.2 237.144 396.437L237.145 458.41Z" fill="#FE9F43"/>
<path d="M237.145 436.681C237.095 436.681 237.042 436.673 236.991 436.657C236.502 436.497 224.812 432.527 207.8 414.294C189.677 394.871 181.12 365.75 181.035 365.459C180.935 365.111 181.095 364.733 181.393 364.616C181.692 364.501 182.015 364.686 182.115 365.032C182.198 365.322 190.668 394.127 208.571 413.314C225.356 431.302 237.181 435.336 237.299 435.375C237.602 435.474 237.778 435.84 237.693 436.195C237.623 436.489 237.395 436.681 237.145 436.681Z" fill="white"/>
<path d="M212.535 418.94C212.307 418.94 212.091 418.779 212.003 418.517C208.345 407.548 207.516 384.102 207.483 383.11C207.471 382.744 207.716 382.434 208.031 382.418C208.322 382.422 208.61 382.689 208.622 383.056C208.63 383.297 209.477 407.273 213.066 418.033C213.18 418.376 213.035 418.762 212.741 418.895C212.673 418.925 212.603 418.94 212.535 418.94Z" fill="white"/>
<path d="M212.439 434.714C210.667 434.714 209.442 434.552 209.294 434.531C208.981 434.488 208.758 434.157 208.794 433.791C208.832 433.428 209.112 433.157 209.428 433.21C209.534 433.222 220.141 434.621 225.012 428.825C225.231 428.56 225.593 428.56 225.818 428.814C226.043 429.071 226.046 429.494 225.826 429.755C222.261 433.999 216.153 434.714 212.439 434.714Z" fill="white"/>
<path d="M204.229 182.866L203.004 174.574L196.661 179.443C196.026 178.025 195.21 176.887 194.25 176.028L197.285 166.45L191.635 164.977L187.46 174.257C186.077 174.506 184.617 175.05 183.112 175.909L181.305 168.915L174.538 175.122L174.982 183.368C173.612 185.146 172.359 187.09 171.24 189.136L165.649 188.814L161.728 199.066L166.53 201.454C166.023 203.66 165.697 205.847 165.581 207.952L159.486 214.491L160.71 222.784L167.052 217.915C167.687 219.332 168.503 220.471 169.464 221.33L166.428 230.907L172.079 232.381L178.051 225.589C179.435 225.341 179.097 222.309 180.602 221.45L182.408 228.444L189.176 222.237L189.002 218.993C190.371 217.216 195.543 213.293 196.661 211.247L198.066 208.545L201.986 198.293L200.16 194.433L198.133 189.407L204.229 182.866ZM183.558 210.198C178.367 214.959 176.785 215.998 175.846 209.637C174.907 203.275 177.944 193.574 183.136 188.813C188.328 184.05 190.321 183.695 191.259 190.056C192.197 196.418 188.75 205.435 183.558 210.198Z" fill="#E0E0E0"/>
<path d="M191.636 164.977L199.028 169.949L194.854 179.23L187.46 174.256L191.636 164.977Z" fill="#F5F5F5"/>
<path d="M210.398 179.548L204.057 184.418L196.663 179.443L203.006 174.574L210.398 179.548Z" fill="#F5F5F5"/>
<path d="M209.379 203.267L204.578 200.877L197.186 195.902L201.986 198.292L209.379 203.267Z" fill="#E0E0E0"/>
<path d="M166.428 230.905L173.822 235.88L176.857 226.302L169.464 221.328L166.428 230.905Z" fill="#E0E0E0"/>
<path d="M189.803 233.418L182.409 228.444L180.603 221.449L187.996 226.423L189.803 233.418Z" fill="#E0E0E0"/>
<path d="M211.621 187.839L210.397 179.546L204.055 184.416C203.42 182.998 202.603 181.859 201.643 181L204.679 171.423L199.028 169.949L194.853 179.23C193.47 179.479 192.009 180.023 190.504 180.882L188.697 173.887L181.93 180.094L182.373 188.34C181.004 190.117 179.75 192.063 178.632 194.109L173.04 193.787L169.12 204.038L173.922 206.427C173.414 208.632 173.089 210.82 172.973 212.926L166.877 219.465L168.102 227.758L174.444 222.889C175.079 224.305 175.895 225.445 176.855 226.304L173.82 235.881L179.471 237.355L183.646 228.074C185.029 227.827 186.489 227.282 187.994 226.422L189.801 233.417L196.568 227.21L196.124 218.964C197.494 217.187 198.747 215.241 199.866 213.196L205.457 213.517L209.377 203.266L204.575 200.877C205.082 198.672 205.408 196.484 205.522 194.38L211.621 187.839ZM190.951 215.171C185.759 219.933 180.789 218.635 179.849 212.274C178.91 205.912 182.359 196.894 187.55 192.132C192.742 187.37 197.711 188.666 198.65 195.028C199.59 201.39 196.142 210.408 190.951 215.171Z" fill="#EBEBEB"/>
<path d="M188.699 173.888L181.306 168.914L174.539 175.121L181.931 180.095L188.699 173.888Z" fill="#F5F5F5"/>
<path d="M174.539 175.121L174.982 183.367L182.374 188.34L181.931 180.095L174.539 175.121Z" fill="#E0E0E0"/>
<path d="M178.634 194.109L171.239 189.134L165.649 188.812L173.042 193.787L178.634 194.109Z" fill="#F5F5F5"/>
<path d="M165.648 188.812L161.728 199.064L169.121 204.038L173.041 193.787L165.648 188.812Z" fill="#E0E0E0"/>
<path d="M172.974 212.927L165.581 207.953L159.486 214.493L166.879 219.467L172.974 212.927Z" fill="#F5F5F5"/>
<path d="M168.103 227.759L160.71 222.785L159.486 214.492L166.879 219.466L168.103 227.759Z" fill="#E0E0E0"/>
<path d="M199.028 169.949L191.636 164.977L197.286 166.45L204.679 171.424L199.028 169.949Z" fill="#F5F5F5"/>
<path d="M171.106 145.254V132.868L162.657 137.311C162.148 135.024 161.373 133.063 160.375 131.445L165.698 118.923L159.196 114.543L152.563 126.183C150.863 125.985 149.02 126.18 147.067 126.811L146.14 116.053L136.947 122.245L136.02 134.251C134.067 136.253 132.224 138.54 130.524 141.027L123.891 138.325L117.389 151.461L122.712 156.812C121.715 159.772 120.939 162.779 120.43 165.753L111.981 172.692V185.077L120.43 180.633C120.939 182.921 121.715 184.881 122.712 186.5L117.389 199.022L123.891 203.4L130.524 191.761C132.224 191.96 134.067 191.763 136.02 191.134L136.947 201.892L146.14 195.7L147.067 183.694C149.806 182.627 152.738 180.153 154.437 177.666L159.195 179.621L165.697 166.485L161.708 162.475C162.704 159.514 162.81 154.781 162.655 152.194L171.106 145.254ZM141.545 176.176C134.491 180.927 130.107 177.557 130.107 168.056C130.107 158.554 135.936 146.914 142.989 142.163C150.042 137.412 154.315 140.868 154.315 150.369C154.316 159.872 148.598 171.426 141.545 176.176Z" fill="#E0E0E0"/>
<path d="M166.591 119.517L159.196 114.543L152.564 126.183L159.957 131.156L166.591 119.517Z" fill="#F5F5F5"/>
<path d="M178.499 137.841L171.106 132.867L162.657 137.311L170.05 142.285L178.499 137.841Z" fill="#F5F5F5"/>
<path d="M144.341 206.865L136.948 201.891L136.021 191.133L143.416 196.107L144.341 206.865Z" fill="#E0E0E0"/>
<path d="M117.392 199.022L124.785 203.996L130.107 191.474L122.714 186.5L117.392 199.022Z" fill="#E0E0E0"/>
<path d="M178.499 150.227V137.84L170.05 142.284C169.541 139.996 168.764 138.036 167.768 136.417L173.091 123.895L166.589 119.516L159.956 131.156C158.257 130.958 156.414 131.153 154.461 131.784L153.534 121.027L144.341 127.219L143.414 139.225C141.461 141.227 139.618 143.514 137.918 146.001L131.285 143.299L124.783 156.436L130.106 161.787C129.109 164.748 128.333 167.753 127.824 170.727L119.375 177.666V190.051L127.824 185.607C128.333 187.895 129.109 189.855 130.106 191.474L124.783 203.996L131.285 208.374L137.918 196.735C139.618 196.932 141.461 196.737 143.414 196.108L144.341 206.866L153.534 200.674L154.461 188.668C156.414 186.667 158.257 184.378 159.956 181.893L166.589 184.595L173.091 171.459L167.768 166.108C168.764 163.148 169.541 160.142 170.05 157.168L178.499 150.227ZM148.937 181.149C141.884 185.9 136.166 182.048 136.166 172.547C136.166 163.045 141.884 151.49 148.937 146.739C155.991 141.989 161.709 145.84 161.709 155.342C161.709 164.845 155.991 176.398 148.937 181.149Z" fill="#EBEBEB"/>
<path d="M130.526 141.027L137.919 146.001L131.285 143.298L123.893 138.324L130.526 141.027Z" fill="#F0F0F0"/>
<path d="M123.881 138.326L117.386 151.465L124.778 156.439L131.274 143.3L123.881 138.326Z" fill="#F5F5F5"/>
<path d="M117.392 151.461L124.785 156.435L130.107 161.787L122.714 156.812L117.392 151.461Z" fill="#E0E0E0"/>
<path d="M120.433 165.754L127.826 170.728L119.377 177.667L111.983 172.693L120.433 165.754Z" fill="#F5F5F5"/>
<path d="M111.983 172.691L119.377 177.666V190.049L111.983 185.076V172.691Z" fill="#E0E0E0"/>
<path d="M153.535 121.025L146.141 116.051L136.948 122.243L144.341 127.217L153.535 121.025Z" fill="#F5F5F5"/>
<path d="M248.381 476.209L355.57 404.01C356.66 403.275 356.661 402.084 355.571 401.348L345.655 394.655C344.565 393.918 342.797 393.917 341.706 394.652L234.489 466.851C233.398 467.587 233.398 468.777 234.489 469.511L244.432 476.209C245.523 476.942 247.291 476.942 248.381 476.209Z" fill="#E0E0E0"/>
<path d="M352.607 125.283L255.972 190.373C253.247 192.21 251.036 196.676 251.036 200.348V467.771C251.036 471.444 253.247 472.933 255.972 471.096L352.608 406.007C355.335 404.17 357.544 399.704 357.544 396.032L357.543 128.609C357.543 124.936 355.332 123.446 352.607 125.283Z" fill="#455A64"/>
<path d="M255.972 190.373L352.607 125.282C355.045 123.641 357.064 124.663 357.467 127.522C357.096 124.095 355.07 120.292 352.607 118.632L348.588 115.924C345.861 114.088 341.441 114.088 338.715 115.924L242.082 181.015C240.718 181.932 239.485 183.508 238.591 185.313L252.483 194.67C253.375 192.866 254.61 191.292 255.972 190.373Z" fill="#37474F"/>
<path d="M237.146 458.415C237.146 462.088 239.355 466.554 242.082 468.39L246.101 471.097C248.566 472.757 252.404 472.901 255.135 471.56C252.809 472.59 251.036 471.06 251.036 467.772V200.349C251.036 198.513 251.589 196.478 252.483 194.673L238.591 185.316C237.697 187.121 237.146 189.156 237.146 190.993V458.415Z" fill="#263238"/>
<path d="M258.63 226.015L349.951 164.504C351.588 163.401 352.913 164.295 352.913 166.499L352.915 364.383C352.915 366.586 351.588 369.266 349.952 370.368L258.631 431.88C256.995 432.981 255.669 432.088 255.669 429.885L255.668 232.001C255.667 229.796 256.994 227.116 258.63 226.015Z" fill="white"/>
<path d="M304.29 167.972C303.331 168.619 302.554 170.189 302.554 171.481C302.554 172.774 303.332 173.296 304.29 172.65C305.25 172.005 306.026 170.434 306.026 169.141C306.026 167.85 305.25 167.326 304.29 167.972Z" fill="#37474F"/>
<path d="M304.293 410.623C300.506 413.174 297.436 419.377 297.436 424.479C297.436 429.58 300.504 431.648 304.293 429.097C308.079 426.547 311.149 420.344 311.149 415.242C311.147 410.142 308.079 408.073 304.293 410.623Z" fill="#37474F"/>
<path d="M287.888 188.557C285.97 189.85 284.416 192.991 284.416 195.575C284.416 198.16 285.97 199.206 287.889 197.915C289.808 196.623 291.362 193.482 291.362 190.898C291.362 188.312 289.807 187.266 287.888 188.557Z" fill="#37474F"/>
<path d="M296.38 187.681C296.38 189.403 297.486 190.056 298.848 189.137L321.697 173.748C323.059 172.83 324.165 170.689 324.165 168.967C324.164 167.244 323.059 166.591 321.696 167.51L298.848 182.9C297.486 183.819 296.38 185.959 296.38 187.681Z" fill="#37474F"/>
<path d="M244.83 234.575C246.365 235.609 247.608 238.122 247.608 240.19C247.608 242.257 246.365 243.095 244.83 242.062C243.296 241.028 242.051 238.515 242.051 236.448C242.051 234.381 243.296 233.542 244.83 234.575Z" fill="#37474F"/>
<path d="M244.83 259.547C246.365 260.581 247.608 263.095 247.608 265.163C247.608 267.231 246.365 268.067 244.83 267.034C243.296 266.001 242.051 263.487 242.051 261.419C242.052 259.352 243.296 258.515 244.83 259.547Z" fill="#37474F"/>
<path d="M243.972 235.076C245.506 236.11 246.751 238.623 246.751 240.69C246.751 242.757 245.507 243.596 243.972 242.561C242.437 241.528 241.193 239.014 241.193 236.948C241.193 234.879 242.438 234.041 243.972 235.076Z" fill="#455A64"/>
<path d="M243.972 260.048C245.506 261.082 246.751 263.595 246.751 265.664C246.751 267.73 245.507 268.568 243.972 267.535C242.437 266.501 241.193 263.988 241.193 261.92C241.193 259.851 242.438 259.015 243.972 260.048Z" fill="#455A64"/>
<path d="M371.436 172.756C371.436 170.552 370.11 169.66 368.473 170.761L357.543 178.124L277.152 232.273C275.516 233.376 274.19 236.054 274.19 238.258L274.192 436.142C274.192 438.346 275.517 439.239 277.153 438.137L357.572 383.968L368.474 376.625C370.11 375.522 371.437 372.842 371.437 370.64L371.436 172.756Z" fill="white" stroke="#FE9F43" stroke-miterlimit="10"/>
<path d="M275.83 439.275C275.45 439.275 275.093 439.169 274.774 438.954C274.031 438.453 273.622 437.454 273.622 436.141L273.621 238.257C273.621 235.805 275.047 232.923 276.867 231.697L357.258 177.547L357.828 178.699L277.437 232.848C275.986 233.826 274.761 236.302 274.761 238.257L274.762 436.141C274.762 436.947 274.974 437.553 275.344 437.803C275.715 438.053 276.27 437.962 276.868 437.561L357.287 383.391L357.857 384.541L277.438 438.71C276.882 439.087 276.335 439.275 275.83 439.275Z" fill="#FE9F43" stroke="#FE9F43" stroke-miterlimit="10"/>
<path d="M357.857 384.541L357.287 383.39L368.189 376.049C369.64 375.07 370.867 372.592 370.867 370.64L370.866 172.756C370.866 171.95 370.654 171.345 370.283 171.095C369.915 170.846 369.359 170.932 368.758 171.337L357.828 178.699L357.258 177.548L368.188 170.185C369.162 169.529 370.109 169.441 370.853 169.943C371.596 170.444 372.006 171.442 372.006 172.756L372.007 370.64C372.007 373.091 370.581 375.973 368.759 377.201L357.857 384.541Z" fill="#FE9F43" stroke="#FE9F43" stroke-miterlimit="10"/>
<path d="M322.814 218.741C333.045 211.85 341.337 217.436 341.337 231.217C341.337 244.999 333.045 261.755 322.814 268.647C312.584 275.538 304.292 269.952 304.292 256.171C304.292 242.389 312.584 225.631 322.814 218.741Z" fill="#FE9F43"/>
<path d="M322.814 229.586C326.133 227.351 328.823 229.164 328.823 233.634C328.823 238.105 326.133 243.542 322.814 245.777C319.496 248.012 316.804 246.2 316.804 241.728C316.804 237.258 319.496 231.822 322.814 229.586Z" fill="#FE9F43"/>
<path d="M334.526 253.427C334.526 246.081 330.106 243.103 324.654 246.777L321.245 249.072C315.794 252.744 311.373 261.677 311.373 269.022V270.999C314.525 272.219 318.492 271.558 322.814 268.646C327.258 265.652 331.336 260.793 334.526 255.129V253.427Z" fill="#FE9F43"/>
<path opacity="0.7" d="M322.814 229.586C326.133 227.351 328.823 229.164 328.823 233.634C328.823 238.105 326.133 243.542 322.814 245.777C319.496 248.012 316.804 246.2 316.804 241.728C316.804 237.258 319.496 231.822 322.814 229.586Z" fill="white"/>
<path opacity="0.7" d="M334.526 253.427C334.526 246.081 330.106 243.103 324.654 246.777L321.245 249.072C315.794 252.744 311.373 261.677 311.373 269.022V270.999C314.525 272.219 318.492 271.558 322.814 268.646C327.258 265.652 331.336 260.793 334.526 255.129V253.427Z" fill="white"/>
<path d="M286.974 299.037L310.809 282.982C311.9 282.248 312.784 282.844 312.784 284.312V285.23C312.784 286.7 311.901 288.486 310.809 289.22L286.974 305.274C285.884 306.01 284.999 305.414 284.999 303.944V303.027C284.999 301.557 285.884 299.771 286.974 299.037Z" fill="#FE9F43"/>
<path opacity="0.1" d="M286.974 299.037L310.809 282.982C311.9 282.248 312.784 282.844 312.784 284.312V285.23C312.784 286.7 311.901 288.486 310.809 289.22L286.974 305.274C285.884 306.01 284.999 305.414 284.999 303.944V303.027C284.999 301.557 285.884 299.771 286.974 299.037Z" fill="black"/>
<path d="M285.987 318.417L358.104 269.841C358.649 269.474 359.091 269.771 359.091 270.506V280.323C359.091 281.057 358.649 281.951 358.104 282.318L285.987 330.893C285.442 331.26 285 330.962 285 330.228V320.412C285 319.677 285.442 318.784 285.987 318.417Z" fill="#FE9F43"/>
<path opacity="0.2" d="M285.987 318.417L358.104 269.841C358.649 269.474 359.091 269.771 359.091 270.506V280.323C359.091 281.057 358.649 281.951 358.104 282.318L285.987 330.893C285.442 331.26 285 330.962 285 330.228V320.412C285 319.677 285.442 318.784 285.987 318.417Z" fill="white"/>
<path d="M286.974 342.705L310.809 326.65C311.9 325.916 312.784 326.511 312.784 327.98V328.898C312.784 330.367 311.901 332.154 310.809 332.888L286.974 348.943C285.884 349.678 284.999 349.081 284.999 347.613V346.695C284.999 345.225 285.884 343.44 286.974 342.705Z" fill="#FE9F43"/>
<path opacity="0.1" d="M286.974 342.705L310.809 326.65C311.9 325.916 312.784 326.511 312.784 327.98V328.898C312.784 330.367 311.901 332.154 310.809 332.888L286.974 348.943C285.884 349.678 284.999 349.081 284.999 347.613V346.695C284.999 345.225 285.884 343.44 286.974 342.705Z" fill="black"/>
<path d="M285.987 362.084L358.104 313.509C358.649 313.142 359.091 313.44 359.091 314.174V323.99C359.091 324.725 358.649 325.618 358.104 325.985L285.987 374.561C285.442 374.928 285 374.632 285 373.896V364.079C285 363.345 285.442 362.453 285.987 362.084Z" fill="#FE9F43"/>
<path opacity="0.2" d="M285.987 362.084L358.104 313.509C358.649 313.142 359.091 313.44 359.091 314.174V323.99C359.091 324.725 358.649 325.618 358.104 325.985L285.987 374.561C285.442 374.928 285 374.632 285 373.896V364.079C285 363.345 285.442 362.453 285.987 362.084Z" fill="white"/>
<path d="M314.759 367.66L343.224 348.487C344.315 347.752 345.199 348.347 345.199 349.817V360.093C345.199 361.561 344.315 363.348 343.224 364.083L314.759 383.257C313.668 383.991 312.784 383.396 312.784 381.927V371.65C312.784 370.181 313.668 368.394 314.759 367.66Z" fill="#FE9F43"/>
<path opacity="0.1" d="M314.759 367.66L343.224 348.487C344.315 347.752 345.199 348.347 345.199 349.817V360.093C345.199 361.561 344.315 363.348 343.224 364.083L314.759 383.257C313.668 383.991 312.784 383.396 312.784 381.927V371.65C312.784 370.181 313.668 368.394 314.759 367.66Z" fill="black"/>
<path d="M382.246 324.329C382.246 324.329 368.241 301.79 367.387 299.109C366.743 297.087 367.431 294.08 367.591 292.682C367.752 291.285 367.983 288.173 368.181 287.307C368.53 285.797 366.851 286.106 365.909 287.48C364.945 288.887 364.636 291.635 364.156 292.086C363.677 292.537 359.935 286.196 357.982 283.26C356.03 280.324 354.809 278.556 353.623 279.644C352.768 280.427 353.405 282.138 354.82 284.637C356.234 287.136 356.862 288.294 357.076 288.83C357.29 289.368 356.125 289.41 355.497 290.538C355.006 291.418 355.464 292.843 354.814 293.523C354.164 294.202 353.558 295.424 354.27 296.802C355.178 298.557 356.998 301.065 359.091 302.757C361.185 304.45 362.033 305.044 363.268 307.348C364.504 309.65 375.662 333.154 376.411 334.564C377.159 335.975 378.615 338.848 380.815 338.929C383.017 339.012 401.025 320.922 401.953 320.019C404.92 317.131 405.857 316.707 406.369 319.309C406.53 320.123 406.635 321.05 406.747 322.099C407.103 325.392 409.025 337.177 409.025 337.177C409.025 337.177 418.134 342.327 425.633 339.789C433.133 337.252 435.648 333.595 435.648 333.595L431.896 326.463C432.918 323.517 437.635 311.609 439.116 303.263L415.632 298.84C415.149 298.717 414.38 298.491 413.397 298.189C412.108 297.793 408.866 296.466 406.367 299.001C398.288 307.204 382.246 324.329 382.246 324.329Z" fill="#FFA8A7"/>
<path d="M428.804 462.564L424.594 469.39C424.594 469.39 426.545 470.724 430.709 470.909C434.477 471.076 435.512 469.633 435.651 469.286C436.287 467.695 435.294 464.824 435.022 462.355L428.804 462.564Z" fill="#37474F"/>
<path d="M424.831 466.114C424.831 466.114 419.729 465.735 416.202 465.216C412.674 464.696 409.883 466.706 410.713 468.402C411.543 470.095 413.483 471.505 416.505 472.691C419.095 473.708 422.199 474.447 424.903 475.391C427.675 476.359 429.449 477.466 431.018 476.837C432.768 476.133 433.52 475.316 433.371 473.829C433.223 472.342 431.954 467.555 431.954 467.555L424.831 466.114Z" fill="#37474F"/>
<path d="M435.65 455.707C435.65 455.707 435.012 461.906 434.963 463.237C434.914 464.567 429.777 464.994 428.803 462.564L428.644 454.984L435.65 455.707Z" fill="#F28F8F"/>
<path d="M430.47 459.52L432.308 468.924C432.308 468.924 432.481 470.07 428.281 470.801C424.083 471.532 417.498 468.238 416.377 467.569C415.257 466.898 415.122 465.567 419.247 465.833C423.37 466.1 424.83 466.11 424.83 466.11L423.492 461.94L430.47 459.52Z" fill="#FFA8A7"/>
<path d="M439.117 303.263L442.019 302.328C442.019 302.328 448.101 324.76 448.774 326.921C449.447 329.081 450.205 331.386 448.897 334.059C447.339 337.242 439.118 350.05 439.118 350.05L433.9 344.091L439.819 331.438L434.583 319.061L439.117 303.263Z" fill="#F28F8F"/>
<path d="M409.23 274.104C409.23 274.104 406.902 269.758 409.353 264.435C412.241 258.164 418.701 255.104 426.388 256.278C429.939 256.821 434.131 260.222 436.43 265.415C438.956 271.118 439.192 282.615 439.819 286.961L409.23 274.104Z" fill="#37474F"/>
<path d="M409.054 276.559C409.054 276.559 407.228 280.615 407.545 280.985C407.861 281.353 409.079 281.652 409.079 281.652L409.054 276.559Z" fill="#FFA8A7"/>
<path d="M414.597 263.734C412.611 265.245 409.192 268.006 409.041 277.122C408.888 286.479 410.021 289.496 411.206 290.581C412.007 291.313 416.689 290.942 418.698 290.391C420.709 289.84 426.49 286.509 428.571 281.441C431.017 275.482 430.522 266.754 426.881 264.221C421.757 260.655 416.277 262.456 414.597 263.734Z" fill="#FFA8A7"/>
<path d="M435.649 333.598C439.165 339.98 442.507 345.602 443.22 352.775C444.725 367.924 439.785 385.242 438.737 396.443C438.737 396.443 442.055 401.474 442.051 407.386C442.049 412.014 435.65 455.706 435.65 455.706C435.65 455.706 430.996 457.361 428.644 454.984L424.246 374.607L426.562 364.822L435.649 333.598Z" fill="#FE9F43"/>
<path opacity="0.2" d="M435.649 333.598C439.165 339.98 442.507 345.602 443.22 352.775C444.725 367.924 439.785 385.242 438.737 396.443C438.737 396.443 442.055 401.474 442.051 407.386C442.049 412.014 435.65 455.706 435.65 455.706C435.65 455.706 430.996 457.361 428.644 454.984L424.246 374.607L426.562 364.822L435.649 333.598Z" fill="black"/>
<path d="M424.246 374.606L426.562 364.821C426.562 364.821 432.985 363.011 439.117 359.012C439.117 359.012 436.74 364.047 429.933 366.808L426.388 379.387L426.082 408.174L424.246 374.606Z" fill="#FE9F43"/>
<path opacity="0.3" d="M424.246 374.606L426.562 364.821C426.562 364.821 432.985 363.011 439.117 359.012C439.117 359.012 436.74 364.047 429.933 366.808L426.388 379.387L426.082 408.174L424.246 374.606Z" fill="black"/>
<path d="M435.649 333.598C437.53 337.179 442.026 343.304 441.071 349.189C439.912 356.321 436.624 361.333 426.562 364.823L417.126 404.691C417.126 404.691 422.04 410.055 423.542 415.159C425.043 420.26 430.47 459.522 430.47 459.522C430.47 459.522 428.792 462.718 423.492 461.944C423.492 461.944 405.013 412.702 403.707 409.531C402.402 406.361 401.556 403.991 402.143 398.826C402.732 393.663 409.027 337.178 409.027 337.178L435.649 333.598Z" fill="#FE9F43"/>
<path opacity="0.2" d="M435.649 333.598C437.53 337.179 442.026 343.304 441.071 349.189C439.912 356.321 436.624 361.333 426.562 364.823L417.126 404.691C417.126 404.691 422.04 410.055 423.542 415.159C425.043 420.26 430.47 459.522 430.47 459.522C430.47 459.522 428.792 462.718 423.492 461.944C423.492 461.944 405.013 412.702 403.707 409.531C402.402 406.361 401.556 403.991 402.143 398.826C402.732 393.663 409.027 337.178 409.027 337.178L435.649 333.598Z" fill="black"/>
<path d="M439.117 303.264L415.633 298.841C415.152 298.718 414.376 298.491 413.395 298.189L413.393 298.188C413.393 298.188 412.392 315.364 406.369 319.308C406.512 320.127 406.634 321.049 406.747 322.098C407.103 325.391 409.025 337.176 409.025 337.176C409.025 337.176 418.134 342.326 425.633 339.789C433.133 337.251 435.648 333.595 435.648 333.595L431.896 326.462C432.92 323.519 437.637 311.61 439.117 303.264Z" fill="#FE9F43"/>
<path opacity="0.7" d="M439.117 303.264L415.633 298.841C415.152 298.718 414.376 298.491 413.395 298.189L413.393 298.188C413.393 298.188 412.392 315.364 406.369 319.308C406.512 320.127 406.634 321.049 406.747 322.098C407.103 325.391 409.025 337.176 409.025 337.176C409.025 337.176 418.134 342.326 425.633 339.789C433.133 337.251 435.648 333.595 435.648 333.595L431.896 326.462C432.92 323.519 437.637 311.61 439.117 303.264Z" fill="white"/>
<path d="M432.922 323.656C432.827 323.914 425.373 328.573 423.158 329.286C426.65 329.084 429.55 328.126 431.897 326.461L432.922 323.656Z" fill="#FE9F43"/>
<path d="M414.01 264.193C414.01 264.193 412.916 272.842 415.567 277.915C415.567 277.915 416.562 274.473 419.069 275.13C421.593 275.792 421.699 279.616 419.946 281.784C418.193 283.952 416.243 283.168 416.243 283.168C416.243 283.168 415.848 289.419 415.637 294.661C415.433 299.711 414.226 311.323 419.281 315.993C424.337 320.662 437.007 322.238 442.945 312.553C446.249 307.165 441.86 297.641 439.819 286.961C437.941 277.142 436.886 262.59 427.955 260.255C419.024 257.921 414.01 264.193 414.01 264.193Z" fill="#37474F"/>
<path d="M446.77 146.069L444.887 147.338C445.038 146.529 445.144 145.727 445.144 144.955C445.144 140.506 442.466 138.702 439.163 140.927C438.202 141.574 437.309 142.51 436.504 143.594C436.504 143.583 436.505 143.571 436.505 143.561C436.505 137.572 432.901 135.143 428.455 138.138C424.009 141.133 420.404 148.417 420.404 154.407C420.404 154.711 420.42 155.001 420.438 155.287C419.497 155.092 418.374 155.36 417.167 156.174C413.865 158.4 411.187 163.809 411.187 168.259C411.187 168.872 411.243 169.428 411.338 169.936L410.335 170.612C407.608 172.448 405.399 176.031 405.399 178.616C405.399 181.198 407.609 181.805 410.335 179.969L446.77 155.428C449.496 153.592 451.706 150.009 451.706 147.424C451.706 144.839 449.496 144.232 446.77 146.069Z" fill="#EBEBEB"/>
</svg>
