<svg width="498" height="495" viewBox="0 0 498 495" fill="none" xmlns="http://www.w3.org/2000/svg">
<g clip-path="url(#clip0_398_336288)">
<path d="M434.212 220.076C434.207 220.071 434.202 219.992 434.197 219.844C434.193 219.673 434.188 219.457 434.181 219.188C434.172 218.587 434.16 217.749 434.146 216.673C434.126 214.467 434.098 211.296 434.063 207.297L434.213 207.447C423.159 207.469 405.579 207.504 385.803 207.544C385.913 207.434 385.555 207.789 386.047 207.297V207.3V207.307V207.32V207.346V207.398V207.501V207.706V208.117V208.937C386.047 209.482 386.047 210.025 386.047 210.567C386.047 211.65 386.046 212.725 386.046 213.791C386.045 215.924 386.043 218.022 386.042 220.077L385.801 219.837C399.587 219.88 411.65 219.919 420.301 219.946C424.611 219.975 428.069 219.998 430.485 220.014C431.66 220.028 432.579 220.038 433.238 220.046C433.535 220.053 433.771 220.058 433.958 220.062C434.122 220.065 434.207 220.07 434.212 220.076C434.217 220.081 434.142 220.086 433.988 220.092C433.809 220.096 433.582 220.101 433.298 220.107C432.652 220.115 431.749 220.124 430.596 220.138C428.194 220.154 424.754 220.178 420.468 220.207C411.775 220.235 399.653 220.272 385.8 220.316L385.56 220.317V220.076C385.559 218.021 385.557 215.923 385.556 213.79C385.556 212.724 385.555 211.649 385.555 210.566C385.555 210.025 385.555 209.481 385.555 208.936V208.116V207.705V207.5V207.397V207.345V207.319V207.306V207.299V207.296C386.048 206.804 385.693 207.16 385.804 207.05C405.58 207.09 423.16 207.125 434.214 207.146H434.365L434.364 207.296C434.329 211.333 434.301 214.534 434.282 216.762C434.266 217.822 434.254 218.65 434.245 219.243C434.239 219.501 434.233 219.707 434.229 219.872C434.222 220.012 434.217 220.081 434.212 220.076Z" fill="#E0E0E0"/>
<path d="M527.326 86.4306C527.321 86.4257 527.316 86.3472 527.311 86.1983C527.307 86.0276 527.302 85.8121 527.295 85.5431C527.286 84.9414 527.274 84.1035 527.259 83.0283C527.239 80.8223 527.211 77.6512 527.176 73.6522L527.326 73.8021C516.272 73.8239 498.693 73.8597 478.917 73.8984C479.026 73.7892 478.668 74.1436 479.161 73.6532V73.6562V73.6631V73.676V73.7018V73.7535V73.8567V74.0622V74.4732V75.2923C479.161 75.8374 479.161 76.3814 479.161 76.9225C479.161 78.0057 479.16 79.0809 479.16 80.1471C479.159 82.2797 479.157 84.3775 479.156 86.4326L478.915 86.1924C492.7 86.236 504.764 86.2748 513.415 86.3016C517.724 86.3304 521.182 86.3542 523.598 86.3701C524.773 86.384 525.693 86.3939 526.351 86.4018C526.648 86.4088 526.885 86.4137 527.072 86.4177C527.234 86.4197 527.321 86.4247 527.326 86.4306C527.331 86.4356 527.255 86.4406 527.102 86.4465C526.923 86.4505 526.696 86.4555 526.411 86.4624C525.765 86.4703 524.862 86.4803 523.709 86.4942C521.307 86.5101 517.867 86.5339 513.582 86.5627C504.888 86.5905 492.766 86.6282 478.914 86.6719L478.673 86.6729V86.4316C478.672 84.3765 478.67 82.2787 478.669 80.1462C478.669 79.0799 478.668 78.0047 478.668 76.9215C478.668 76.3804 478.668 75.8364 478.668 75.2913V74.4722V74.0612V73.8557V73.7525V73.7008V73.675V73.6621V73.6552V73.6522C479.162 73.1598 478.806 73.5152 478.918 73.406C498.694 73.4457 516.273 73.4804 527.328 73.5023H527.479L527.478 73.6522C527.442 77.689 527.414 80.8898 527.395 83.1176C527.379 84.1779 527.367 85.0059 527.358 85.5987C527.352 85.8568 527.346 86.0633 527.342 86.2281C527.335 86.3671 527.331 86.4356 527.326 86.4306Z" fill="#E0E0E0"/>
<path d="M255.82 421.38L244.85 426.075L245.587 361.289C245.93 353.539 242.354 350.23 240.412 348.026C222.794 328.039 196.514 342.536 196.283 362.806L195.624 420.698L184.964 420.577L186.024 359.996C186.101 353.171 191.415 341.336 196.778 337.097C226.428 313.664 256.771 337.878 256.479 363.488L255.82 421.38Z" fill="#F5F5F5"/>
<path d="M255.82 421.381C255.82 421.381 255.812 420.983 255.815 420.224C255.819 419.456 255.826 418.334 255.834 416.863C255.857 413.909 255.892 409.569 255.936 403.983C255.984 398.4 256.045 391.572 256.115 383.647C256.152 379.686 256.193 375.452 256.235 370.963C256.193 366.482 256.641 361.699 255.722 356.799C254.871 351.904 252.802 346.981 249.616 342.593C249.21 342.05 248.821 341.489 248.397 340.952C247.941 340.441 247.482 339.927 247.022 339.411C246.146 338.334 245.039 337.465 244.028 336.484C243.513 336.002 242.916 335.612 242.361 335.168C241.783 334.754 241.255 334.261 240.628 333.907C239.401 333.162 238.208 332.329 236.867 331.737C234.289 330.343 231.415 329.484 228.493 328.743C227.747 328.621 226.998 328.499 226.247 328.376L225.117 328.191C224.737 328.153 224.354 328.141 223.971 328.114C223.205 328.067 222.437 328.02 221.665 327.973C220.892 327.96 220.117 328.023 219.339 328.045C213.108 328.261 206.805 330.387 201.347 334.024C198.617 335.859 196.176 338.151 193.98 340.692C191.833 343.284 190.078 346.223 188.677 349.355C187.329 352.519 186.5 355.914 186.069 359.386C185.772 362.868 185.851 366.448 185.783 370.035C185.62 384.401 185.453 399.277 185.282 414.511C185.259 416.545 185.235 418.573 185.212 420.584L184.966 420.332C188.592 420.374 192.164 420.413 195.626 420.453L195.374 420.698C195.507 409.184 195.638 397.919 195.764 386.973C195.828 381.499 195.891 376.106 195.953 370.801C195.984 368.148 196.015 365.517 196.046 362.91C196.112 360.279 196.535 357.683 197.332 355.222C199.006 350.33 202.132 346.048 206.15 343.115C206.661 342.764 207.132 342.353 207.674 342.054L209.266 341.114C210.376 340.59 211.459 340.007 212.624 339.647C213.757 339.196 214.943 338.945 216.11 338.658C216.698 338.536 217.297 338.48 217.887 338.389L218.774 338.264L219.665 338.229C222.04 338.036 224.392 338.356 226.655 338.813C228.914 339.341 231.052 340.188 233.044 341.245C236.963 343.46 240.249 346.58 242.401 350.246C243.554 352.036 244.3 354.006 244.962 355.947C245.486 357.931 245.9 359.923 245.944 361.911C245.963 362.407 245.981 362.901 246 363.391C245.994 363.88 245.988 364.365 245.982 364.85C245.97 365.818 245.958 366.776 245.946 367.726C245.922 369.625 245.898 371.489 245.875 373.316C245.782 380.622 245.695 387.337 245.618 393.393C245.451 405.496 245.32 414.965 245.234 421.261L245.161 421.188C248.783 421.247 251.438 421.292 253.199 421.321C254.074 421.338 254.724 421.352 255.166 421.36C255.599 421.37 255.82 421.381 255.82 421.381C255.82 421.381 255.617 421.388 255.19 421.388C254.751 421.387 254.107 421.385 253.24 421.383C251.47 421.372 248.801 421.357 245.159 421.334H245.085L245.086 421.26C245.143 414.963 245.228 405.495 245.336 393.39C245.397 387.334 245.463 380.618 245.536 373.312C245.555 371.485 245.574 369.621 245.593 367.721C245.603 366.771 245.613 365.813 245.623 364.845C245.628 364.361 245.633 363.875 245.638 363.387C245.619 362.902 245.599 362.416 245.579 361.927C245.533 359.968 245.119 358.007 244.6 356.055C243.943 354.145 243.207 352.206 242.066 350.446C239.942 346.841 236.701 343.777 232.844 341.603C230.884 340.567 228.779 339.737 226.558 339.221C224.333 338.776 222.021 338.463 219.687 338.657L218.811 338.692L217.94 338.816C217.36 338.908 216.772 338.962 216.195 339.084C215.048 339.367 213.883 339.614 212.772 340.06C211.627 340.414 210.565 340.989 209.475 341.504L207.912 342.429C207.378 342.723 206.918 343.128 206.416 343.474C202.474 346.358 199.409 350.567 197.771 355.368C196.991 357.784 196.58 360.329 196.515 362.915C196.487 365.522 196.458 368.153 196.429 370.806C196.37 376.111 196.31 381.505 196.25 386.978C196.127 397.924 196.001 409.189 195.872 420.703L195.869 420.952L195.62 420.949C192.158 420.91 188.586 420.869 184.96 420.828L184.71 420.825L184.713 420.576C184.736 418.566 184.759 416.538 184.783 414.503C184.958 399.269 185.129 384.394 185.294 370.027C185.366 366.433 185.284 362.885 185.589 359.334C186.026 355.813 186.87 352.372 188.238 349.167C189.66 345.992 191.442 343.015 193.619 340.391C195.846 337.819 198.32 335.5 201.089 333.643C206.62 329.963 213.01 327.818 219.317 327.606C220.105 327.585 220.89 327.523 221.672 327.537L224.347 327.704C224.838 327.76 225.328 327.815 225.819 327.871L228.055 328.239C228.398 328.312 228.742 328.384 229.087 328.457C231.87 329.18 234.593 330.035 237.052 331.367C238.407 331.97 239.614 332.814 240.854 333.57C241.487 333.93 242.021 334.428 242.605 334.847C243.166 335.297 243.768 335.693 244.288 336.182C245.31 337.174 246.427 338.057 247.31 339.146C247.775 339.669 248.238 340.19 248.697 340.707C249.125 341.25 249.518 341.818 249.927 342.368C253.14 346.81 255.219 351.789 256.068 356.736C256.986 361.697 256.522 366.504 256.55 370.995C256.491 375.501 256.435 379.749 256.382 383.723C256.272 391.659 256.176 398.496 256.099 404.087C256.016 409.656 255.951 413.984 255.908 416.93C255.883 418.386 255.864 419.499 255.851 420.259C255.836 421.007 255.82 421.381 255.82 421.381Z" fill="#E0E0E0"/>
<path d="M268.704 465.339L171.889 464.242L172.816 382.766L269.29 383.859C271.348 383.882 272.997 385.565 272.974 387.618L272.128 462.002C272.106 463.866 270.574 465.36 268.704 465.339Z" fill="#E0E0E0"/>
<path d="M255.332 465.189L171.498 464.24C169.19 464.214 167.341 462.326 167.366 460.023L168.2 386.75C168.226 384.522 170.056 382.736 172.29 382.762L257.162 383.723C259.395 383.748 261.185 385.575 261.159 387.803L260.334 460.311C260.303 463.036 258.063 465.221 255.332 465.189Z" fill="#EBEBEB"/>
<path d="M227.262 416.947C227.335 410.548 222.099 405.323 215.64 405.443C209.614 405.555 204.578 410.579 204.459 416.592C204.356 421.834 207.837 426.256 212.626 427.676L205.008 443.287L224.657 443.87L218.846 427.748C223.636 426.443 227.202 422.146 227.262 416.947Z" fill="#E0E0E0"/>
<path d="M260.424 457.592C260.286 457.59 260.396 443.4 260.671 425.903C260.944 408.4 261.279 394.217 261.417 394.219C261.554 394.221 261.445 408.407 261.17 425.91C260.896 443.407 260.562 457.594 260.424 457.592Z" fill="#FAFAFA"/>
<path d="M239.691 385.99C239.691 386.128 227.177 386.263 211.744 386.293C196.306 386.323 183.794 386.236 183.794 386.098C183.794 385.961 196.305 385.825 211.743 385.795C227.176 385.765 239.691 385.852 239.691 385.99Z" fill="white"/>
<path d="M204.019 422.809C203.993 422.824 203.814 422.578 203.555 422.094C203.294 421.613 202.974 420.88 202.702 419.934C202.148 418.061 201.907 415.217 202.886 412.332C203.869 409.448 205.797 407.337 207.379 406.188C208.173 405.604 208.872 405.216 209.374 404.993C209.874 404.768 210.166 404.68 210.178 404.708C210.221 404.793 209.09 405.254 207.596 406.466C206.109 407.657 204.302 409.725 203.359 412.493C202.419 415.262 202.59 417.999 203.044 419.846C203.489 421.716 204.104 422.768 204.019 422.809Z" fill="white"/>
<path d="M208.464 428.25C208.391 428.367 207.721 428.083 206.969 427.616C206.216 427.148 205.664 426.675 205.738 426.558C205.811 426.44 206.48 426.725 207.234 427.193C207.986 427.66 208.537 428.133 208.464 428.25Z" fill="white"/>
<path d="M217.972 330.592C217.974 330.636 217.286 330.686 216.052 330.842C214.818 330.994 213.042 331.31 210.915 331.94C206.685 333.163 200.99 335.994 196.493 341.075C192.001 346.164 189.899 352.158 189.214 356.498C188.854 358.682 188.762 360.48 188.766 361.72C188.766 362.96 188.802 363.649 188.758 363.652C188.741 363.653 188.715 363.483 188.68 363.156C188.654 362.83 188.581 362.347 188.571 361.724C188.509 360.477 188.546 358.66 188.865 356.443C189.468 352.041 191.547 345.924 196.118 340.746C200.694 335.574 206.515 332.75 210.817 331.602C212.981 331.008 214.783 330.743 216.031 330.65C216.653 330.58 217.141 330.593 217.47 330.577C217.798 330.57 217.971 330.575 217.972 330.592Z" fill="white"/>
<path d="M188.245 372.432C188.106 372.429 188.023 371.102 188.058 369.468C188.093 367.834 188.232 366.513 188.37 366.516C188.507 366.519 188.592 367.845 188.557 369.479C188.522 371.112 188.383 372.435 188.245 372.432Z" fill="white"/>
<path d="M249.572 95.8906H201.159V108.669H249.572V95.8906Z" fill="#F5F5F5"/>
<path d="M229.101 122.13C229.096 122.125 229.091 122.046 229.086 121.897C229.082 121.726 229.077 121.511 229.07 121.242C229.061 120.64 229.049 119.802 229.033 118.727C229.013 116.521 228.985 113.35 228.951 109.351L229.101 109.501C218.047 109.523 200.467 109.559 180.691 109.597C180.801 109.488 180.442 109.843 180.935 109.351V109.354V109.361V109.374V109.4V109.451V109.555V109.76V110.171V110.99C180.935 111.535 180.935 112.078 180.935 112.62C180.935 113.704 180.934 114.779 180.934 115.845C180.933 117.978 180.931 120.075 180.93 122.131L180.689 121.89C194.475 121.934 206.538 121.972 215.189 121.999C219.499 122.028 222.956 122.052 225.372 122.068C226.548 122.082 227.467 122.092 228.126 122.1C228.422 122.107 228.659 122.112 228.846 122.116C229.009 122.12 229.096 122.125 229.101 122.13C229.106 122.134 229.03 122.139 228.877 122.145C228.698 122.149 228.471 122.154 228.186 122.161C227.541 122.169 226.637 122.179 225.485 122.193C223.083 122.209 219.643 122.233 215.357 122.262C206.663 122.289 194.541 122.327 180.689 122.371L180.448 122.372V122.131C180.447 120.075 180.445 117.978 180.444 115.845C180.444 114.779 180.443 113.704 180.443 112.62C180.443 112.079 180.443 111.535 180.443 110.99V110.171V109.76V109.555V109.451V109.4V109.374V109.361V109.354V109.351C180.937 108.859 180.582 109.215 180.693 109.105C200.469 109.145 218.049 109.179 229.103 109.201H229.254L229.253 109.351C229.217 113.388 229.189 116.589 229.171 118.817C229.155 119.877 229.143 120.705 229.134 121.298C229.128 121.556 229.122 121.762 229.118 121.927C229.111 122.066 229.106 122.134 229.101 122.13Z" fill="#E0E0E0"/>
<path d="M423.645 316.551H375.232V329.329H423.645V316.551Z" fill="#F5F5F5"/>
<path d="M403.174 342.79C403.169 342.785 403.164 342.707 403.159 342.558C403.155 342.387 403.15 342.171 403.143 341.902C403.134 341.301 403.122 340.463 403.107 339.388C403.088 337.182 403.06 334.011 403.025 330.012L403.175 330.161C392.121 330.183 374.541 330.218 354.765 330.258C354.875 330.149 354.517 330.503 355.009 330.013V330.016V330.022V330.035V330.061V330.113V330.216V330.422V330.833V331.652C355.009 332.197 355.009 332.74 355.009 333.282C355.009 334.365 355.008 335.44 355.008 336.507C355.007 338.639 355.005 340.737 355.004 342.792L354.763 342.552C368.549 342.595 380.612 342.634 389.263 342.661C393.573 342.69 397.031 342.714 399.447 342.729C400.622 342.743 401.541 342.753 402.2 342.761C402.497 342.768 402.733 342.773 402.92 342.777C403.083 342.779 403.169 342.784 403.174 342.79C403.179 342.795 403.104 342.8 402.95 342.806C402.771 342.81 402.544 342.815 402.26 342.822C401.614 342.83 400.711 342.84 399.558 342.854C397.156 342.869 393.716 342.893 389.43 342.922C380.736 342.95 368.615 342.988 354.762 343.031L354.522 343.032V342.791C354.521 340.736 354.519 338.638 354.518 336.506C354.518 335.439 354.517 334.364 354.517 333.281C354.517 332.74 354.517 332.196 354.517 331.651V330.832V330.421V330.215V330.112V330.06V330.034V330.021V330.015V330.012C355.01 329.519 354.655 329.875 354.766 329.765C374.542 329.805 392.122 329.84 403.176 329.862H403.327L403.326 330.012C403.291 334.048 403.263 337.249 403.244 339.477C403.228 340.537 403.216 341.365 403.207 341.958C403.201 342.216 403.195 342.423 403.191 342.587C403.184 342.726 403.179 342.795 403.174 342.79Z" fill="#E0E0E0"/>
<path d="M106.267 75.8759C106.262 75.871 106.257 75.7925 106.252 75.6436C106.248 75.4729 106.243 75.2574 106.236 74.9884C106.227 74.3867 106.215 73.5488 106.199 72.4736C106.179 70.2676 106.151 67.0965 106.117 63.0975L106.267 63.2474C95.2128 63.2693 77.633 63.304 57.8571 63.3437C57.9666 63.2345 57.6084 63.5889 58.1009 63.0985V63.1015V63.1084V63.1213V63.1471V63.1988V63.302V63.5075V63.9186V64.7376C58.1009 65.2827 58.1009 65.8257 58.1009 66.3678C58.1009 67.451 58.0999 68.5262 58.0999 69.5925C58.0989 71.725 58.097 73.8228 58.096 75.8779L57.8552 75.6377C71.6407 75.6814 83.7039 75.7191 92.355 75.7469C96.6646 75.7757 100.122 75.7995 102.538 75.8154C103.714 75.8293 104.633 75.8392 105.292 75.8471C105.588 75.8541 105.825 75.8591 106.012 75.863C106.175 75.865 106.262 75.87 106.267 75.8759C106.272 75.8809 106.196 75.8859 106.043 75.8918C105.864 75.8958 105.637 75.9008 105.352 75.9067C104.707 75.9147 103.804 75.9246 102.651 75.9385C100.249 75.9544 96.8088 75.9782 92.5231 76.007C83.8293 76.0348 71.7074 76.0725 57.8552 76.1162L57.6143 76.1172V75.8759C57.6134 73.8208 57.6114 71.723 57.6104 69.5905C57.6104 68.5242 57.6094 67.449 57.6094 66.3658C57.6094 65.8247 57.6094 65.2807 57.6094 64.7356V63.9166V63.5055V63.3V63.1968V63.1462V63.1203V63.1074V63.1005V63.0975C58.1029 62.6051 57.7477 62.9605 57.8591 62.8513C77.635 62.891 95.2148 62.9257 106.269 62.9476H106.42L106.419 63.0975C106.383 67.1343 106.355 70.3351 106.337 72.5629C106.321 73.6233 106.309 74.4513 106.3 75.044C106.294 75.3021 106.288 75.5086 106.284 75.6734C106.277 75.8124 106.272 75.8809 106.267 75.8759Z" fill="#E0E0E0"/>
<path d="M394.939 57.5244C394.934 57.5194 394.929 57.441 394.924 57.2921C394.92 57.1213 394.915 56.9059 394.908 56.6368C394.899 56.0352 394.887 55.1972 394.871 54.122C394.851 51.916 394.823 48.745 394.789 44.7459L394.939 44.8959C383.885 44.9177 366.305 44.9524 346.529 44.9922C346.638 44.883 346.28 45.2374 346.773 44.7459V44.7489V44.7559V44.7688V44.7946V44.8462V44.9495V45.155V45.566V46.3851C346.773 46.9301 346.773 47.4742 346.773 48.0153C346.773 49.0984 346.772 50.1736 346.772 51.2399C346.771 53.3725 346.769 55.4703 346.768 57.5254L346.527 57.2851C360.313 57.3288 372.376 57.3675 381.027 57.3943C385.336 57.4231 388.794 57.4469 391.21 57.4628C392.385 57.4767 393.305 57.4867 393.964 57.4946C394.26 57.5006 394.497 57.5065 394.684 57.5095C394.847 57.5135 394.934 57.5194 394.939 57.5244C394.944 57.5293 394.868 57.5353 394.715 57.5403C394.536 57.5442 394.309 57.5492 394.024 57.5562C393.379 57.5641 392.476 57.574 391.323 57.5879C388.921 57.6038 385.481 57.6276 381.195 57.6564C372.501 57.6842 360.379 57.7219 346.527 57.7656L346.286 57.7666V57.5254C346.285 55.4703 346.283 53.3725 346.282 51.2399C346.282 50.1736 346.281 49.0984 346.281 48.0153C346.281 47.4742 346.281 46.9301 346.281 46.3851V45.566V45.155V44.9495V44.8462V44.7946V44.7688V44.7559V44.7489V44.7459C346.775 44.2535 346.42 44.6089 346.531 44.4997C366.307 44.5394 383.887 44.5742 394.941 44.596H395.092L395.091 44.7459C395.055 48.7827 395.027 51.9845 395.008 54.2114C394.993 55.2717 394.981 56.0997 394.972 56.6924C394.965 56.9505 394.96 57.157 394.956 57.3218C394.949 57.4608 394.944 57.5293 394.939 57.5244Z" fill="#E0E0E0"/>
<path d="M401.503 44.7474C401.497 44.7415 401.491 44.659 401.485 44.5042C401.48 44.3205 401.473 44.0981 401.466 43.8271C401.455 43.1986 401.44 42.3438 401.422 41.2646C401.399 39.0239 401.366 35.8598 401.326 31.969L401.503 32.1457C393.968 32.1636 383.717 32.1884 372.418 32.2152C372.196 32.4346 372.715 31.9154 372.663 31.97V31.9729V31.9799V31.9928V32.0186V32.0712V32.1765V32.3859V32.8049V33.6399C372.663 34.1948 372.663 34.7478 372.662 35.2969C372.661 36.3949 372.661 37.48 372.66 38.5493C372.657 40.6868 372.654 42.7598 372.651 44.7454L372.416 44.5111C380.813 44.5558 388.042 44.5945 393.223 44.6223C395.779 44.6501 397.827 44.671 399.284 44.6868C399.965 44.6988 400.507 44.7087 400.919 44.7166C401.294 44.7276 401.493 44.7375 401.503 44.7474C401.513 44.7573 401.332 44.7663 400.975 44.7762C400.576 44.7831 400.05 44.7931 399.389 44.806C397.944 44.8219 395.914 44.8437 393.381 44.8705C388.16 44.8983 380.876 44.937 372.415 44.9817L372.18 44.9827V44.7474C372.177 42.7618 372.174 40.6888 372.171 38.5513C372.17 37.482 372.17 36.3969 372.169 35.2989C372.169 34.7498 372.169 34.1968 372.168 33.6419V32.8069V32.3879V32.1785V32.0722V32.0196V31.9928V31.9799V31.9729V31.97C372.114 32.0216 372.636 31.5023 372.417 31.7228C383.716 31.7496 393.967 31.7744 401.502 31.7922H401.682L401.68 31.969C401.64 35.9055 401.607 39.1063 401.584 41.3729C401.565 42.4352 401.55 43.2761 401.54 43.8956C401.527 44.4664 401.515 44.7593 401.503 44.7474Z" fill="#E0E0E0"/>
<path d="M89.4544 362.215C89.4494 362.21 89.4445 362.131 89.4395 361.982C89.4355 361.812 89.4305 361.596 89.4236 361.327C89.4146 360.726 89.4027 359.888 89.3867 358.812C89.3668 356.606 89.339 353.435 89.3042 349.436L89.4544 349.586C78.4003 349.608 60.8205 349.643 41.0446 349.683C41.1541 349.573 40.7959 349.928 41.2884 349.436V349.439V349.446V349.459V349.485V349.537V349.639V349.844V350.255V351.074C41.2884 351.62 41.2884 352.164 41.2884 352.705C41.2884 353.788 41.2874 354.863 41.2874 355.929C41.2864 358.062 41.2845 360.16 41.2835 362.215L41.0427 361.975C54.8282 362.018 66.8914 362.057 75.5424 362.084C79.8521 362.113 83.3099 362.136 85.7259 362.152C86.9011 362.166 87.8215 362.176 88.4793 362.184C88.7758 362.19 89.0126 362.196 89.1997 362.2C89.3639 362.204 89.4494 362.209 89.4544 362.215C89.4594 362.22 89.3838 362.225 89.2305 362.231C89.0514 362.235 88.8245 362.24 88.54 362.247C87.8942 362.255 86.9916 362.264 85.8384 362.278C83.4363 362.294 79.9964 362.318 75.7106 362.347C67.0168 362.375 54.8949 362.412 41.0427 362.456L40.8018 362.457V362.216C40.8009 360.161 40.7989 358.063 40.7979 355.93C40.7979 354.864 40.7969 353.789 40.7969 352.706C40.7969 352.165 40.7969 351.621 40.7969 351.075V350.256V349.845V349.64V349.538V349.486V349.46V349.447V349.44V349.437C41.2904 348.945 40.9352 349.3 41.0466 349.191C60.8225 349.231 78.4023 349.266 89.4564 349.287H89.6077L89.6067 349.437C89.5708 353.474 89.543 356.676 89.5241 358.903C89.5081 359.963 89.4962 360.791 89.4873 361.384C89.4803 361.642 89.4753 361.848 89.4713 362.013C89.4644 362.151 89.4594 362.22 89.4544 362.215Z" fill="#E0E0E0"/>
<path d="M96.019 349.437C96.013 349.431 96.0071 349.348 96.0001 349.194C95.9951 349.01 95.9882 348.788 95.9812 348.516C95.9703 347.888 95.9553 347.033 95.9374 345.954C95.9145 343.713 95.8817 340.549 95.8419 336.658L96.019 336.835C88.4834 336.853 78.2323 336.878 66.9333 336.905C66.7114 337.124 67.2309 336.605 67.1781 336.659V336.662V336.669V336.682V336.708V336.761V336.866V337.075V337.494V338.329C67.1781 338.885 67.1781 339.437 67.1771 339.986C67.1761 341.084 67.1751 342.169 67.1751 343.239C67.1722 345.376 67.1692 347.449 67.1662 349.435L66.9314 349.201C75.3287 349.245 82.5578 349.284 87.7391 349.312C90.2944 349.339 92.3423 349.36 93.8 349.376C94.4806 349.388 95.023 349.398 95.4349 349.406C95.8091 349.417 96.0091 349.427 96.019 349.437C96.029 349.447 95.8479 349.456 95.4906 349.466C95.0916 349.473 94.5652 349.483 93.9045 349.495C92.4597 349.511 90.4297 349.533 87.8973 349.56C82.6762 349.588 75.3924 349.626 66.9314 349.671L66.6965 349.672V349.437C66.6935 347.451 66.6906 345.378 66.6876 343.241C66.6866 342.171 66.6866 341.086 66.6856 339.988C66.6856 339.439 66.6856 338.886 66.6846 338.331V337.496V337.077V336.868V336.763V336.71V336.684V336.671V336.664V336.661C66.6308 336.713 67.1523 336.194 66.9333 336.414C78.2323 336.441 88.4834 336.466 96.019 336.484H96.1981L96.1961 336.66C96.1563 340.597 96.1235 343.798 96.1006 346.064C96.0817 347.127 96.0668 347.967 96.0568 348.587C96.0429 349.156 96.031 349.449 96.019 349.437Z" fill="#E0E0E0"/>
<path d="M241.895 257.145C241.89 257.14 241.885 257.062 241.88 256.913C241.876 256.742 241.871 256.527 241.864 256.258C241.855 255.656 241.843 254.818 241.827 253.743C241.807 251.537 241.779 248.366 241.745 244.367L241.895 244.517C230.841 244.538 213.261 244.573 193.485 244.613C193.595 244.504 193.236 244.858 193.729 244.367V244.37V244.377V244.39V244.415V244.467V244.57V244.776V245.187V246.006C193.729 246.551 193.729 247.095 193.729 247.636C193.729 248.719 193.728 249.794 193.728 250.861C193.727 252.993 193.725 255.091 193.724 257.146L193.483 256.906C207.269 256.95 219.332 256.988 227.983 257.015C232.292 257.044 235.75 257.068 238.166 257.084C239.342 257.098 240.261 257.107 240.92 257.115C241.216 257.121 241.453 257.127 241.64 257.131C241.803 257.134 241.889 257.139 241.895 257.145C241.9 257.15 241.824 257.155 241.671 257.161C241.492 257.165 241.265 257.17 240.98 257.177C240.335 257.185 239.431 257.195 238.279 257.209C235.877 257.225 232.437 257.248 228.151 257.277C219.457 257.305 207.335 257.343 193.483 257.386L193.242 257.387V257.146C193.241 255.091 193.239 252.993 193.238 250.861C193.238 249.794 193.237 248.719 193.237 247.636C193.237 247.095 193.237 246.551 193.237 246.006V245.187V244.776V244.57V244.467V244.415V244.39V244.377V244.37V244.367C193.731 243.874 193.376 244.231 193.487 244.12C213.263 244.16 230.843 244.195 241.897 244.217H242.048L242.047 244.367C242.011 248.403 241.983 251.605 241.964 253.832C241.949 254.892 241.937 255.72 241.928 256.313C241.921 256.571 241.916 256.778 241.912 256.943C241.905 257.082 241.9 257.15 241.895 257.145Z" fill="#E0E0E0"/>
<path d="M248.458 244.368C248.453 244.362 248.447 244.279 248.44 244.124C248.435 243.941 248.428 243.718 248.421 243.447C248.41 242.819 248.395 241.964 248.377 240.885C248.354 238.644 248.321 235.48 248.281 231.589L248.458 231.766C240.923 231.784 230.672 231.808 219.373 231.835C219.151 232.055 219.67 231.535 219.618 231.59V231.593V231.6V231.613V231.639V231.691V231.797V232.007V232.426V233.261C219.618 233.817 219.618 234.369 219.617 234.918C219.616 236.016 219.616 237.101 219.615 238.17C219.612 240.308 219.609 242.381 219.606 244.367L219.371 244.132C227.768 244.177 234.997 244.216 240.179 244.243C242.734 244.27 244.782 244.292 246.239 244.308C246.92 244.32 247.462 244.33 247.874 244.338C248.25 244.348 248.449 244.358 248.458 244.368C248.468 244.377 248.287 244.386 247.93 244.396C247.531 244.403 247.005 244.413 246.344 244.426C244.899 244.442 242.869 244.464 240.336 244.491C235.115 244.518 227.831 244.557 219.37 244.602L219.135 244.603V244.368C219.132 242.382 219.129 240.309 219.126 238.171C219.125 237.102 219.124 236.017 219.124 234.919C219.124 234.37 219.124 233.817 219.123 233.262V232.427V232.008V231.798V231.692V231.64V231.614V231.601V231.594V231.591C219.069 231.643 219.591 231.123 219.372 231.344C230.671 231.371 240.922 231.395 248.457 231.413L248.637 231.414L248.635 231.591C248.595 235.528 248.562 238.728 248.539 240.995C248.52 242.057 248.505 242.898 248.495 243.518C248.483 244.086 248.471 244.379 248.458 244.368Z" fill="#E0E0E0"/>
<path d="M481.913 465.328C481.913 465.471 383.651 465.587 262.466 465.587C141.24 465.587 42.998 465.47 42.998 465.328C42.998 465.185 141.239 465.07 262.466 465.07C383.651 465.07 481.913 465.185 481.913 465.328Z" fill="#263238"/>
<path d="M62.648 410.438L44.7617 434.675L74.8713 457.032C76.8356 454.031 65.5555 436.703 65.5555 436.703L77.6535 421.643L62.648 410.438Z" fill="#212B36"/>
<path d="M57.2163 428.487C56.5148 428.213 55.6252 428.569 55.3217 429.256C55.0192 429.944 55.3725 430.85 56.069 431.136C56.7656 431.422 57.8472 431.029 58.0711 430.311C58.295 429.593 57.8213 428.552 57.076 428.442" fill="white"/>
<path d="M44.7217 434.725L46.6252 432.121L74.7566 454.721C74.7566 454.721 75.6532 456.305 74.7934 457.128L44.7217 434.725Z" fill="#092C4C"/>
<path d="M66.1584 436.914C66.0439 437.057 65.2598 436.578 64.1842 436.512C63.1105 436.419 62.2637 436.777 62.1722 436.619C62.0577 436.49 62.9314 435.776 64.2319 435.877C65.5315 435.968 66.2907 436.803 66.1584 436.914Z" fill="#092C4C"/>
<path d="M68.3449 440.559C68.2722 440.727 67.4493 440.503 66.4871 440.753C65.5179 440.974 64.891 441.552 64.7497 441.437C64.5945 441.357 65.1338 440.422 66.3358 440.135C67.5349 439.836 68.4454 440.417 68.3449 440.559Z" fill="#092C4C"/>
<path d="M67.3247 445.664C67.1675 445.597 67.5098 444.711 68.4869 444.188C69.4601 443.658 70.3905 443.855 70.3606 444.024C70.3537 444.207 69.5855 444.306 68.7904 444.748C67.9854 445.171 67.4819 445.759 67.3247 445.664Z" fill="#092C4C"/>
<path d="M68.5335 433.174C68.3723 433.262 67.8489 432.558 66.9752 431.997C66.1135 431.418 65.2587 431.217 65.2766 431.034C65.2707 430.864 66.3065 430.791 67.3265 431.465C68.3504 432.133 68.6917 433.112 68.5335 433.174Z" fill="#092C4C"/>
<path d="M135.441 309.029C135.986 312.068 136.833 337.912 137.381 351.54C137.93 365.169 136.565 371.882 135.005 374.933C133.444 377.983 74.5232 421.312 70.0384 431.685L55.1553 419.683C55.1553 419.683 77.0039 380.469 86.3823 373.35C95.7608 366.231 113.668 359.676 113.668 359.676L108.571 285.022L133.037 283.691L135.441 309.029Z" fill="#092C4C"/>
<path d="M80.6855 434.395L80.4248 464.492L117.954 465.007C117.783 461.427 98.4673 453.979 98.4673 453.979L99.4275 434.701L80.6855 434.395Z" fill="#212B36"/>
<path d="M86.8849 452.199C86.1555 452.387 85.643 453.195 85.8012 453.93C85.9595 454.664 86.7784 455.191 87.5108 455.017C88.2421 454.841 88.8889 453.891 88.6481 453.178C88.4083 452.466 87.4123 451.899 86.7446 452.245" fill="white"/>
<path d="M80.4199 464.555L80.4329 461.332L116.502 463.201C116.502 463.201 118.158 463.961 117.945 465.131L80.4199 464.555Z" fill="#092C4C"/>
<path d="M99.0774 453.799C99.0684 453.982 98.151 454.052 97.2415 454.628C96.3161 455.18 95.8414 455.965 95.6733 455.891C95.5051 455.853 95.7937 454.764 96.9071 454.086C98.0146 453.398 99.1192 453.631 99.0774 453.799Z" fill="#092C4C"/>
<path d="M102.991 455.475C103.031 455.653 102.233 455.953 101.6 456.718C100.944 457.465 100.776 458.299 100.594 458.288C100.422 458.315 100.309 457.242 101.114 456.305C101.911 455.363 102.99 455.301 102.991 455.475Z" fill="#092C4C"/>
<path d="M105.162 460.207C104.995 460.243 104.752 459.326 105.237 458.331C105.714 457.332 106.584 456.949 106.66 457.103C106.761 457.255 106.197 457.784 105.812 458.607C105.408 459.42 105.344 460.191 105.162 460.207Z" fill="#092C4C"/>
<path d="M98.8072 449.378C98.7276 449.544 97.8907 449.28 96.8539 449.335C95.816 449.37 95.0051 449.706 94.9115 449.548C94.807 449.414 95.6031 448.749 96.826 448.699C98.047 448.643 98.8987 449.236 98.8072 449.378Z" fill="#092C4C"/>
<path d="M138.15 280.608C138.15 282.37 141.004 326.851 126.432 359.014C126.432 359.014 121.383 369.077 120.499 373.482C119.615 377.888 100.718 450.826 100.718 450.826L78.9283 450.033C78.9283 450.033 75.4396 413.484 78.972 392.336C82.5045 371.187 88.9555 373.655 88.9555 359.996C88.9555 346.337 85.7036 318.01 85.7036 318.01C85.7036 318.01 80.9433 310.271 79.3213 295.275C78.0029 283.089 83.7473 270.038 83.7473 270.038L89.4341 259.998L137.504 257.484L138.15 280.608Z" fill="#092C4C"/>
<path d="M138.151 280.606C138.151 280.606 138.157 280.094 138.139 279.093C138.117 278.081 138.086 276.594 138.044 274.645C137.947 270.721 137.805 264.942 137.62 257.481L137.617 257.363L137.499 257.369C125.688 257.968 109.277 258.8 89.4256 259.807L89.3211 259.812L89.2694 259.903C87.5012 263.017 85.5658 266.426 83.5717 269.937L83.5657 269.948L83.5617 269.956C82.1308 273.414 80.9736 277.091 80.1357 280.958C79.281 284.817 78.8063 288.887 78.9357 293.058C79.2013 297.223 79.881 301.428 80.892 305.659C81.9477 309.874 83.294 314.132 85.4991 318.134L85.4653 318.036C86.2902 325.446 87.0514 333.121 87.6992 341.021C88.0186 344.972 88.3022 348.98 88.4982 353.041C88.5977 355.072 88.6704 357.116 88.6863 359.17C88.7221 360.2 88.6455 361.22 88.6266 362.25C88.5201 363.269 88.4694 364.303 88.2445 365.308C87.8853 367.338 87.1529 369.286 86.1817 371.138C85.2165 372.995 84.1339 374.831 83.2264 376.771C81.3756 380.642 80.1785 384.828 79.3118 389.084C77.5764 397.624 77.2261 406.5 77.1296 415.437C77.0918 427.248 77.6898 438.838 78.665 450.055L78.6849 450.284L78.9178 450.293C86.3429 450.562 93.6168 450.825 100.708 451.081L100.916 451.089L100.967 450.888C107.28 426.454 113.173 403.62 118.364 383.087C119.003 380.516 119.633 377.984 120.253 375.488C120.572 374.23 120.784 372.976 121.172 371.788C121.552 370.591 121.996 369.42 122.456 368.265C123.389 365.962 124.396 363.729 125.424 361.553C125.685 361.01 125.943 360.47 126.202 359.933C126.473 359.404 126.728 358.86 126.938 358.305C127.388 357.207 127.835 356.119 128.277 355.042C131.713 346.378 133.736 337.965 135.159 330.287C137.947 314.891 138.316 302.362 138.444 293.816C138.499 285.253 138.151 280.606 138.151 280.606C138.151 280.606 138.146 280.897 138.158 281.468C138.173 282.048 138.195 282.894 138.223 284.003C138.285 286.235 138.318 289.539 138.266 293.816C138.082 302.354 137.661 314.87 134.833 330.229C133.392 337.887 131.352 346.277 127.912 354.896C127.47 355.967 127.024 357.048 126.574 358.139C126.363 358.692 126.113 359.223 125.839 359.758C125.579 360.296 125.318 360.837 125.056 361.38C124.022 363.559 123.008 365.796 122.066 368.109C121.602 369.269 121.152 370.447 120.765 371.662C120.365 372.884 120.148 374.154 119.832 375.387C119.208 377.88 118.575 380.411 117.932 382.978C112.647 403.488 106.765 426.323 100.468 450.76L100.728 450.568C93.6367 450.308 86.3638 450.042 78.9386 449.769L79.1914 450.007C78.2222 438.813 77.6262 427.228 77.664 415.442C77.7605 406.522 78.1098 397.673 79.8322 389.191C80.6929 384.959 81.8771 380.818 83.703 376.996C84.5996 375.078 85.6712 373.259 86.6484 371.376C87.6325 369.499 88.3907 367.482 88.7569 365.405C88.9858 364.372 89.0375 363.322 89.145 362.282C89.1639 361.241 89.2395 360.196 89.2037 359.167C89.1868 357.102 89.1122 355.052 89.0117 353.017C88.8117 348.948 88.5251 344.935 88.2027 340.982C87.5479 333.074 86.7787 325.399 85.9449 317.982L85.9399 317.936L85.9111 317.883C83.7567 313.983 82.3935 309.724 81.3457 305.548C80.3357 301.355 79.6531 297.146 79.3844 293.039C79.2511 288.919 79.7128 284.882 80.5566 281.049C81.3795 277.211 82.5298 273.538 83.9368 270.12L83.9279 270.138C85.914 266.622 87.8425 263.209 89.6037 260.092L89.4475 260.188C109.296 259.119 125.703 258.235 137.513 257.599L137.392 257.486C137.624 264.945 137.805 270.722 137.927 274.646C137.995 276.595 138.045 278.081 138.081 279.093C138.116 280.094 138.151 280.606 138.151 280.606Z" fill="#212B36"/>
<path d="M122.517 189.505C122.517 189.505 109.536 187.219 110.789 203.832C111.541 213.779 114.467 230.794 116.089 241.673C116.649 245.432 117.879 252.166 122.863 256.117L158.586 280.785L169.86 267.336L137.963 237.019L132.949 207.037L122.517 189.505Z" fill="#212B36"/>
<path d="M124.037 129.645C128.159 132.885 130.513 138.241 130.107 143.462C129.91 145.998 129.209 148.893 130.862 150.829C132.499 152.745 135.713 152.691 137.282 154.662C139.129 156.984 137.582 160.439 138.243 163.33C138.864 166.042 141.732 168.041 144.498 167.69C141.255 170.333 137.269 172.058 133.119 172.616C132.058 171.257 130.996 169.897 129.934 168.538C131.141 169.965 130.821 172.241 129.652 173.7C128.483 175.159 126.679 175.954 124.894 176.519C116.37 179.216 106.599 177.632 99.3701 172.38" fill="#092C4C"/>
<path d="M76.2503 152.053C76.8872 150.109 77.9559 148.307 78.3837 146.307C79.3042 142.008 77.2056 137.169 79.2952 133.299C80.7828 130.544 83.9531 129.196 86.9502 128.274C89.9473 127.354 93.1644 126.573 95.3993 124.378C97.0382 122.768 97.9715 120.551 99.6044 118.936C101.933 116.634 105.37 115.854 108.642 115.654C112.001 115.448 115.475 115.77 118.497 117.249C121.518 118.728 124.027 121.506 124.566 124.821C124.828 126.438 124.629 128.131 125.14 129.688C125.701 131.399 127.048 132.73 127.879 134.329C129.634 137.707 128.683 142.256 125.721 144.653L102.655 174.378C97.8103 176.204 86.0696 173.996 82.3252 170.426C78.5807 166.855 74.6423 156.965 76.2503 152.053Z" fill="#092C4C"/>
<path d="M125.112 140.875C124.162 134.126 119.017 126.151 112.299 127.385L91.5623 134.34C89.5214 134.715 90.9822 138.035 91.1822 140.096L95.6908 186.756C95.657 186.766 92.8897 188.752 91.8897 188.368C91.63 188.269 91.3971 188.56 91.5544 188.788C94.045 192.396 105.801 208.169 117.917 203.354C120.623 202.278 117.634 193.769 117.95 190.616L117.59 182.562C117.321 178.451 117.192 176.766 117.197 176.805C117.197 176.805 125.77 174.7 126.698 163.258C127.162 157.57 126.169 148.374 125.112 140.875Z" fill="#FFBF9D"/>
<path d="M123.668 151.265C123.754 152.028 123.177 152.73 122.379 152.835C121.583 152.939 120.866 152.407 120.781 151.642C120.695 150.879 121.271 150.176 122.067 150.072C122.866 149.967 123.582 150.501 123.668 151.265Z" fill="#092C4C"/>
<path d="M109.547 152.148C109.634 152.911 109.057 153.614 108.259 153.717C107.463 153.822 106.746 153.288 106.661 152.525C106.575 151.762 107.151 151.059 107.947 150.954C108.744 150.85 109.461 151.384 109.547 152.148Z" fill="#092C4C"/>
<path d="M124.19 146.484C124.031 146.75 122.679 145.896 120.987 146.142C119.293 146.359 118.208 147.546 117.987 147.331C117.88 147.238 118.011 146.78 118.481 146.246C118.942 145.716 119.78 145.145 120.836 144.999C121.892 144.856 122.849 145.18 123.431 145.568C124.024 145.957 124.268 146.363 124.19 146.484Z" fill="#092C4C"/>
<path d="M108.99 147.735C108.79 147.979 107.459 147.016 105.639 147.093C103.82 147.143 102.528 148.197 102.32 147.967C102.218 147.865 102.41 147.431 102.974 146.955C103.526 146.481 104.482 146.004 105.618 145.963C106.753 145.925 107.727 146.334 108.297 146.77C108.876 147.205 109.087 147.624 108.99 147.735Z" fill="#092C4C"/>
<path d="M114.696 158.429C114.682 158.341 115.641 158.098 117.2 157.777C117.596 157.705 117.969 157.597 118.014 157.32C118.086 157.025 117.886 156.609 117.657 156.159C117.207 155.224 116.737 154.244 116.243 153.217C114.271 149.024 112.81 145.563 112.98 145.486C113.15 145.407 114.887 148.743 116.859 152.937C117.336 153.971 117.791 154.958 118.225 155.901C118.411 156.342 118.711 156.836 118.553 157.449C118.468 157.755 118.191 157.993 117.941 158.081C117.691 158.179 117.466 158.201 117.27 158.227C115.692 158.435 114.71 158.517 114.696 158.429Z" fill="#092C4C"/>
<path d="M117.198 176.805C117.198 176.805 109.614 177.88 101.714 173.93C101.714 173.93 106.139 181.57 117.397 179.643L117.198 176.805Z" fill="#FF9A6C"/>
<path d="M109.926 162.98C110.138 162.618 110.365 162.239 110.728 162.028C111.128 161.796 111.626 161.806 112.082 161.892C112.744 162.016 113.398 162.295 113.853 162.791C114.308 163.288 114.529 164.026 114.3 164.659C114.124 165.311 113.148 165.668 112.482 165.786C111.815 165.903 111.123 165.708 110.533 165.377C110.038 165.099 109.562 164.655 109.536 164.089C109.518 163.692 109.725 163.323 109.926 162.98Z" fill="#FF9A6C"/>
<path d="M110.247 160.786C110.499 160.752 110.634 162.445 112.179 163.535C113.721 164.63 115.517 164.3 115.548 164.536C115.58 164.641 115.17 164.897 114.409 164.975C113.662 165.059 112.549 164.902 111.604 164.236C110.661 163.567 110.204 162.612 110.092 161.922C109.973 161.219 110.13 160.785 110.247 160.786Z" fill="#092C4C"/>
<path d="M108.853 141.63C108.731 142.066 107.155 141.984 105.337 142.346C103.512 142.67 102.074 143.32 101.802 142.958C101.679 142.785 101.906 142.366 102.472 141.909C103.034 141.454 103.95 140.992 105.042 140.784C106.133 140.58 107.155 140.677 107.844 140.896C108.538 141.117 108.904 141.424 108.853 141.63Z" fill="#092C4C"/>
<path d="M123.225 140.775C122.939 141.153 121.679 140.88 120.197 140.977C118.713 141.027 117.482 141.424 117.164 141.076C117.024 140.906 117.194 140.536 117.716 140.158C118.23 139.783 119.111 139.441 120.131 139.389C121.15 139.339 122.056 139.593 122.598 139.916C123.151 140.24 123.351 140.591 123.225 140.775Z" fill="#092C4C"/>
<path d="M86.9757 135.967C88.0215 134.361 89.9022 133.534 91.6933 132.845C99.4189 129.869 107.5 127.815 115.711 126.742C116.734 128.424 115.789 130.712 114.245 131.937C112.703 133.161 110.72 133.644 108.873 134.333C107.026 135.022 105.134 136.084 104.372 137.898C103.563 139.828 104.246 142.115 103.536 144.083C102.313 147.469 97.5761 148.561 96.3731 151.954C95.4626 154.52 96.9522 157.252 97.3253 159.949C97.7472 163.005 96.6129 166.235 94.372 168.36C92.6048 170.036 90.1848 170.976 87.7508 171.022C87.1886 161.306 86.6264 151.588 86.0652 141.872C85.9478 139.848 85.8702 137.668 86.9757 135.967Z" fill="#092C4C"/>
<path d="M67.3563 160.515C68.8946 159.14 70.8231 157.95 71.436 155.982C72.3286 153.116 70.022 149.747 71.5077 147.137C72.8629 144.756 76.8551 144.877 78.1149 142.445C79.099 140.546 77.9686 138.865 78.3428 137.196C78.7169 135.528 81.0901 134.065 82.7907 134.264L96.0907 153.497C97.3266 159.948 98.5684 163.383 97.1803 167.157C96.4191 169.227 95.426 171.246 95.1275 173.431C94.829 175.616 95.3892 178.092 97.1793 179.384C89.2277 180.005 81.7747 175.853 74.8879 171.838C72.458 170.421 70.029 169.006 67.5991 167.589C66.8408 167.146 66.0508 166.675 65.596 165.924C64.5283 164.161 65.8179 161.89 67.3563 160.515Z" fill="#092C4C"/>
<path d="M74.6895 169.895C74.6895 169.895 74.9721 170 75.5393 170.058C76.1025 170.114 76.9582 170.14 78.016 169.883C79.0638 169.629 80.3355 169.094 81.4708 168.027C82.6072 166.977 83.5226 165.338 83.7455 163.39C83.854 162.419 83.7883 161.376 83.4848 160.347C83.1783 159.312 82.6032 158.352 82.0082 157.398C81.4211 156.442 80.7802 155.461 80.4847 154.338C80.1922 153.235 80.1902 151.924 80.9106 150.974C81.634 150.007 82.9783 149.771 84.2242 149.269C84.852 149.019 85.4998 148.631 85.9197 148.016C86.3397 147.404 86.481 146.649 86.467 145.935C86.4501 144.483 85.8292 143.154 85.5625 141.802C85.4262 141.125 85.3774 140.424 85.5496 139.776C85.7177 139.128 86.1277 138.559 86.6969 138.167C87.8452 137.348 89.3099 137.218 90.7199 137.094C92.1379 136.993 93.6205 136.673 94.8186 135.891C96.0296 135.144 97.0008 134.075 97.6237 132.857C98.2406 131.625 98.4635 130.303 98.6595 129.055C98.8516 127.803 99.0237 126.585 99.4387 125.487C99.8546 124.394 100.524 123.446 101.309 122.675C102.913 121.152 104.938 120.342 106.811 120.189C108.696 120.03 110.406 120.528 111.737 121.212C113.079 121.897 114.082 122.76 114.799 123.54C116.233 125.125 116.633 126.285 116.693 126.247C116.7 126.244 116.674 126.174 116.617 126.041C116.556 125.91 116.481 125.706 116.342 125.46C116.084 124.956 115.642 124.237 114.934 123.42C114.225 122.609 113.22 121.708 111.856 120.983C110.504 120.26 108.748 119.719 106.785 119.863C104.84 120.001 102.731 120.819 101.043 122.398C100.217 123.198 99.5033 124.191 99.0576 125.342C98.6147 126.494 98.4346 127.742 98.2366 128.987C98.0376 130.23 97.8107 131.506 97.2286 132.656C96.6405 133.797 95.7211 134.805 94.5788 135.505C93.4404 136.239 92.0911 136.53 90.6751 136.635C89.2801 136.76 87.7119 136.878 86.4272 137.788C85.7894 138.224 85.2929 138.903 85.1018 139.656C84.9038 140.408 84.9675 141.178 85.1098 141.89C85.4013 143.321 86.0003 144.607 86.0123 145.942C86.0262 146.598 85.8978 147.249 85.5486 147.762C85.1983 148.275 84.65 148.619 84.053 148.859C83.459 149.109 82.8201 149.281 82.2042 149.541C81.5922 149.792 80.9783 150.161 80.5693 150.714C79.7374 151.837 79.7762 153.27 80.0897 154.44C80.419 155.648 81.0897 156.647 81.6808 157.598C82.2828 158.546 82.843 159.471 83.1415 160.447C83.4391 161.423 83.5117 162.419 83.4182 163.351C83.2251 165.223 82.3674 166.809 81.2897 167.838C80.2111 168.884 78.9862 169.43 77.9692 169.705C75.8925 170.234 74.6835 169.811 74.6895 169.895Z" fill="#212B36"/>
<path d="M64.0817 156.221C64.0817 156.221 63.9225 156.415 63.819 156.869C63.7145 157.315 63.7274 158.051 64.1603 158.837C64.3832 159.219 64.7086 159.616 65.1782 159.904C65.6449 160.19 66.238 160.366 66.8768 160.356C68.1425 160.37 69.6341 159.608 70.3595 158.149C70.7267 157.436 70.9257 156.601 70.9267 155.73C70.9257 154.855 70.6998 153.966 70.3675 153.108C69.7366 151.392 68.5913 149.719 68.5664 147.711C68.5445 146.739 68.7734 145.683 69.4888 144.984C70.1973 144.267 71.2919 144.092 72.3795 144.084C73.4691 144.047 74.6572 144.186 75.8224 143.727C76.3946 143.496 76.911 143.074 77.2384 142.538C77.5717 142.005 77.7459 141.396 77.8195 140.787C77.9658 139.55 77.6762 138.38 77.5319 137.26C77.3578 136.14 77.4265 135.037 77.716 133.991C78.3001 131.904 79.7012 130.15 81.4177 129.145C83.1411 128.107 85.1352 127.996 86.9323 127.888C88.7413 127.793 90.4886 127.679 91.9663 127.096C93.444 126.546 94.6311 125.715 95.5296 124.859C96.4391 124.007 97.0551 123.116 97.4819 122.358C98.3248 120.821 98.4282 119.84 98.4282 119.84C98.3725 119.819 98.2024 120.786 97.3257 122.268C96.8819 122.998 96.258 123.856 95.3535 124.669C94.4599 125.487 93.2907 126.275 91.8539 126.788C90.423 127.331 88.7284 127.425 86.9124 127.504C85.1163 127.597 83.0476 127.685 81.2027 128.775C79.3837 129.83 77.9051 131.663 77.2802 133.868C76.9697 134.964 76.8971 136.167 77.0762 137.32C77.2264 138.467 77.4981 139.608 77.3608 140.732C77.2473 141.85 76.6672 142.915 75.6473 143.302C74.6433 143.707 73.488 143.597 72.3705 143.631C71.267 143.643 70.0142 143.822 69.1774 144.671C68.3405 145.503 68.1127 146.684 68.1395 147.722C68.1604 148.781 68.4749 149.788 68.8679 150.678C69.253 151.577 69.6829 152.412 70.0103 153.246C70.3406 154.077 70.5605 154.917 70.5705 155.733C70.5794 156.549 70.4023 157.334 70.069 158.001C69.4142 159.363 68.055 160.082 66.8728 160.098C66.2808 160.119 65.7285 159.968 65.2927 159.715C64.8548 159.462 64.5394 159.099 64.3165 158.745C63.8847 158.018 63.8399 157.319 63.9115 156.885C63.9802 156.443 64.1056 156.231 64.0817 156.221Z" fill="#092C4C"/>
<path d="M147.892 160.959C147.818 160.954 148.322 161.72 147.866 163.034C147.637 163.652 147.118 164.405 146.213 164.707C145.332 165.008 144.105 164.776 143.294 163.912C142.888 163.488 142.653 162.896 142.611 162.25C142.568 161.605 142.696 160.921 142.915 160.242C143.338 158.898 144.199 157.437 144.068 155.686C143.972 153.987 143.108 152.249 141.649 151.1C140.926 150.522 140.08 150.079 139.17 149.797C138.257 149.504 137.283 149.439 136.338 149.391C135.389 149.342 134.455 149.317 133.589 149.104C132.727 148.898 131.945 148.458 131.448 147.777C130.951 147.099 130.732 146.255 130.674 145.429C130.614 144.596 130.716 143.778 130.88 142.982C131.205 141.396 131.682 139.855 131.593 138.339C131.514 136.832 130.94 135.494 130.173 134.484C129.403 133.455 128.408 132.825 127.581 132.3C126.743 131.776 126.028 131.323 125.51 130.871C124.447 129.976 124.264 129.165 124.206 129.2C124.199 129.203 124.21 129.25 124.24 129.339C124.275 129.427 124.308 129.567 124.399 129.729C124.555 130.063 124.868 130.529 125.389 131.005C125.903 131.49 126.618 131.973 127.44 132.516C128.257 133.063 129.197 133.69 129.91 134.68C130.624 135.654 131.152 136.936 131.209 138.357C131.279 139.785 130.808 141.28 130.462 142.896C130.289 143.705 130.174 144.573 130.233 145.459C130.291 146.338 130.518 147.267 131.082 148.045C131.644 148.826 132.548 149.33 133.477 149.55C134.412 149.779 135.37 149.802 136.315 149.852C137.26 149.899 138.18 149.962 139.035 150.236C139.891 150.499 140.687 150.914 141.365 151.452C142.731 152.52 143.54 154.133 143.642 155.711C143.782 157.313 142.985 158.715 142.549 160.126C142.329 160.837 142.198 161.566 142.255 162.277C142.306 162.984 142.589 163.666 143.057 164.135C143.984 165.085 145.325 165.306 146.299 164.951C147.298 164.588 147.82 163.755 148.038 163.094C148.264 162.411 148.202 161.835 148.114 161.479C148.013 161.118 147.892 160.959 147.892 160.959Z" fill="#092C4C"/>
<path d="M138.377 238.725V227.738C139.609 221.578 139.025 214.271 136.154 208.638C134.48 205.354 130.645 200.121 129.247 198.161L118.286 183.978C112.258 188.358 102.818 185.193 94.7196 182.25C94.7196 182.25 86.7183 186.666 82.9958 190.821C79.0872 195.185 92.4539 249.84 92.4539 249.84C86.3959 261.932 78.5777 272.646 77.3916 283.69L140.678 286.124L137.987 257.172L138.377 238.725Z" fill="#212B36"/>
<path d="M137.505 257.481C137.469 257.479 137.454 257.04 137.456 256.244C137.466 255.344 137.479 254.217 137.494 252.88C137.543 249.928 137.606 246.059 137.676 241.781C137.759 237.445 137.872 233.519 138.01 230.68C138.077 229.26 138.149 228.111 138.213 227.318C138.278 226.525 138.331 226.088 138.367 226.09C138.403 226.092 138.417 226.532 138.415 227.327C138.406 228.227 138.393 229.353 138.378 230.692C138.329 233.643 138.265 237.513 138.196 241.792C138.113 246.127 138 250.052 137.861 252.893C137.795 254.312 137.723 255.461 137.658 256.254C137.594 257.048 137.541 257.483 137.505 257.481Z" fill="#092C4C"/>
<path d="M166.412 267.473C166.412 267.473 172.575 267.806 176.4 270.194C180.225 272.583 186.357 276.286 188.89 280.889C190.053 283.002 186.738 283.45 185.101 282.222C183.464 280.994 180.958 278.684 179.715 278.4C178.471 278.117 178.471 278.117 178.471 278.117C178.471 278.117 180.969 283.667 182.259 285.617C183.549 287.567 184.663 290.901 180.804 291.053C180.804 291.053 178.201 294.428 175.574 291.928C175.574 291.928 173.523 294.99 170.22 290.743C170.22 290.743 168.296 293.172 167.493 292.246C166.69 291.321 164.061 289.841 163.293 286.807C162.525 283.773 159.298 276.392 159.298 276.392L166.412 267.473Z" fill="#FFBF9D"/>
<path d="M304.534 182.154C305.225 182.163 333.475 179.194 333.475 179.194C333.475 179.194 335.866 167.732 335.74 164.754C335.614 161.775 333.599 142.068 333.599 142.068L344.18 137.074C344.18 137.074 358.321 184.651 355.229 188.607C352.138 192.563 346.345 196.097 345.847 196.118C345.349 196.138 318.477 208.019 299.774 201.845C281.07 195.671 304.534 182.154 304.534 182.154Z" fill="#FFBF9D"/>
<path d="M279.779 207.835C283.942 211.951 291.106 215.375 303.058 212.398C326.705 206.506 344.424 201.521 351.474 197.703C358.524 193.886 355.772 177.073 356.365 176.309C358.152 174.009 356.192 169.06 353.649 168.291C346.419 166.106 333.825 166.967 333.195 167.626C329.48 171.513 332.869 176.244 332.869 176.244L301.691 180.318C301.691 180.318 296.267 179.95 290.236 181.05" fill="#212B36"/>
<path d="M290.236 181.049C290.236 181.049 290.488 180.984 290.985 180.889C291.48 180.793 292.22 180.67 293.193 180.547C295.136 180.31 298.013 180.038 301.698 180.192L301.674 180.193C309.119 179.197 319.872 177.759 332.84 176.025L332.69 176.37C331.729 174.898 331.114 173.127 331.255 171.261C331.32 170.333 331.649 169.42 332.147 168.618C332.373 168.198 332.709 167.857 333.007 167.487C333.107 167.402 333.29 167.311 333.413 167.268L333.769 167.18C334.008 167.117 334.238 167.096 334.473 167.053C338.209 166.575 342.099 166.557 346.099 166.809C348.097 166.949 350.125 167.188 352.147 167.641C352.652 167.756 353.152 167.902 353.658 168.031C354.185 168.2 354.688 168.486 355.085 168.86C355.898 169.597 356.45 170.555 356.842 171.561C357.22 172.574 357.402 173.683 357.254 174.796C357.145 175.345 356.981 175.906 356.628 176.376C356.535 176.474 356.547 176.746 356.534 177.004L356.543 177.795C356.618 179.929 356.716 182.103 356.661 184.294C356.567 187.412 356.294 190.555 355.178 193.451C354.62 194.88 353.805 196.268 352.586 197.249C351.988 197.765 351.28 198.087 350.621 198.418C349.958 198.769 349.265 199.039 348.595 199.351C345.875 200.515 343.135 201.463 340.442 202.354C337.749 203.244 335.093 204.052 332.495 204.811C322.094 207.832 312.635 210.2 304.693 212.176C302.714 212.686 300.792 213.099 298.961 213.364C297.123 213.58 295.376 213.73 293.741 213.641C290.469 213.548 287.696 212.798 285.596 211.877C283.492 210.939 282.041 209.868 281.119 209.096C280.191 208.323 279.782 207.834 279.782 207.834C279.807 207.808 280.241 208.272 281.185 209.016C282.125 209.757 283.582 210.793 285.677 211.693C287.768 212.576 290.514 213.289 293.751 213.353C295.368 213.428 297.097 213.265 298.916 213.04C300.733 212.763 302.623 212.346 304.605 211.823C312.535 209.802 321.982 207.399 332.361 204.356C334.954 203.591 337.604 202.779 340.288 201.886C342.971 200.993 345.702 200.045 348.396 198.887C349.058 198.578 349.746 198.308 350.396 197.963C351.06 197.629 351.725 197.326 352.264 196.854C353.386 195.95 354.163 194.643 354.699 193.263C355.776 190.471 356.054 187.369 356.144 184.282C356.2 182.11 356.102 179.958 356.028 177.81L356.019 176.996C356.02 176.859 356.027 176.719 356.04 176.573C356.055 176.488 356.052 176.433 356.084 176.326C356.104 176.266 356.131 176.207 356.161 176.154L356.21 176.074C356.506 175.685 356.648 175.201 356.745 174.716C356.878 173.724 356.716 172.687 356.361 171.739C355.997 170.798 355.473 169.897 354.743 169.237C354.381 168.898 353.964 168.666 353.511 168.516C353.017 168.389 352.529 168.246 352.034 168.133C350.051 167.686 348.044 167.446 346.062 167.304C342.104 167.048 338.209 167.061 334.543 167.519C334.321 167.56 334.085 167.582 333.875 167.639L333.555 167.716C333.467 167.757 333.429 167.76 333.348 167.808C333.07 168.156 332.752 168.474 332.544 168.863C332.081 169.604 331.774 170.441 331.712 171.301C331.568 173.019 332.157 174.74 333.049 176.115L333.245 176.417L332.899 176.461C319.921 178.118 309.159 179.491 301.708 180.442L301.696 180.443L301.683 180.442C298.029 180.253 295.15 180.483 293.209 180.678C292.236 180.779 291.494 180.882 290.996 180.954C290.496 181.029 290.236 181.049 290.236 181.049Z" fill="#092C4C"/>
<path d="M449.529 61.8849L450.619 63.8367C453.819 69.5732 451.752 76.8118 446.004 80.0046L205.829 213.389L193.151 190.665L433.326 57.2802C439.075 54.0874 446.329 56.1484 449.529 61.8849Z" fill="#FE9F43"/>
<path d="M395.195 30.6299L424.606 83.347L407.219 93.0031L377.808 40.2849C377.21 39.2137 377.596 37.8615 378.67 37.2648L392.167 29.7691C393.242 29.1724 394.597 29.5577 395.195 30.6299Z" fill="#FE9F43"/>
<path d="M366.751 58.8032L388.179 97.214C389.046 98.7678 388.487 100.729 386.929 101.594L375.183 108.118C373.626 108.983 371.659 108.425 370.793 106.87L349.364 68.4593C348.497 66.9056 349.057 64.9448 350.615 64.079L362.361 57.5553C363.919 56.6905 365.884 57.2495 366.751 58.8032Z" fill="#FE9F43"/>
<path d="M368.278 66.1919L381.548 89.9766L408.551 74.9791L395.282 51.1944L368.278 66.1919Z" fill="#FE9F43"/>
<path d="M429.795 59.2387C429.865 59.3638 382.731 85.6723 324.532 117.994C266.314 150.327 219.078 176.428 219.008 176.303C218.938 176.178 266.061 149.875 324.28 117.542C382.479 85.2205 429.725 59.1136 429.795 59.2387Z" fill="#092C4C"/>
<path d="M108.562 257.356C126.266 289.091 163.614 302.046 191.979 286.293C220.345 270.54 228.988 232.043 211.284 200.309C193.579 168.574 156.232 155.619 127.866 171.372C99.5003 187.125 90.8581 225.621 108.562 257.356ZM195.913 208.845C208.318 231.082 202.262 258.057 182.386 269.096C162.51 280.135 136.339 271.057 123.933 248.82C111.528 226.583 117.584 199.608 137.46 188.569C157.336 177.53 183.506 186.608 195.913 208.845Z" fill="#FE9F43"/>
<path d="M245.952 161.005L259.059 184.499C260.801 187.622 259.676 191.562 256.546 193.3L255.482 193.891C252.352 195.63 248.403 194.507 246.661 191.385L233.553 167.89C231.811 164.767 232.936 160.827 236.066 159.09L237.131 158.498C240.26 156.759 244.21 157.882 245.952 161.005Z" fill="#FE9F43"/>
<path d="M271.123 147.024L284.231 170.519C285.973 173.641 284.848 177.581 281.718 179.319L280.653 179.911C277.524 181.649 273.575 180.526 271.833 177.404L258.725 153.909C256.983 150.786 258.108 146.846 261.238 145.109L262.303 144.517C265.432 142.779 269.38 143.901 271.123 147.024Z" fill="#FE9F43"/>
<path d="M245.678 160.598C245.803 160.53 248.846 165.858 252.473 172.497C256.101 179.139 258.94 184.577 258.815 184.645C258.689 184.714 255.646 179.386 252.018 172.745C248.391 166.105 245.552 160.667 245.678 160.598Z" fill="#092C4C"/>
<path d="M234.127 168.841C234.252 168.771 237.222 173.856 240.759 180.196C244.298 186.539 247.064 191.736 246.94 191.805C246.814 191.875 243.846 186.791 240.306 180.447C236.77 174.107 234.003 168.91 234.127 168.841Z" fill="#092C4C"/>
<path d="M271.004 146.813C271.129 146.744 274.223 152.051 277.913 158.665C281.604 165.282 284.495 170.701 284.37 170.771C284.244 170.84 281.152 165.534 277.46 158.917C273.769 152.302 270.879 146.883 271.004 146.813Z" fill="#092C4C"/>
<path d="M258.85 154.133C258.975 154.065 262.003 159.338 265.613 165.908C269.223 172.482 272.048 177.864 271.922 177.933C271.796 178.002 268.769 172.731 265.158 166.157C261.549 159.586 258.724 154.202 258.85 154.133Z" fill="#092C4C"/>
<path d="M331.026 118.325C333.314 118.591 335.666 116.918 336.161 114.672C336.656 112.426 335.224 109.923 333.035 109.207C334.461 107.753 334.823 105.366 333.889 103.556C332.957 101.748 330.8 100.653 328.785 100.967C328.705 98.9597 327.506 97.0337 325.74 96.0707C323.973 95.1086 321.7 95.1444 319.965 96.163C317.746 94.2568 314.161 94.1774 311.86 95.9853C309.905 95.6209 307.771 96.6554 306.849 98.4137C305.928 100.172 306.295 102.51 307.71 103.904" fill="#092C4C"/>
<path d="M310.839 100.613L311.872 100.616C322.271 100.647 330.902 108.639 331.707 118.984C332.456 128.606 333.158 139.244 333.079 144.405C332.915 155.09 322.198 156.719 322.198 156.719L323.065 169.559L297.077 168.677L294.92 122.114C293.993 111.016 299.695 101.229 310.839 100.613Z" fill="#FFBF9D"/>
<path d="M322.286 156.703C322.286 156.703 315.446 157.093 308.267 152.562C308.267 152.562 311.711 160.651 322.4 159.722L322.286 156.703Z" fill="#FF9A6C"/>
<path d="M325.829 129.02C325.855 129.826 325.193 130.512 324.349 130.555C323.507 130.597 322.803 129.98 322.777 129.175C322.751 128.369 323.413 127.681 324.255 127.639C325.098 127.596 325.802 128.215 325.829 129.02Z" fill="#092C4C"/>
<path d="M329.388 124.206C329.198 124.405 328.043 123.546 326.396 123.545C324.752 123.521 323.541 124.362 323.364 124.161C323.276 124.071 323.47 123.713 323.998 123.333C324.516 122.953 325.401 122.586 326.426 122.594C327.451 122.603 328.311 122.982 328.807 123.368C329.312 123.756 329.483 124.117 329.388 124.206Z" fill="#092C4C"/>
<path d="M310.98 128.314C311.006 129.119 310.344 129.806 309.501 129.849C308.659 129.891 307.954 129.275 307.928 128.468C307.903 127.662 308.565 126.974 309.406 126.932C310.25 126.889 310.954 127.508 310.98 128.314Z" fill="#092C4C"/>
<path d="M313.211 124.461C313.021 124.66 311.864 123.801 310.219 123.8C308.576 123.776 307.365 124.617 307.187 124.414C307.1 124.325 307.292 123.967 307.821 123.586C308.34 123.207 309.223 122.84 310.249 122.848C311.274 122.857 312.136 123.236 312.63 123.622C313.133 124.011 313.304 124.373 313.211 124.461Z" fill="#092C4C"/>
<path d="M319.147 136.657C319.139 136.564 320.163 136.39 321.821 136.184C322.241 136.142 322.639 136.06 322.711 135.774C322.81 135.471 322.636 135.019 322.434 134.53C322.042 133.514 321.632 132.45 321.201 131.333C319.489 126.782 318.252 123.041 318.436 122.974C318.621 122.907 320.158 126.541 321.869 131.092C322.281 132.214 322.675 133.284 323.05 134.306C323.207 134.784 323.48 135.325 323.263 135.953C323.149 136.265 322.84 136.493 322.571 136.563C322.301 136.645 322.064 136.649 321.857 136.659C320.187 136.747 319.153 136.751 319.147 136.657Z" fill="#092C4C"/>
<path d="M314.659 118.15C314.441 118.566 313.032 118.11 311.295 118.049C309.561 117.948 308.096 118.27 307.939 117.837C307.871 117.631 308.181 117.258 308.808 116.927C309.429 116.595 310.374 116.341 311.415 116.389C312.455 116.438 313.357 116.779 313.927 117.166C314.501 117.552 314.755 117.951 314.659 118.15Z" fill="#092C4C"/>
<path d="M329.489 117.435C329.14 117.807 327.784 117.415 326.15 117.392C324.518 117.322 323.133 117.633 322.816 117.242C322.677 117.052 322.895 116.679 323.5 116.328C324.097 115.978 325.094 115.693 326.216 115.725C327.338 115.758 328.31 116.099 328.877 116.483C329.454 116.869 329.643 117.254 329.489 117.435Z" fill="#092C4C"/>
<path d="M330.692 114.082C330.692 114.082 327.888 107.382 324.659 105.811C320.749 103.909 319.051 108.191 315.323 107.139C311.595 106.088 307.863 104.263 304.042 107.128C299.859 110.266 301.807 112.482 301.535 117.221C300.432 136.439 296.898 141.864 295.924 132.807C295.818 131.816 293.062 131.018 292.666 126.827C292.152 121.391 291.962 114.792 293.19 110.94C294.225 107.692 296.089 105.453 299.427 102.986C304.697 99.0937 311.919 99.0321 316.823 99.5395C321.724 100.045 331.164 105.705 330.692 114.082Z" fill="#092C4C"/>
<path d="M296.607 132.516C296.544 130.867 295.124 129.56 293.476 129.711C291.478 129.895 289.252 131.02 289.372 135.138C289.584 142.444 296.891 140.724 296.897 140.515C296.902 140.373 296.723 135.573 296.607 132.516Z" fill="#FFBF9D"/>
<path d="M295.226 137.816C295.193 137.793 295.1 137.909 294.887 138.013C294.68 138.116 294.32 138.192 293.934 138.06C293.152 137.8 292.465 136.593 292.392 135.277C292.354 134.613 292.475 133.976 292.696 133.444C292.904 132.903 293.239 132.52 293.627 132.44C294.013 132.338 294.295 132.564 294.391 132.766C294.495 132.968 294.452 133.115 294.492 133.127C294.513 133.145 294.645 133 294.578 132.7C294.543 132.556 294.452 132.386 294.276 132.25C294.096 132.113 293.835 132.048 293.566 132.084C293.003 132.139 292.509 132.672 292.266 133.255C291.993 133.842 291.84 134.557 291.883 135.304C291.973 136.775 292.768 138.13 293.835 138.406C294.355 138.525 294.78 138.358 294.997 138.179C295.218 137.992 295.251 137.828 295.226 137.816Z" fill="#FF9A6C"/>
<path d="M296.793 118.367C297.742 119.017 298.744 119.688 299.889 119.804C301.035 119.922 302.347 119.268 302.543 118.136C302.632 117.628 302.508 117.037 302.845 116.646C303.246 116.179 303.983 116.328 304.596 116.394C306.723 116.625 309.218 114.287 309.766 112.223C310.307 113.035 311.495 113.285 312.319 112.758C313.141 112.232 313.442 111.931 314.088 111.199C314.733 110.466 315.637 109.812 316.604 109.952C317.146 110.03 317.651 110.353 318.195 110.306C319.158 110.224 319.63 109.102 319.779 108.15C319.927 107.199 320.043 106.088 320.859 105.572C321.615 105.095 322.593 105.375 323.477 105.508C324.362 105.641 325.505 105.436 325.734 104.574C325.854 104.121 325.661 103.643 325.411 103.247C324.276 101.453 321.793 100.65 319.818 101.439C319.11 99.0239 316.853 97.1376 314.345 96.8665C311.836 96.5945 309.226 97.9527 308.014 100.161C306.471 98.7549 304.224 98.1602 302.186 98.6179C300.147 99.0755 298.373 100.573 297.581 102.502C295.801 102.029 293.769 102.71 292.636 104.159C291.504 105.607 291.337 107.74 292.229 109.347C290.911 110.094 289.78 111.394 289.749 112.906C289.717 114.418 291.188 115.929 292.652 115.536C292.058 116.712 292.534 118.311 293.675 118.972C294.816 119.634 296.444 119.253 297.173 118.155" fill="#092C4C"/>
<path d="M320.358 103.594C320.364 103.594 320.363 103.64 320.356 103.728C320.346 103.815 320.34 103.948 320.308 104.118C320.24 104.456 320.102 104.954 319.772 105.524C319.44 106.085 318.925 106.733 318.143 107.247C317.377 107.766 316.326 108.159 315.142 108.09L315.266 107.929C315.492 108.554 315.427 109.304 315.113 109.945C314.816 110.597 314.349 111.175 313.854 111.738C313.602 112.008 313.382 112.326 313.032 112.574C312.693 112.812 312.287 112.949 311.871 113C311.045 113.103 310.114 112.845 309.517 112.15L309.79 112.073C309.599 113.524 308.768 114.975 307.45 115.856C306.753 116.356 305.891 116.66 305.043 116.635C304.195 116.624 303.409 116.373 302.676 116.108L302.872 116.023C302.476 116.929 301.869 117.703 301.132 118.273C300.41 118.842 299.448 119.173 298.58 118.958C296.854 118.587 295.711 117.15 295.484 115.8L295.65 115.877C294.791 116.341 293.87 116.382 293.133 116.238C292.385 116.099 291.799 115.774 291.381 115.452C290.962 115.124 290.714 114.789 290.566 114.557C290.43 114.315 290.373 114.182 290.382 114.178C290.419 114.149 290.623 114.734 291.455 115.354C291.871 115.65 292.445 115.948 293.165 116.064C293.875 116.187 294.747 116.126 295.54 115.682L295.677 115.605L295.706 115.76C295.934 117.02 297.035 118.362 298.636 118.687C299.423 118.873 300.269 118.576 300.953 118.038C301.641 117.501 302.22 116.757 302.588 115.904L302.647 115.769L302.785 115.818C303.507 116.077 304.267 116.312 305.05 116.32C305.834 116.339 306.607 116.069 307.272 115.595C308.517 114.761 309.298 113.404 309.485 112.029L309.532 111.683L309.76 111.951C310.263 112.546 311.096 112.792 311.838 112.701C312.211 112.657 312.572 112.537 312.868 112.332C313.157 112.135 313.387 111.821 313.643 111.548C314.137 110.995 314.591 110.439 314.874 109.833C315.173 109.233 315.231 108.574 315.038 108.008L314.98 107.833L315.164 107.846C316.28 107.925 317.291 107.568 318.04 107.082C318.804 106.602 319.317 105.988 319.657 105.453C320.325 104.351 320.306 103.577 320.358 103.594Z" fill="#212B36"/>
<path d="M319.118 142.116C319.067 141.845 317.281 142.284 315.633 141.074C313.982 139.867 313.71 137.918 313.457 137.966C313.338 137.969 313.215 138.475 313.393 139.282C313.562 140.075 314.102 141.161 315.109 141.902C316.118 142.64 317.255 142.783 318.002 142.662C318.766 142.544 319.159 142.235 319.118 142.116Z" fill="#092C4C"/>
<path d="M374.305 419.887L381.375 443.907C381.375 443.907 408.22 444.804 409.959 449.116L363.771 464.465L351.218 427.49L374.305 419.887Z" fill="#212B36"/>
<path d="M366.427 446.655C365.614 447.196 365.331 448.403 365.84 449.236C366.347 450.068 367.576 450.366 368.399 449.839C369.221 449.313 369.605 447.873 369.006 447.103C368.408 446.332 366.946 446.062 366.274 446.77" fill="#E0E0E0"/>
<path d="M407.356 447.383C407.356 447.383 409.71 447.592 409.96 449.114L363.772 464.463L362.652 460.686L407.356 447.383Z" fill="#092C4C"/>
<path d="M382.044 443.424C382.112 443.651 381.018 444.128 380.15 445.22C379.253 446.29 379.006 447.455 378.769 447.434C378.546 447.46 378.433 446.002 379.508 444.699C380.572 443.385 382.024 443.202 382.044 443.424Z" fill="white"/>
<path d="M387.556 443.811C387.68 444.011 386.832 444.719 386.383 445.925C385.899 447.119 386.049 448.212 385.822 448.276C385.622 448.383 385.026 447.117 385.612 445.628C386.185 444.132 387.479 443.597 387.556 443.811Z" fill="white"/>
<path d="M392.239 448.683C392.05 448.799 391.362 447.779 391.529 446.355C391.686 444.928 392.588 444.089 392.746 444.245C392.935 444.388 392.471 445.277 392.352 446.448C392.204 447.616 392.456 448.586 392.239 448.683Z" fill="white"/>
<path d="M379.825 438.128C379.799 438.365 378.661 438.398 377.415 438.909C376.158 439.393 375.309 440.15 375.127 439.996C374.942 439.877 375.633 438.721 377.109 438.141C378.58 437.551 379.877 437.916 379.825 438.128Z" fill="white"/>
<path d="M266.504 420.096L256.447 443.032C256.447 443.032 276.435 460.934 274.99 465.353L229.719 447.495L243.919 411.117L266.504 420.096Z" fill="#212B36"/>
<path d="M243.225 435.552C242.253 435.446 241.259 436.189 241.112 437.153C240.966 438.116 241.715 439.133 242.684 439.256C243.652 439.38 244.874 438.523 244.912 437.549C244.95 436.575 244.004 435.431 243.034 435.543" fill="#E0E0E0"/>
<path d="M274.111 462.356C274.111 462.356 275.78 464.026 274.991 465.352L229.72 447.494L231.295 443.883L274.111 462.356Z" fill="#092C4C"/>
<path d="M257.272 443.089C257.178 443.307 256.033 442.971 254.664 443.251C253.288 443.495 252.349 444.23 252.18 444.062C251.993 443.939 252.845 442.751 254.508 442.441C256.169 442.115 257.401 442.907 257.272 443.089Z" fill="white"/>
<path d="M261.244 446.923C261.21 447.156 260.104 447.154 258.983 447.791C257.844 448.394 257.255 449.329 257.039 449.232C256.817 449.186 257.176 447.833 258.584 447.068C259.986 446.29 261.323 446.711 261.244 446.923Z" fill="white"/>
<path d="M261.694 453.657C261.475 453.624 261.603 452.401 262.65 451.417C263.69 450.425 264.921 450.36 264.941 450.581C264.993 450.813 264.066 451.195 263.219 452.016C262.355 452.816 261.923 453.721 261.694 453.657Z" fill="white"/>
<path d="M258.983 437.612C258.811 437.777 257.918 437.072 256.634 436.664C255.359 436.229 254.221 436.264 254.181 436.03C254.116 435.819 255.389 435.377 256.894 435.88C258.401 436.37 259.16 437.482 258.983 437.612Z" fill="white"/>
<path d="M283.455 294.109L267.591 358.303C267.591 358.303 238.98 406.358 234.138 430.4L260.31 440.671C260.31 440.671 279.342 394.357 284.924 385.857C287.993 381.182 291.241 377.571 293.543 375.267C295.625 373.183 297.139 370.603 297.885 367.757L309.896 321.956L283.455 294.109Z" fill="#092C4C"/>
<path d="M276.697 283.85C276.697 283.85 278.903 301.037 295.486 308.658L330.434 365.444C330.434 365.444 333.178 383.908 338.452 399.472C343.686 414.919 354.229 445.006 354.229 445.006L382.975 434.287L364.655 371.795L361.657 350.123L333.134 277.695L308.637 263.039L276.697 283.85Z" fill="#092C4C"/>
<path d="M276.697 283.849C276.697 283.849 276.868 283.724 277.222 283.487C277.586 283.245 278.114 282.894 278.807 282.433C280.223 281.501 282.305 280.129 285.014 278.346C290.475 274.767 298.451 269.54 308.558 262.917L308.634 262.867L308.711 262.914C315.854 267.174 324.087 272.083 333.229 277.536L333.282 277.568L333.305 277.626C341.287 297.85 351.028 322.533 361.883 350.033L361.894 350.06L361.897 350.088C362.848 356.937 363.865 364.27 364.904 371.759L364.896 371.724C369.848 388.609 375.144 406.662 380.603 425.271C381.481 428.267 382.355 431.249 383.224 434.213L383.291 434.443L383.065 434.528C373.275 438.177 363.67 441.757 354.318 445.243L354.073 445.334L353.989 445.089C349.002 430.684 344.202 416.815 339.648 403.654C338.505 400.369 337.379 397.116 336.444 393.856C335.5 390.601 334.662 387.368 333.901 384.172C332.393 377.775 331.171 371.533 330.221 365.475L330.251 365.555C315.954 342.261 304.054 322.871 295.373 308.726L295.43 308.777C290.686 306.558 287.054 303.501 284.451 300.452C281.835 297.392 280.188 294.369 279.083 291.859C277.984 289.338 277.416 287.31 277.087 285.942C276.918 285.258 276.828 284.732 276.768 284.38C276.708 284.032 276.697 283.849 276.697 283.849C276.697 283.849 276.733 284.025 276.803 284.375C276.874 284.724 276.977 285.247 277.157 285.926C277.507 287.285 278.095 289.302 279.212 291.804C280.332 294.295 281.991 297.292 284.606 300.319C287.209 303.336 290.826 306.351 295.541 308.535L295.578 308.552L295.598 308.587C304.314 322.711 316.262 342.071 330.616 365.331L330.639 365.368L330.646 365.412C331.602 371.449 332.832 377.686 334.345 384.066C335.108 387.255 335.948 390.48 336.893 393.724C337.829 396.973 338.952 400.211 340.101 403.501C344.664 416.656 349.473 430.52 354.468 444.92L354.139 444.767C363.49 441.279 373.095 437.696 382.883 434.044L382.725 434.359C381.856 431.395 380.982 428.414 380.103 425.417C374.65 406.806 369.36 388.751 364.412 371.865L364.407 371.847L364.404 371.829C363.371 364.339 362.359 357.004 361.415 350.156L361.429 350.211C350.616 322.695 340.912 297.998 332.96 277.762L333.037 277.853C323.91 272.375 315.691 267.442 308.56 263.163L308.713 263.16C298.595 269.716 290.608 274.889 285.14 278.431C282.406 280.194 280.303 281.55 278.874 282.471C278.167 282.924 277.628 283.268 277.254 283.506C276.892 283.735 276.697 283.849 276.697 283.849Z" fill="#212B36"/>
<path d="M292.044 161.163C292.044 161.163 283.67 167.6 279.597 174.785C274.72 183.388 274.196 196.154 274.042 215.964C273.9 234.297 276.648 239.387 275.586 246.293C273.511 259.788 271.968 305.073 271.968 305.073C271.968 305.073 298.803 294.776 304.047 290.228C309.291 285.68 309.291 285.68 309.291 285.68L342.912 296.766L336.126 255.548L331.473 204.169L325.512 176.915L324.47 166.224L295.665 154.598L292.044 161.163Z" fill="#212B36"/>
<path d="M323.464 165.643C323.815 165.707 322.635 168.059 320.562 171.514L320.478 171.655L320.32 171.594C317.399 170.466 313.541 169.044 309.322 167.509C304.564 165.779 300.267 164.173 297.191 162.921C295.653 162.295 294.417 161.768 293.571 161.387C292.725 161.003 292.265 160.775 292.279 160.742C292.293 160.71 292.779 160.874 293.648 161.2C294.607 161.56 295.843 162.024 297.325 162.58C300.532 163.751 304.791 165.305 309.5 167.024C313.721 168.56 317.569 170.026 320.468 171.226L320.226 171.306C322.377 167.901 323.66 165.664 323.464 165.643Z" fill="#092C4C"/>
<path d="M358.205 144.203C358.205 144.203 356.08 140.9 354.064 137.85C352.049 134.8 349.014 133.311 348.528 131.713C348.042 130.116 345.362 123.055 344.933 121.296C344.334 118.835 344.419 116.114 344.419 116.114C344.419 116.114 346.615 115.174 347.673 118.316C348.308 120.203 350.334 126.607 350.771 126.921C351.208 127.236 351.814 126.775 351.814 126.775C351.814 126.775 349.566 120.615 349.468 119.453C349.371 118.291 349.78 110.592 349.78 110.592C349.78 110.592 351.381 110.107 352.426 112.068C353.47 114.028 353.509 119.027 353.509 119.027L355.089 124.57L354.541 119.087L355.337 109.016C355.337 109.016 357.849 109.244 358.517 111.967C359.186 114.691 358.302 118.48 358.751 119.29C359.201 120.101 359.682 124.961 359.682 124.961C359.682 124.961 360.228 113.141 361.49 112.801C362.751 112.462 363.795 113.72 363.614 116.104C363.433 118.489 363.387 123.525 364.043 125.751C364.699 127.978 371.436 136.63 370.88 140.48C370.324 144.329 370.262 147.41 370.262 147.41H358.678L358.205 144.203Z" fill="#FFBF9D"/>
<path d="M317.722 173.968C318.368 174.211 345.943 181.022 345.943 181.022C345.943 181.022 352.103 171.058 353.002 168.215C353.9 165.371 358.732 146.158 358.732 146.158L370.387 145.059C370.387 145.059 367.44 194.596 363.182 197.264C358.926 199.933 352.272 201.286 351.797 201.137C351.322 200.988 322 203.026 306.523 190.865C291.047 178.702 317.722 173.968 317.722 173.968Z" fill="#FFBF9D"/>
<g opacity="0.3">
<path d="M297.955 200.186C297.955 200.186 301.913 205.193 309.23 206.802C316.548 208.41 332.114 211.251 332.114 211.251L331.353 203.63L297.476 200.012" fill="black"/>
</g>
<path d="M285.68 189.701C288.188 194.985 293.755 200.639 306.009 201.901C330.253 204.399 348.613 205.732 356.546 204.539C364.478 203.346 367.63 186.603 368.449 186.087C370.915 184.532 370.761 179.213 368.632 177.625C362.58 173.113 350.445 169.643 349.628 170.049C344.808 172.441 346.379 178.04 346.379 178.04L315.674 171.275C315.674 171.275 310.701 169.086 304.655 168.07" fill="#212B36"/>
<path d="M304.655 168.07C304.655 168.07 304.914 168.094 305.413 168.174C305.911 168.253 306.65 168.388 307.606 168.603C309.514 169.04 312.312 169.763 315.725 171.16L315.701 171.152C323.04 172.746 333.642 175.049 346.426 177.826L346.166 178.1C345.766 176.389 345.792 174.515 346.562 172.808C346.94 171.958 347.561 171.21 348.303 170.627C348.659 170.308 349.09 170.102 349.498 169.854C349.62 169.81 349.823 169.785 349.954 169.787L350.318 169.825C350.564 169.846 350.787 169.905 351.023 169.944C354.699 170.765 358.363 172.07 362.039 173.666C363.87 174.477 365.695 175.39 367.441 176.503C367.876 176.783 368.298 177.09 368.729 177.384C369.166 177.722 369.541 178.162 369.787 178.649C370.3 179.619 370.493 180.707 370.517 181.786C370.527 182.866 370.319 183.971 369.8 184.968C369.511 185.447 369.164 185.919 368.672 186.242C368.551 186.301 368.471 186.561 368.37 186.801L368.109 187.547C367.451 189.579 366.801 191.656 366.001 193.697C364.849 196.598 363.518 199.458 361.481 201.802C360.468 202.957 359.227 203.984 357.746 204.492C357.008 204.775 356.233 204.837 355.499 204.923C354.756 205.028 354.014 205.047 353.275 205.113C350.321 205.284 347.42 205.243 344.585 205.166C341.749 205.087 338.976 204.944 336.274 204.774C325.463 204.08 315.762 203.092 307.62 202.25C305.586 202.057 303.638 201.792 301.826 201.419C300.024 200.996 298.33 200.544 296.823 199.905C293.779 198.705 291.427 197.057 289.767 195.478C288.109 193.88 287.111 192.38 286.507 191.341C285.899 190.298 285.681 189.701 285.681 189.701C285.714 189.684 285.963 190.269 286.596 191.288C287.226 192.305 288.243 193.773 289.906 195.332C291.57 196.873 293.909 198.475 296.93 199.637C298.425 200.256 300.107 200.691 301.893 201.097C303.696 201.454 305.615 201.704 307.657 201.885C315.802 202.681 325.505 203.632 336.302 204.298C339.002 204.461 341.77 204.598 344.598 204.671C347.425 204.743 350.317 204.779 353.244 204.607C353.973 204.541 354.712 204.521 355.44 204.417C356.179 204.33 356.908 204.269 357.575 204.01C358.939 203.542 360.115 202.576 361.091 201.461C363.057 199.202 364.377 196.38 365.515 193.509C366.31 191.486 366.952 189.43 367.616 187.384L367.886 186.617C367.933 186.488 367.988 186.36 368.05 186.227C368.093 186.153 368.109 186.1 368.175 186.009C368.215 185.961 368.261 185.915 368.307 185.874L368.38 185.817C368.79 185.551 369.09 185.144 369.347 184.722C369.81 183.834 370.013 182.804 370.003 181.792C369.982 180.783 369.796 179.759 369.337 178.89C369.112 178.448 368.799 178.089 368.425 177.793C368.004 177.505 367.593 177.205 367.167 176.93C365.455 175.836 363.65 174.928 361.836 174.121C358.201 172.535 354.535 171.223 350.932 170.409C350.709 170.373 350.479 170.313 350.262 170.294L349.936 170.258C349.839 170.266 349.801 170.256 349.71 170.275C349.33 170.508 348.922 170.698 348.593 170.993C347.904 171.533 347.331 172.215 346.977 173.003C346.256 174.569 346.222 176.388 346.591 177.983L346.672 178.333L346.332 178.257C333.564 175.403 322.977 173.038 315.647 171.4L315.635 171.397L315.622 171.392C312.251 169.973 309.466 169.21 307.575 168.735C306.627 168.499 305.894 168.343 305.401 168.242C304.906 168.139 304.655 168.07 304.655 168.07Z" fill="#092C4C"/>
<path d="M356.545 187.626C356.52 187.681 355.735 187.41 354.561 186.765C353.388 186.123 351.846 185.069 350.375 183.644C348.903 182.219 347.799 180.715 347.113 179.571C346.424 178.424 346.118 177.655 346.173 177.627C346.32 177.538 347.834 180.488 350.736 183.273C353.608 186.09 356.628 187.478 356.545 187.626Z" fill="#092C4C"/>
<path d="M140.064 269.387C140.064 269.387 146.227 269.72 150.052 272.108C153.877 274.496 160.009 278.2 162.542 282.804C163.706 284.916 160.39 285.364 158.753 284.136C157.116 282.909 154.611 280.599 153.367 280.315C152.123 280.031 152.123 280.031 152.123 280.031C152.123 280.031 154.622 285.581 155.911 287.531C157.201 289.481 158.315 292.814 154.456 292.967C154.456 292.967 151.853 296.342 149.226 293.842C149.226 293.842 147.176 296.904 143.872 292.657C143.872 292.657 141.949 295.086 141.146 294.16C140.343 293.235 137.714 291.755 136.945 288.721C136.177 285.687 132.95 278.306 132.95 278.306L140.064 269.387Z" fill="#FFBF9D"/>
<path d="M87.5648 188.422C87.5648 188.422 82.7517 189.723 79.8113 194.232C77.44 197.867 76.7176 204.208 77.3923 208.851C78.8262 218.722 83.3686 235.4 85.917 246.1C86.7976 249.797 88.5997 256.401 93.9053 259.913L131.603 282.469L141.683 267.542L107.312 239.595L100.521 201.291L87.5648 188.422Z" fill="#212B36"/>
<path d="M81.0454 226.091C81.0534 226.089 81.0951 226.222 81.1678 226.484C81.2434 226.768 81.3469 227.153 81.4782 227.647C81.7469 228.698 82.134 230.207 82.6295 232.143C83.6166 236.08 85.0376 241.747 86.7979 248.771C87.6974 252.247 89.7611 255.818 93.0031 258.582C94.5902 260 96.5584 261.036 98.5137 262.238C100.477 263.419 102.5 264.635 104.577 265.884C112.882 270.889 122.05 276.413 131.735 282.249L131.387 282.325C132.54 280.617 133.771 278.793 135.014 276.953C137.207 273.706 139.367 270.509 141.468 267.399L141.517 267.741C128.574 257.109 116.833 247.466 107.448 239.756L107.397 239.714L107.382 239.65C105.131 230.204 103.497 222.472 102.472 217.093C101.955 214.404 101.599 212.303 101.371 210.876C101.268 210.179 101.188 209.638 101.131 209.246C101.08 208.879 101.068 208.688 101.068 208.688C101.068 208.688 101.119 208.872 101.188 209.237C101.259 209.625 101.358 210.163 101.484 210.855C101.75 212.276 102.14 214.368 102.69 217.049C103.781 222.41 105.471 230.127 107.767 239.555L107.7 239.449C117.105 247.133 128.871 256.745 141.843 267.344L142.024 267.492L141.893 267.685C139.794 270.796 137.636 273.993 135.443 277.241C134.201 279.081 132.969 280.904 131.815 282.612L131.678 282.816L131.467 282.688C121.792 276.837 112.634 271.299 104.336 266.28C102.263 265.024 100.244 263.801 98.2839 262.614C96.3465 261.414 94.3524 260.354 92.7304 258.895C89.4358 256.061 87.3481 252.403 86.4555 248.859C84.76 241.816 83.3918 236.135 82.4405 232.186C81.9837 230.241 81.6275 228.725 81.3797 227.669C81.2683 227.17 81.1807 226.78 81.117 226.494C81.0623 226.23 81.0374 226.093 81.0454 226.091Z" fill="#092C4C"/>
<path d="M81.6653 193.736C81.6554 193.705 81.923 193.579 82.4305 193.414C82.937 193.246 83.6873 193.054 84.6346 192.917C86.5053 192.661 89.2865 192.618 91.9891 193.909C94.6379 195.258 96.447 197.31 97.4838 198.903C97.9973 199.712 98.3296 200.419 98.4868 200.932C98.654 201.44 98.6898 201.736 98.662 201.743C98.5724 201.772 98.2769 200.625 97.1803 199.108C96.1017 197.614 94.2857 195.656 91.7612 194.374C89.2049 193.148 86.5182 193.12 84.6774 193.28C82.8116 193.459 81.6902 193.824 81.6653 193.736Z" fill="#092C4C"/>
</g>
<defs>
<clipPath id="clip0_398_336288">
<rect width="498" height="495" fill="white"/>
</clipPath>
</defs>
</svg>
