<svg width="527" height="527" viewBox="0 0 527 527" fill="none" xmlns="http://www.w3.org/2000/svg">
<path d="M199.893 240.998C210.764 249.449 226.426 247.486 234.877 236.616C243.328 225.745 241.365 210.083 230.496 201.632C221.197 194.403 208.397 194.8 199.6 201.866L199.592 201.859L194.123 197.608L186.002 200.139L186.932 192.017L180.079 186.69L171.957 189.222L172.887 181.1L166.996 176.521L162.047 178.064L162.614 173.115L159.185 170.449L151.411 171.217L150.365 183.165L191.113 214.842C188.591 224.238 191.729 234.652 199.893 240.998ZM229.578 232.497C227.153 235.615 222.66 236.178 219.542 233.754C216.425 231.329 215.862 226.836 218.286 223.718C220.71 220.601 225.203 220.038 228.321 222.461C231.439 224.885 232.002 229.378 229.578 232.497Z" fill="#EBEBEB"/>
<path d="M232.73 145.731C237.394 140.022 236.548 131.613 230.838 126.949C225.129 122.285 216.72 123.132 212.056 128.841C208.067 133.724 208.112 140.581 211.781 145.382L211.778 145.386L209.43 148.258L210.68 152.637L206.345 152.034L203.405 155.634L204.655 160.013L200.32 159.41L197.792 162.504L198.554 165.174L195.912 164.806L194.44 166.606L194.75 170.778L201.132 171.492L218.616 150.092C223.613 151.564 229.228 150.019 232.73 145.731ZM228.565 129.733C230.203 131.071 230.445 133.483 229.108 135.121C227.77 136.759 225.357 137.001 223.72 135.664C222.082 134.326 221.839 131.914 223.177 130.276C224.514 128.638 226.927 128.394 228.565 129.733Z" fill="#EBEBEB"/>
<path d="M176.356 55.1914V132.544H65.257L61.2539 55.7332L176.356 55.1914Z" fill="#E0E0E0"/>
<path d="M61.2539 55.7338L61.2539 132.383H172.353V55.7338H61.2539Z" fill="white"/>
<path d="M172.88 132.909H60.7266V55.207H172.88V132.909ZM61.7806 131.855H171.826V56.261H61.7806V131.855Z" fill="#E0E0E0"/>
<path d="M160.32 65.2578H73.2861V122.861H160.32V65.2578Z" fill="white"/>
<path d="M160.32 65.2569C160.32 65.2569 160.17 65.2663 159.891 65.2716C159.596 65.2748 159.187 65.2801 158.653 65.2864C157.551 65.2938 155.95 65.3032 153.873 65.3169C149.693 65.3328 143.615 65.3559 135.939 65.3844C120.59 65.415 98.8652 65.4582 73.2867 65.5088L73.5386 65.2569C73.546 82.8566 73.5534 102.357 73.5608 122.853V122.86L73.2867 122.586C106.118 122.607 136.388 122.626 160.32 122.642L160.102 122.86C160.15 105.331 160.189 90.9576 160.216 80.9488C160.241 75.9465 160.26 72.0383 160.272 69.359C160.283 68.0352 160.291 67.0192 160.297 66.314C160.304 65.6237 160.32 65.2569 160.32 65.2569C160.32 65.2569 160.336 65.592 160.343 66.2677C160.348 66.9633 160.357 67.9667 160.367 69.2726C160.38 71.9403 160.399 75.8316 160.423 80.8128C160.45 90.8543 160.49 105.273 160.538 122.86L160.539 123.078H160.32C136.388 123.094 106.118 123.113 73.2867 123.134H73.0127V122.859V122.852C73.0211 102.356 73.0285 82.8555 73.0348 65.2558V65.0039H73.2867C98.9327 65.0545 120.715 65.0977 136.104 65.1283C143.756 65.1578 149.816 65.1799 153.982 65.1957C156.036 65.2094 157.62 65.2189 158.711 65.2263C159.232 65.2326 159.633 65.2379 159.92 65.2411C160.19 65.2463 160.32 65.2569 160.32 65.2569Z" fill="#E0E0E0"/>
<path d="M61.2536 55.5168C61.3 55.4567 62.0272 55.9342 63.1634 56.7542C64.2996 57.5753 65.848 58.7389 67.5186 60.0764C69.1902 61.415 70.6595 62.6798 71.6945 63.6273C72.7295 64.5749 73.3345 65.1999 73.286 65.2558C73.1827 65.3727 70.5119 63.1699 67.176 60.5054C63.8369 57.843 61.1556 55.6412 61.2536 55.5168Z" fill="#E0E0E0"/>
<path d="M172.352 55.7315C172.446 55.8506 169.829 58.0788 166.507 60.7085C163.184 63.3383 160.414 65.3735 160.32 65.2555C160.226 65.1364 162.843 62.9093 166.166 60.2785C169.489 57.6477 172.258 55.6124 172.352 55.7315Z" fill="#E0E0E0"/>
<path d="M172.266 132.391C168.137 129.044 164.007 125.698 159.879 122.352L172.266 132.391Z" fill="white"/>
<path d="M159.877 122.352C159.972 122.234 162.823 124.387 166.244 127.159C169.665 129.932 172.36 132.275 172.265 132.392C172.17 132.51 169.32 130.357 165.899 127.584C162.478 124.812 159.783 122.469 159.877 122.352Z" fill="#E0E0E0"/>
<path d="M61.2534 132.381C61.1596 132.261 63.7493 130.057 67.0378 127.456C70.3273 124.855 73.0688 122.843 73.1636 122.962C73.2575 123.081 70.6678 125.286 67.3782 127.887C64.0898 130.487 61.3473 132.499 61.2534 132.381Z" fill="#E0E0E0"/>
<path d="M90.957 83.205V102.492H145.72V83.205H90.957Z" fill="#E0E0E0"/>
<path d="M452.156 494.536C452.156 494.688 361.635 494.81 249.995 494.81C138.317 494.81 47.8145 494.686 47.8145 494.536C47.8145 494.385 138.317 494.262 249.995 494.262C361.635 494.262 452.156 494.384 452.156 494.536Z" fill="#263238"/>
<path d="M367.624 456.377L393.716 494.318L403.042 494.537L385.941 455.523L367.624 456.377Z" fill="#092C4C"/>
<path d="M92.3488 458.316L78.6025 494.145H85.4757L109.484 458.473L92.3488 458.316Z" fill="#092C4C"/>
<path d="M86.4614 328.114L87.469 374.474C87.6113 381.031 92.8908 386.313 99.4478 386.459L358.933 392.235C365.806 392.388 371.46 386.859 371.46 379.985V324.133C371.46 307.644 359.302 293.679 342.968 291.433C295.466 284.901 197.492 274.856 118.313 289.13C99.5521 292.511 86.0472 309.054 86.4614 328.114Z" fill="#FE9F43"/>
<path d="M85.2954 344.313C85.2954 344.313 63.9181 334.419 59.5451 344.313C55.1721 354.206 60.031 366.353 64.8899 373.154C69.7489 379.956 69.6698 463.524 69.6698 463.524L393.855 460.06L397.697 379.669C397.697 379.669 413.244 360.522 412.272 352.263C411.301 344.004 398.183 331.989 383.122 344.313C368.06 356.636 364.174 382.386 364.174 382.386L105.703 384.33C105.701 384.33 106.556 348.143 85.2954 344.313Z" fill="#FE9F43"/>
<path d="M360.87 398.442C360.87 398.594 303.439 398.716 232.611 398.716C161.759 398.716 104.342 398.594 104.342 398.442C104.342 398.29 161.759 398.168 232.611 398.168C303.439 398.168 360.87 398.291 360.87 398.442Z" fill="#092C4C"/>
<path d="M104.342 433.823C104.332 433.823 104.323 433.737 104.312 433.569C104.304 433.368 104.292 433.123 104.28 432.822C104.254 432.166 104.233 431.197 104.224 429.951C104.218 427.41 104.208 423.815 104.198 419.393C104.185 410.481 104.26 398.164 103.854 384.575C103.606 377.791 103.363 371.29 102.371 365.516C102.182 364.818 101.997 364.13 101.813 363.449C101.549 362.787 101.294 362.128 101.014 361.492C100.458 360.219 99.8888 358.994 99.2669 357.848C98.0443 355.545 96.7089 353.506 95.3207 351.779C93.9347 350.051 92.4971 348.643 91.1332 347.532C89.7503 346.444 88.455 345.646 87.3451 345.094C85.117 344.001 83.7436 343.734 83.7689 343.655C83.771 343.646 83.8564 343.661 84.0197 343.701C84.2147 343.753 84.4519 343.815 84.7439 343.892C85.3847 344.047 86.3006 344.382 87.44 344.901C88.5762 345.429 89.9053 346.21 91.325 347.29C92.7247 348.392 94.2014 349.8 95.6232 351.534C97.0472 353.265 98.4174 355.315 99.6695 357.632C100.306 358.785 100.889 360.017 101.458 361.299C101.744 361.94 102.005 362.601 102.276 363.27C102.471 363.975 102.668 364.69 102.868 365.414C103.9 371.263 104.154 377.757 104.404 384.558C104.81 398.162 104.673 410.481 104.586 419.394C104.524 423.815 104.474 427.409 104.438 429.95C104.418 431.16 104.402 432.118 104.39 432.82C104.382 433.121 104.375 433.366 104.368 433.566C104.36 433.736 104.351 433.823 104.342 433.823Z" fill="#092C4C"/>
<path d="M82.7669 362.972C82.7553 362.95 83.0398 362.771 83.629 362.704C84.2077 362.637 85.1183 362.753 86.0058 363.367C86.4411 363.675 86.8732 364.104 87.1662 364.679C87.4561 365.253 87.5942 365.967 87.474 366.683C87.2653 368.094 86.147 369.58 84.4459 369.917C82.7373 370.204 81.169 369.228 80.4428 368.007C80.0602 367.393 79.9095 366.687 79.9295 366.051C79.9569 365.41 80.1498 364.837 80.3996 364.368C80.9129 363.423 81.6465 362.894 82.1766 362.657C82.7152 362.415 83.0472 362.41 83.0514 362.436C83.0641 362.484 82.7531 362.562 82.2767 362.845C81.8067 363.125 81.17 363.663 80.7463 364.544C80.3205 365.402 80.174 366.671 80.8739 367.742C81.5242 368.796 82.925 369.625 84.3479 369.377C85.7634 369.108 86.7763 367.82 86.9755 366.603C87.2189 365.348 86.5454 364.247 85.7771 363.68C85.0034 363.088 84.1824 362.917 83.6385 362.918C83.0862 362.914 82.7816 363.019 82.7669 362.972Z" fill="#092C4C"/>
<path d="M84.2361 383.774C84.195 383.818 83.5151 383.251 82.77 382.046C82.0269 380.857 81.2838 378.967 81.2585 376.784C81.2322 374.6 81.9299 372.694 82.6445 371.488C83.3602 370.265 84.0263 369.684 84.0685 369.725C84.1391 369.783 83.5889 370.447 82.9871 371.67C82.3832 372.882 81.7834 374.709 81.8077 376.778C81.833 378.845 82.4759 380.658 83.1083 381.855C83.7396 383.064 84.3056 383.715 84.2361 383.774Z" fill="#092C4C"/>
<path d="M80.8474 352.481C80.9296 352.518 80.702 353.095 80.5249 354.056C80.3436 355.014 80.2741 356.375 80.5787 357.828C80.8917 359.281 81.5083 360.495 82.0638 361.297C82.616 362.103 83.0587 362.538 82.9986 362.605C82.9618 362.653 82.4158 362.316 81.7539 361.531C81.092 360.754 80.3731 359.484 80.0422 357.942C79.7175 356.399 79.8577 354.948 80.1465 353.968C80.4322 352.983 80.7937 352.454 80.8474 352.481Z" fill="#092C4C"/>
<path d="M74.5329 364.141C74.653 364.032 75.6343 365.022 77.1289 365.79C78.614 366.576 79.9873 366.813 79.9662 366.974C79.9684 367.116 78.4706 367.117 76.8749 366.277C75.2738 365.449 74.4169 364.22 74.5329 364.141Z" fill="#092C4C"/>
<path d="M395.108 433.825C395.108 433.977 321.983 434.099 231.8 434.099C141.585 434.099 68.4766 433.976 68.4766 433.825C68.4766 433.674 141.586 433.551 231.8 433.551C321.983 433.55 395.108 433.673 395.108 433.825Z" fill="#092C4C"/>
<path d="M359.745 382.652C359.897 382.652 360.019 394.101 360.019 408.221C360.019 422.346 359.895 433.792 359.745 433.792C359.594 433.792 359.471 422.346 359.471 408.221C359.47 394.101 359.593 382.652 359.745 382.652Z" fill="#092C4C"/>
<path d="M251.482 294.217C251.482 294.217 251.313 294.24 250.981 294.255C250.625 294.269 250.136 294.287 249.507 294.31C248.185 294.347 246.281 294.401 243.841 294.469C238.894 294.584 231.78 294.749 222.998 294.951C205.376 295.305 181.074 295.794 154.231 296.334C147.516 296.496 140.951 296.475 134.645 296.891C128.35 297.309 122.265 298.19 116.81 300.147C111.336 302.025 106.621 305.159 103.25 309.036C101.573 310.975 100.158 313.037 99.0971 315.176C97.962 317.28 97.2062 319.457 96.5169 321.533C95.2669 325.737 94.7051 329.69 94.3836 333.16C94.0611 336.636 94.0232 339.647 94.0073 342.105C93.9968 344.564 94.0495 346.475 94.078 347.769C94.0917 348.398 94.1022 348.887 94.1096 349.243C94.1138 349.575 94.1012 349.745 94.1012 349.745C94.1012 349.745 94.0759 349.577 94.0527 349.245C94.0316 348.889 94.0031 348.4 93.9662 347.772C93.9019 346.478 93.8145 344.568 93.7923 342.105C93.7755 339.643 93.7828 336.624 94.0769 333.132C94.3699 329.646 94.9075 325.668 96.1438 321.419C96.8268 319.32 97.5794 317.117 98.7187 314.98C99.7833 312.81 101.208 310.709 102.905 308.734C106.313 304.783 111.105 301.581 116.638 299.669C122.155 297.676 128.286 296.78 134.607 296.353C140.944 295.928 147.505 295.945 154.218 295.783C181.062 295.305 205.367 294.874 222.988 294.56C231.771 294.43 238.887 294.325 243.835 294.252C246.276 294.228 248.181 294.209 249.503 294.196C250.132 294.196 250.621 294.195 250.977 294.195C251.312 294.202 251.482 294.217 251.482 294.217Z" fill="#092C4C"/>
<path d="M168.496 330.318C168.515 330.365 168.146 330.496 167.602 330.904C167.064 331.304 166.362 332.05 165.968 333.186C165.567 334.293 165.564 335.868 166.554 337.103C167.484 338.324 169.277 339.186 171.025 338.784C172.769 338.354 173.98 336.777 174.259 335.267C174.586 333.718 173.873 332.314 173.015 331.507C172.151 330.671 171.188 330.322 170.528 330.207C169.858 330.088 169.471 330.137 169.466 330.087C169.46 330.064 169.844 329.938 170.557 329.995C171.259 330.05 172.311 330.358 173.281 331.223C173.757 331.655 174.213 332.224 174.508 332.938C174.796 333.649 174.92 334.504 174.757 335.359C174.469 337.049 173.158 338.816 171.154 339.319C169.139 339.773 167.172 338.787 166.153 337.41C165.621 336.721 165.346 335.902 165.283 335.137C165.225 334.367 165.374 333.654 165.605 333.053C166.08 331.843 166.88 331.094 167.482 330.729C168.092 330.355 168.49 330.294 168.496 330.318Z" fill="#092C4C"/>
<path d="M164.053 357.629C163.99 357.643 163.607 356.473 163.254 354.512C162.917 352.567 162.613 349.735 163.419 346.735C164.242 343.727 166.218 341.487 167.963 340.474C168.833 339.955 169.618 339.685 170.17 339.579C170.721 339.468 171.033 339.467 171.037 339.498C171.068 339.609 169.795 339.716 168.171 340.801C166.56 341.85 164.733 344.017 163.948 346.882C163.174 349.755 163.401 352.517 163.637 354.456C163.888 356.407 164.138 357.61 164.053 357.629Z" fill="#092C4C"/>
<path d="M167.892 314.038C167.968 314.108 167.134 314.835 166.338 316.362C165.542 317.854 164.879 320.27 165.453 322.817C166.041 325.363 167.687 327.252 169.053 328.251C170.432 329.281 171.498 329.574 171.46 329.671C171.45 329.702 171.178 329.661 170.707 329.507C170.235 329.355 169.573 329.059 168.828 328.567C167.348 327.61 165.547 325.656 164.918 322.94C164.305 320.22 165.081 317.678 165.999 316.174C166.457 315.407 166.926 314.853 167.284 314.512C167.642 314.168 167.87 314.013 167.892 314.038Z" fill="#092C4C"/>
<path d="M166.926 335.139C166.936 335.309 164.271 335.38 161.21 336.426C158.138 337.442 155.973 338.995 155.877 338.853C155.782 338.759 157.864 336.958 161.035 335.905C164.197 334.829 166.945 335.007 166.926 335.139Z" fill="#092C4C"/>
<g opacity="0.3">
<path d="M132.871 399.401C142.961 407.202 155.974 411.126 168.694 410.205C166.031 422.595 163.368 434.986 160.704 447.376C159.994 450.682 159.336 454.359 161.063 457.267C163.486 461.343 169.122 461.749 173.863 461.684C179.142 461.611 184.644 461.485 189.322 459.041C195.953 455.577 199.511 448.249 202.084 441.224C204.657 434.199 206.876 426.682 212.17 421.397C218.169 428.273 226.539 433.041 235.514 434.693C238.155 435.179 241.14 435.325 243.258 433.672C245.359 432.032 245.963 429.01 245.428 426.399C244.892 423.789 243.42 421.48 241.976 419.239C236.834 411.263 231.694 403.287 226.553 395.31C224.466 392.073 222.182 388.663 218.653 387.119C215.885 385.908 212.741 386.028 209.726 386.204C184.55 387.668 159.51 391.455 135.028 397.5" fill="black"/>
</g>
<g opacity="0.3">
<path d="M215.309 280.789C209.07 297.272 185.774 301.052 177.593 316.664C169.505 332.1 179.532 352.544 171.2 367.85C168.113 373.519 162.816 377.748 159.802 383.455C157.772 387.298 156.725 391.863 153.45 394.72C149.635 398.048 143.725 397.983 139.141 395.833C134.557 393.683 131.028 389.826 127.764 385.956C121.647 378.702 115.904 370.861 113.046 361.813C108.127 346.239 112.635 328.632 122.504 315.619C132.372 302.607 147.03 293.834 162.494 288.58C177.958 283.326 194.319 281.333 210.58 279.809" fill="black"/>
</g>
<path d="M140.368 237.439C142.789 233.833 145.947 230.641 149.82 228.675C153.694 226.71 158.326 226.057 162.456 227.406C166.585 228.754 170.072 232.253 170.913 236.514C171.58 239.892 170.681 243.666 172.426 246.634C174.433 250.05 179.271 251.132 180.969 254.711C181.992 256.868 181.583 259.487 180.46 261.593C179.338 263.699 177.584 265.388 175.83 267.006C176.891 267.76 177.97 268.539 178.718 269.604C179.465 270.67 179.833 272.093 179.331 273.294C178.802 274.563 177.473 275.285 176.207 275.822C170.368 278.298 163.759 278.918 157.56 277.575C155.896 277.214 153.99 276.761 152.62 277.772" fill="#092C4C"/>
<path d="M182.565 249.941L179.158 260.268L202.205 273.344L179.034 274.095L180.767 292.883L225.397 281.928C225.397 281.928 228.074 263.727 182.565 249.941L179.364 249.189C178.204 248.916 177.252 248.09 176.817 246.981C176.473 246.106 175.826 245.384 174.992 244.948L171.191 242.965L171.218 245.98L173.308 248.437L172.974 254.267C172.796 256.844 174.509 259.171 177.024 259.765L179.159 260.268" fill="#B78876"/>
<path d="M132.084 287.259C131.172 287.259 122.66 289.326 117.796 295.525C112.932 301.724 105.883 324.966 105.883 324.966L123.819 328.066L131.553 347.499C131.553 347.499 177.344 341.498 174.912 339.087C172.481 336.676 167.479 332.956 167.479 332.956L178.036 297.851L190.71 291.021L186.447 273.48L160.965 276.925L132.084 287.259Z" fill="#FAFAFA"/>
<path d="M175.871 305.946C175.871 306.098 161.593 306.22 143.985 306.22C126.372 306.22 112.098 306.097 112.098 305.946C112.098 305.795 126.372 305.672 143.985 305.672C161.593 305.672 175.871 305.794 175.871 305.946Z" fill="#FE9F43"/>
<path d="M173.013 316.266C173.013 316.418 158.735 316.54 141.127 316.54C123.513 316.54 109.238 316.418 109.238 316.266C109.238 316.114 123.513 315.992 141.127 315.992C158.735 315.992 173.013 316.114 173.013 316.266Z" fill="#FE9F43"/>
<path d="M173.013 327.411C173.013 327.563 162.199 327.685 148.862 327.685C135.521 327.685 124.71 327.561 124.71 327.411C124.71 327.26 135.522 327.137 148.862 327.137C162.199 327.136 173.013 327.259 173.013 327.411Z" fill="#FE9F43"/>
<path d="M176.719 338.145C176.719 338.297 165.905 338.419 152.568 338.419C139.227 338.419 128.416 338.296 128.416 338.145C128.416 337.993 139.228 337.871 152.568 337.871C165.905 337.871 176.719 337.993 176.719 338.145Z" fill="#FE9F43"/>
<path d="M188.152 292.071C188.152 292.223 181.009 292.345 172.2 292.345C163.387 292.345 156.245 292.222 156.245 292.071C156.245 291.92 163.387 291.797 172.2 291.797C181.009 291.797 188.152 291.92 188.152 292.071Z" fill="#FE9F43"/>
<path d="M189.312 281.125C189.316 281.277 182.201 281.566 173.422 281.772C164.641 281.977 157.522 282.02 157.519 281.869C157.515 281.717 164.629 281.428 173.41 281.222C182.187 281.018 189.308 280.974 189.312 281.125Z" fill="#FE9F43"/>
<path d="M127.541 311.305C127.688 311.339 126.921 315.199 125.828 319.927C124.734 324.655 123.728 328.46 123.581 328.426C123.433 328.392 124.199 324.532 125.293 319.803C126.386 315.076 127.393 311.271 127.541 311.305Z" fill="#092C4C"/>
<path d="M177.389 442.902L164.041 484.993L180.132 486.607L195.246 450.042L177.389 442.902Z" fill="#B78876"/>
<path d="M189.162 470.234L181.498 489.239C181.498 489.239 198.24 503.412 197.166 507.062L159.784 493.524L170.512 463.422L189.162 470.234Z" fill="#455A64"/>
<path d="M170.525 483.432C169.731 483.368 168.936 484 168.839 484.792C168.742 485.583 169.379 486.397 170.172 486.475C170.966 486.553 171.943 485.822 171.95 485.025C171.958 484.228 171.159 483.314 170.369 483.428" fill="#E0E0E0"/>
<path d="M159.784 493.524L160.984 490.531L196.377 504.63C196.377 504.63 197.779 505.957 197.166 507.06L159.784 493.524Z" fill="#E0E0E0"/>
<path d="M182.174 489.268C182.102 489.448 181.159 489.2 180.048 489.462C178.93 489.695 178.181 490.318 178.039 490.185C177.883 490.089 178.551 489.096 179.901 488.802C181.248 488.497 182.273 489.115 182.174 489.268Z" fill="#092C4C"/>
<path d="M185.506 492.31C185.484 492.502 184.581 492.526 183.682 493.074C182.766 493.595 182.307 494.374 182.128 494.3C181.946 494.266 182.207 493.151 183.338 492.492C184.464 491.822 185.565 492.134 185.506 492.31Z" fill="#092C4C"/>
<path d="M186.034 497.809C185.854 497.788 185.931 496.784 186.761 495.954C187.587 495.118 188.59 495.035 188.612 495.215C188.661 495.403 187.912 495.738 187.241 496.431C186.553 497.106 186.222 497.858 186.034 497.809Z" fill="#092C4C"/>
<path d="M183.439 484.743C183.302 484.882 182.555 484.327 181.498 484.023C180.447 483.699 179.519 483.753 179.481 483.563C179.423 483.393 180.452 483.001 181.692 483.376C182.934 483.741 183.58 484.632 183.439 484.743Z" fill="#092C4C"/>
<path d="M184.915 480.88C184.89 480.956 184.128 480.807 183.046 480.193C182.509 479.886 181.9 479.453 181.305 478.882C181.008 478.596 180.715 478.275 180.436 477.921C180.304 477.748 180.14 477.563 180.031 477.276C179.897 477.013 179.958 476.487 180.298 476.275C180.594 476.057 180.977 476.056 181.249 476.147C181.527 476.238 181.731 476.375 181.916 476.498C182.296 476.75 182.636 477.03 182.936 477.319C183.532 477.903 183.963 478.524 184.252 479.078C184.828 480.195 184.877 480.984 184.802 480.997C184.698 481.027 184.483 480.303 183.84 479.32C183.519 478.831 183.081 478.286 182.511 477.775C182.225 477.521 181.906 477.275 181.556 477.054C181.197 476.806 180.861 476.682 180.697 476.821C180.636 476.875 180.621 476.9 180.662 477.045C180.709 477.184 180.832 477.346 180.961 477.518C181.214 477.853 181.479 478.161 181.746 478.441C182.281 479.001 182.824 479.447 183.304 479.79C184.267 480.477 184.954 480.782 184.915 480.88Z" fill="#092C4C"/>
<path d="M184.581 481.057C184.506 481.062 184.381 480.276 184.743 479.071C184.924 478.473 185.242 477.785 185.741 477.113C185.992 476.779 186.287 476.451 186.629 476.149C186.982 475.859 187.428 475.462 188.166 475.637C188.541 475.757 188.744 476.156 188.759 476.442C188.791 476.739 188.737 476.966 188.702 477.198C188.613 477.659 188.45 478.084 188.247 478.459C187.841 479.213 187.276 479.757 186.747 480.104C185.666 480.808 184.825 480.75 184.832 480.682C184.805 480.568 185.569 480.446 186.465 479.718C186.906 479.358 187.37 478.842 187.694 478.173C187.856 477.84 187.984 477.471 188.051 477.079C188.136 476.66 188.104 476.286 187.94 476.272C187.756 476.202 187.331 476.387 187.064 476.649C186.75 476.914 186.473 477.202 186.232 477.495C185.753 478.085 185.417 478.695 185.193 479.232C184.744 480.311 184.691 481.065 184.581 481.057Z" fill="#092C4C"/>
<path d="M228.032 403.28L247.951 437.902L264.246 427.45L244.243 392.301L228.032 403.28Z" fill="#B78876"/>
<path d="M258.624 417.559L268.913 435.281C268.913 435.281 290.382 430.774 292.603 433.864L258.958 455.048L241.794 428.093L258.624 417.559Z" fill="#455A64"/>
<path d="M257.591 440.374C257.052 440.962 257.063 441.977 257.628 442.54C258.193 443.102 259.226 443.1 259.775 442.522C260.324 441.943 260.348 440.723 259.723 440.228C259.098 439.732 257.886 439.801 257.492 440.495" fill="#E0E0E0"/>
<path d="M258.957 455.048L257.333 452.264L290.199 432.993C290.199 432.993 292.107 432.702 292.602 433.864L258.957 455.048Z" fill="#E0E0E0"/>
<path d="M269.35 434.767C269.448 434.935 268.674 435.527 268.198 436.564C267.696 437.589 267.727 438.562 267.534 438.593C267.363 438.656 266.989 437.52 267.587 436.274C268.174 435.024 269.291 434.594 269.35 434.767Z" fill="#092C4C"/>
<path d="M273.798 434.002C273.936 434.138 273.4 434.865 273.28 435.911C273.129 436.953 273.461 437.793 273.292 437.889C273.154 438.012 272.434 437.122 272.609 435.823C272.773 434.525 273.696 433.848 273.798 434.002Z" fill="#092C4C"/>
<path d="M278.463 436.966C278.335 437.094 277.59 436.418 277.445 435.253C277.293 434.088 277.844 433.246 278 433.339C278.178 433.416 277.983 434.213 278.117 435.168C278.226 436.125 278.615 436.847 278.463 436.966Z" fill="#092C4C"/>
<path d="M266.557 430.987C266.583 431.18 265.687 431.428 264.797 432.076C263.895 432.705 263.369 433.472 263.194 433.385C263.024 433.326 263.347 432.274 264.404 431.526C265.457 430.77 266.557 430.808 266.557 430.987Z" fill="#092C4C"/>
<path d="M264.416 427.451C264.46 427.517 263.875 428.027 262.725 428.503C262.153 428.739 261.438 428.953 260.621 429.071C260.214 429.13 259.78 429.164 259.33 429.167C259.112 429.164 258.866 429.18 258.573 429.091C258.283 429.034 257.905 428.664 257.946 428.264C257.956 427.898 258.191 427.594 258.43 427.436C258.673 427.271 258.906 427.196 259.117 427.125C259.55 426.98 259.979 426.884 260.392 426.825C261.219 426.712 261.974 426.753 262.587 426.866C263.823 427.098 264.476 427.543 264.439 427.61C264.399 427.711 263.695 427.436 262.525 427.339C261.942 427.291 261.242 427.303 260.489 427.438C260.112 427.508 259.723 427.609 259.334 427.749C258.918 427.88 258.614 428.068 258.622 428.284C258.627 428.366 258.638 428.393 258.778 428.45C258.916 428.497 259.12 428.5 259.335 428.504C259.754 428.51 260.16 428.491 260.545 428.452C261.315 428.374 262.001 428.219 262.566 428.05C263.7 427.714 264.363 427.359 264.416 427.451Z" fill="#092C4C"/>
<path d="M264.35 427.82C264.308 427.882 263.611 427.498 262.881 426.472C262.52 425.962 262.173 425.287 261.949 424.482C261.839 424.079 261.763 423.645 261.734 423.189C261.721 422.732 261.682 422.136 262.274 421.661C262.598 421.439 263.039 421.525 263.273 421.688C263.527 421.845 263.672 422.027 263.835 422.197C264.144 422.551 264.38 422.941 264.55 423.331C264.895 424.114 264.977 424.894 264.927 425.524C264.818 426.81 264.256 427.438 264.208 427.391C264.101 427.344 264.474 426.665 264.449 425.511C264.437 424.942 264.314 424.259 263.985 423.591C263.822 423.259 263.609 422.932 263.341 422.637C263.064 422.313 262.748 422.109 262.637 422.23C262.469 422.332 262.354 422.781 262.395 423.153C262.412 423.563 262.469 423.958 262.553 424.329C262.725 425.07 263 425.71 263.286 426.216C263.861 427.234 264.424 427.739 264.35 427.82Z" fill="#092C4C"/>
<path d="M168.739 398.398L207.854 371.8L232.529 419.83L254.965 407.69C254.965 407.69 229.127 344.689 219.852 342.654C214.655 341.515 155.067 352.896 155.067 352.896L148.409 349.549L131.553 347.499L130.476 350.224C124.521 365.297 125.201 382.184 132.349 396.729L133.169 398.398H168.739Z" fill="#092C4C"/>
<path d="M155.005 365.129C155.296 366.448 187.632 396.727 187.632 396.727L168.974 459.426L196.82 464.753L224.781 389.222L173.674 339.086L150.333 348.911L155.005 365.129Z" fill="#092C4C"/>
<path d="M207.856 371.799C207.941 371.924 199.253 377.981 188.454 385.325C177.65 392.671 168.826 398.524 168.741 398.399C168.655 398.273 177.342 392.218 188.145 384.872C198.944 377.527 207.77 371.673 207.856 371.799Z" fill="#455A64"/>
<path d="M227.933 410.883C227.901 410.902 227.567 410.384 226.989 409.432C226.406 408.484 225.604 407.087 224.625 405.356C222.679 401.885 220.086 397.037 217.341 391.625C214.591 386.212 212.185 381.272 210.485 377.675C209.635 375.877 208.959 374.416 208.506 373.4C208.053 372.384 207.821 371.814 207.855 371.797C207.89 371.78 208.186 372.32 208.699 373.308C209.246 374.384 209.965 375.798 210.833 377.506C212.665 381.137 215.118 386 217.83 391.377C220.574 396.787 223.11 401.657 224.966 405.171C225.866 406.862 226.61 408.262 227.176 409.328C227.695 410.311 227.966 410.864 227.933 410.883Z" fill="#455A64"/>
<path d="M193.481 385.533C193.615 385.603 192.275 388.611 190.489 392.251C188.701 395.891 187.141 398.791 187.003 398.728C186.865 398.664 188.205 395.656 189.996 392.008C191.786 388.362 193.347 385.462 193.481 385.533Z" fill="#455A64"/>
<path d="M105.883 324.965L99.5995 348.323C98.7868 351.344 99.1599 354.562 100.644 357.316C103.263 362.179 108.814 364.69 114.195 363.444L164.312 351.098L159.072 340.689L119.591 344.113L123.819 328.064L105.883 324.965Z" fill="#B78876"/>
<path d="M128.115 360.421L128.769 357.026L155.927 352.146L163.819 310.272L214.265 304.262L205.789 348.963L128.115 360.421Z" fill="#455A64"/>
<path d="M186.471 332.818C185.149 332.563 184.316 331.121 184.61 329.596C184.904 328.071 186.214 327.042 187.536 327.297C188.857 327.552 189.691 328.995 189.397 330.519C189.103 332.044 187.793 333.074 186.471 332.818Z" fill="#EBEBEB"/>
<path d="M135.496 240.333L135.591 243.361L136.726 288.691C136.858 293.954 141.487 298.032 147.121 297.848C152.81 297.661 157.381 293.203 157.336 287.884C157.289 282.302 157.34 276.425 157.34 276.425C157.34 276.425 164.517 275.148 165.898 265.748C166.584 261.073 166.261 253.427 165.794 247.178C165.374 241.553 160.361 237.41 154.76 238.069L135.496 240.333Z" fill="#B78876"/>
<path d="M162.162 252.406C162.191 253.041 161.678 253.589 161.016 253.633C160.354 253.676 159.793 253.197 159.763 252.563C159.733 251.927 160.246 251.378 160.908 251.335C161.569 251.291 162.132 251.77 162.162 252.406Z" fill="#092C4C"/>
<path d="M164.183 251.175C164.036 251.333 163.116 250.67 161.821 250.688C160.528 250.688 159.586 251.365 159.443 251.208C159.374 251.138 159.522 250.854 159.932 250.548C160.336 250.243 161.027 249.943 161.834 249.938C162.64 249.932 163.322 250.221 163.715 250.52C164.118 250.822 164.256 251.104 164.183 251.175Z" fill="#092C4C"/>
<path d="M149.382 252.87C149.411 253.506 148.898 254.054 148.236 254.098C147.574 254.142 147.013 253.663 146.983 253.027C146.953 252.393 147.466 251.843 148.127 251.8C148.79 251.756 149.352 252.236 149.382 252.87Z" fill="#092C4C"/>
<path d="M151.459 251.566C151.311 251.725 150.391 251.061 149.097 251.079C147.803 251.079 146.86 251.755 146.718 251.598C146.648 251.529 146.796 251.244 147.207 250.938C147.61 250.634 148.302 250.333 149.108 250.328C149.914 250.323 150.596 250.613 150.991 250.911C151.392 251.212 151.53 251.495 151.459 251.566Z" fill="#092C4C"/>
<path d="M156.269 261.113C156.262 261.039 157.066 260.892 158.368 260.709C158.698 260.671 159.01 260.602 159.064 260.375C159.138 260.136 158.996 259.781 158.832 259.398C158.511 258.601 158.176 257.767 157.825 256.892C156.425 253.323 155.408 250.388 155.553 250.333C155.697 250.278 156.948 253.125 158.348 256.694C158.685 257.574 159.008 258.413 159.314 259.215C159.444 259.589 159.664 260.013 159.501 260.51C159.415 260.758 159.174 260.94 158.962 261C158.752 261.068 158.565 261.073 158.402 261.085C157.089 261.171 156.275 261.187 156.269 261.113Z" fill="#092C4C"/>
<path d="M157.342 276.424C157.342 276.424 151.035 276.905 144.738 273.219C144.738 273.219 147.861 279.628 157.241 278.641L157.342 276.424Z" fill="#AA6550"/>
<path d="M151.979 249.435C151.835 249.781 150.552 249.554 149.026 249.667C147.498 249.749 146.254 250.137 146.067 249.812C145.983 249.657 146.212 249.336 146.723 249.019C147.229 248.701 148.027 248.415 148.942 248.355C149.857 248.297 150.685 248.48 151.227 248.731C151.774 248.982 152.042 249.27 151.979 249.435Z" fill="#092C4C"/>
<path d="M163.641 246.686C163.416 246.982 162.52 246.688 161.448 246.686C160.375 246.646 159.47 246.906 159.257 246.602C159.164 246.453 159.304 246.157 159.697 245.874C160.085 245.592 160.736 245.358 161.474 245.372C162.21 245.386 162.852 245.646 163.23 245.943C163.611 246.239 163.74 246.541 163.641 246.686Z" fill="#092C4C"/>
<path d="M156.127 265.801C155.761 265.911 155.368 265.78 155 265.685C154.632 265.578 154.285 265.483 153.993 265.386C153.7 265.289 153.364 265.158 153.005 265.024C152.653 264.881 152.26 264.75 152.032 264.445C151.809 264.151 151.854 263.645 152.36 263.194C152.844 262.752 153.82 262.441 154.856 262.781C155.89 263.126 156.487 263.959 156.611 264.603C156.748 265.266 156.481 265.699 156.127 265.801Z" fill="#AA6550"/>
<path d="M156.306 265.689C156.18 265.776 155.551 264.484 154.036 264.094C152.521 263.709 151.349 264.54 151.28 264.404C151.236 264.353 151.452 264.06 151.965 263.796C152.467 263.532 153.295 263.339 154.172 263.563C155.048 263.788 155.683 264.356 155.996 264.827C156.319 265.304 156.368 265.665 156.306 265.689Z" fill="#092C4C"/>
<path d="M146.349 234.216C149.349 238.684 148.588 245.287 144.649 248.955C142.406 251.044 139.068 252.674 138.84 255.731C138.587 259.116 142.509 261.649 142.514 265.044C142.521 268.533 138.493 270.757 137.71 274.159C137.08 276.897 138.716 279.643 140.612 281.715C142.508 283.788 144.789 285.627 145.927 288.196C147.183 291.028 146.827 294.375 145.607 297.223C144.387 300.071 142.381 302.504 140.308 304.808C137.51 303.801 134.584 303.151 131.623 302.876C131.809 301.757 131.995 300.637 132.181 299.518C132.245 300.821 131.153 301.958 129.915 302.367C128.676 302.776 127.329 302.618 126.041 302.415C122.093 301.793 118.204 300.794 114.445 299.435C116.05 297.827 117.683 296.18 118.682 294.14C119.682 292.101 119.95 289.561 118.799 287.602C117.874 286.028 116.166 285.016 115.315 283.4C114.037 280.978 115.089 277.897 116.905 275.847C118.721 273.797 121.179 272.449 123.339 270.764C125.498 269.078 127.481 266.799 127.655 264.064C127.881 260.518 125.012 257.286 125.364 253.749C125.764 249.722 130.023 247.259 131.696 243.574C132.906 240.906 132.744 237.615 134.601 235.35C135.976 233.673 138.261 232.918 140.426 233.031C142.592 233.143 144.653 234.031 146.501 235.166" fill="#092C4C"/>
<path d="M158.126 277.432C156.431 278.367 156.529 280.94 157.561 282.577C158.593 284.215 160.253 285.384 161.272 287.029C163.09 289.965 162.304 294.226 159.557 296.319L163.606 297.851L164.489 297.351L166.974 295.945L165.809 298.816H168.4C171.126 298.848 173.807 297.239 175.062 294.819C176.316 292.399 176.085 289.281 174.487 287.073C173.421 285.598 171.766 284.423 171.406 282.638C170.973 280.487 172.598 278.535 173.394 276.49C174.724 273.074 173.508 268.84 170.566 266.652" fill="#092C4C"/>
<path d="M78.2572 192.136C78.7304 192.364 79.0561 192.847 79.0572 193.407L79.0561 200.427C79.0561 200.868 78.8495 201.285 78.4975 201.55C78.1454 201.817 77.6891 201.903 77.2643 201.783C76.1502 201.469 74.897 201.661 73.8283 202.31C72.8438 202.907 72.1608 203.82 71.9553 204.815C71.7487 205.805 72.0101 206.923 72.672 207.882C73.3803 208.907 74.4607 209.625 75.5684 209.801C77.8303 210.16 80.3588 208.526 81.0893 206.23C81.3254 205.488 82.118 205.079 82.86 205.315C83.6136 205.558 84.012 206.345 83.7759 207.086C82.6271 210.694 78.7462 213.161 75.1247 212.586C73.2475 212.286 71.5053 211.157 70.3522 209.484C69.255 207.894 68.8334 205.985 69.1949 204.242C69.5596 202.485 70.7147 200.903 72.3653 199.902C73.5584 199.178 74.9065 198.809 76.2377 198.819L76.2367 193.409C76.2367 192.63 76.868 192 77.6469 192C77.8661 191.998 78.0727 192.047 78.2572 192.136Z" fill="#FE9F43"/>
<path d="M76.3168 189.183C76.301 188.546 76.8037 188.017 77.4403 188C78.077 187.985 78.6061 188.487 78.6229 189.124C78.6387 189.761 78.136 190.29 77.4994 190.307C76.8627 190.322 76.3326 189.82 76.3168 189.183Z" fill="#FE9F43"/>
<path d="M110.705 226.771C110.71 226.804 110.354 226.825 109.778 227.061C109.21 227.292 108.416 227.803 107.822 228.739C107.532 229.203 107.293 229.772 107.218 230.41C107.15 231.046 107.243 231.747 107.571 232.392C108.188 233.675 109.672 234.784 111.348 234.701C113.021 234.586 114.364 233.308 114.826 231.962C115.076 231.283 115.085 230.575 114.942 229.952C114.792 229.327 114.487 228.79 114.145 228.363C113.445 227.504 112.596 227.09 112.004 226.928C111.405 226.761 111.048 226.784 111.049 226.75C111.049 226.739 111.137 226.733 111.304 226.729C111.389 226.723 111.492 226.728 111.614 226.745C111.738 226.755 111.878 226.773 112.034 226.814C112.652 226.946 113.553 227.343 114.309 228.226C114.68 228.666 115.014 229.226 115.185 229.892C115.351 230.555 115.349 231.323 115.088 232.052C114.845 232.783 114.377 233.482 113.733 234.018C113.098 234.565 112.262 234.938 111.364 235.003C110.465 235.045 109.592 234.773 108.897 234.305C108.195 233.847 107.647 233.21 107.319 232.513C106.976 231.82 106.883 231.057 106.968 230.38C107.059 229.699 107.324 229.103 107.641 228.623C108.288 227.656 109.134 227.156 109.734 226.951C109.884 226.892 110.022 226.858 110.142 226.833C110.261 226.801 110.363 226.786 110.447 226.78C110.616 226.765 110.704 226.76 110.705 226.771Z" fill="#263238"/>
<path d="M120.959 236.966C120.963 236.994 120.74 237.015 120.383 237.169C120.031 237.32 119.541 237.644 119.177 238.226C118.813 238.792 118.617 239.677 119.033 240.483C119.416 241.273 120.335 241.956 121.36 241.904C122.386 241.834 123.219 241.048 123.504 240.219C123.822 239.369 123.523 238.514 123.094 237.996C122.664 237.459 122.139 237.196 121.771 237.088C121.399 236.977 121.175 236.984 121.176 236.955C121.174 236.943 121.399 236.895 121.801 236.974C122.195 237.052 122.772 237.299 123.259 237.86C123.498 238.139 123.713 238.495 123.825 238.922C123.933 239.347 123.933 239.841 123.768 240.31C123.461 241.239 122.557 242.122 121.378 242.206C120.199 242.261 119.198 241.491 118.782 240.605C118.563 240.16 118.504 239.668 118.562 239.234C118.622 238.798 118.795 238.418 118.998 238.113C119.416 237.498 119.958 237.185 120.341 237.062C120.729 236.933 120.959 236.953 120.959 236.966Z" fill="#263238"/>
<path d="M109.002 205.875C109.002 205.875 108.996 205.696 109 205.346C109.007 204.989 109.016 204.472 109.028 203.797C109.035 203.455 109.043 203.076 109.052 202.656C109.042 202.237 108.989 201.779 108.955 201.283C108.916 200.787 108.875 200.252 108.83 199.682C108.818 199.395 108.773 199.103 108.713 198.804C108.659 198.504 108.603 198.195 108.546 197.876C108.173 195.32 107.234 192.262 105.629 188.97C104.008 185.691 101.57 182.207 98.1169 179.139C97.6826 178.76 97.2431 178.375 96.7994 177.987C96.3335 177.627 95.8381 177.291 95.3512 176.935C95.1056 176.758 94.86 176.581 94.6113 176.404C94.3646 176.224 94.117 176.043 93.844 175.898C93.3106 175.59 92.772 175.277 92.2271 174.961C91.9541 174.805 91.6833 174.641 91.405 174.489C91.1162 174.357 90.8253 174.225 90.5333 174.092C89.9494 173.825 89.3592 173.557 88.7647 173.286C88.1619 173.033 87.5252 172.85 86.8981 172.626C86.583 172.518 86.2668 172.411 85.9484 172.302C85.7882 172.251 85.6312 172.188 85.4689 172.144L84.9746 172.029C83.6518 171.734 82.3216 171.353 80.9219 171.236C80.2263 171.156 79.5285 171.034 78.8202 170.989C78.1098 170.97 77.3931 170.951 76.6711 170.932C76.3107 170.929 75.9481 170.898 75.5855 170.917C75.2229 170.945 74.8593 170.971 74.4936 170.998C73.7642 171.062 73.0254 171.088 72.2907 171.182C70.833 171.458 69.3311 171.633 67.8797 172.109C67.5129 172.213 67.1451 172.316 66.7762 172.419C66.5928 172.473 66.4052 172.518 66.2228 172.578L65.6853 172.788C64.9675 173.068 64.2445 173.35 63.5172 173.632C62.8058 173.95 62.1165 174.329 61.4092 174.678C61.0614 174.863 60.6946 175.017 60.3605 175.231L59.3529 175.87C57.9679 176.669 56.7305 177.708 55.4415 178.701C54.8491 179.259 54.2547 179.819 53.6571 180.382L53.208 180.805C53.0679 180.954 52.9351 181.114 52.798 181.267L51.9812 182.2L51.1601 183.137L50.4265 184.15L49.693 185.17L49.3251 185.682C49.2134 185.86 49.1122 186.044 49.0047 186.226C48.581 186.954 48.1562 187.685 47.7294 188.42C47.3763 189.193 47.0211 189.967 46.6648 190.746C45.3568 193.909 44.521 197.311 44.2006 200.815C43.9729 204.327 44.2701 207.819 45.0712 211.147C45.302 211.972 45.5318 212.793 45.7615 213.611C46.0693 214.402 46.376 215.192 46.6817 215.977L46.9136 216.564L47.1981 217.127L47.7652 218.248L48.3333 219.363L48.9994 220.416L49.6624 221.465L49.9955 221.986L50.3738 222.473C50.8777 223.122 51.3783 223.768 51.8768 224.411C52.9962 225.591 54.0576 226.81 55.3023 227.815L56.1993 228.603C56.4955 228.866 56.8349 229.075 57.15 229.312C57.7951 229.766 58.4159 230.248 59.0704 230.672C59.745 231.064 60.4153 231.455 61.0814 231.843L61.58 232.134C61.7507 232.221 61.9278 232.296 62.1017 232.377C62.4506 232.536 62.7973 232.695 63.1441 232.854C64.5048 233.551 65.9615 233.956 67.358 234.455C68.0705 234.661 68.7957 234.803 69.5061 234.978C69.8623 235.062 70.2175 235.145 70.5716 235.228C70.9268 235.303 71.2905 235.329 71.6467 235.382C72.3624 235.475 73.0738 235.567 73.779 235.659C74.4862 235.725 75.1945 235.712 75.8943 235.741C77.2962 235.843 78.6695 235.672 80.0218 235.585L80.5277 235.548C80.6953 235.53 80.8597 235.493 81.0263 235.466C81.3572 235.408 81.6871 235.351 82.0149 235.293C82.6684 235.169 83.3261 235.088 83.9606 234.931C84.5909 234.755 85.2149 234.581 85.8336 234.409C86.1424 234.323 86.4501 234.237 86.7569 234.152C87.0541 234.038 87.3492 233.925 87.6422 233.813C88.2293 233.585 88.8101 233.36 89.3845 233.137C89.6764 233.037 89.9494 232.896 90.2214 232.756C90.4933 232.619 90.7652 232.482 91.034 232.346C91.5705 232.07 92.1112 231.816 92.6277 231.532C93.1272 231.217 93.6205 230.906 94.1085 230.598C97.9957 228.103 100.944 225.039 103.053 222.051C103.319 221.678 103.59 221.317 103.84 220.953C104.064 220.571 104.283 220.196 104.498 219.828C104.713 219.46 104.924 219.1 105.131 218.746C105.231 218.568 105.343 218.397 105.432 218.218C105.516 218.035 105.598 217.855 105.68 217.677C106.009 216.963 106.323 216.28 106.624 215.629C106.905 214.97 107.094 214.313 107.315 213.706C107.421 213.401 107.524 213.105 107.623 212.817C107.729 212.53 107.819 212.249 107.875 211.967C108.008 211.411 108.131 210.889 108.247 210.405C108.358 209.92 108.481 209.477 108.556 209.064C108.613 208.648 108.663 208.271 108.709 207.933C108.801 207.263 108.873 206.751 108.921 206.398C108.968 206.052 109.002 205.875 109.002 205.875C109.002 205.875 108.989 206.053 108.95 206.4C108.908 206.755 108.847 207.269 108.766 207.94C108.724 208.279 108.678 208.658 108.627 209.075C108.557 209.489 108.438 209.935 108.332 210.423C108.221 210.91 108.101 211.434 107.973 211.994C107.919 212.277 107.831 212.56 107.726 212.847C107.628 213.137 107.528 213.436 107.424 213.743C107.206 214.354 107.02 215.016 106.742 215.678C106.445 216.334 106.133 217.021 105.807 217.74C105.726 217.92 105.642 218.102 105.559 218.285C105.471 218.466 105.36 218.638 105.26 218.817C105.054 219.174 104.844 219.537 104.63 219.908C104.416 220.279 104.196 220.657 103.974 221.041C103.725 221.409 103.454 221.773 103.188 222.149C101.081 225.161 98.1253 228.256 94.2213 230.778C93.7312 231.089 93.2348 231.404 92.7341 231.722C92.2155 232.01 91.6717 232.268 91.132 232.548C90.8611 232.685 90.5882 232.824 90.3141 232.962C90.0411 233.103 89.7671 233.246 89.473 233.348C88.8944 233.573 88.3105 233.802 87.7192 234.033C87.423 234.147 87.1289 234.268 86.8275 234.376C86.5197 234.463 86.2098 234.55 85.8979 234.638C85.2749 234.813 84.6468 234.99 84.0123 235.168C83.3735 235.327 82.7116 235.411 82.0529 235.538C81.7219 235.596 81.3899 235.655 81.0568 235.714C80.8892 235.741 80.7238 235.778 80.5551 235.797L80.045 235.835C78.6822 235.925 77.2983 236.099 75.8859 236C75.1808 235.97 74.4672 235.985 73.7537 235.92C73.0422 235.828 72.3255 235.736 71.6046 235.644C71.2451 235.592 70.8784 235.565 70.52 235.491C70.1627 235.407 69.8043 235.324 69.4449 235.241C68.7282 235.065 67.9967 234.923 67.2779 234.717C65.8676 234.216 64.3984 233.808 63.025 233.108C62.6751 232.949 62.3251 232.789 61.9731 232.628C61.7981 232.546 61.619 232.471 61.4472 232.383L60.9434 232.09C60.2709 231.699 59.5942 231.306 58.9134 230.911C58.2535 230.484 57.6254 229.999 56.975 229.542C56.6578 229.303 56.3152 229.093 56.0159 228.827L55.1105 228.035C53.8541 227.022 52.7812 225.794 51.6523 224.603C51.1485 223.955 50.6426 223.302 50.1346 222.648L49.753 222.155L49.4168 221.63L48.7465 220.573L48.074 219.511L47.4996 218.386L46.9273 217.254L46.6406 216.686L46.4066 216.094C46.0978 215.301 45.7879 214.505 45.477 213.705C45.2451 212.88 45.0121 212.051 44.7792 211.219C43.9697 207.86 43.6694 204.334 43.8991 200.791C44.2216 197.255 45.067 193.821 46.3876 190.629C46.747 189.844 47.1054 189.062 47.4627 188.282C47.8938 187.541 48.3228 186.803 48.7507 186.067C48.8592 185.885 48.9615 185.699 49.0743 185.519L49.4463 185.003L50.1873 183.974L50.9293 182.953L51.7588 182.007L52.5841 181.066C52.7222 180.911 52.856 180.751 52.9983 180.6L53.4515 180.173C54.0555 179.605 54.6562 179.04 55.2539 178.479C56.5545 177.477 57.8045 176.432 59.2021 175.625L60.2193 174.982C60.5565 174.766 60.9265 174.613 61.2775 174.425C61.991 174.074 62.6867 173.691 63.4044 173.373C64.138 173.088 64.8674 172.805 65.5925 172.524L66.1354 172.313C66.3198 172.253 66.5074 172.206 66.6929 172.153C67.065 172.048 67.436 171.945 67.806 171.842C69.271 171.363 70.7856 171.188 72.2559 170.912C72.998 170.819 73.7431 170.793 74.4778 170.731C74.8456 170.704 75.2124 170.677 75.5781 170.651C75.9439 170.632 76.3096 170.663 76.6733 170.666C77.4005 170.687 78.1225 170.707 78.8392 170.727C79.5538 170.774 80.2568 170.898 80.9578 170.979C82.3691 171.101 83.7087 171.487 85.041 171.787L85.5384 171.904C85.7018 171.949 85.8599 172.011 86.0212 172.064C86.3416 172.174 86.6599 172.283 86.9772 172.392C87.6085 172.619 88.2493 172.805 88.8554 173.061C89.4541 173.336 90.0475 173.608 90.6356 173.877C90.9296 174.012 91.2216 174.146 91.5125 174.279C91.7929 174.432 92.0659 174.599 92.3399 174.757C92.888 175.076 93.4297 175.393 93.9662 175.706C94.2403 175.852 94.4901 176.034 94.7378 176.217C94.9865 176.397 95.2342 176.575 95.4808 176.753C95.9709 177.113 96.4674 177.452 96.9364 177.817C97.3822 178.209 97.8239 178.597 98.2592 178.98C101.726 182.078 104.165 185.592 105.781 188.895C107.379 192.211 108.306 195.289 108.662 197.856C108.717 198.176 108.771 198.487 108.822 198.788C108.88 199.089 108.924 199.383 108.933 199.67C108.973 200.244 109.01 200.779 109.045 201.278C109.074 201.775 109.122 202.235 109.128 202.655C109.114 203.076 109.101 203.457 109.089 203.799C109.064 204.474 109.045 204.992 109.032 205.349C109.016 205.697 109.002 205.875 109.002 205.875Z" fill="#263238"/>
<path d="M464.212 468.99C464.222 468.985 464.161 468.839 464.033 468.559C463.89 468.255 463.698 467.846 463.455 467.324C462.962 466.233 462.323 464.581 461.753 462.382C460.628 457.988 460.235 451.273 461.899 443.296C462.672 439.302 463.917 435.018 465.438 430.476C466.937 425.926 468.677 421.099 470.098 415.88C471.504 410.675 472.613 405.022 472.399 399.099C472.183 393.163 470.426 387.237 468.493 381.34C466.564 375.432 464.57 369.658 463.972 363.851C463.297 358.054 464.537 352.362 467.178 347.699C469.736 342.987 472.955 338.955 475.364 334.78C477.81 330.619 479.341 326.34 480.283 322.36C482.11 314.336 481.471 307.575 480.595 303.119C479.645 298.64 478.587 296.324 478.587 296.324C478.576 296.328 478.617 296.481 478.706 296.775C478.806 297.097 478.941 297.528 479.113 298.078C479.467 299.223 479.926 300.932 480.361 303.165C481.161 307.611 481.727 314.325 479.861 322.261C478.9 326.197 477.363 330.419 474.925 334.523C472.522 338.649 469.29 342.662 466.681 347.432C463.984 352.146 462.687 358.023 463.375 363.912C463.976 369.819 465.985 375.631 467.91 381.531C469.842 387.424 471.579 393.287 471.798 399.123C472.017 404.956 470.936 410.554 469.552 415.734C468.154 420.927 466.434 425.755 464.954 430.318C463.451 434.874 462.221 439.192 461.472 443.214C459.852 451.25 460.314 458.032 461.521 462.442C462.131 464.649 462.811 466.299 463.342 467.377C463.61 467.888 463.82 468.29 463.977 468.589C464.124 468.86 464.203 468.996 464.212 468.99Z" fill="#263238"/>
<path d="M472.093 338.899C472.093 338.899 476.984 323.259 468.21 314.102C467.902 313.78 467.36 313.932 467.281 314.37C466.813 316.954 466.228 324.821 472.093 338.899Z" fill="#FE9F43"/>
<path d="M469.163 319.313C469.079 319.33 469.219 320.43 469.492 322.199C469.814 324.186 470.191 326.519 470.608 329.097C471.017 331.675 471.388 334.008 471.703 335.994C471.97 337.761 472.132 338.856 472.22 338.849C472.299 338.842 472.292 337.729 472.133 335.942C471.97 334.155 471.656 331.696 471.213 328.998C470.772 326.3 470.301 323.87 469.918 322.12C469.537 320.368 469.246 319.296 469.163 319.313Z" fill="#263238"/>
<path d="M466.348 375.784C466.348 375.784 463.356 359.673 451.319 355.682C450.896 355.541 450.488 355.929 450.623 356.354C451.417 358.855 454.579 366.082 466.348 375.784Z" fill="#FE9F43"/>
<path d="M454.598 359.842C454.533 359.896 455.171 360.802 456.238 362.239C457.453 363.845 458.876 365.731 460.45 367.815C462.017 369.902 463.436 371.79 464.644 373.4C465.706 374.835 466.361 375.729 466.437 375.681C466.504 375.639 465.976 374.658 465 373.152C464.022 371.648 462.593 369.622 460.939 367.445C459.288 365.266 457.735 363.338 456.578 361.97C455.423 360.601 454.664 359.79 454.598 359.842Z" fill="#263238"/>
<path d="M469.601 416.204C469.601 416.204 471.418 399.918 461.059 392.603C460.696 392.346 460.192 392.599 460.198 393.044C460.23 395.669 461.156 403.502 469.601 416.204Z" fill="#FE9F43"/>
<path d="M462.987 397.536C462.909 397.568 463.256 398.622 463.861 400.305C464.556 402.195 465.372 404.413 466.273 406.864C467.167 409.316 467.975 411.535 468.663 413.426C469.263 415.109 469.63 416.154 469.716 416.129C469.793 416.108 469.573 415.018 469.075 413.293C468.576 411.57 467.797 409.216 466.847 406.652C465.9 404.088 464.973 401.792 464.264 400.147C463.556 398.5 463.066 397.504 462.987 397.536Z" fill="#263238"/>
<path d="M460.533 456.86C460.533 456.86 461.766 440.519 451.152 433.58C450.779 433.336 450.285 433.607 450.306 434.052C450.433 436.673 451.639 444.469 460.533 456.86Z" fill="#FE9F43"/>
<path d="M453.256 438.442C453.179 438.477 453.564 439.517 454.229 441.178C454.991 443.042 455.886 445.23 456.873 447.647C457.853 450.066 458.742 452.255 459.498 454.119C460.157 455.78 460.561 456.81 460.646 456.783C460.722 456.76 460.463 455.677 459.904 453.971C459.344 452.267 458.482 449.942 457.44 447.414C456.401 444.885 455.393 442.625 454.626 441.006C453.859 439.387 453.333 438.408 453.256 438.442Z" fill="#263238"/>
<path d="M479.122 325.157C479.122 325.157 493.647 317.571 493.932 304.892C493.941 304.448 493.451 304.172 493.085 304.424C490.927 305.917 484.944 311.059 479.122 325.157Z" fill="#FE9F43"/>
<path d="M490.916 309.248C490.845 309.2 490.165 310.076 489.106 311.519C487.926 313.151 486.542 315.066 485.011 317.181C483.476 319.293 482.085 321.202 480.902 322.829C479.84 324.266 479.179 325.154 479.247 325.212C479.307 325.263 480.089 324.472 481.242 323.096C482.393 321.72 483.911 319.761 485.508 317.54C487.106 315.321 488.494 313.272 489.462 311.765C490.432 310.258 490.987 309.295 490.916 309.248Z" fill="#263238"/>
<path d="M463.524 358.745C463.524 358.745 478.484 352.055 479.538 339.418C479.575 338.974 479.101 338.669 478.721 338.899C476.475 340.258 470.192 345.028 463.524 358.745Z" fill="#FE9F43"/>
<path d="M476.263 343.58C476.196 343.529 475.464 344.362 474.318 345.738C473.042 347.295 471.543 349.122 469.887 351.142C468.226 353.155 466.723 354.977 465.443 356.529C464.296 357.899 463.581 358.744 463.647 358.806C463.704 358.862 464.532 358.119 465.767 356.817C466.999 355.513 468.633 353.648 470.363 351.53C472.092 349.412 473.602 347.451 474.661 346.005C475.719 344.56 476.329 343.632 476.263 343.58Z" fill="#263238"/>
<path d="M472.131 396.211C472.131 396.211 482.403 383.443 477.585 371.711C477.415 371.299 476.855 371.243 476.621 371.621C475.242 373.854 471.819 380.962 472.131 396.211Z" fill="#FE9F43"/>
<path d="M476.567 376.91C476.484 376.896 476.212 377.971 475.819 379.716C475.392 381.684 474.889 383.993 474.335 386.545C473.773 389.094 473.265 391.401 472.832 393.365C472.435 395.108 472.183 396.186 472.27 396.211C472.346 396.234 472.745 395.195 473.251 393.473C473.754 391.751 474.36 389.346 474.933 386.674C475.51 384.001 475.96 381.567 476.243 379.797C476.528 378.029 476.649 376.925 476.567 376.91Z" fill="#263238"/>
<path d="M461.957 440.3C461.957 440.3 476.802 433.36 477.644 420.706C477.673 420.262 477.195 419.964 476.818 420.201C474.597 421.597 468.394 426.472 461.957 440.3Z" fill="#FE9F43"/>
<path d="M474.44 424.924C474.371 424.873 473.653 425.72 472.532 427.113C471.282 428.691 469.814 430.544 468.192 432.59C466.565 434.63 465.094 436.478 463.839 438.052C462.716 439.441 462.016 440.298 462.081 440.36C462.139 440.415 462.955 439.658 464.168 438.334C465.378 437.009 466.98 435.118 468.674 432.97C470.369 430.824 471.845 428.838 472.879 427.375C473.913 425.912 474.508 424.974 474.44 424.924Z" fill="#263238"/>
<path d="M432.389 375.875C432.376 375.876 432.369 375.998 432.37 376.235C432.378 376.521 432.386 376.865 432.397 377.283C432.44 378.268 432.499 379.598 432.573 381.257C432.764 384.75 433.031 389.62 433.35 395.447L433.352 395.46L433.355 395.48C434.414 401.41 437.435 407.982 441.491 414.363C444.466 419.064 447.586 423.337 450.276 427.311C452.983 431.274 455.268 434.945 456.862 438.198C458.465 441.446 459.398 444.237 459.943 446.187C460.204 447.167 460.4 447.93 460.513 448.452C460.635 448.973 460.709 449.245 460.73 449.241C460.751 449.238 460.718 448.958 460.634 448.428C460.561 447.896 460.401 447.121 460.175 446.127C459.697 444.148 458.82 441.309 457.253 438.009C455.696 434.704 453.432 430.984 450.745 426.995C448.073 422.992 444.971 418.712 442.01 414.035C437.974 407.686 434.97 401.213 433.871 395.379L433.875 395.413C433.466 389.593 433.125 384.726 432.879 381.237C432.745 379.581 432.638 378.255 432.559 377.273C432.517 376.856 432.483 376.514 432.455 376.23C432.425 375.995 432.403 375.874 432.389 375.875Z" fill="#263238"/>
<path d="M441.228 413.143C441.228 413.143 434.941 398.01 442.849 388.096C443.126 387.748 443.681 387.85 443.8 388.279C444.499 390.809 445.796 398.591 441.228 413.143Z" fill="#FE9F43"/>
<path d="M442.372 393.371C442.288 393.363 442.096 394.456 441.874 396.234C441.651 398.012 441.403 400.474 441.208 403.202C441.011 405.93 440.92 408.406 440.92 410.201C440.924 411.996 441.016 413.105 441.096 413.104C441.186 413.103 441.247 411.997 441.353 410.214C441.487 408.206 441.645 405.849 441.819 403.245C442 400.641 442.166 398.283 442.306 396.274C442.418 394.488 442.457 393.38 442.372 393.371Z" fill="#263238"/>
<g opacity="0.3">
<path d="M441.228 413.143C441.228 413.143 434.941 398.01 442.849 388.096C443.126 387.748 443.681 387.85 443.8 388.279C444.499 390.809 445.796 398.591 441.228 413.143Z" fill="black"/>
</g>
<path d="M460.701 449.611C460.701 449.611 455.662 434.018 464.348 424.777C464.652 424.453 465.196 424.6 465.279 425.037C465.773 427.615 466.433 435.476 460.701 449.611Z" fill="#FE9F43"/>
<path d="M463.445 429.996C463.362 429.98 463.081 431.056 462.716 432.809C462.35 434.563 461.902 436.998 461.487 439.7C461.069 442.403 460.777 444.865 460.633 446.653C460.491 448.442 460.494 449.555 460.573 449.561C460.662 449.567 460.812 448.47 461.064 446.701C461.36 444.711 461.709 442.374 462.094 439.793C462.486 437.212 462.841 434.875 463.144 432.884C463.399 431.112 463.528 430.011 463.445 429.996Z" fill="#263238"/>
<g opacity="0.3">
<path d="M460.701 449.611C460.701 449.611 455.662 434.018 464.348 424.777C464.652 424.453 465.196 424.6 465.279 425.037C465.773 427.615 466.433 435.476 460.701 449.611Z" fill="black"/>
</g>
<path d="M433.222 394.649C433.222 394.649 419.797 385.252 421.153 372.643C421.2 372.2 421.722 371.989 422.053 372.287C424.001 374.047 429.269 379.918 433.222 394.649Z" fill="#FE9F43"/>
<g opacity="0.3">
<path d="M433.222 394.649C433.222 394.649 419.797 385.252 421.153 372.643C421.2 372.2 421.722 371.989 422.053 372.287C424.001 374.047 429.269 379.918 433.222 394.649Z" fill="black"/>
</g>
<path d="M423.581 377.353C423.505 377.391 423.93 378.417 424.696 380.036C425.462 381.656 426.573 383.867 427.872 386.274C429.168 388.682 430.42 390.821 431.384 392.334C432.35 393.847 433.024 394.733 433.089 394.69C433.164 394.64 432.622 393.676 431.756 392.113C430.792 390.346 429.66 388.273 428.41 385.982C427.166 383.686 426.04 381.608 425.081 379.838C424.218 378.272 423.657 377.315 423.581 377.353Z" fill="#263238"/>
<path d="M455.288 434.152C455.288 434.152 439.096 431.627 434.759 419.71C434.607 419.291 434.982 418.872 435.41 418.994C437.936 419.716 445.252 422.667 455.288 434.152Z" fill="#FE9F43"/>
<g opacity="0.3">
<path d="M455.288 434.152C455.288 434.152 439.096 431.627 434.759 419.71C434.607 419.291 434.982 418.872 435.41 418.994C437.936 419.716 445.252 422.667 455.288 434.152Z" fill="black"/>
</g>
<path d="M439.014 422.868C438.962 422.936 439.796 423.669 441.198 424.787C442.599 425.904 444.571 427.399 446.797 428.988C449.022 430.578 451.088 431.947 452.619 432.882C454.153 433.815 455.148 434.314 455.188 434.245C455.234 434.168 454.322 433.54 452.856 432.519C451.213 431.357 449.284 429.994 447.153 428.488C445.025 426.975 443.098 425.606 441.458 424.439C439.99 423.413 439.065 422.801 439.014 422.868Z" fill="#263238"/>
<path d="M474.445 463.949L469.802 494.411L451.255 494.379L445.007 463.949H474.445Z" fill="#455A64"/>
<path d="M457.518 473.727C457.993 473.006 458.324 472.134 458.377 471.178C458.446 470.245 458.08 469.112 457.118 468.559C456.159 468.005 454.923 468.206 454.011 468.815C453.057 469.434 452.5 470.517 452.234 471.612C451.967 472.725 451.938 473.883 452.003 475.052C452.079 476.223 452.295 477.424 452.756 478.571C453.205 479.717 453.928 480.802 454.906 481.638C455.879 482.469 457.127 483.066 458.475 483.128C459.823 483.188 461.111 482.722 462.187 482.05C463.269 481.37 464.189 480.509 464.957 479.547C465.717 478.583 466.289 477.431 466.36 476.2C466.419 474.991 465.993 473.733 465.043 472.974C464.081 472.192 462.717 472.249 461.757 472.774C460.768 473.272 460.034 474.219 459.861 475.257C459.504 477.347 460.724 479.232 462.206 480.079C463.724 480.945 465.374 480.971 466.683 480.726C468.013 480.468 469.062 479.944 469.874 479.477C470.685 479.002 471.269 478.566 471.66 478.267C472.049 477.966 472.243 477.793 472.233 477.78C472.221 477.765 472.007 477.91 471.6 478.184C471.191 478.455 470.591 478.862 469.777 479.304C468.963 479.739 467.92 480.223 466.634 480.446C465.365 480.658 463.789 480.598 462.389 479.769C461.027 478.975 459.931 477.191 460.275 475.338C460.434 474.428 461.081 473.612 461.96 473.172C462.822 472.716 463.963 472.691 464.752 473.342C465.546 473.977 465.935 475.095 465.875 476.175C465.808 477.266 465.288 478.331 464.565 479.24C463.835 480.152 462.942 480.983 461.921 481.621C460.902 482.255 459.714 482.676 458.499 482.621C457.287 482.565 456.141 482.027 455.235 481.254C454.324 480.476 453.647 479.472 453.218 478.386C452.779 477.303 452.566 476.153 452.489 475.022C452.419 473.891 452.447 472.761 452.69 471.723C452.934 470.694 453.439 469.724 454.26 469.187C455.062 468.641 456.132 468.479 456.909 468.925C457.701 469.371 458.034 470.304 457.986 471.162C457.949 472.029 457.65 472.855 457.217 473.528C456.306 474.872 454.98 475.699 453.76 476.119C452.528 476.552 451.376 476.606 450.464 476.512C448.618 476.303 447.75 475.624 447.724 475.699C447.72 475.706 447.771 475.744 447.879 475.811C447.987 475.875 448.143 475.983 448.367 476.091C448.811 476.308 449.501 476.58 450.44 476.709C451.374 476.837 452.564 476.813 453.85 476.389C455.127 475.975 456.523 475.149 457.518 473.727Z" fill="#263238"/>
</svg>
