<svg width="96" height="30" viewBox="0 0 96 30" fill="none" xmlns="http://www.w3.org/2000/svg">
<path d="M28.1379 20.4806C28.1379 19.4766 28.4878 18.6196 29.1876 17.9096C29.8874 17.1895 30.7393 16.8295 31.7434 16.8295H32.9148C33.5842 16.8295 34.1522 16.5962 34.6187 16.1296C35.0954 15.653 35.3337 15.0799 35.3337 14.4105H31.7434C30.0598 14.4105 28.6095 15.0039 27.3924 16.1905C26.1855 17.367 25.582 18.797 25.582 20.4806V26.5812C26.2818 26.5812 26.8802 26.3327 27.3772 25.8357C27.8843 25.3286 28.1379 24.7252 28.1379 24.0253V20.4806Z" fill="white"/>
<path d="M39.7303 26.5812C38.0467 26.5812 36.6014 25.9929 35.3945 24.8164C34.1876 23.6298 33.5841 22.1947 33.5841 20.5111C33.5841 18.8275 34.1876 17.3924 35.3945 16.2057C36.6014 15.0089 38.0467 14.4105 39.7303 14.4105H43.3358C43.3358 15.0799 43.0975 15.653 42.6208 16.1296C42.1441 16.5962 41.5711 16.8295 40.9017 16.8295H39.7303C38.7363 16.8295 37.8894 17.1946 37.1896 17.9248C36.4898 18.6551 36.1399 19.5171 36.1399 20.5111C36.1399 21.505 36.4898 22.362 37.1896 23.0821C37.8894 23.8022 38.7363 24.1623 39.7303 24.1623H40.9017C41.5711 24.1623 42.1441 24.4006 42.6208 24.8773C43.0975 25.3438 43.3358 25.9118 43.3358 26.5812H39.7303ZM38.8783 19.294H43.3358C43.3358 19.9634 43.0975 20.5314 42.6208 20.9979C42.1441 21.4644 41.5711 21.6977 40.9017 21.6977H38.8783C38.5436 21.6977 38.2596 21.5861 38.0264 21.363C37.7931 21.1297 37.6765 20.8458 37.6765 20.5111C37.6765 20.1662 37.788 19.8772 38.0112 19.6439C38.2444 19.4106 38.5335 19.294 38.8783 19.294Z" fill="white"/>
<path d="M56.4703 20.5111V26.5812H50.2937C48.6101 26.5812 47.1598 25.9929 45.9427 24.8164C44.7358 23.6298 44.1324 22.1947 44.1324 20.5111C44.1324 18.8275 44.7358 17.3924 45.9427 16.2057C47.1598 15.0089 48.6101 14.4105 50.2937 14.4105C51.9773 14.4105 53.4277 15.0089 54.6447 16.2057C55.8618 17.3924 56.4703 18.8275 56.4703 20.5111ZM53.8841 24.1623V20.5111C53.8841 19.507 53.5342 18.6449 52.8344 17.9248C52.1447 17.1946 51.2978 16.8295 50.2937 16.8295C49.2897 16.8295 48.4377 17.1946 47.7379 17.9248C47.0482 18.6449 46.7034 19.507 46.7034 20.5111C46.7034 21.5152 47.0482 22.3772 47.7379 23.0973C48.4377 23.8073 49.2897 24.1623 50.2937 24.1623H53.8841Z" fill="white"/>
<path d="M69.9595 20.5111V26.5812C69.2597 26.5812 68.6562 26.3327 68.1491 25.8357C67.6522 25.3286 67.4037 24.7252 67.4037 24.0253V20.5111C67.4037 19.507 67.0538 18.6449 66.354 17.9248C65.6643 17.1946 64.8174 16.8295 63.8133 16.8295C62.8093 16.8295 61.9573 17.1946 61.2575 17.9248C60.5577 18.6449 60.2078 19.507 60.2078 20.5111V24.0253C60.2078 24.7353 59.9593 25.3388 59.4623 25.8357C58.9654 26.3327 58.3619 26.5812 57.652 26.5812V20.5111C57.652 18.8275 58.2554 17.3924 59.4623 16.2057C60.6794 15.0089 62.1297 14.4105 63.8133 14.4105C64.7667 14.4105 65.6694 14.6235 66.5213 15.0495C67.3732 15.4653 68.0984 16.0485 68.6968 16.799C69.2749 16.0587 69.995 15.4755 70.8571 15.0495C71.7192 14.6235 72.6218 14.4105 73.565 14.4105C75.2486 14.4105 76.6939 15.0089 77.9008 16.2057C79.1077 17.3924 79.7112 18.8275 79.7112 20.5111V26.5812C79.0114 26.5812 78.4079 26.3327 77.9008 25.8357C77.4039 25.3286 77.1554 24.7252 77.1554 24.0253V20.5111C77.1554 19.507 76.8055 18.6449 76.1057 17.9248C75.416 17.1946 74.5691 16.8295 73.565 16.8295C72.561 16.8295 71.709 17.1946 71.0092 17.9248C70.3094 18.6449 69.9595 19.507 69.9595 20.5111Z" fill="white"/>
<path d="M86.699 19.1723C86.699 17.8538 87.1706 16.7331 88.1138 15.8102C89.0672 14.8771 90.2082 14.4105 91.5368 14.4105H95.0359C95.0359 15.0901 94.7975 15.6631 94.3208 16.1296C93.8441 16.5962 93.266 16.8295 92.5865 16.8295H92.0541C91.2731 16.8295 90.6037 17.1134 90.0459 17.6814C89.4982 18.2392 89.2244 18.9137 89.2244 19.7048V21.8194C89.2244 23.1379 88.7528 24.2637 87.8096 25.1968C86.8663 26.1197 85.7304 26.5812 84.4018 26.5812H80.9027C80.9027 25.9118 81.136 25.3438 81.6025 24.8773C82.0792 24.4006 82.6522 24.1623 83.3216 24.1623H83.8693C84.6604 24.1623 85.3298 23.8833 85.8775 23.3255C86.4251 22.7576 86.699 22.078 86.699 21.2869V19.1723Z" fill="white"/>
<path d="M80.0208 5.26074C80.6547 5.26074 81.1935 5.49527 81.6372 5.96435C82.0619 6.42709 82.2743 6.97857 82.2743 7.61879C82.2743 8.25268 82.0619 8.80099 81.6372 9.26373C81.1935 9.7328 80.6547 9.96734 80.0208 9.96734H78.1762V11.2319H76.6834V5.26074H80.0208ZM80.0208 8.47454C80.2363 8.47454 80.417 8.3858 80.5628 8.20831C80.7086 8.03082 80.7815 7.83431 80.7815 7.61879C80.7815 7.39693 80.7086 7.19726 80.5628 7.01977C80.417 6.84228 80.2363 6.75354 80.0208 6.75354H78.1762V8.47454H80.0208Z" fill="#FE9F43"/>
<path d="M85.8465 5.08008C86.7086 5.08008 87.4376 5.39385 88.0334 6.0214C88.6356 6.64261 88.9367 7.38742 88.9367 8.25585C88.9367 9.11793 88.6356 9.86275 88.0334 10.4903C87.4376 11.1178 86.7086 11.4316 85.8465 11.4316C84.9844 11.4316 84.2523 11.1178 83.6501 10.4903C83.0479 9.86275 82.7468 9.11793 82.7468 8.25585C82.7468 7.38742 83.0479 6.64261 83.6501 6.0214C84.2523 5.39385 84.9844 5.08008 85.8465 5.08008ZM85.8465 9.92931C86.2902 9.92931 86.6674 9.7645 86.978 9.43488C87.2886 9.09892 87.4439 8.70591 87.4439 8.25585C87.4439 7.79945 87.2886 7.40644 86.978 7.07682C86.6674 6.74086 86.2902 6.57288 85.8465 6.57288C85.3965 6.57288 85.0161 6.74086 84.7055 7.07682C84.3949 7.40644 84.2396 7.79945 84.2396 8.25585C84.2396 8.70591 84.3949 9.09892 84.7055 9.43488C85.0161 9.7645 85.3965 9.92931 85.8465 9.92931Z" fill="#FE9F43"/>
<path d="M90.9256 7.01977C90.9256 7.31136 91.0238 7.45715 91.2203 7.45715H93.3312C93.8319 7.45715 94.2566 7.63464 94.6053 7.98962C94.9603 8.34459 95.1377 8.77247 95.1377 9.27324V9.40635C95.1377 9.90712 94.9603 10.335 94.6053 10.69C94.2566 11.0449 93.8319 11.2224 93.3312 11.2224H89.8701V9.71062H93.3312C93.4136 9.71062 93.4833 9.68209 93.5404 9.62504C93.6037 9.56166 93.6354 9.48876 93.6354 9.40635C93.6354 9.11477 93.534 8.96897 93.3312 8.96897H91.2203C90.7259 8.96897 90.3012 8.79148 89.9462 8.43651C89.5912 8.08153 89.4138 7.65366 89.4138 7.15289V7.01977C89.4138 6.519 89.5912 6.09113 89.9462 5.73615C90.3012 5.38117 90.7259 5.20369 91.2203 5.20369H94.6909V6.71551H91.2203C91.1443 6.71551 91.0745 6.7472 91.0111 6.81059C90.9541 6.86764 90.9256 6.93737 90.9256 7.01977Z" fill="#FE9F43"/>
<path d="M1.74985 12.2148C2.13034 8.65171 5.13677 5.94922 8.7201 5.94922H16.825C20.4001 5.94922 23.4016 8.6414 23.7889 12.1955L24.1044 15.0907C24.8392 21.8344 19.5572 27.7232 12.7736 27.7232C5.99978 27.7232 0.720871 21.8506 1.44013 15.1151L1.74985 12.2148Z" fill="#FE9F43"/>
<path d="M0.924285 20.326C1.34961 16.3118 4.73557 13.2656 8.77224 13.2656H16.8322C20.8782 13.2656 24.2688 16.3254 24.6827 20.3502C25.1612 25.0035 21.5101 29.0494 16.8322 29.0494H8.77223C4.08466 29.0494 0.43038 24.9875 0.924285 20.326Z" fill="white"/>
<path d="M18.1113 7.46484L18.1113 6.41893C18.1113 3.4257 15.6848 0.999203 12.6916 0.999203C9.69837 0.999203 7.27188 3.4257 7.27188 6.41893L7.27188 7.46484" stroke="white" stroke-linecap="round"/>
<path d="M10.2246 21.1986V27.6481H16.7711C18.5707 27.6481 20.1117 27.0231 21.394 25.773C22.6871 24.5122 23.3337 22.9874 23.3337 21.1986C23.3337 19.4098 22.6871 17.885 21.394 16.6242C20.1009 15.3526 18.5599 14.7168 16.7711 14.7168C14.9822 14.7168 13.4413 15.3526 12.1481 16.6242C10.8658 17.885 10.2246 19.4098 10.2246 21.1986ZM12.9563 25.078V21.1986C12.9563 20.1318 13.3227 19.2158 14.0555 18.4507C14.7991 17.6748 15.7042 17.2869 16.7711 17.2869C17.8379 17.2869 18.7377 17.6748 19.4705 18.4507C20.214 19.2158 20.5858 20.1318 20.5858 21.1986C20.5858 22.2654 20.214 23.1814 19.4705 23.9465C18.7377 24.7008 17.8379 25.078 16.7711 25.078H12.9563Z" fill="#092C4C"/>
<path d="M18.8633 7.94336L17.4484 7.94336" stroke="white" stroke-linecap="round"/>
<path d="M8.02344 7.94336L6.60855 7.94336" stroke="white" stroke-linecap="round"/>
</svg>
