<svg width="41" height="40" viewBox="0 0 41 40" fill="none" xmlns="http://www.w3.org/2000/svg">
<path d="M7.24927 5.90245C6.20327 6.11306 5.35384 6.58341 4.55355 7.37668C3.72517 8.20505 3.28291 9.04045 3.0723 10.1566C2.98104 10.613 2.967 11.2448 2.98806 13.5754C3.01614 16.3343 3.02316 16.4467 3.1776 16.924C3.44437 17.7384 3.86558 18.4685 4.39208 19.0301C5.17132 19.8655 5.99969 20.3569 7.08079 20.6166C7.6073 20.743 7.94426 20.75 12.4161 20.75C17.0564 20.75 17.1968 20.743 17.4214 20.6096C17.5478 20.5324 17.7092 20.3709 17.7865 20.2446C17.9198 20.0199 17.9269 19.8795 17.9269 15.2392C17.9269 10.7674 17.9198 10.4304 17.7935 9.90392C17.5337 8.82282 17.0423 7.99445 16.2069 7.21522C15.6453 6.68871 14.9152 6.2675 14.1009 6.00074C13.6235 5.83927 13.5253 5.83927 10.661 5.82523C8.40057 5.81119 7.60028 5.82523 7.24927 5.90245ZM13.1672 8.05061C14.3677 8.30333 15.3364 9.21595 15.6453 10.3953C15.7366 10.7463 15.7506 11.4343 15.7506 14.6916V18.5738H11.8685C8.61117 18.5738 7.9232 18.5597 7.5722 18.4685C6.37176 18.1526 5.4451 17.1627 5.22748 15.9482C5.1292 15.4007 5.12218 11.1535 5.22748 10.613C5.34682 9.9671 5.6206 9.46165 6.13307 8.94918C6.62448 8.45778 7.05973 8.21207 7.6775 8.07167C8.18997 7.95935 12.6407 7.93829 13.1672 8.05061Z" fill="#212B36"/>
<path d="M24.4138 5.87437C23.8803 5.96564 23.094 6.2675 22.5394 6.59745C21.8304 7.01865 20.9739 7.93829 20.6089 8.68242C20.0192 9.86882 20.0332 9.74246 20.0332 15.1971C20.0332 19.8795 20.0403 20.0199 20.1736 20.2446C20.2509 20.3709 20.4123 20.5324 20.5387 20.6096C20.7633 20.743 20.9037 20.75 25.544 20.75C30.0158 20.75 30.3528 20.743 30.8793 20.6166C31.9604 20.3569 32.7888 19.8655 33.568 19.0301C34.0945 18.4685 34.5157 17.7384 34.7825 16.924C34.9369 16.4467 34.944 16.3343 34.972 13.5754C34.9931 11.2448 34.9791 10.613 34.8878 10.1566C34.6772 9.04045 34.2349 8.20505 33.4066 7.37668C32.8169 6.78699 32.3255 6.45704 31.6164 6.16922C30.781 5.83225 30.3458 5.79715 27.4535 5.80417C25.9793 5.81119 24.6103 5.83927 24.4138 5.87437ZM30.1843 8.05061C31.2724 8.25419 32.171 9.01939 32.6063 10.1145C32.7677 10.5217 32.7747 10.5989 32.7958 12.9858C32.8098 14.6144 32.7958 15.5972 32.7396 15.8991C32.522 17.1487 31.6094 18.1455 30.3879 18.4685C30.0369 18.5597 29.3489 18.5738 26.0916 18.5738H22.2095V14.6916C22.2095 11.4343 22.2235 10.7463 22.3148 10.3953C22.6166 9.25105 23.5292 8.35247 24.6876 8.07167C25.1649 7.95935 29.5876 7.93829 30.1843 8.05061Z" fill="#FE9F43"/>
<path d="M7.04569 22.9977C6.35772 23.1662 5.93651 23.3557 5.35384 23.7418C4.37102 24.3947 3.57775 25.4618 3.1776 26.6833C3.02316 27.1606 3.01614 27.273 2.98806 30.0319C2.967 32.3625 2.98104 32.9944 3.0723 33.4507C3.28291 34.5669 3.72517 35.4023 4.55355 36.2306C5.38192 37.059 6.21731 37.5013 7.33351 37.7119C7.78982 37.8031 8.42163 37.8172 10.7523 37.7961C13.5112 37.768 13.6235 37.761 14.1009 37.6066C14.9152 37.3398 15.6453 36.9186 16.2069 36.3921C17.0423 35.6129 17.5337 34.7845 17.7935 33.7034C17.9198 33.1769 17.9269 32.8399 17.9269 28.3681C17.9269 23.7278 17.9198 23.5874 17.7865 23.3628C17.7092 23.2364 17.5478 23.0749 17.4214 22.9977C17.1968 22.8643 17.0634 22.8573 12.381 22.8643C7.94426 22.8643 7.53008 22.8784 7.04569 22.9977ZM15.7506 28.9157C15.7506 32.173 15.7366 32.861 15.6453 33.212C15.3224 34.4335 14.3255 35.3461 13.076 35.5637C12.7741 35.6199 11.7913 35.6339 10.1626 35.6199C7.7828 35.5988 7.69856 35.5918 7.29139 35.4303C6.36474 35.0653 5.72591 34.4265 5.35384 33.4928C5.19238 33.0856 5.18536 33.0084 5.1643 30.5794C5.15026 28.8806 5.1643 27.9539 5.22046 27.6661C5.45914 26.4516 6.36474 25.4618 7.54412 25.1459C7.853 25.0616 8.64627 25.0406 11.8404 25.0406L15.7506 25.0335V28.9157Z" fill="#FE9F43"/>
<path d="M20.5387 22.9977C20.4123 23.0749 20.2508 23.2364 20.1736 23.3628C20.0402 23.5874 20.0332 23.7278 20.0332 28.3681C20.0332 32.8399 20.0402 33.1769 20.1666 33.7034C20.4263 34.7845 20.9177 35.6129 21.7531 36.3921C22.3147 36.9186 23.0448 37.3398 23.8592 37.6066C24.3365 37.761 24.4489 37.768 27.2078 37.7961C29.5384 37.8172 30.1703 37.8031 30.6266 37.7119C31.7428 37.5013 32.5782 37.059 33.4065 36.2306C34.2349 35.4023 34.6772 34.5669 34.8878 33.4507C34.979 32.9944 34.9931 32.3555 34.972 30.0319L34.951 27.1747L34.7263 26.5359C34.4034 25.6022 34.0032 24.9774 33.2942 24.3035C32.5992 23.6436 31.8481 23.2224 30.9565 22.9977C30.43 22.8643 30.1562 22.8573 25.5861 22.8573C20.9037 22.8573 20.7633 22.8643 20.5387 22.9977ZM30.3879 25.1388C31.5953 25.4548 32.522 26.4657 32.7396 27.7082C32.7958 28.0101 32.8098 28.9929 32.7958 30.6216C32.7747 33.0014 32.7677 33.0856 32.6062 33.4928C32.2412 34.4194 31.5532 35.1074 30.6476 35.4444C30.2756 35.5848 30.093 35.5918 27.7553 35.6199C26.0494 35.6339 25.1298 35.6199 24.842 35.5637C23.6135 35.325 22.6306 34.4124 22.3147 33.212C22.2235 32.861 22.2094 32.173 22.2094 28.9157V25.0335H26.0916C29.3489 25.0335 30.0369 25.0476 30.3879 25.1388Z" fill="#212B36"/>
</svg>
