<svg width="16" height="16" viewBox="0 0 16 16" fill="none" xmlns="http://www.w3.org/2000/svg">
<path fill-rule="evenodd" clip-rule="evenodd" d="M11 11.7504C11 11.4738 11.2236 11.2501 11.5 11.2501C11.7764 11.2501 12 11.4738 12 11.7504C12 12.026 11.7764 12.2504 11.5 12.2504C11.2236 12.2504 11 12.026 11 11.7504ZM11.6492 15.3961C10.9192 15.6752 9.74928 16 8.25025 16C5.90284 16 4.00025 14.0975 4.00025 11.7504C4.00025 11.6937 4.00244 11.641 4.00466 11.5883C4.00369 11.5592 4.00025 11.5299 4.00025 11.5001V7.94544C4.00025 7.74756 3.88184 7.58106 3.71438 7.50037H3.25C2.55931 7.50037 2 6.94031 2 6.25025V4.75C2 4.13844 2.43897 3.63109 3.02025 3.52281C4.11913 3.29075 4.95141 2.33666 4.99803 1.18003C4.99803 1.17784 5.00144 1.17953 5.00634 1.18394C5.04175 0.524156 5.58228 0 6.25 0H7.75C8.44019 0 9.00025 0.559438 9.00025 1.25013V3.00038C9.00025 3.27625 9.22388 3.49988 9.49975 3.49988H10.75C11.4404 3.49988 12 4.05994 12 4.75V6.25025C12 6.94031 11.4404 7.50037 10.75 7.50037H9.49975C9.22388 7.50037 9.00025 7.724 9.00025 7.99988V10.7501C9.00025 11.1644 9.33594 11.5001 9.74975 11.5001C10.0261 11.5001 10.2498 11.724 10.2498 12.0004C10.2498 12.276 10.0261 12.4999 9.74975 12.4999C8.50416 12.4999 7.99853 11.5626 7.99853 10.7401V7.77612C7.99853 7.76659 8 7.7605 8 7.75037C8 7.05972 8.55956 6.50028 9.25025 6.50028C9.26759 6.50028 9.28003 6.49747 9.29566 6.49638L10.511 6.49919C10.7817 6.49247 11 6.27262 11 6.00016V5.00016C11 4.72428 10.7761 4.50003 10.4998 4.50003H9.25025C8.55956 4.5 8 3.94056 8 3.25038V1.50025C8 1.22375 7.77637 1.00013 7.5 1.00013H6.4685C6.22459 1.00013 6.02125 1.17506 5.97753 1.40663C5.97753 1.40772 5.97509 1.40663 5.97412 1.40663C5.76953 3.41859 4.08544 4.17041 3.34766 4.40578C3.34716 4.40578 3.34716 4.407 3.34644 4.407C3.14525 4.47194 3 4.66028 3 4.88294V6.00012C3 6.27662 3.22362 6.50025 3.5 6.50025H4.00025C4.46094 6.50025 4.99975 7.05969 4.99975 7.75034V11.2501C4.99975 13.2308 6.02562 15.0001 8.25025 15.0001C9.86231 15.0001 10.8413 14.6071 11.26 14.3903C11.4023 14.3024 11.5 14.1486 11.5 13.9686C11.5 13.9652 11.5005 13.9635 11.5005 13.9601L11.5017 13.5162C11.5017 13.5106 11.5 13.5055 11.5 13.5001C11.5 13.2242 11.7236 12.9999 12 12.9999C12.2764 12.9999 12.5 13.2242 12.5 13.5001V14.1251C12.5 14.6984 12.1479 15.1908 11.6492 15.3961Z" fill="#35465C"/>
</svg>
