<svg width="16" height="14" viewBox="0 0 16 14" fill="none" xmlns="http://www.w3.org/2000/svg">
<path fill-rule="evenodd" clip-rule="evenodd" d="M13 7.5C13.0015 7.56658 12.9897 7.6328 12.9653 7.69476C12.9408 7.75671 12.9043 7.81316 12.8577 7.86079C12.8111 7.90842 12.7555 7.94627 12.6942 7.97212C12.6328 7.99796 12.5669 8.01129 12.5003 8.0113C12.4337 8.01132 12.3677 7.99803 12.3063 7.97222C12.2449 7.9464 12.1893 7.90858 12.1427 7.86097C12.0962 7.81337 12.0596 7.75693 12.0351 7.69499C12.0106 7.63304 11.9988 7.56684 12.0002 7.50025C12.0031 7.36961 12.0571 7.24529 12.1505 7.15391C12.2439 7.06252 12.3693 7.01134 12.5 7.0113C12.6307 7.01127 12.7562 7.0624 12.8496 7.15373C12.9431 7.24507 12.997 7.36936 13 7.5ZM10 7.5C10.0015 7.56658 9.98969 7.6328 9.96526 7.69476C9.94082 7.75671 9.90425 7.81316 9.8577 7.86079C9.81115 7.90842 9.75555 7.94627 9.69416 7.97212C9.63278 7.99796 9.56685 8.01129 9.50025 8.0113C9.43365 8.01132 9.36772 7.99803 9.30632 7.97222C9.24493 7.9464 9.18931 7.90858 9.14273 7.86097C9.09615 7.81337 9.05956 7.75693 9.03509 7.69499C9.01062 7.63304 8.99878 7.56684 9.00025 7.50025C9.00314 7.36961 9.05706 7.24529 9.15046 7.15391C9.24386 7.06252 9.36933 7.01134 9.5 7.0113C9.63068 7.01127 9.75617 7.0624 9.84962 7.15373C9.94307 7.24507 9.99705 7.36936 10 7.5ZM3.5 3.62475C3.5001 3.45896 3.56606 3.29999 3.68336 3.18283C3.80066 3.06567 3.95971 2.9999 4.1255 3C4.29129 3.0001 4.45026 3.06606 4.56742 3.18336C4.68458 3.30066 4.75035 3.45971 4.75025 3.6255C4.75022 3.70759 4.73402 3.78887 4.70257 3.86471C4.67112 3.94054 4.62505 4.00943 4.56698 4.06746C4.4497 4.18464 4.29067 4.25044 4.12488 4.25037C3.95908 4.25031 3.8001 4.18438 3.68292 4.0671C3.56573 3.94982 3.49993 3.79054 3.5 3.62475ZM7.25025 3.62475C7.24859 3.54164 7.26352 3.45903 7.29418 3.38176C7.32483 3.30449 7.3706 3.23412 7.42879 3.17475C7.48698 3.11539 7.55642 3.06822 7.63306 3.03603C7.7097 3.00383 7.792 2.98725 7.87512 2.98725C7.95825 2.98725 8.04055 3.00383 8.11719 3.03603C8.19383 3.06822 8.26327 3.11539 8.32146 3.17475C8.37965 3.23412 8.42542 3.30449 8.45607 3.38176C8.48673 3.45903 8.50166 3.54164 8.5 3.62475C8.49673 3.78831 8.42946 3.94407 8.31262 4.05859C8.19579 4.17311 8.03872 4.23725 7.87512 4.23725C7.71153 4.23725 7.55446 4.17311 7.43762 4.05859C7.32079 3.94407 7.25352 3.78831 7.25025 3.62475ZM14.6515 11.5675L14.8822 12.4333C14.9322 12.6536 14.8949 12.8848 14.778 13.0782C14.6612 13.2717 14.474 13.4123 14.2557 13.4707C14.1294 13.5042 13.9973 13.509 13.8689 13.4847C13.7405 13.4604 13.6191 13.4077 13.5138 13.3305C13.5133 13.33 13.5138 13.3315 13.5133 13.3305L12.678 12.7343C12.1359 12.9095 11.5697 12.9992 11 13C9.776 13 8.66 12.599 7.79275 11.941C7.71184 11.8992 7.64396 11.8359 7.59653 11.7581C7.54909 11.6804 7.52392 11.5911 7.52375 11.5C7.52375 11.3674 7.57643 11.2402 7.6702 11.1464C7.76396 11.0527 7.89114 11 8.02375 11C8.14075 11 8.24675 11.0415 8.3315 11.109L8.33525 11.105C9.043 11.6597 9.975 12 11 12C11.3766 11.9986 11.7515 11.9495 12.1158 11.854C12.1698 11.8448 12.2353 11.8295 12.3293 11.7998C12.4904 11.7492 12.6611 11.737 12.8278 11.7641C12.9944 11.7913 13.1525 11.857 13.2893 11.956L13.8755 12.375L13.7 11.7183C13.6611 11.564 13.6645 11.4022 13.7098 11.2498C13.7551 11.0973 13.8407 10.9599 13.9575 10.852C13.9668 10.8438 13.9728 10.8345 13.9805 10.826C14.612 10.207 15 9.3945 15 8.5C15 6.5675 13.209 5 11 5C8.791 5 7 6.5675 7 8.5C7 8.6265 7.0085 8.7515 7.02375 8.8745C7.083 9.68175 6.49275 10.3945 5.683 10.477C5.63875 10.481 5.59575 10.481 5.55275 10.482C4.99611 10.4448 4.44616 10.3394 3.91525 10.168L2.98675 10.8305C2.98625 10.8315 2.98675 10.83 2.98625 10.8305C2.88091 10.9077 2.75961 10.9604 2.63127 10.9847C2.50292 11.0089 2.37077 11.0042 2.2445 10.9707C2.02616 10.9124 1.83891 10.7717 1.72205 10.5783C1.60519 10.3849 1.56781 10.1537 1.61775 9.93325L1.856 9.04075C0.7145 8.085 0 6.742 0 5.25025C0 2.35025 2.686 0 6 0C7.9735 0 9.71875 0.83825 10.812 2.12475C10.917 2.217 10.984 2.3495 10.984 2.5C10.984 2.77625 10.7605 3 10.484 3C10.3265 3 10.1882 2.926 10.0962 2.812L10.0938 2.8145C9.18975 1.71825 7.6945 1 6 1C3.23875 1 1 2.903 1 5.25025C1 6.46775 1.60725 7.5615 2.57325 8.3355C2.57875 8.34125 2.5805 8.34675 2.5865 8.3515C2.69393 8.43606 2.77468 8.54981 2.81907 8.67912C2.86346 8.80842 2.8696 8.94779 2.83675 9.0805L2.625 9.875L3.48625 9.25975C3.57377 9.20008 3.67395 9.16157 3.7789 9.14725C3.88386 9.13293 3.9907 9.1432 4.091 9.17725C4.0995 9.18075 4.10675 9.17875 4.11525 9.18125C4.514 9.32 4.93775 9.418 5.38025 9.4655C5.46627 9.46728 5.55172 9.45122 5.63122 9.41833C5.71072 9.38543 5.78254 9.33643 5.84216 9.27439C5.90177 9.21236 5.94789 9.13864 5.97759 9.0579C6.0073 8.97715 6.01995 8.89113 6.01475 8.80525C6.01425 8.7955 6.01725 8.7915 6.019 8.78475C6.0115 8.6895 6 8.59625 6 8.5C6 6.01475 8.23875 4 11 4C13.7612 4 16 6.01475 16 8.5C16 9.6865 15.4852 10.7627 14.6515 11.5675Z" fill="#7BB32E"/>
</svg>
