<svg width="16" height="16" viewBox="0 0 16 16" fill="none" xmlns="http://www.w3.org/2000/svg">
<path fill-rule="evenodd" clip-rule="evenodd" d="M5 8.5C5.00151 8.56658 4.98969 8.6328 4.96526 8.69476C4.94082 8.75671 4.90425 8.81316 4.8577 8.86079C4.81115 8.90842 4.75555 8.94627 4.69416 8.97212C4.63278 8.99796 4.56685 9.01129 4.50025 9.0113C4.43365 9.01132 4.36772 8.99803 4.30632 8.97222C4.24493 8.9464 4.18931 8.90858 4.14273 8.86097C4.09615 8.81337 4.05956 8.75693 4.03509 8.69499C4.01062 8.63304 3.99878 8.56684 4.00025 8.50025C4.00314 8.36961 4.05706 8.24529 4.15046 8.15391C4.24386 8.06252 4.36933 8.01134 4.5 8.0113C4.63068 8.01127 4.75617 8.0624 4.84962 8.15373C4.94307 8.24507 4.99705 8.36936 5 8.5ZM8 16C6.92128 15.9999 5.85384 15.7805 4.8625 15.3553C4.60485 15.2346 4.38689 15.0431 4.23415 14.8031C4.0814 14.5631 4.00018 14.2845 4 14V11.2618C4 10.9271 4.13293 10.6062 4.36956 10.3696C4.60618 10.1329 4.92711 10 5.26175 10C5.56475 10 5.84225 10.108 6.0605 10.2865C6.60139 10.7477 7.28916 11.0008 8 11C9.657 11 11 9.657 11 8C11 6.343 9.657 5 8 5C6.80075 5 5.769 5.7055 5.2885 6.7225L5.28325 6.7195C5.24232 6.8034 5.1787 6.87415 5.0996 6.92373C5.02051 6.97331 4.9291 6.99973 4.83575 7C4.70314 7 4.57596 6.94732 4.4822 6.85355C4.38843 6.75979 4.33575 6.63261 4.33575 6.5C4.33575 6.392 4.371 6.29275 4.42925 6.2115C5.086 4.90175 6.43525 4 8 4C10.209 4 12 5.791 12 8C12 10.209 10.209 12 8 12C7.0195 12 6.1285 11.6395 5.4345 11.0515C5.435 11.0575 5.434 11.06 5.4295 11.0568C5.39033 11.026 5.3433 11.0069 5.29378 11.0016C5.24425 10.9962 5.19424 11.005 5.14944 11.0268C5.10465 11.0485 5.06688 11.0825 5.04045 11.1247C5.01403 11.1669 5.00001 11.2157 5 11.2655V14C5 14.1873 5.106 14.346 5.25825 14.4318C6.12388 14.8061 7.0569 14.9995 8 15C11.8663 15 15 11.866 15 8C15 4.134 11.8663 1 8 1C4.134 1 1 4.134 1 8V15.5C1 15.6326 0.947322 15.7598 0.853553 15.8536C0.759785 15.9473 0.632608 16 0.5 16C0.367392 16 0.240215 15.9473 0.146447 15.8536C0.0526784 15.7598 0 15.6326 0 15.5V8C0 3.58175 3.58175 0 8 0C12.4183 0 16 3.58175 16 8C16 12.4183 12.4183 16 8 16Z" fill="#FF5900"/>
</svg>
