<svg width="16" height="16" viewBox="0 0 16 16" fill="none" xmlns="http://www.w3.org/2000/svg">
<path fill-rule="evenodd" clip-rule="evenodd" d="M14.1548 7.94164C13.8403 8.33989 13.5153 8.75189 13.5075 8.87314C13.5335 8.96789 13.8468 9.25264 14.1505 9.52839L14.185 9.55989C14.9613 10.2651 15.5228 10.8676 15.7918 11.3501C16.0878 11.8321 16.0138 12.2004 15.9005 12.4131C15.6333 12.9106 14.9755 12.9909 14.8465 12.9986C14.8465 12.9986 13.165 13.0011 12.6745 13.0031C12.4478 12.9986 12.0205 12.9406 11.532 12.6121C11.1835 12.3776 10.875 12.0311 10.577 11.6959C10.3923 11.4881 10.1448 11.0061 10.0005 11.0061C9.93003 11.0067 9.86023 10.9923 9.7957 10.9639C9.73117 10.9356 9.67336 10.8939 9.62607 10.8416C9.57878 10.7894 9.54307 10.7277 9.52129 10.6607C9.49951 10.5936 9.49215 10.5228 9.49969 10.4527C9.50722 10.3826 9.52949 10.3149 9.56503 10.254C9.60057 10.1932 9.64858 10.1405 9.7059 10.0995C9.76323 10.0585 9.82857 10.0301 9.89766 10.0161C9.96674 10.0021 10.038 10.0029 10.1068 10.0184C10.583 10.0781 10.908 10.5226 11.3305 10.9971C11.588 11.2861 11.854 11.6401 12.0983 11.8044C12.4443 12.0374 12.689 12.0129 12.7323 12.0074L12.777 12.0139L14.7918 12.0044C14.854 11.9984 14.9305 11.9794 14.9828 11.9594C14.9738 11.9381 14.9595 11.8951 14.9385 11.8611L14.9148 11.8199C14.703 11.4416 14.183 10.8939 13.5055 10.2781L13.471 10.2466C12.1608 9.05564 12.2358 8.77139 13.3635 7.34239C13.5108 7.15564 13.6808 6.94114 13.8708 6.69189C14.6398 5.68764 14.901 5.21264 14.969 5.00414C14.8951 5.00057 14.821 5.00158 14.7473 5.00714L14.6925 5.00289L12.401 5.00089L12.3998 5.00039C12.332 5.17364 11.9908 6.03789 11.5415 6.78514C10.524 8.47789 10.299 8.75864 9.91551 8.75864C9.78151 8.75864 9.58876 8.72114 9.47726 8.65064C8.92076 8.29814 8.98026 7.53189 8.99601 6.95439C8.99151 7.12239 8.99526 6.14764 8.99476 5.60239C8.99476 5.18039 9.02326 4.70914 8.95101 4.62239C8.95101 4.62239 8.93051 4.60489 8.85651 4.58714C8.65301 4.53814 8.52851 4.50464 7.91601 4.50464C7.80801 4.50464 7.60926 4.50289 7.47526 4.50289C7.27051 4.50289 6.88651 4.49489 6.56376 4.53489C6.59701 4.56964 6.62926 4.60714 6.65901 4.64764C6.96001 5.05489 6.97226 5.75614 6.97176 5.94164C7.07101 7.42464 6.88751 8.30839 6.40851 8.56839C6.28751 8.63389 6.13326 8.75564 6.00001 8.75564C5.44426 8.75564 4.90551 8.23314 4.03651 6.76214C3.56501 5.96339 3.21426 5.11414 3.19951 5.07789C3.19131 5.0637 3.18203 5.05016 3.17176 5.03739C3.142 5.02343 3.11093 5.01246 3.07901 5.00464L1.07251 5.00214C1.39226 5.70414 2.87101 8.83739 4.47901 10.4779C5.66701 11.6901 6.96626 11.9426 7.52701 11.9931C7.65449 11.9997 7.7746 12.0549 7.86263 12.1474C7.95066 12.2398 7.99992 12.3625 8.00026 12.4901C8.00026 12.6227 7.94758 12.7499 7.85381 12.8437C7.76004 12.9375 7.63286 12.9901 7.50026 12.9901C7.48151 12.9901 7.46451 12.9864 7.44626 12.9846C6.69926 12.9186 5.16326 12.5909 3.75776 11.1566C1.81676 9.17664 0.150756 5.37014 0.0812559 5.20939C0.0257559 5.06714 -0.106244 4.64389 0.166506 4.32714C0.404006 4.05189 0.810756 4.01189 0.975006 4.00764L3.17201 4.00889L3.21451 3.99989C3.26776 4.00889 3.54601 4.07639 3.77426 4.24114C3.99076 4.39689 4.09926 4.62964 4.12776 4.69689C4.13251 4.71039 4.46876 5.53739 4.90226 6.27139C5.39376 7.10414 5.76601 7.39039 5.92476 7.55589C5.99376 7.22114 6.02051 6.57764 5.98051 5.99039L5.97926 5.97089L5.98001 5.95089C5.98176 5.69764 5.99101 5.33764 5.91626 5.23714C5.87251 5.17839 5.73501 5.12189 5.58801 5.10264C5.34851 5.07039 5.05651 4.89039 5.00976 4.65839C4.90426 4.13239 5.47301 3.88739 5.76801 3.74389C6.23951 3.51414 7.01576 3.49364 7.92676 3.50264C8.58251 3.50989 8.80426 3.55164 9.09176 3.62089C10.0595 3.85314 9.99451 4.54889 9.99451 5.50939C9.99451 6.08589 9.99026 7.18064 9.99651 6.98164C9.99201 7.13564 9.98426 7.27564 10.0073 7.46364C10.1778 7.28839 10.2238 7.04789 10.68 6.28914C11.1285 5.54239 11.4723 4.62764 11.476 4.61864L11.4898 4.58589C11.5233 4.51439 11.6505 4.27139 11.8863 4.13364C12.107 4.00389 12.3548 4.00589 12.4573 4.01389L14.6625 4.00789C14.7352 4.00143 14.8082 3.99817 14.8813 3.99814C15.6328 3.99814 15.8715 4.36189 15.9475 4.56914C16.0875 4.95014 16.002 5.54239 14.6713 7.28064C14.4765 7.53314 14.3045 7.75114 14.1548 7.94164ZM12.6743 13.0029L12.7008 13.0034C12.4755 13.0034 12.5058 13.0034 12.6743 13.0029ZM9.50026 12.0056C9.63286 12.0056 9.76004 12.0583 9.85381 12.1521C9.94758 12.2459 10.0003 12.373 10.0003 12.5056C10.0003 12.6382 9.94758 12.7654 9.85381 12.8592C9.76004 12.953 9.63286 13.0056 9.50026 13.0056C9.36765 13.0056 9.24047 12.953 9.1467 12.8592C9.05294 12.7654 9.00026 12.6382 9.00026 12.5056C9.00026 12.373 9.05294 12.2459 9.1467 12.1521C9.24047 12.0583 9.36765 12.0056 9.50026 12.0056Z" fill="#4C75A3"/>
</svg>
