<svg width="16" height="16" viewBox="0 0 16 16" fill="none" xmlns="http://www.w3.org/2000/svg">
<path fill-rule="evenodd" clip-rule="evenodd" d="M9.74975 5.16431C9.80372 5.16431 9.85522 5.17519 9.90356 5.19094C11.0147 5.41519 12.0115 5.83034 12.8249 6.38369C13.1553 6.14306 13.5601 6 14 6C15.1042 6 16 6.89516 16 8C16 8.74781 15.5891 9.39869 14.9819 9.74169C14.988 9.82788 15 9.91284 15 10C15 12.7612 11.8655 15 8 15C4.13403 15 1 12.7612 1 10C1 9.91284 1.01222 9.82788 1.01831 9.74169C0.410875 9.39869 0 8.74781 0 8C0 6.89516 0.89525 6 2 6C2.43944 6 2.84497 6.14306 3.17528 6.38366C4.19822 5.68662 5.51463 5.21338 6.98069 5.06053C6.98606 5.05638 6.99094 5.05087 6.99997 5.05028C7.38425 5.01391 7.72312 4.75391 7.85153 4.37206L8.39278 2.35203C8.64619 1.65025 9.37813 1.24119 10.1128 1.39878L10.9394 1.62059C10.9401 1.62122 10.9387 1.62303 10.9401 1.62303C11.5491 1.78003 12 2.33338 12 2.99206C12 2.99328 12.0007 2.99391 12.0007 2.99513C12.0007 2.99697 12 2.99819 12 3C12 3.55212 12.4473 4 13 4C13.5522 4 14 3.55212 14 3C14 2.81641 13.9473 2.64659 13.8606 2.49878L13.8643 2.49694C13.8225 2.42356 13.7964 2.33997 13.7964 2.24962C13.7964 1.97387 14.0208 1.74975 14.2964 1.74975C14.4795 1.74975 14.6369 1.8485 14.7243 1.99513L14.7268 1.99391C14.8994 2.28969 15 2.63269 15 3C15 4.10484 14.1042 5 13 5C11.8953 5 11 4.10484 11 3C11 2.81456 10.8826 2.65819 10.7188 2.59631L9.9165 2.38122C9.66478 2.32359 9.41209 2.46606 9.33153 2.71094L8.81028 4.65819C8.57028 5.42541 7.90916 5.95031 7.15159 6.04478C4.24122 6.32056 2 7.98366 2 10C2 12.209 4.68603 14 8 14C11.3135 14 14 12.209 14 10C14 8.17628 12.168 6.64125 9.66553 6.15944L9.66603 6.15578C9.42972 6.11634 9.24978 5.91153 9.24978 5.66422C9.24975 5.38794 9.47338 5.16431 9.74975 5.16431ZM2.34253 7.06422C2.23509 7.02491 2.12059 7 2 7C1.44725 7 1 7.44788 1 8C1 8.25709 1.09938 8.489 1.25953 8.66675C1.48609 8.08178 1.85572 7.54175 2.34253 7.06422ZM14.7407 8.66675C14.9006 8.489 15 8.25709 15 8C15 7.44788 14.5522 7 14 7C13.8789 7 13.7644 7.02491 13.657 7.06422C14.1438 7.54175 14.5139 8.08178 14.7407 8.66675ZM9.53516 9C9.53516 8.46728 9.96678 8.03516 10.5 8.03516C11.0327 8.03516 11.4643 8.46728 11.4643 9C11.4643 9.53272 11.0327 9.96484 10.5 9.96484C9.96681 9.96484 9.53516 9.53272 9.53516 9ZM4.53516 9C4.53516 8.46728 4.96678 8.03516 5.5 8.03516C6.03272 8.03516 6.46434 8.46728 6.46434 9C6.46434 9.53272 6.03272 9.96484 5.5 9.96484C4.96681 9.96484 4.53516 9.53272 4.53516 9ZM9.84791 11.4538L9.84912 11.4546C9.94019 11.3315 10.085 11.2502 10.2498 11.2502C10.5261 11.2502 10.7498 11.4738 10.7498 11.7502V11.7522C10.7498 11.7575 10.748 11.7629 10.748 11.7685C10.7468 11.798 10.7444 11.8278 10.7383 11.8557C10.6194 12.4971 9.44019 13 8 13C6.59522 13 5.44116 12.5205 5.27588 11.9023C5.26 11.854 5.24975 11.8037 5.24975 11.7502C5.24975 11.4739 5.47338 11.2502 5.74975 11.2502C5.93163 11.2502 6.08787 11.3484 6.17578 11.4927L6.18066 11.491C6.43822 11.7866 7.15453 12 8 12C8.88013 12 9.62012 11.7686 9.84791 11.4538ZM13 2C12.7236 2 12.5 1.77637 12.5 1.5C12.5 1.22363 12.7236 1 13 1C13.2759 1 13.5 1.22363 13.5 1.5C13.5 1.77637 13.2759 2 13 2Z" fill="black"/>
<path d="M5.5 10C4.94725 10 4.5 9.552 4.5 9C4.5 8.448 4.94725 8 5.5 8C6.05225 8 6.5 8.448 6.5 9C6.5 9.552 6.05225 10 5.5 10ZM10.5 10C9.94725 10 9.5 9.552 9.5 9C9.5 8.448 9.94725 8 10.5 8C11.0522 8 11.5 8.448 11.5 9C11.5 9.552 11.0522 10 10.5 10Z" fill="#FF3322"/>
</svg>
