<svg width="48" height="48" viewBox="0 0 48 48" fill="none" xmlns="http://www.w3.org/2000/svg">
<g clip-path="url(#clip0_427_97477)">
<path fill-rule="evenodd" clip-rule="evenodd" d="M46.9072 11.8994C46.9028 11.9038 46.9028 11.9075 46.897 11.9126L43.9966 14.2557C42.2549 15.6583 40.0475 16.5007 37.6407 16.5007C35.817 16.5007 34.1163 16.0048 32.6368 15.1617L28.5734 12.7014L28.5763 12.6978C28.087 12.4473 27.7502 11.9463 27.7502 11.3611C27.7502 10.5297 28.4241 9.85594 29.2575 9.85594C29.5109 9.85594 29.7453 9.92475 29.9548 10.0354L29.9606 10.0252L34.3126 12.6378C35.3292 13.1974 36.4923 13.5241 37.7345 13.5241C39.2975 13.5241 40.736 13.0092 41.9092 12.1552L44.2383 10.3431C44.3877 10.2068 44.4844 10.0134 44.4844 9.79669C44.4844 9.54619 44.3555 9.33084 44.168 9.19462L35.4464 3.38044C35.0215 3.14156 34.5368 3.00019 34.0152 3.00019C33.296 3.00019 32.6426 3.26091 32.1314 3.69009L27.0002 8.24963L24.0013 9.93131L15.3668 15.1602C13.8903 16.0062 12.1831 16.5006 10.36 16.5006C7.96209 16.5006 5.75897 15.6626 4.02459 14.2688L1.10156 11.9089C1.09641 11.906 1.09866 11.9023 1.0935 11.8993C0.429187 11.383 0 10.5751 0 9.66684C0 8.73741 0.459188 7.91775 1.15575 7.40363L10.609 1.05628C10.6244 1.04606 10.639 1.03941 10.6544 1.02919C11.6132 0.378 12.7703 9.375e-05 14.0162 9.375e-05C15.5249 9.375e-05 16.899 0.558187 17.9537 1.4745L20.0528 3.30263L20.0507 3.30478C20.3722 3.58678 20.5788 3.99769 20.5788 4.45837C20.5788 5.30953 19.8895 5.99869 19.0385 5.99869C18.5924 5.99869 18.194 5.80753 17.9135 5.50575L15.87 3.68794C15.3588 3.2595 14.704 3.00019 13.9863 3.00019C13.4648 3.00019 12.9792 3.14156 12.5551 3.38034L3.83269 9.19444C3.64444 9.33066 3.51703 9.546 3.51703 9.7965C3.51703 10.0133 3.61294 10.2067 3.76237 10.3414L6.10538 12.1629C7.27575 13.0104 8.70844 13.5238 10.2662 13.5238C11.5142 13.5238 12.681 13.1942 13.6983 12.6324L20.9433 8.28469L24.0011 6.74362L30.0513 1.4715C31.103 0.554438 32.4785 0 33.9843 0C35.2309 0 36.3881 0.377906 37.3461 1.02909C37.3637 1.04081 37.3783 1.04737 37.3944 1.05769L46.8397 7.39987C47.5401 7.91484 48 8.73375 48 9.66684C48 10.5751 47.5723 11.383 46.9072 11.8994ZM1.0935 22.6004C1.09641 22.5975 1.09866 22.596 1.10156 22.5923L4.04663 20.2126C5.77584 18.8283 7.97241 18.0007 10.36 18.0007C12.1779 18.0007 13.8801 18.4921 15.3536 19.3329L19.4903 21.8372V21.8387C19.9445 22.098 20.2506 22.5791 20.2506 23.1387C20.2506 23.9701 19.5767 24.6439 18.744 24.6439C18.4766 24.6439 18.2313 24.5684 18.0123 24.4454L18.0071 24.4542L13.7123 21.8761C12.6912 21.3077 11.5187 20.9759 10.2662 20.9759C8.70328 20.9759 7.26553 21.4908 6.09366 22.3433L3.76237 24.1568C3.61294 24.2946 3.51703 24.4865 3.51703 24.7032C3.51703 24.9552 3.64444 25.1705 3.83269 25.3053L12.5411 31.1107C12.9688 31.3546 13.4596 31.5011 13.9862 31.5011C14.7076 31.5011 15.3683 31.2367 15.878 30.8045L21.0006 26.2502L23.9965 24.5732L24.0013 24.5684L24.8762 24.0389L24.9846 23.9767L24.9817 23.9752L32.6515 19.3293C34.1252 18.4898 35.8244 18.0007 37.6408 18.0007C40.0373 18.0007 42.236 18.8371 43.9718 20.2258L46.897 22.5887C46.9028 22.5923 46.9028 22.5975 46.9072 22.6004C47.5723 23.1168 48 23.9246 48 24.8329C48 25.7624 47.543 26.5812 46.8487 27.0962L37.3946 33.442C37.3785 33.4523 37.3639 33.4589 37.3462 33.4706C36.3882 34.1217 35.2311 34.4997 33.9845 34.4997C32.4787 34.4997 31.1017 33.9445 30.0471 33.0268L28.0885 31.3179C27.6799 31.0403 27.4103 30.5723 27.4103 30.0413C27.4103 29.1903 28.1003 28.5003 28.9514 28.5003C29.385 28.5003 29.7761 28.6791 30.0559 28.9684L32.1198 30.8017C32.631 31.2368 33.2917 31.5012 34.0153 31.5012C34.5412 31.5012 35.0319 31.3547 35.4596 31.1108L44.1681 25.3054C44.3556 25.1706 44.4845 24.9553 44.4845 24.7033C44.4845 24.4843 44.3878 24.2947 44.2384 24.1569L41.9108 22.3471C40.7375 21.4923 39.2991 20.976 37.7346 20.976C36.4851 20.976 35.3176 21.3078 34.2951 21.8725L27.0002 26.2502L24.0013 27.7553L17.9538 33.0246C16.8991 33.943 15.5236 34.4996 14.0163 34.4996C12.7704 34.4996 11.6132 34.1217 10.6545 33.4705C10.6391 33.4603 10.6245 33.4537 10.6091 33.4434L1.14928 27.0909C0.457781 26.5747 0 25.7595 0 24.8329C0 23.9246 0.429187 23.1168 1.0935 22.6004ZM10.5014 35.9997C11.329 35.9997 11.9999 36.6728 11.9999 37.5006V37.8521C11.9999 38.1026 12.1325 38.3143 12.3215 38.4505L21.8114 44.3841C21.8333 44.3958 21.8554 44.3994 21.8773 44.4127C22.5184 44.7989 23.2529 45.0026 24.0013 45.0015C24.7715 45.0022 25.5264 44.7865 26.1799 44.3789C26.2004 44.3657 26.2194 44.362 26.2414 44.3503L31.9132 40.8053C32.1871 40.6149 32.5181 40.5006 32.8785 40.5006C33.8131 40.5006 34.5718 41.2595 34.5718 42.194C34.5718 42.8114 34.2408 43.3461 33.7457 43.6428L33.7501 43.6508L28.6613 46.7036C28.6467 46.7117 28.6335 46.7183 28.6174 46.7271C27.2668 47.5357 25.6877 48 24.0013 48C22.2977 48 20.7069 47.5276 19.3497 46.7065C19.3292 46.6948 19.3124 46.6868 19.2926 46.675L10.4963 41.397C9.59831 40.7913 9.00141 39.7687 9.00141 38.602V37.5005C9.00141 36.6728 9.67228 35.9997 10.5014 35.9997ZM37.5016 35.9997C38.3292 35.9997 39.0001 36.6728 39.0001 37.5006C39.0001 38.3297 38.3292 39.0006 37.5016 39.0006C36.6725 39.0006 36.0016 38.3297 36.0016 37.5006C36.0016 36.6728 36.6725 35.9997 37.5016 35.9997Z" fill="#007EE5"/>
</g>
<defs>
<clipPath id="clip0_427_97477">
<rect width="48" height="48" fill="white"/>
</clipPath>
</defs>
</svg>
