<svg width="16" height="16" viewBox="0 0 16 16" fill="none" xmlns="http://www.w3.org/2000/svg">
<path fill-rule="evenodd" clip-rule="evenodd" d="M15.994 8.23351C15.9613 8.94001 15.3808 9.50301 14.6668 9.50001C14.5314 9.49959 14.3968 9.47851 14.2678 9.43751C14.2648 9.43626 14.2625 9.43701 14.2593 9.43576C13.3679 9.14733 12.4369 9.0003 11.5 9.00001C11.2315 9.00001 10.9673 9.01751 10.7048 9.04126C10.6691 9.0485 10.6354 9.0633 10.6059 9.08465C10.5764 9.10601 10.5519 9.13343 10.5339 9.16507C10.5159 9.19672 10.5048 9.23184 10.5016 9.2681C10.4983 9.30435 10.5028 9.34089 10.5148 9.37526C10.5178 9.38351 10.5103 9.38301 10.5063 9.38551C10.9987 10.8574 11.3466 12.3739 11.545 13.9133C11.5455 13.9145 11.548 13.9133 11.5485 13.915C11.5558 13.9525 11.5925 13.9843 11.6273 13.9763C12.855 13.227 13.8231 12.1189 14.4008 10.8018L14.4143 10.8073C14.459 10.701 14.5392 10.6135 14.641 10.5596C14.7429 10.5056 14.8603 10.4885 14.9734 10.5112C15.0864 10.5339 15.1881 10.5949 15.2613 10.684C15.3345 10.7731 15.3747 10.8847 15.375 11C15.375 11.074 15.3575 11.1443 15.329 11.2073C14.6533 12.749 13.5035 14.034 12.0673 14.8848C11.963 14.9391 11.8502 14.9752 11.7338 14.9915C11.5969 15.009 11.4579 14.9992 11.3247 14.9629C11.1916 14.9266 11.0669 14.8644 10.9578 14.7799C10.8487 14.6953 10.7574 14.5901 10.689 14.4702C10.6206 14.3504 10.5765 14.2182 10.5593 14.0813C10.557 14.065 10.5453 14.0453 10.5395 14.0273C10.3534 12.5897 10.0323 11.1729 9.58052 9.79551C9.57927 9.77676 9.57877 9.75826 9.57027 9.73376C9.53457 9.62957 9.51215 9.5213 9.50352 9.41151C9.45252 8.74901 9.91402 8.17151 10.5525 8.05201C10.8673 8.01913 11.1835 8.00178 11.5 8.00001C12.5708 8.00001 13.6018 8.16976 14.569 8.48201C14.601 8.49276 14.6345 8.50001 14.6705 8.50001C14.832 8.50051 14.96 8.38226 14.9885 8.22901C14.9915 8.15276 15 8.07776 15 8.00001C15 6.82251 14.7035 5.71576 14.1898 4.74251L14.1963 4.73876C14.155 4.66591 14.1332 4.58371 14.1328 4.50001C14.1322 4.38752 14.1697 4.27814 14.2391 4.18967C14.3086 4.10119 14.406 4.03883 14.5154 4.01272C14.6248 3.98661 14.7398 3.9983 14.8418 4.04587C14.9437 4.09345 15.0265 4.17412 15.0768 4.27476C15.0775 4.27476 15.078 4.27401 15.0788 4.27351C15.6852 5.42196 16.0014 6.7013 16 8.00001C16 8.07801 15.9963 8.15576 15.994 8.23351ZM13.1418 3.75401C12.2129 4.58865 11.1762 5.29494 10.0595 5.85401C10.0333 5.87201 10.0078 5.89076 9.96927 5.90976C9.79128 5.99743 9.65029 6.14559 9.57156 6.32771C9.49282 6.50983 9.48146 6.71403 9.53952 6.90376C9.53952 6.90451 9.53877 6.90501 9.53802 6.90576C9.86177 8.04076 9.25827 9.22026 8.17827 9.63726C8.17652 9.63801 8.17777 9.64251 8.17652 9.64376C6.53695 10.2973 5.12496 11.4173 4.11527 12.865C4.01756 13.0367 3.98269 13.237 4.01663 13.4316C4.05057 13.6261 4.15122 13.8028 4.30127 13.9313C5.27745 14.5442 6.39064 14.9049 7.54077 14.981L7.54027 14.9888C7.66525 14.9984 7.782 15.0548 7.86726 15.1466C7.95252 15.2385 8.00001 15.3592 8.00027 15.4845C8.00025 15.559 7.98361 15.6325 7.95155 15.6997C7.91949 15.7669 7.87283 15.8261 7.81497 15.8729C7.75711 15.9198 7.68951 15.9531 7.61712 15.9705C7.54472 15.9879 7.46936 15.989 7.39652 15.9735C6.06627 15.8743 4.83052 15.4445 3.76127 14.7735C2.97627 14.2045 2.77702 13.131 3.28502 12.3158C4.40327 10.7038 5.97877 9.43576 7.82852 8.70451C7.83669 8.69888 7.8452 8.69379 7.85402 8.68926C8.14122 8.57187 8.37398 8.35107 8.50635 8.07046C8.63872 7.78984 8.66108 7.4698 8.56902 7.17351C8.56102 7.14801 8.55752 7.12726 8.55277 7.10501C8.45726 6.70132 8.49846 6.27734 8.66989 5.89959C8.84133 5.52184 9.1333 5.21168 9.50002 5.01776C10.5604 4.50086 11.5451 3.84142 12.4268 3.05776C12.4767 2.98345 12.5002 2.89451 12.4935 2.80522C12.4868 2.71594 12.4503 2.63151 12.3898 2.56551C11.1885 1.59201 9.66652 1.00001 8.00002 1.00001C7.31702 1.00001 6.66002 1.10601 6.03652 1.28976C6.01557 1.31111 6.00304 1.33932 6.00125 1.36918C5.99946 1.39905 6.00852 1.42855 6.02677 1.45226C6.02852 1.45476 6.02377 1.45351 6.02252 1.45351C6.89115 2.47546 7.67326 3.56789 8.36077 4.71951C8.48154 4.99994 8.52064 5.30879 8.47358 5.61048C8.42652 5.91216 8.29521 6.19442 8.09477 6.42476C8.09827 6.43076 8.10002 6.43826 8.10452 6.44426C8.13352 6.49201 8.09952 6.50401 8.02927 6.49451C7.93479 6.59432 7.82763 6.68131 7.71052 6.75326C7.63825 6.7958 7.56287 6.83282 7.48502 6.86401C6.02766 7.28724 4.51759 7.50137 3.00002 7.50001C2.75952 7.50001 2.52252 7.49226 2.28552 7.48526C1.26552 7.41751 0.472273 6.55626 0.500773 5.52526C0.507803 5.28937 0.558316 5.05681 0.649773 4.83926C1.19602 3.57201 2.06252 2.47826 3.14377 1.64951C3.21337 1.57884 3.30241 1.53046 3.39958 1.51054C3.49675 1.49061 3.59764 1.50003 3.68944 1.53761C3.78123 1.57519 3.85978 1.63921 3.91508 1.72155C3.97039 1.80389 3.99996 1.90082 4.00002 2.00001C3.99992 2.0776 3.98166 2.15409 3.94672 2.22337C3.91177 2.29265 3.86111 2.3528 3.79877 2.39901L3.80527 2.40726C2.80924 3.15518 2.0301 4.1546 1.54777 5.30301C1.51833 5.38974 1.50223 5.48044 1.50002 5.57201C1.49829 5.80752 1.58787 6.03455 1.74994 6.20544C1.91202 6.37633 2.13399 6.47778 2.36927 6.48851C2.57802 6.49401 2.78727 6.50001 3.00002 6.50001C4.44427 6.50001 5.83152 6.29876 7.12927 5.93051C7.15477 5.91876 7.18127 5.91176 7.20627 5.89576C7.32189 5.82417 7.41061 5.71638 7.45863 5.58915C7.50665 5.46192 7.51127 5.32238 7.47177 5.19226C6.82579 4.11719 6.09373 3.09627 5.28277 2.13951C5.27677 2.12551 5.27227 2.11226 5.26152 2.09901C5.1612 1.97883 5.08711 1.83901 5.04402 1.68851C4.87777 1.11076 5.19927 0.513506 5.76102 0.321756C6.4883 0.10879 7.2422 0.000452668 8.00002 6.29247e-06C9.81968 -0.00228009 11.5853 0.618569 13.003 1.75926C13.5728 2.24376 13.6673 3.09276 13.2033 3.68726C13.184 3.71151 13.1618 3.73101 13.1418 3.75401ZM0.998273 8.48376L1.02377 8.48451C1.10347 9.63258 1.46683 10.7429 2.08127 11.716C2.07827 11.7185 2.07477 11.7203 2.07227 11.7225C2.12251 11.7978 2.15137 11.8853 2.15576 11.9757C2.16015 12.0662 2.13991 12.1561 2.09721 12.2359C2.05451 12.3157 1.99093 12.3824 1.91328 12.4289C1.83562 12.4755 1.74679 12.5 1.65627 12.5C1.55218 12.4997 1.45079 12.4669 1.36625 12.4062C1.28172 12.3454 1.21827 12.2598 1.18477 12.1613C0.556273 11.133 0.146773 9.95651 0.0382733 8.69051C0.0101592 8.6229 -0.00274159 8.54994 0.0004851 8.4768C0.00371179 8.40366 0.022987 8.33211 0.0569447 8.26725C0.0909025 8.20238 0.138711 8.14578 0.196983 8.10145C0.255255 8.05713 0.322564 8.02616 0.394139 8.01074C0.465714 7.99533 0.539804 7.99584 0.611157 8.01226C0.68251 8.02867 0.74938 8.06057 0.807028 8.10571C0.864677 8.15084 0.911692 8.20811 0.944741 8.27344C0.977791 8.33877 0.996067 8.41057 0.998273 8.48376ZM9.50002 15C9.56661 14.9985 9.63282 15.0103 9.69478 15.0348C9.75673 15.0592 9.81318 15.0958 9.86082 15.1423C9.90844 15.1889 9.94629 15.2445 9.97214 15.3058C9.99799 15.3672 10.0113 15.4332 10.0113 15.4998C10.0113 15.5664 9.99805 15.6323 9.97224 15.6937C9.94642 15.7551 9.9086 15.8107 9.86099 15.8573C9.81339 15.9039 9.75696 15.9405 9.69501 15.9649C9.63307 15.9894 9.56686 16.0012 9.50027 15.9998C9.36963 15.9969 9.24531 15.943 9.15393 15.8495C9.06255 15.7561 9.01136 15.6307 9.01133 15.5C9.01129 15.3693 9.06242 15.2438 9.15375 15.1504C9.24509 15.0569 9.36938 15.003 9.50002 15Z" fill="#EA4C89"/>
</svg>
