<svg width="16" height="16" viewBox="0 0 16 16" fill="none" xmlns="http://www.w3.org/2000/svg">
<path fill-rule="evenodd" clip-rule="evenodd" d="M16 9.4951C16 10.8757 14.8806 11.9951 13.5 11.9951H12.5C12.2236 11.9951 12 11.7715 12 11.4951C12 11.2187 12.2236 10.9951 12.5 10.9951H13.5C14.3286 10.9951 15 10.3235 15 9.4951C15 8.66673 14.3286 7.9951 13.5 7.9951H13.4922C12.8418 7.9951 12.2878 7.58104 12.0801 7.00241C12.0786 6.99876 12.0752 6.9951 12.074 6.99141C11.6836 5.89523 10.6762 5.09273 9.46778 5.00607C9.20656 5.02291 9 5.23751 9 5.50313V11.4951C9 11.7714 8.77637 11.9951 8.5 11.9951C8.22363 11.9951 8 11.7714 8 11.4951V5.50316C8 4.68066 8.66113 4.01513 9.48119 4.00488C11.1138 4.09813 12.48 5.17041 13.009 6.64357C13.0115 6.64601 13.0163 6.64845 13.0171 6.65088C13.0825 6.85082 13.2703 6.99513 13.4922 6.99513H13.5C13.5278 6.99513 13.5552 6.99832 13.583 6.99954C13.5879 6.99998 13.5952 6.99998 13.5994 6.99998C14.9341 7.05273 16 8.14791 16 9.4951ZM6.5 11.9951C6.22363 11.9951 6 11.7715 6 11.4951V5.9951C6 5.71873 6.22363 5.4951 6.5 5.4951C6.77637 5.4951 7 5.71873 7 5.9951V11.4951C7 11.7715 6.77637 11.9951 6.5 11.9951ZM4.5 11.9951C4.22363 11.9951 4 11.7715 4 11.4951V5.74485C4 5.46898 4.22363 5.24485 4.5 5.24485C4.77637 5.24485 5 5.46898 5 5.74485V11.4951C5 11.7715 4.77637 11.9951 4.5 11.9951ZM2.5 11.9951C2.22362 11.9951 2 11.7715 2 11.4951V7.4951C2 7.21873 2.22362 6.9951 2.5 6.9951C2.77638 6.9951 3 7.21873 3 7.4951V11.4951C3 11.7715 2.77638 11.9951 2.5 11.9951ZM0.5 10.9951C0.223625 10.9951 0 10.7715 0 10.4951V8.4951C0 8.21873 0.223625 7.9951 0.5 7.9951C0.776375 7.9951 1 8.21873 1 8.4951V10.4951C1 10.7715 0.776375 10.9951 0.5 10.9951ZM10.5 10.9951C10.7764 10.9951 11 11.2187 11 11.4951C11 11.7715 10.7764 11.9951 10.5 11.9951C10.2236 11.9951 10 11.7715 10 11.4951C10 11.2187 10.2236 10.9951 10.5 10.9951Z" fill="#FF832D"/>
</svg>
