<svg width="16" height="16" viewBox="0 0 16 16" fill="none" xmlns="http://www.w3.org/2000/svg">
<path fill-rule="evenodd" clip-rule="evenodd" d="M15.6357 3.96647C15.6343 3.96794 15.6343 3.96916 15.6323 3.97088L14.6655 4.75191C14.085 5.21944 13.3492 5.50022 12.5469 5.50022C11.939 5.50022 11.3721 5.33494 10.8789 5.05391L9.52447 4.23381L9.52544 4.23259C9.36234 4.14909 9.25006 3.98209 9.25006 3.78703C9.25006 3.50991 9.47469 3.28531 9.7525 3.28531C9.83697 3.28531 9.91509 3.30825 9.98494 3.34512L9.98687 3.34172L11.4375 4.21259C11.7764 4.39912 12.1641 4.50803 12.5782 4.50803C13.0992 4.50803 13.5787 4.33641 13.9697 4.05172L14.7461 3.44769C14.7959 3.40228 14.8281 3.33781 14.8281 3.26556C14.8281 3.18206 14.7852 3.11028 14.7227 3.06487L11.8155 1.12681C11.6738 1.04719 11.5122 1.00006 11.3384 1.00006C11.0987 1.00006 10.8809 1.08697 10.7105 1.23003L9.00006 2.74988L8.00044 3.31044L5.12228 5.05341C4.63009 5.33541 4.06103 5.50019 3.45334 5.50019C2.65403 5.50019 1.91966 5.22088 1.34153 4.75628L0.367188 3.96962C0.365469 3.96866 0.366219 3.96744 0.3645 3.96644C0.143062 3.79434 0 3.52503 0 3.22228C0 2.91247 0.153063 2.63925 0.38525 2.46788L3.53634 0.352094C3.54147 0.348687 3.54634 0.346469 3.55147 0.343062C3.87106 0.126 4.25678 3.125e-05 4.67206 3.125e-05C5.17497 3.125e-05 5.633 0.186062 5.98456 0.4915L6.68428 1.10088L6.68356 1.10159C6.79075 1.19559 6.85959 1.33256 6.85959 1.48612C6.85959 1.76984 6.62984 1.99956 6.34616 1.99956C6.19747 1.99956 6.06466 1.93584 5.97116 1.83525L5.29 1.22931C5.11959 1.0865 4.90134 1.00006 4.66209 1.00006C4.48828 1.00006 4.32641 1.04719 4.18503 1.12678L1.27756 3.06481C1.21481 3.11022 1.17234 3.182 1.17234 3.2655C1.17234 3.33775 1.20431 3.40222 1.25412 3.44712L2.03513 4.05431C2.42525 4.33681 2.90281 4.50794 3.42206 4.50794C3.83806 4.50794 4.227 4.39806 4.56609 4.21081L6.98109 2.76156L8.00037 2.24787L10.0171 0.4905C10.3677 0.184813 10.8262 0 11.3281 0C11.7436 0 12.1294 0.125969 12.4487 0.343031C12.4546 0.346938 12.4594 0.349125 12.4648 0.352562L15.6132 2.46662C15.8467 2.63828 16 2.91125 16 3.22228C16 3.52503 15.8574 3.79434 15.6357 3.96647ZM0.3645 7.53347C0.365469 7.5325 0.366219 7.532 0.367188 7.53078L1.34888 6.73753C1.92528 6.27609 2.65747 6.00022 3.45334 6.00022C4.05931 6.00022 4.62669 6.16403 5.11788 6.44431L6.49678 7.27906V7.27956C6.64816 7.366 6.75019 7.52638 6.75019 7.71291C6.75019 7.99003 6.52556 8.21463 6.248 8.21463C6.15887 8.21463 6.07709 8.18947 6.00409 8.14847L6.00238 8.15141L4.57075 7.29203C4.23041 7.10256 3.83956 6.99197 3.42206 6.99197C2.90109 6.99197 2.42184 7.16359 2.03122 7.44778L1.25412 8.05228C1.20431 8.09819 1.17234 8.16216 1.17234 8.23441C1.17234 8.31841 1.21481 8.39016 1.27756 8.43509L4.18038 10.3702C4.32294 10.4515 4.48653 10.5004 4.66206 10.5004C4.90253 10.5004 5.12275 10.4122 5.29266 10.2682L7.00019 8.75006L7.99884 8.19106L8.00044 8.18947L8.29206 8.01297L8.32819 7.99222L8.32722 7.99172L10.8838 6.44309C11.3751 6.16328 11.9415 6.00022 12.5469 6.00022C13.3458 6.00022 14.0787 6.27903 14.6573 6.74194L15.6323 7.52956C15.6343 7.53078 15.6343 7.5325 15.6357 7.53347C15.8574 7.70559 16 7.97487 16 8.27763C16 8.58747 15.8477 8.86041 15.6162 9.03206L12.4649 11.1473C12.4595 11.1508 12.4546 11.153 12.4487 11.1569C12.1294 11.3739 11.7437 11.4999 11.3282 11.4999C10.8262 11.4999 10.3672 11.3148 10.0157 11.0089L9.36284 10.4393C9.22662 10.3468 9.13678 10.1908 9.13678 10.0138C9.13678 9.73009 9.36675 9.50009 9.65047 9.50009C9.795 9.50009 9.92537 9.55969 10.0186 9.65613L10.7066 10.2672C10.877 10.4123 11.0972 10.5004 11.3384 10.5004C11.5137 10.5004 11.6773 10.4516 11.8199 10.3703L14.7227 8.43513C14.7852 8.39019 14.8282 8.31844 14.8282 8.23444C14.8282 8.16144 14.7959 8.09822 14.7461 8.05231L13.9703 7.44903C13.5792 7.16409 13.0997 6.992 12.5782 6.992C12.1617 6.992 11.7725 7.10259 11.4317 7.29084L9.00006 8.75006L8.00044 9.25178L5.98459 11.0082C5.63303 11.3143 5.17453 11.4999 4.67209 11.4999C4.25681 11.4999 3.87106 11.3739 3.5515 11.1568C3.54638 11.1534 3.5415 11.1512 3.53638 11.1478L0.383094 9.03031C0.152594 8.85822 0 8.5865 0 8.27763C0 7.97487 0.143062 7.70559 0.3645 7.53347ZM3.50047 11.9999C3.77634 11.9999 3.99997 12.2243 3.99997 12.5002V12.6174C3.99997 12.7009 4.04416 12.7714 4.10716 12.8168L7.27047 14.7947C7.27778 14.7986 7.28513 14.7998 7.29244 14.8042C7.50613 14.933 7.75096 15.0009 8.00044 15.0005C8.25716 15.0007 8.50879 14.9288 8.72663 14.793C8.73347 14.7886 8.73981 14.7873 8.74712 14.7834L10.6377 13.6018C10.729 13.5383 10.8394 13.5002 10.9595 13.5002C11.271 13.5002 11.5239 13.7532 11.5239 14.0647C11.5239 14.2705 11.4136 14.4487 11.2486 14.5476L11.25 14.5503L9.55378 15.5679C9.54891 15.5706 9.5445 15.5728 9.53913 15.5757C9.08894 15.8452 8.56256 16 8.00044 16C7.43256 16 6.90231 15.8425 6.44991 15.5688C6.44306 15.5649 6.43747 15.5623 6.43087 15.5583L3.49875 13.799C3.19944 13.5971 3.00047 13.2563 3.00047 12.8673V12.5002C3.00047 12.2243 3.22409 11.9999 3.50047 11.9999ZM12.5005 11.9999C12.7764 11.9999 13 12.2243 13 12.5002C13 12.7766 12.7764 13.0002 12.5005 13.0002C12.2242 13.0002 12.0005 12.7766 12.0005 12.5002C12.0005 12.2243 12.2242 11.9999 12.5005 11.9999Z" fill="#007EE5"/>
</svg>
