<svg width="16" height="16" viewBox="0 0 16 16" fill="none" xmlns="http://www.w3.org/2000/svg">
<path fill-rule="evenodd" clip-rule="evenodd" d="M15.8403 11.2622C15.8403 11.2622 15.4809 12.5039 15.0008 13C14.3926 13.6514 13.6637 13.7896 13.3507 13.8276C13.2481 13.8354 13.1422 13.842 13.0362 13.8486L13.0357 13.8442C12.896 13.8554 12.7525 13.8135 12.646 13.7065C12.4518 13.5132 12.4518 13.1985 12.646 13.0051C12.7339 12.917 12.8479 12.875 12.9627 12.8667L12.9622 12.8611C12.979 12.8598 12.9968 12.8589 13.0132 12.8577C13.2723 12.8262 13.8368 12.8235 14.3411 12.2852C14.7386 11.8755 14.8675 10.9448 14.8675 10.9448C14.8675 10.9448 14.9998 9.85231 14.9998 8.75981V7.23478C14.9998 6.14228 14.8675 5.04903 14.8675 5.04903C14.8675 5.04903 14.7386 4.1185 14.3411 3.70872C13.8368 3.171 13.2723 3.16819 13.0132 3.13681C11.1589 3.00009 7.99953 3.00059 7.99953 3.00059C7.99953 3.00059 4.84059 3.00009 2.98631 3.13681C2.72722 3.16819 2.16272 3.171 1.65872 3.70872C1.26169 4.1185 1.13225 5.04903 1.13225 5.04903C1.132 5.04903 0.999906 6.14228 0.999906 7.23478V8.75981C0.999906 9.85231 1.13225 10.9448 1.13225 10.9448C1.132 10.9448 1.26169 11.8755 1.65872 12.2852C2.16269 12.8235 2.82491 12.8067 3.11987 12.8628C4.18009 12.9663 7.9995 13 7.9995 13C8.27591 13 8.49956 13.2241 8.49956 13.5C8.49956 13.7764 8.27591 14 7.9995 14C7.99119 14 7.98316 13.9985 7.97484 13.9981C7.65913 13.9947 4.03381 13.9541 2.80975 13.8337C2.45375 13.7652 1.60766 13.6514 0.998688 13C0.518625 12.5039 0.159938 11.2622 0.159938 11.2622C0.159938 11.2622 0 10.1897 0 8.86675V7.12666C0 5.80366 0.159938 4.73069 0.159938 4.73069C0.159938 4.73069 0.518625 3.49622 0.998688 3.00059C1.60766 2.34925 2.33603 2.2035 2.64884 2.16541C4.88819 2 7.99659 2 7.99659 2H8.00344C8.00344 2 11.1118 2 13.3507 2.16541C13.6637 2.2035 14.3926 2.34925 15.0008 3.00059C15.4809 3.49619 15.8403 4.73069 15.8403 4.73069C15.8403 4.73069 16 5.80366 16 7.12666V8.86675C16 10.1897 15.8403 11.2622 15.8403 11.2622ZM10.0001 13C10.2765 13 10.5001 13.2241 10.5001 13.5C10.5001 13.7764 10.2765 14 10.0001 14C9.72366 14 9.5 13.7764 9.5 13.5C9.5 13.2241 9.72366 13 10.0001 13ZM7.76463 10.4419L7.76 10.4444C7.686 10.4893 7.60031 10.5162 7.50775 10.5162C7.23597 10.5162 7.0155 10.2957 7.0155 10.024C7.0155 9.83453 7.12366 9.67191 7.28069 9.58944L7.28019 9.58894L9.83062 8.22884C9.82916 8.22762 9.825 8.22666 9.82744 8.22544C9.86979 8.20496 9.9055 8.17296 9.93047 8.13309C9.95544 8.09323 9.96865 8.04713 9.96859 8.00009C9.96859 7.90928 9.91831 7.82969 9.84575 7.78647L6.86019 6.19103C6.82602 6.17358 6.78818 6.16454 6.74981 6.16466C6.61625 6.16466 6.50978 6.2695 6.50244 6.40013L6.50294 9.49519H6.49903C6.49903 9.49691 6.49975 9.49859 6.49975 9.50031C6.49975 9.77666 6.27534 10.0003 5.99944 10.0003C5.72303 10.0003 5.49937 9.77666 5.49937 9.50031V6.01778C5.49937 5.45603 5.95525 5.00034 6.51709 5.00034C6.70205 5.00001 6.88355 5.05042 7.04184 5.14609C7.04794 5.14938 7.05016 5.14828 7.05528 5.1505L10.5045 7.13791C10.5775 7.1805 10.6449 7.23091 10.7072 7.29316C11.0979 7.68391 11.0979 8.31697 10.7072 8.70759C10.6498 8.76472 10.5866 8.81256 10.5204 8.85334L7.78484 10.4297C7.77803 10.4341 7.77122 10.4375 7.76463 10.4419Z" fill="#E62D27"/>
</svg>
