<svg width="391" height="119" viewBox="0 0 391 119" fill="none" xmlns="http://www.w3.org/2000/svg">
<path d="M115.417 82.8883C115.417 78.7699 116.852 75.2547 119.722 72.3427C122.593 69.3891 126.087 67.9123 130.205 67.9123H135.01C137.756 67.9123 140.085 66.9555 141.999 65.0419C143.954 63.0867 144.932 60.7363 144.932 57.9907H130.205C123.3 57.9907 117.351 60.4243 112.359 65.2915C107.409 70.1171 104.933 75.9827 104.933 82.8883V107.911C107.804 107.911 110.258 106.891 112.297 104.853C114.377 102.773 115.417 100.298 115.417 97.4275V82.8883Z" fill="white"/>
<path d="M162.965 107.911C156.059 107.911 150.131 105.498 145.181 100.672C140.23 95.8051 137.755 89.9187 137.755 83.0131C137.755 76.1075 140.23 70.2211 145.181 65.3539C150.131 60.4451 156.059 57.9907 162.965 57.9907H177.754C177.754 60.7363 176.776 63.0867 174.821 65.0419C172.866 66.9555 170.515 67.9123 167.77 67.9123H162.965C158.888 67.9123 155.414 69.4099 152.544 72.4051C149.674 75.4003 148.238 78.9363 148.238 83.0131C148.238 87.0899 149.674 90.6051 152.544 93.5587C155.414 96.5123 158.888 97.9891 162.965 97.9891H167.77C170.515 97.9891 172.866 98.9667 174.821 100.922C176.776 102.835 177.754 105.165 177.754 107.911H162.965ZM159.47 78.0211H177.754C177.754 80.7667 176.776 83.0963 174.821 85.0099C172.866 86.9235 170.515 87.8803 167.77 87.8803H159.47C158.098 87.8803 156.933 87.4227 155.976 86.5075C155.019 85.5507 154.541 84.3859 154.541 83.0131C154.541 81.5987 154.998 80.4131 155.914 79.4563C156.87 78.4995 158.056 78.0211 159.47 78.0211Z" fill="white"/>
<path d="M231.627 83.0131V107.911H206.293C199.387 107.911 193.438 105.498 188.446 100.672C183.496 95.8051 181.021 89.9187 181.021 83.0131C181.021 76.1075 183.496 70.2211 188.446 65.3539C193.438 60.4451 199.387 57.9907 206.293 57.9907C213.198 57.9907 219.147 60.4451 224.139 65.3539C229.131 70.2211 231.627 76.1075 231.627 83.0131ZM221.019 97.9891V83.0131C221.019 78.8947 219.584 75.3587 216.714 72.4051C213.885 69.4099 210.411 67.9123 206.293 67.9123C202.174 67.9123 198.68 69.4099 195.81 72.4051C192.981 75.3587 191.566 78.8947 191.566 83.0131C191.566 87.1315 192.981 90.6675 195.81 93.6211C198.68 96.5331 202.174 97.9891 206.293 97.9891H221.019Z" fill="white"/>
<path d="M286.956 83.0131V107.911C284.085 107.911 281.61 106.891 279.53 104.853C277.492 102.773 276.472 100.298 276.472 97.4275V83.0131C276.472 78.8947 275.037 75.3587 272.167 72.4051C269.338 69.4099 265.864 67.9123 261.746 67.9123C257.628 67.9123 254.133 69.4099 251.263 72.4051C248.392 75.3587 246.957 78.8947 246.957 83.0131V97.4275C246.957 100.339 245.938 102.815 243.9 104.853C241.861 106.891 239.386 107.911 236.474 107.911V83.0131C236.474 76.1075 238.949 70.2211 243.9 65.3539C248.892 60.4451 254.84 57.9907 261.746 57.9907C265.656 57.9907 269.359 58.8643 272.853 60.6115C276.348 62.3171 279.322 64.7091 281.776 67.7875C284.148 64.7507 287.101 62.3587 290.637 60.6115C294.173 58.8643 297.876 57.9907 301.744 57.9907C308.65 57.9907 314.578 60.4451 319.528 65.3539C324.479 70.2211 326.954 76.1075 326.954 83.0131V107.911C324.084 107.911 321.608 106.891 319.528 104.853C317.49 102.773 316.471 100.298 316.471 97.4275V83.0131C316.471 78.8947 315.036 75.3587 312.165 72.4051C309.336 69.4099 305.863 67.9123 301.744 67.9123C297.626 67.9123 294.132 69.4099 291.261 72.4051C288.391 75.3587 286.956 78.8947 286.956 83.0131Z" fill="white"/>
<path d="M355.616 77.5219C355.616 72.1139 357.55 67.5171 361.419 63.7315C365.329 59.9043 370.009 57.9907 375.459 57.9907H389.811C389.811 60.7779 388.833 63.1283 386.878 65.0419C384.923 66.9555 382.552 67.9123 379.764 67.9123H377.58C374.377 67.9123 371.632 69.0771 369.344 71.4067C367.097 73.6947 365.974 76.4611 365.974 79.7059V88.3795C365.974 93.7875 364.04 98.4051 360.171 102.232C356.302 106.018 351.643 107.911 346.193 107.911H331.841C331.841 105.165 332.798 102.835 334.712 100.922C336.667 98.9667 339.017 97.9891 341.763 97.9891H344.009C347.254 97.9891 350 96.8451 352.246 94.5571C354.492 92.2275 355.616 89.4403 355.616 86.1955V77.5219Z" fill="white"/>
<path d="M328.224 20.4611C330.824 20.4611 333.034 21.4231 334.854 23.3471C336.596 25.2451 337.467 27.5071 337.467 30.1331C337.467 32.7331 336.596 34.9821 334.854 36.8801C333.034 38.8041 330.824 39.7661 328.224 39.7661H320.658V44.9531H314.535V20.4611H328.224ZM328.224 33.6431C329.108 33.6431 329.849 33.2791 330.447 32.5511C331.045 31.8231 331.344 31.0171 331.344 30.1331C331.344 29.2231 331.045 28.4041 330.447 27.6761C329.849 26.9481 329.108 26.5841 328.224 26.5841H320.658V33.6431H328.224Z" fill="#FE9F43"/>
<path d="M352.119 19.7201C355.655 19.7201 358.645 21.0071 361.089 23.5811C363.559 26.1291 364.794 29.1841 364.794 32.7461C364.794 36.2821 363.559 39.3371 361.089 41.9111C358.645 44.4851 355.655 45.7721 352.119 45.7721C348.583 45.7721 345.58 44.4851 343.11 41.9111C340.64 39.3371 339.405 36.2821 339.405 32.7461C339.405 29.1841 340.64 26.1291 343.11 23.5811C345.58 21.0071 348.583 19.7201 352.119 19.7201ZM352.119 39.6101C353.939 39.6101 355.486 38.9341 356.76 37.5821C358.034 36.2041 358.671 34.5921 358.671 32.7461C358.671 30.8741 358.034 29.2621 356.76 27.9101C355.486 26.5321 353.939 25.8431 352.119 25.8431C350.273 25.8431 348.713 26.5321 347.439 27.9101C346.165 29.2621 345.528 30.8741 345.528 32.7461C345.528 34.5921 346.165 36.2041 347.439 37.5821C348.713 38.9341 350.273 39.6101 352.119 39.6101Z" fill="#FE9F43"/>
<path d="M372.952 27.6761C372.952 28.8721 373.355 29.4701 374.161 29.4701H382.819C384.873 29.4701 386.615 30.1981 388.045 31.6541C389.501 33.1101 390.229 34.8651 390.229 36.9191V37.4651C390.229 39.5191 389.501 41.2741 388.045 42.7301C386.615 44.1861 384.873 44.9141 382.819 44.9141H368.623V38.7131H382.819C383.157 38.7131 383.443 38.5961 383.677 38.3621C383.937 38.1021 384.067 37.8031 384.067 37.4651C384.067 36.2691 383.651 35.6711 382.819 35.6711H374.161C372.133 35.6711 370.391 34.9431 368.935 33.4871C367.479 32.0311 366.751 30.2761 366.751 28.2221V27.6761C366.751 25.6221 367.479 23.8671 368.935 22.4111C370.391 20.9551 372.133 20.2271 374.161 20.2271H388.396V26.4281H374.161C373.849 26.4281 373.563 26.5581 373.303 26.8181C373.069 27.0521 372.952 27.3381 372.952 27.6761Z" fill="#FE9F43"/>
<path d="M7.18268 48.9794C8.74333 34.3648 21.0748 23.2801 35.7725 23.2801H69.0164C83.6803 23.2801 95.9913 34.3225 97.5798 48.9001L98.8738 60.7754C101.888 88.4358 80.2226 112.59 52.3985 112.59C24.6145 112.59 2.96214 88.5024 5.91233 60.8755L7.18268 48.9794Z" fill="#FE9F43"/>
<path d="M3.79112 82.2694C5.53567 65.8044 19.4238 53.3101 35.9809 53.3101H69.0404C85.6357 53.3101 99.5429 65.8604 101.241 82.3687C103.203 101.455 88.2275 118.05 69.0404 118.05H35.981C16.754 118.05 1.76528 101.389 3.79112 82.2694Z" fill="white"/>
<path d="M74.2949 29.52L74.2949 25.23C74.2949 12.9527 64.3422 2.99999 52.0649 2.99999C39.7876 2.99999 29.8349 12.9527 29.8349 25.23L29.8349 29.52" stroke="white" stroke-width="6" stroke-linecap="round"/>
<path d="M41.9414 85.8238V112.277H68.7929C76.1743 112.277 82.4949 109.714 87.7547 104.587C93.0587 99.4153 95.7107 93.161 95.7107 85.8238C95.7107 78.4866 93.0587 72.2323 87.7547 67.0609C82.4507 61.8453 76.1301 59.2375 68.7929 59.2375C61.4557 59.2375 55.1351 61.8453 49.8311 67.0609C44.5713 72.2323 41.9414 78.4866 41.9414 85.8238ZM53.1461 101.736V85.8238C53.1461 81.448 54.6489 77.691 57.6545 74.5528C60.7043 71.3704 64.4171 69.7792 68.7929 69.7792C73.1687 69.7792 76.8594 71.3704 79.865 74.5528C82.9148 77.691 84.4397 81.448 84.4397 85.8238C84.4397 90.1996 82.9148 93.9566 79.865 97.0948C76.8594 100.189 73.1687 101.736 68.7929 101.736H53.1461Z" fill="#092C4C"/>
<path d="M77.3684 31.4753L71.565 31.4753" stroke="white" stroke-width="6" stroke-linecap="round"/>
<path d="M32.9084 31.4753L27.105 31.4753" stroke="white" stroke-width="6" stroke-linecap="round"/>
</svg>
