<svg width="96" height="72" viewBox="0 0 96 72" fill="none" xmlns="http://www.w3.org/2000/svg">
<g clip-path="url(#clip0_190_1348)">
<path d="M0 0H96V5.28H0V0Z" fill="white"/>
<mask id="mask0_190_1348" style="mask-type:luminance" maskUnits="userSpaceOnUse" x="0" y="0" width="96" height="6">
<path d="M0 0H96V5.28H0V0Z" fill="white"/>
</mask>
<g mask="url(#mask0_190_1348)">
<path d="M-0.000234365 9.76026e-06V-0.23999H-0.240234V9.76026e-06H-0.000234365ZM95.9998 9.76026e-06H96.2398V-0.23999H95.9998V9.76026e-06ZM-0.000234365 0.24001H95.9998V-0.23999H-0.000234365V0.24001ZM95.7598 9.76026e-06V5.28001H96.2398V9.76026e-06H95.7598ZM0.239766 5.28001V9.76026e-06H-0.240234V5.28001H0.239766Z" fill="#E6EAED"/>
</g>
<path d="M3.12039 3.36004C3.51804 3.36004 3.84039 3.03769 3.84039 2.64004C3.84039 2.2424 3.51804 1.92004 3.12039 1.92004C2.72275 1.92004 2.40039 2.2424 2.40039 2.64004C2.40039 3.03769 2.72275 3.36004 3.12039 3.36004Z" fill="#FF0000"/>
<path d="M5.5198 3.36004C5.91745 3.36004 6.2398 3.03769 6.2398 2.64004C6.2398 2.2424 5.91745 1.92004 5.5198 1.92004C5.12216 1.92004 4.7998 2.2424 4.7998 2.64004C4.7998 3.03769 5.12216 3.36004 5.5198 3.36004Z" fill="#3EB780"/>
<path d="M7.9202 3.36004C8.31784 3.36004 8.6402 3.03769 8.6402 2.64004C8.6402 2.2424 8.31784 1.92004 7.9202 1.92004C7.52255 1.92004 7.2002 2.2424 7.2002 2.64004C7.2002 3.03769 7.52255 3.36004 7.9202 3.36004Z" fill="#FFCA18"/>
<path d="M0.120117 5.40002H95.8801V71.88H0.120117V5.40002Z" fill="white"/>
<path d="M0.120117 5.40002H95.8801V71.88H0.120117V5.40002Z" stroke="#E6EAED" stroke-width="0.5"/>
<path d="M95.7602 5.28003H0.240234V72H95.7602V5.28003Z" fill="#1B2850"/>
<path d="M18.0395 11.64H4.51953C3.41496 11.64 2.51953 12.5354 2.51953 13.64V65.08C2.51953 66.1846 3.41496 67.08 4.51953 67.08H18.0395C19.1441 67.08 20.0395 66.1846 20.0395 65.08V13.64C20.0395 12.5354 19.1441 11.64 18.0395 11.64Z" fill="#1B2850" stroke="#1B2850" stroke-width="0.5"/>
<path d="M11.0398 14.64H5.7598C5.22961 14.64 4.7998 15.0698 4.7998 15.6C4.7998 16.1302 5.22961 16.56 5.7598 16.56H11.0398C11.57 16.56 11.9998 16.1302 11.9998 15.6C11.9998 15.0698 11.57 14.64 11.0398 14.64Z" fill="#1B2850"/>
<path d="M12.7198 22.3199H5.5198C5.12216 22.3199 4.7998 22.6423 4.7998 23.0399C4.7998 23.4376 5.12216 23.7599 5.5198 23.7599H12.7198C13.1174 23.7599 13.4398 23.4376 13.4398 23.0399C13.4398 22.6423 13.1174 22.3199 12.7198 22.3199Z" fill="white"/>
<path d="M12.7198 24.72H5.5198C5.12216 24.72 4.7998 25.0423 4.7998 25.44C4.7998 25.8376 5.12216 26.16 5.5198 26.16H12.7198C13.1174 26.16 13.4398 25.8376 13.4398 25.44C13.4398 25.0423 13.1174 24.72 12.7198 24.72Z" fill="white"/>
<path d="M8.3998 27.12H5.5198C5.12216 27.12 4.7998 27.4424 4.7998 27.84C4.7998 28.2376 5.12216 28.56 5.5198 28.56H8.3998C8.79745 28.56 9.1198 28.2376 9.1198 27.84C9.1198 27.4424 8.79745 27.12 8.3998 27.12Z" fill="white"/>
<path d="M14.6398 29.52H5.5198C5.12216 29.52 4.7998 29.8424 4.7998 30.24C4.7998 30.6377 5.12216 30.96 5.5198 30.96H14.6398C15.0374 30.96 15.3598 30.6377 15.3598 30.24C15.3598 29.8424 15.0374 29.52 14.6398 29.52Z" fill="white"/>
<path d="M10.3198 31.92H5.5198C5.12216 31.92 4.7998 32.2424 4.7998 32.64C4.7998 33.0377 5.12216 33.36 5.5198 33.36H10.3198C10.7175 33.36 11.0398 33.0377 11.0398 32.64C11.0398 32.2424 10.7175 31.92 10.3198 31.92Z" fill="white"/>
<path d="M14.6398 34.3199H5.5198C5.12216 34.3199 4.7998 34.6423 4.7998 35.0399C4.7998 35.4376 5.12216 35.7599 5.5198 35.7599H14.6398C15.0374 35.7599 15.3598 35.4376 15.3598 35.0399C15.3598 34.6423 15.0374 34.3199 14.6398 34.3199Z" fill="white"/>
<path d="M9.3598 36.72H5.5198C5.12216 36.72 4.7998 37.0423 4.7998 37.44C4.7998 37.8376 5.12216 38.16 5.5198 38.16H9.3598C9.75745 38.16 10.0798 37.8376 10.0798 37.44C10.0798 37.0423 9.75745 36.72 9.3598 36.72Z" fill="white"/>
<path d="M17.0398 39.12H5.5198C5.12216 39.12 4.7998 39.4424 4.7998 39.84C4.7998 40.2376 5.12216 40.56 5.5198 40.56H17.0398C17.4374 40.56 17.7598 40.2376 17.7598 39.84C17.7598 39.4424 17.4374 39.12 17.0398 39.12Z" fill="white"/>
<path d="M12.7198 41.52H5.5198C5.12216 41.52 4.7998 41.8424 4.7998 42.24C4.7998 42.6377 5.12216 42.96 5.5198 42.96H12.7198C13.1174 42.96 13.4398 42.6377 13.4398 42.24C13.4398 41.8424 13.1174 41.52 12.7198 41.52Z" fill="white"/>
<path d="M17.0398 43.92H5.5198C5.12216 43.92 4.7998 44.2424 4.7998 44.64C4.7998 45.0377 5.12216 45.36 5.5198 45.36H17.0398C17.4374 45.36 17.7598 45.0377 17.7598 44.64C17.7598 44.2424 17.4374 43.92 17.0398 43.92Z" fill="white"/>
<path d="M22.0996 12.02H92.6196V14.86H22.0996V12.02Z" fill="#1B2850" stroke="#1B2850"/>
<path d="M31.92 12.72H24.72C24.3224 12.72 24 13.0423 24 13.44C24 13.8376 24.3224 14.16 24.72 14.16H31.92C32.3176 14.16 32.64 13.8376 32.64 13.44C32.64 13.0423 32.3176 12.72 31.92 12.72Z" fill="white"/>
<path d="M41.5196 12.72H34.3196C33.922 12.72 33.5996 13.0423 33.5996 13.44C33.5996 13.8376 33.922 14.16 34.3196 14.16H41.5196C41.9173 14.16 42.2396 13.8376 42.2396 13.44C42.2396 13.0423 41.9173 12.72 41.5196 12.72Z" fill="white"/>
<path d="M46.8002 12.72H43.9202C43.5226 12.72 43.2002 13.0423 43.2002 13.44C43.2002 13.8376 43.5226 14.16 43.9202 14.16H46.8002C47.1978 14.16 47.5202 13.8376 47.5202 13.44C47.5202 13.0423 47.1978 12.72 46.8002 12.72Z" fill="white"/>
<path d="M58.3205 12.72H49.2005C48.8028 12.72 48.4805 13.0423 48.4805 13.44C48.4805 13.8376 48.8028 14.16 49.2005 14.16H58.3205C58.7181 14.16 59.0405 13.8376 59.0405 13.44C59.0405 13.0423 58.7181 12.72 58.3205 12.72Z" fill="white"/>
<path d="M65.52 12.72H60.72C60.3224 12.72 60 13.0423 60 13.44C60 13.8376 60.3224 14.16 60.72 14.16H65.52C65.9176 14.16 66.24 13.8376 66.24 13.44C66.24 13.0423 65.9176 12.72 65.52 12.72Z" fill="white"/>
<path d="M78.2403 14.4C78.7705 14.4 79.2003 13.9702 79.2003 13.44C79.2003 12.9098 78.7705 12.48 78.2403 12.48C77.7101 12.48 77.2803 12.9098 77.2803 13.44C77.2803 13.9702 77.7101 14.4 78.2403 14.4Z" fill="white"/>
<path d="M81.1202 14.4C81.6503 14.4 82.0802 13.9702 82.0802 13.44C82.0802 12.9098 81.6503 12.48 81.1202 12.48C80.59 12.48 80.1602 12.9098 80.1602 13.44C80.1602 13.9702 80.59 14.4 81.1202 14.4Z" fill="white"/>
<path d="M84 14.4C84.5302 14.4 84.96 13.9702 84.96 13.44C84.96 12.9098 84.5302 12.48 84 12.48C83.4698 12.48 83.04 12.9098 83.04 13.44C83.04 13.9702 83.4698 14.4 84 14.4Z" fill="white"/>
<path d="M86.8799 14.4C87.4101 14.4 87.8399 13.9702 87.8399 13.44C87.8399 12.9098 87.4101 12.48 86.8799 12.48C86.3497 12.48 85.9199 12.9098 85.9199 13.44C85.9199 13.9702 86.3497 14.4 86.8799 14.4Z" fill="white"/>
<path d="M89.7598 14.4C90.29 14.4 90.7198 13.9702 90.7198 13.44C90.7198 12.9098 90.29 12.48 89.7598 12.48C89.2296 12.48 88.7998 12.9098 88.7998 13.44C88.7998 13.9702 89.2296 14.4 89.7598 14.4Z" fill="white"/>
<path d="M22.0996 64.34H57.3596H92.6196V66.22H22.0996V64.34Z" fill="#1B2850" stroke="#1B2850"/>
<path d="M65.5203 65.76H46.8003C46.5352 65.76 46.3203 65.5451 46.3203 65.28C46.3203 65.0149 46.5352 64.8 46.8003 64.8H56.1603H65.5203C65.7854 64.8 66.0003 65.0149 66.0003 65.28C66.0003 65.5451 65.7854 65.76 65.5203 65.76Z" fill="white"/>
<rect x="22.0117" y="16.7787" width="71.1074" height="46.0533" rx="2" fill="white"/>
</g>
<rect x="0.5" y="0.5" width="95" height="71" rx="4.5" stroke="#1B2850"/>
<defs>
<clipPath id="clip0_190_1348">
<rect width="96" height="72" rx="5" fill="white"/>
</clipPath>
</defs>
</svg>
