<svg width="96" height="72" viewBox="0 0 96 72" fill="none" xmlns="http://www.w3.org/2000/svg">
<g clip-path="url(#clip0_190_451)">
<path d="M0 0H96V5.28H0V0Z" fill="white"/>
<mask id="mask0_190_451" style="mask-type:luminance" maskUnits="userSpaceOnUse" x="0" y="0" width="96" height="6">
<path d="M0 0H96V5.28H0V0Z" fill="white"/>
</mask>
<g mask="url(#mask0_190_451)">
<path d="M-0.000234291 9.79006e-06V-0.23999H-0.240234V9.79006e-06H-0.000234291ZM95.9998 9.79006e-06H96.2398V-0.23999H95.9998V9.79006e-06ZM-0.000234291 0.24001H95.9998V-0.23999H-0.000234291V0.24001ZM95.7598 9.79006e-06V5.28001H96.2398V9.79006e-06H95.7598ZM0.239766 5.28001V9.79006e-06H-0.240234V5.28001H0.239766Z" fill="white"/>
</g>
<path d="M3.36063 4.08001C3.75827 4.08001 4.08063 3.75766 4.08063 3.36001C4.08063 2.96237 3.75827 2.64001 3.36063 2.64001C2.96298 2.64001 2.64062 2.96237 2.64062 3.36001C2.64062 3.75766 2.96298 4.08001 3.36063 4.08001Z" fill="#FF0000"/>
<path d="M5.76004 4.08001C6.15768 4.08001 6.48004 3.75766 6.48004 3.36001C6.48004 2.96237 6.15768 2.64001 5.76004 2.64001C5.36239 2.64001 5.04004 2.96237 5.04004 3.36001C5.04004 3.75766 5.36239 4.08001 5.76004 4.08001Z" fill="#3EB780"/>
<path d="M8.16043 4.08001C8.55807 4.08001 8.88043 3.75766 8.88043 3.36001C8.88043 2.96237 8.55807 2.64001 8.16043 2.64001C7.76278 2.64001 7.44043 2.96237 7.44043 3.36001C7.44043 3.75766 7.76278 4.08001 8.16043 4.08001Z" fill="#FFCA18"/>
<path d="M0.120117 5.40002H95.8801V71.88H0.120117V5.40002Z" fill="#1B2850"/>
<path d="M0.120117 5.40002H95.8801V71.88H0.120117V5.40002Z" stroke="#F9FAFB" stroke-width="0.5"/>
<path d="M14.4004 10.08H3.36039C2.8302 10.08 2.40039 10.5098 2.40039 11.04C2.40039 11.5702 2.8302 12 3.36039 12H14.4004C14.9306 12 15.3604 11.5702 15.3604 11.04C15.3604 10.5098 14.9306 10.08 14.4004 10.08Z" fill="#1B2850"/>
<path d="M10.3204 17.76H3.12039C2.72275 17.76 2.40039 18.0824 2.40039 18.48C2.40039 18.8777 2.72275 19.2 3.12039 19.2H10.3204C10.718 19.2 11.0404 18.8777 11.0404 18.48C11.0404 18.0824 10.718 17.76 10.3204 17.76Z" fill="white"/>
<path d="M10.3204 20.16H3.12039C2.72275 20.16 2.40039 20.4824 2.40039 20.88C2.40039 21.2777 2.72275 21.6 3.12039 21.6H10.3204C10.718 21.6 11.0404 21.2777 11.0404 20.88C11.0404 20.4824 10.718 20.16 10.3204 20.16Z" fill="white"/>
<path d="M6.00039 22.56H3.12039C2.72275 22.56 2.40039 22.8824 2.40039 23.28C2.40039 23.6776 2.72275 24 3.12039 24H6.00039C6.39804 24 6.72039 23.6776 6.72039 23.28C6.72039 22.8824 6.39804 22.56 6.00039 22.56Z" fill="white"/>
<path d="M12.2404 24.96H3.12039C2.72275 24.96 2.40039 25.2824 2.40039 25.68C2.40039 26.0777 2.72275 26.4 3.12039 26.4H12.2404C12.638 26.4 12.9604 26.0777 12.9604 25.68C12.9604 25.2824 12.638 24.96 12.2404 24.96Z" fill="white"/>
<path d="M7.92039 27.36H3.12039C2.72275 27.36 2.40039 27.6823 2.40039 28.08C2.40039 28.4776 2.72275 28.8 3.12039 28.8H7.92039C8.31804 28.8 8.64039 28.4776 8.64039 28.08C8.64039 27.6823 8.31804 27.36 7.92039 27.36Z" fill="white"/>
<path d="M12.2404 29.76H3.12039C2.72275 29.76 2.40039 30.0824 2.40039 30.48C2.40039 30.8777 2.72275 31.2 3.12039 31.2H12.2404C12.638 31.2 12.9604 30.8777 12.9604 30.48C12.9604 30.0824 12.638 29.76 12.2404 29.76Z" fill="white"/>
<path d="M6.96039 32.16H3.12039C2.72275 32.16 2.40039 32.4823 2.40039 32.88C2.40039 33.2776 2.72275 33.6 3.12039 33.6H6.96039C7.35804 33.6 7.68039 33.2776 7.68039 32.88C7.68039 32.4823 7.35804 32.16 6.96039 32.16Z" fill="white"/>
<path d="M14.6404 34.56H3.12039C2.72275 34.56 2.40039 34.8824 2.40039 35.28C2.40039 35.6776 2.72275 36 3.12039 36H14.6404C15.038 36 15.3604 35.6776 15.3604 35.28C15.3604 34.8824 15.038 34.56 14.6404 34.56Z" fill="white"/>
<path d="M10.3204 36.96H3.12039C2.72275 36.96 2.40039 37.2824 2.40039 37.68C2.40039 38.0777 2.72275 38.4 3.12039 38.4H10.3204C10.718 38.4 11.0404 38.0777 11.0404 37.68C11.0404 37.2824 10.718 36.96 10.3204 36.96Z" fill="white"/>
<path d="M14.6404 39.36H3.12039C2.72275 39.36 2.40039 39.6823 2.40039 40.08C2.40039 40.4776 2.72275 40.8 3.12039 40.8H14.6404C15.038 40.8 15.3604 40.4776 15.3604 40.08C15.3604 39.6823 15.038 39.36 14.6404 39.36Z" fill="white"/>
<mask id="mask1_190_451" style="mask-type:luminance" maskUnits="userSpaceOnUse" x="17" y="5" width="79" height="5">
<path d="M17.7598 5.28003H95.9998V9.12003H17.7598V5.28003Z" fill="white"/>
</mask>
<g mask="url(#mask1_190_451)">
<path d="M17.7598 5.52004H95.9998V5.04004H17.7598V5.52004Z" fill="white"/>
</g>
<path d="M36.8802 6.34998H19.1202C18.59 6.34998 18.1602 6.77978 18.1602 7.30998C18.1602 7.84017 18.59 8.26998 19.1202 8.26998H36.8802C37.4104 8.26998 37.8402 7.84017 37.8402 7.30998C37.8402 6.77978 37.4104 6.34998 36.8802 6.34998Z" fill="white"/>
<path d="M86.8799 8.26998C87.4101 8.26998 87.8399 7.84017 87.8399 7.30998C87.8399 6.77978 87.4101 6.34998 86.8799 6.34998C86.3497 6.34998 85.9199 6.77978 85.9199 7.30998C85.9199 7.84017 86.3497 8.26998 86.8799 8.26998Z" fill="white"/>
<path d="M89.7598 8.26998C90.29 8.26998 90.7198 7.84017 90.7198 7.30998C90.7198 6.77978 90.29 6.34998 89.7598 6.34998C89.2296 6.34998 88.7998 6.77978 88.7998 7.30998C88.7998 7.84017 89.2296 8.26998 89.7598 8.26998Z" fill="white"/>
<path d="M92.6397 8.26998C93.1699 8.26998 93.5997 7.84017 93.5997 7.30998C93.5997 6.77978 93.1699 6.34998 92.6397 6.34998C92.1095 6.34998 91.6797 6.77978 91.6797 7.30998C91.6797 7.84017 92.1095 8.26998 92.6397 8.26998Z" fill="white"/>
<path d="M89.5996 9.12H21.7598C19.5506 9.12 17.7598 10.9109 17.7598 13.12V65.12C17.7598 67.3291 19.5506 69.12 21.7598 69.12H89.5996C91.8087 69.12 93.5996 67.3291 93.5996 65.12V13.12C93.5996 10.9109 91.8087 9.12 89.5996 9.12Z" fill="white"/>
<path d="M65.0398 71.04H46.3198C46.0547 71.04 45.8398 70.8251 45.8398 70.56C45.8398 70.2949 46.0547 70.08 46.3198 70.08H65.0398C65.3049 70.08 65.5198 70.2949 65.5198 70.56C65.5198 70.8251 65.3049 71.04 65.0398 71.04Z" fill="white"/>
</g>
<rect x="0.5" y="0.5" width="95" height="71" rx="4.5" stroke="#1B2850"/>
<defs>
<clipPath id="clip0_190_451">
<rect width="96" height="72" rx="5" fill="white"/>
</clipPath>
</defs>
</svg>
