<svg width="98" height="74" viewBox="0 0 98 74" fill="none" xmlns="http://www.w3.org/2000/svg">
<g clip-path="url(#clip0_896_280141)">
<path d="M1 3.4C1 2.07452 2.07452 1 3.4 1H94.6C95.9253 1 97 2.07452 97 3.4V6.28H1V3.4Z" fill="white"/>
<mask id="mask0_896_280141" style="mask-type:luminance" maskUnits="userSpaceOnUse" x="1" y="1" width="96" height="6">
<path d="M1 3.4C1 2.07452 2.07452 1 3.4 1H94.6C95.9253 1 97 2.07452 97 3.4V6.28H1V3.4Z" fill="white"/>
</mask>
<g mask="url(#mask0_896_280141)">
<path d="M0.759766 3.40001C0.759766 1.94198 1.94173 0.76001 3.39977 0.76001H94.5997C96.058 0.76001 97.2397 1.94198 97.2397 3.40001H96.7597C96.7597 2.20708 95.7925 1.24001 94.5997 1.24001H3.39977C2.20683 1.24001 1.23977 2.20708 1.23977 3.40001H0.759766ZM0.759766 6.28001V3.40001C0.759766 1.94198 1.94173 0.76001 3.39977 0.76001V1.24001C2.20683 1.24001 1.23977 2.20708 1.23977 3.40001V6.28001H0.759766ZM94.5997 0.76001C96.058 0.76001 97.2397 1.94198 97.2397 3.40001V6.28001H96.7597V3.40001C96.7597 2.20708 95.7925 1.24001 94.5997 1.24001V0.76001Z" fill="#E5E7EB"/>
</g>
<path d="M4.12039 4.36004C4.51804 4.36004 4.84039 4.03769 4.84039 3.64004C4.84039 3.2424 4.51804 2.92004 4.12039 2.92004C3.72275 2.92004 3.40039 3.2424 3.40039 3.64004C3.40039 4.03769 3.72275 4.36004 4.12039 4.36004Z" fill="#D00C0C"/>
<path d="M6.5198 4.36004C6.91745 4.36004 7.2398 4.03769 7.2398 3.64004C7.2398 3.2424 6.91745 2.92004 6.5198 2.92004C6.12216 2.92004 5.7998 3.2424 5.7998 3.64004C5.7998 4.03769 6.12216 4.36004 6.5198 4.36004Z" fill="#03C95A"/>
<path d="M8.9202 4.36004C9.31784 4.36004 9.64019 4.03769 9.64019 3.64004C9.64019 3.2424 9.31784 2.92004 8.9202 2.92004C8.52255 2.92004 8.2002 3.2424 8.2002 3.64004C8.2002 4.03769 8.52255 4.36004 8.9202 4.36004Z" fill="#FFC107"/>
<path d="M1 6H98V71.6679C98 72.9557 96.9658 74 95.6905 74H3.30952C2.03401 74 1 72.9557 1 71.6679V6Z" fill="#1B2850"/>
<mask id="mask1_896_280141" style="mask-type:luminance" maskUnits="userSpaceOnUse" x="1" y="6" width="96" height="5">
<path d="M1 6.28003H97V10.12H1V6.28003Z" fill="white"/>
</mask>
<g mask="url(#mask1_896_280141)">
<path d="M97 9.88H1V10.36H97V9.88Z" fill="#E5E7EB"/>
</g>
<path d="M9.64039 7.23999H4.36039C3.8302 7.23999 3.40039 7.6698 3.40039 8.19999C3.40039 8.73018 3.8302 9.15999 4.36039 9.15999H9.64039C10.1706 9.15999 10.6004 8.73018 10.6004 8.19999C10.6004 7.6698 10.1706 7.23999 9.64039 7.23999Z" fill="#FE9F43"/>
<path d="M24.2803 7.23999H17.0804C16.6827 7.23999 16.3604 7.56235 16.3604 7.95999C16.3604 8.35764 16.6827 8.67999 17.0804 8.67999H24.2803C24.678 8.67999 25.0003 8.35764 25.0003 7.95999C25.0003 7.56235 24.678 7.23999 24.2803 7.23999Z" fill="white"/>
<path d="M33.88 7.23999H26.68C26.2823 7.23999 25.96 7.56235 25.96 7.95999C25.96 8.35764 26.2823 8.67999 26.68 8.67999H33.88C34.2776 8.67999 34.6 8.35764 34.6 7.95999C34.6 7.56235 34.2776 7.23999 33.88 7.23999Z" fill="white"/>
<path d="M39.1596 7.23999H36.2796C35.8819 7.23999 35.5596 7.56235 35.5596 7.95999C35.5596 8.35764 35.8819 8.67999 36.2796 8.67999H39.1596C39.5572 8.67999 39.8796 8.35764 39.8796 7.95999C39.8796 7.56235 39.5572 7.23999 39.1596 7.23999Z" fill="white"/>
<path d="M50.6798 7.23999H41.5598C41.1622 7.23999 40.8398 7.56235 40.8398 7.95999C40.8398 8.35764 41.1622 8.67999 41.5598 8.67999H50.6798C51.0775 8.67999 51.3998 8.35764 51.3998 7.95999C51.3998 7.56235 51.0775 7.23999 50.6798 7.23999Z" fill="white"/>
<path d="M57.8804 7.23999H53.0804C52.6827 7.23999 52.3604 7.56235 52.3604 7.95999C52.3604 8.35764 52.6827 8.67999 53.0804 8.67999H57.8804C58.278 8.67999 58.6004 8.35764 58.6004 7.95999C58.6004 7.56235 58.278 7.23999 57.8804 7.23999Z" fill="white"/>
<path d="M82.1202 9.15999C82.6503 9.15999 83.0802 8.73018 83.0802 8.19999C83.0802 7.6698 82.6503 7.23999 82.1202 7.23999C81.59 7.23999 81.1602 7.6698 81.1602 8.19999C81.1602 8.73018 81.59 9.15999 82.1202 9.15999Z" fill="white"/>
<path d="M85 9.15999C85.5302 9.15999 85.96 8.73018 85.96 8.19999C85.96 7.6698 85.5302 7.23999 85 7.23999C84.4698 7.23999 84.04 7.6698 84.04 8.19999C84.04 8.73018 84.4698 9.15999 85 9.15999Z" fill="white"/>
<path d="M87.8799 9.15999C88.4101 9.15999 88.8399 8.73018 88.8399 8.19999C88.8399 7.6698 88.4101 7.23999 87.8799 7.23999C87.3497 7.23999 86.9199 7.6698 86.9199 8.19999C86.9199 8.73018 87.3497 9.15999 87.8799 9.15999Z" fill="white"/>
<path d="M90.7598 9.15999C91.29 9.15999 91.7198 8.73018 91.7198 8.19999C91.7198 7.6698 91.29 7.23999 90.7598 7.23999C90.2296 7.23999 89.7998 7.6698 89.7998 8.19999C89.7998 8.73018 90.2296 9.15999 90.7598 9.15999Z" fill="white"/>
<path d="M93.6397 9.15999C94.1699 9.15999 94.5997 8.73018 94.5997 8.19999C94.5997 7.6698 94.1699 7.23999 93.6397 7.23999C93.1095 7.23999 92.6797 7.6698 92.6797 8.19999C92.6797 8.73018 93.1095 9.15999 93.6397 9.15999Z" fill="white"/>
<path d="M91 12H27C24.7909 12 23 13.7909 23 16V66C23 68.2091 24.7909 70 27 70H91C93.2091 70 95 68.2091 95 66V16C95 13.7909 93.2091 12 91 12Z" fill="white"/>
<path d="M13.7198 16.84H6.5198C6.12216 16.84 5.7998 17.1623 5.7998 17.56C5.7998 17.9576 6.12216 18.28 6.5198 18.28H13.7198C14.1174 18.28 14.4398 17.9576 14.4398 17.56C14.4398 17.1623 14.1174 16.84 13.7198 16.84Z" fill="white"/>
<path d="M13.7198 19.24H6.5198C6.12216 19.24 5.7998 19.5623 5.7998 19.96C5.7998 20.3576 6.12216 20.68 6.5198 20.68H13.7198C14.1174 20.68 14.4398 20.3576 14.4398 19.96C14.4398 19.5623 14.1174 19.24 13.7198 19.24Z" fill="white"/>
<path d="M9.3998 21.64H6.5198C6.12216 21.64 5.7998 21.9624 5.7998 22.36C5.7998 22.7577 6.12216 23.08 6.5198 23.08H9.3998C9.79745 23.08 10.1198 22.7577 10.1198 22.36C10.1198 21.9624 9.79745 21.64 9.3998 21.64Z" fill="white"/>
<path d="M15.6398 24.04H6.5198C6.12216 24.04 5.7998 24.3624 5.7998 24.76C5.7998 25.1577 6.12216 25.48 6.5198 25.48H15.6398C16.0374 25.48 16.3598 25.1577 16.3598 24.76C16.3598 24.3624 16.0374 24.04 15.6398 24.04Z" fill="white"/>
<path d="M11.3198 26.4399H6.5198C6.12216 26.4399 5.7998 26.7623 5.7998 27.1599C5.7998 27.5576 6.12216 27.8799 6.5198 27.8799H11.3198C11.7174 27.8799 12.0398 27.5576 12.0398 27.1599C12.0398 26.7623 11.7174 26.4399 11.3198 26.4399Z" fill="white"/>
<path d="M15.6398 28.84H6.5198C6.12216 28.84 5.7998 29.1623 5.7998 29.56C5.7998 29.9576 6.12216 30.28 6.5198 30.28H15.6398C16.0374 30.28 16.3598 29.9576 16.3598 29.56C16.3598 29.1623 16.0374 28.84 15.6398 28.84Z" fill="white"/>
<path d="M10.3598 31.24H6.5198C6.12216 31.24 5.7998 31.5623 5.7998 31.96C5.7998 32.3576 6.12216 32.68 6.5198 32.68H10.3598C10.7574 32.68 11.0798 32.3576 11.0798 31.96C11.0798 31.5623 10.7574 31.24 10.3598 31.24Z" fill="white"/>
<path d="M18.0398 33.64H6.5198C6.12216 33.64 5.7998 33.9624 5.7998 34.36C5.7998 34.7577 6.12216 35.08 6.5198 35.08H18.0398C18.4374 35.08 18.7598 34.7577 18.7598 34.36C18.7598 33.9624 18.4374 33.64 18.0398 33.64Z" fill="white"/>
<path d="M13.7198 36.04H6.5198C6.12216 36.04 5.7998 36.3624 5.7998 36.76C5.7998 37.1577 6.12216 37.48 6.5198 37.48H13.7198C14.1174 37.48 14.4398 37.1577 14.4398 36.76C14.4398 36.3624 14.1174 36.04 13.7198 36.04Z" fill="white"/>
<path d="M18.0398 38.4399H6.5198C6.12216 38.4399 5.7998 38.7623 5.7998 39.1599C5.7998 39.5576 6.12216 39.8799 6.5198 39.8799H18.0398C18.4374 39.8799 18.7598 39.5576 18.7598 39.1599C18.7598 38.7623 18.4374 38.4399 18.0398 38.4399Z" fill="white"/>
<path d="M5.7998 64.392H18.7598" stroke="white" stroke-width="0.2"/>
<path d="M10.3399 66.36C10.3399 66.6141 10.134 66.82 9.87992 66.82C9.62587 66.82 9.41992 66.6141 9.41992 66.36C9.41992 66.106 9.62587 65.9 9.87992 65.9C10.134 65.9 10.3399 66.106 10.3399 66.36Z" fill="white" stroke="white"/>
<path d="M12.7403 66.36C12.7403 66.6141 12.5344 66.82 12.2803 66.82C12.0263 66.82 11.8203 66.6141 11.8203 66.36C11.8203 66.106 12.0263 65.9 12.2803 65.9C12.5344 65.9 12.7403 66.106 12.7403 66.36Z" fill="white" stroke="white"/>
<path d="M15.1397 66.36C15.1397 66.6141 14.9338 66.82 14.6797 66.82C14.4257 66.82 14.2197 66.6141 14.2197 66.36C14.2197 66.106 14.4257 65.9 14.6797 65.9C14.9338 65.9 15.1397 66.106 15.1397 66.36Z" fill="white" stroke="white"/>
<path d="M58.16 72.04H39.44C39.1749 72.04 38.96 71.8251 38.96 71.56C38.96 71.2949 39.1749 71.08 39.44 71.08H58.16C58.4251 71.08 58.64 71.2949 58.64 71.56C58.64 71.8251 58.4251 72.04 58.16 72.04Z" fill="#EDF2F4"/>
</g>
<rect x="0.5" y="0.5" width="97" height="73" rx="5.5" stroke="#1B2850"/>
<defs>
<clipPath id="clip0_896_280141">
<rect x="1" y="1" width="96" height="72" rx="5" fill="white"/>
</clipPath>
</defs>
</svg>
