<svg width="98" height="74" viewBox="0 0 98 74" fill="none" xmlns="http://www.w3.org/2000/svg">
<g clip-path="url(#clip0_190_1275)">
<path d="M1 1H97V6.28H1V1Z" fill="white"/>
<mask id="mask0_190_1275" style="mask-type:luminance" maskUnits="userSpaceOnUse" x="1" y="1" width="96" height="6">
<path d="M1 1H97V6.28H1V1Z" fill="white"/>
</mask>
<g mask="url(#mask0_190_1275)">
<path d="M0.999766 1.00001V0.76001H0.759766V1.00001H0.999766ZM96.9998 1.00001H97.2398V0.76001H96.9998V1.00001ZM0.999766 1.24001H96.9998V0.76001H0.999766V1.24001ZM96.7598 1.00001V6.28001H97.2398V1.00001H96.7598ZM1.23977 6.28001V1.00001H0.759766V6.28001H1.23977Z" fill="#E6EAED"/>
</g>
<path d="M4.12039 4.36004C4.51804 4.36004 4.84039 4.03769 4.84039 3.64004C4.84039 3.2424 4.51804 2.92004 4.12039 2.92004C3.72275 2.92004 3.40039 3.2424 3.40039 3.64004C3.40039 4.03769 3.72275 4.36004 4.12039 4.36004Z" fill="#FF0000"/>
<path d="M6.5198 4.36004C6.91745 4.36004 7.2398 4.03769 7.2398 3.64004C7.2398 3.2424 6.91745 2.92004 6.5198 2.92004C6.12216 2.92004 5.7998 3.2424 5.7998 3.64004C5.7998 4.03769 6.12216 4.36004 6.5198 4.36004Z" fill="#3EB780"/>
<path d="M8.9202 4.36004C9.31784 4.36004 9.6402 4.03769 9.6402 3.64004C9.6402 3.2424 9.31784 2.92004 8.9202 2.92004C8.52255 2.92004 8.2002 3.2424 8.2002 3.64004C8.2002 4.03769 8.52255 4.36004 8.9202 4.36004Z" fill="#FFCA18"/>
<path d="M1.12012 6.40002H96.8801V74.1632H1.12012V6.40002Z" fill="#1B2850"/>
<path d="M1.12012 6.40002H96.8801V72.88H1.12012V6.40002Z" stroke="#1B2850" stroke-width="0.5"/>
<path d="M9.64039 7.23999H4.36039C3.8302 7.23999 3.40039 7.6698 3.40039 8.19999C3.40039 8.73018 3.8302 9.15999 4.36039 9.15999H9.64039C10.1706 9.15999 10.6004 8.73018 10.6004 8.19999C10.6004 7.6698 10.1706 7.23999 9.64039 7.23999Z" fill="#1B2850"/>
<path d="M24.2804 7.47998H17.0804C16.6827 7.47998 16.3604 7.80234 16.3604 8.19998C16.3604 8.59763 16.6827 8.91998 17.0804 8.91998H24.2804C24.678 8.91998 25.0004 8.59763 25.0004 8.19998C25.0004 7.80234 24.678 7.47998 24.2804 7.47998Z" fill="white"/>
<path d="M33.88 7.47998H26.68C26.2823 7.47998 25.96 7.80234 25.96 8.19998C25.96 8.59763 26.2823 8.91998 26.68 8.91998H33.88C34.2776 8.91998 34.6 8.59763 34.6 8.19998C34.6 7.80234 34.2776 7.47998 33.88 7.47998Z" fill="white"/>
<path d="M39.1596 7.47998H36.2796C35.8819 7.47998 35.5596 7.80234 35.5596 8.19998C35.5596 8.59763 35.8819 8.91998 36.2796 8.91998H39.1596C39.5572 8.91998 39.8796 8.59763 39.8796 8.19998C39.8796 7.80234 39.5572 7.47998 39.1596 7.47998Z" fill="white"/>
<path d="M50.6798 7.47998H41.5598C41.1622 7.47998 40.8398 7.80234 40.8398 8.19998C40.8398 8.59763 41.1622 8.91998 41.5598 8.91998H50.6798C51.0775 8.91998 51.3998 8.59763 51.3998 8.19998C51.3998 7.80234 51.0775 7.47998 50.6798 7.47998Z" fill="white"/>
<path d="M57.8804 7.47998H53.0804C52.6827 7.47998 52.3604 7.80234 52.3604 8.19998C52.3604 8.59763 52.6827 8.91998 53.0804 8.91998H57.8804C58.278 8.91998 58.6004 8.59763 58.6004 8.19998C58.6004 7.80234 58.278 7.47998 57.8804 7.47998Z" fill="white"/>
<path d="M82.1202 9.15999C82.6503 9.15999 83.0802 8.73018 83.0802 8.19999C83.0802 7.6698 82.6503 7.23999 82.1202 7.23999C81.59 7.23999 81.1602 7.6698 81.1602 8.19999C81.1602 8.73018 81.59 9.15999 82.1202 9.15999Z" fill="white"/>
<path d="M85 9.15999C85.5302 9.15999 85.96 8.73018 85.96 8.19999C85.96 7.6698 85.5302 7.23999 85 7.23999C84.4698 7.23999 84.04 7.6698 84.04 8.19999C84.04 8.73018 84.4698 9.15999 85 9.15999Z" fill="white"/>
<path d="M87.8799 9.15999C88.4101 9.15999 88.8399 8.73018 88.8399 8.19999C88.8399 7.6698 88.4101 7.23999 87.8799 7.23999C87.3497 7.23999 86.9199 7.6698 86.9199 8.19999C86.9199 8.73018 87.3497 9.15999 87.8799 9.15999Z" fill="white"/>
<path d="M90.7598 9.15999C91.29 9.15999 91.7198 8.73018 91.7198 8.19999C91.7198 7.6698 91.29 7.23999 90.7598 7.23999C90.2296 7.23999 89.7998 7.6698 89.7998 8.19999C89.7998 8.73018 90.2296 9.15999 90.7598 9.15999Z" fill="white"/>
<path d="M93.6397 9.15999C94.1699 9.15999 94.5997 8.73018 94.5997 8.19999C94.5997 7.6698 94.1699 7.23999 93.6397 7.23999C93.1095 7.23999 92.6797 7.6698 92.6797 8.19999C92.6797 8.73018 93.1095 9.15999 93.6397 9.15999Z" fill="white"/>
<path d="M92.5996 10.12H5.40039C4.29582 10.12 3.40039 11.0154 3.40039 12.12V68.12C3.40039 69.2246 4.29582 70.12 5.40039 70.12H92.5996C93.7042 70.12 94.5996 69.2246 94.5996 68.12V12.12C94.5996 11.0154 93.7042 10.12 92.5996 10.12Z" fill="white"/>
<path d="M61.16 72.04H42.44C42.1749 72.04 41.96 71.8251 41.96 71.56C41.96 71.2949 42.1749 71.08 42.44 71.08H61.16C61.4251 71.08 61.64 71.2949 61.64 71.56C61.64 71.8251 61.4251 72.04 61.16 72.04Z" fill="white"/>
</g>
<rect x="0.5" y="0.5" width="97" height="73" rx="5.5" stroke="#1B2850"/>
<defs>
<clipPath id="clip0_190_1275">
<rect x="1" y="1" width="96" height="72" rx="5" fill="white"/>
</clipPath>
</defs>
</svg>
