<svg width="96" height="72" viewBox="0 0 96 72" fill="none" xmlns="http://www.w3.org/2000/svg">
<g clip-path="url(#clip0_190_492)">
<rect width="96" height="72" rx="5" fill="#FE9F43"/>
<path d="M0 0H95.76V5.28H0V0Z" fill="white"/>
<mask id="mask0_190_492" style="mask-type:luminance" maskUnits="userSpaceOnUse" x="0" y="0" width="96" height="6">
<path d="M0 0H95.76V5.28H0V0Z" fill="white"/>
</mask>
<g mask="url(#mask0_190_492)">
<path d="M-0.000234321 9.79006e-06V-0.23999H-0.240234V9.79006e-06H-0.000234321ZM95.7598 9.79006e-06H95.9998V-0.23999H95.7598V9.79006e-06ZM-0.000234321 0.24001H95.7598V-0.23999H-0.000234321V0.24001ZM95.5198 9.79006e-06V5.28001H95.9998V9.79006e-06H95.5198ZM0.239766 5.28001V9.79006e-06H-0.240234V5.28001H0.239766Z" fill="white"/>
</g>
<path d="M4.08035 4.08001C4.478 4.08001 4.80035 3.75766 4.80035 3.36001C4.80035 2.96237 4.478 2.64001 4.08035 2.64001C3.68271 2.64001 3.36035 2.96237 3.36035 3.36001C3.36035 3.75766 3.68271 4.08001 4.08035 4.08001Z" fill="#FF0000"/>
<path d="M6.47977 4.08001C6.87741 4.08001 7.19977 3.75766 7.19977 3.36001C7.19977 2.96237 6.87741 2.64001 6.47977 2.64001C6.08212 2.64001 5.75977 2.96237 5.75977 3.36001C5.75977 3.75766 6.08212 4.08001 6.47977 4.08001Z" fill="#3EB780"/>
<path d="M8.88016 4.08001C9.2778 4.08001 9.60016 3.75766 9.60016 3.36001C9.60016 2.96237 9.2778 2.64001 8.88016 2.64001C8.48251 2.64001 8.16016 2.96237 8.16016 3.36001C8.16016 3.75766 8.48251 4.08001 8.88016 4.08001Z" fill="#FFCA18"/>
<path d="M0.120117 5.40002H95.6401V71.88H0.120117V5.40002Z" fill="#1B2850"/>
<path d="M90.3604 9.12H8.75977C7.10291 9.12 5.75977 10.4631 5.75977 12.12V66.12C5.75977 67.7768 7.10291 69.12 8.75976 69.12H90.3604C92.0172 69.12 93.3604 67.7768 93.3604 66.12V12.12C93.3604 10.4631 92.0172 9.12 90.3604 9.12Z" fill="white"/>
<path d="M0.120117 5.40002H95.6401V71.88H0.120117V5.40002Z" stroke="white" stroke-width="0.5"/>
<path d="M0.120117 6.40002H5.64012V72.88H0.120117V6.40002Z" fill="#1B2850"/>
<path d="M3.36043 6.23999H2.40043C1.87024 6.23999 1.44043 6.6698 1.44043 7.19999C1.44043 7.73018 1.87024 8.15999 2.40043 8.15999H3.36043C3.89062 8.15999 4.32043 7.73018 4.32043 7.19999C4.32043 6.6698 3.89062 6.23999 3.36043 6.23999Z" fill="#1B2850"/>
<path d="M3.36039 11.04C3.36039 10.7749 3.14549 10.56 2.88039 10.56C2.61529 10.56 2.40039 10.7749 2.40039 11.04V12.48C2.40039 12.7451 2.61529 12.96 2.88039 12.96C3.14549 12.96 3.36039 12.7451 3.36039 12.48V11.04Z" fill="white"/>
<path d="M3.36039 14.4C3.36039 14.1349 3.14549 13.92 2.88039 13.92C2.61529 13.92 2.40039 14.1349 2.40039 14.4V15.36C2.40039 15.6251 2.61529 15.84 2.88039 15.84C3.14549 15.84 3.36039 15.6251 3.36039 15.36V14.4Z" fill="white"/>
<path d="M3.36039 17.28C3.36039 17.0149 3.14549 16.8 2.88039 16.8C2.61529 16.8 2.40039 17.0149 2.40039 17.28V18.72C2.40039 18.9851 2.61529 19.2 2.88039 19.2C3.14549 19.2 3.36039 18.9851 3.36039 18.72V17.28Z" fill="white"/>
<path d="M3.36039 20.64C3.36039 20.3749 3.14549 20.16 2.88039 20.16C2.61529 20.16 2.40039 20.3749 2.40039 20.64V21.6C2.40039 21.8651 2.61529 22.08 2.88039 22.08C3.14549 22.08 3.36039 21.8651 3.36039 21.6V20.64Z" fill="white"/>
<path d="M3.36039 23.52C3.36039 23.2549 3.14549 23.04 2.88039 23.04C2.61529 23.04 2.40039 23.2549 2.40039 23.52V24.96C2.40039 25.2251 2.61529 25.44 2.88039 25.44C3.14549 25.44 3.36039 25.2251 3.36039 24.96V23.52Z" fill="white"/>
<path d="M3.36039 26.88C3.36039 26.6149 3.14549 26.4 2.88039 26.4C2.61529 26.4 2.40039 26.6149 2.40039 26.88V28.32C2.40039 28.5851 2.61529 28.8 2.88039 28.8C3.14549 28.8 3.36039 28.5851 3.36039 28.32V26.88Z" fill="white"/>
<path d="M3.36039 30.24C3.36039 29.9749 3.14549 29.76 2.88039 29.76C2.61529 29.76 2.40039 29.9749 2.40039 30.24V31.2C2.40039 31.4651 2.61529 31.68 2.88039 31.68C3.14549 31.68 3.36039 31.4651 3.36039 31.2V30.24Z" fill="white"/>
<path d="M3.36039 33.12C3.36039 32.8549 3.14549 32.64 2.88039 32.64C2.61529 32.64 2.40039 32.8549 2.40039 33.12V34.08C2.40039 34.3451 2.61529 34.56 2.88039 34.56C3.14549 34.56 3.36039 34.3451 3.36039 34.08V33.12Z" fill="white"/>
<path d="M3.36039 36C3.36039 35.7349 3.14549 35.52 2.88039 35.52C2.61529 35.52 2.40039 35.7349 2.40039 36V37.44C2.40039 37.7051 2.61529 37.92 2.88039 37.92C3.14549 37.92 3.36039 37.7051 3.36039 37.44V36Z" fill="white"/>
<path d="M24.8802 6.23999H7.12016C6.58996 6.23999 6.16016 6.6698 6.16016 7.19999C6.16016 7.73018 6.58996 8.15999 7.12016 8.15999H24.8802C25.4104 8.15999 25.8402 7.73018 25.8402 7.19999C25.8402 6.6698 25.4104 6.23999 24.8802 6.23999Z" fill="white"/>
<path d="M86.6397 8.15999C87.1699 8.15999 87.5997 7.73018 87.5997 7.19999C87.5997 6.6698 87.1699 6.23999 86.6397 6.23999C86.1095 6.23999 85.6797 6.6698 85.6797 7.19999C85.6797 7.73018 86.1095 8.15999 86.6397 8.15999Z" fill="white"/>
<path d="M89.5196 8.15999C90.0498 8.15999 90.4796 7.73018 90.4796 7.19999C90.4796 6.6698 90.0498 6.23999 89.5196 6.23999C88.9894 6.23999 88.5596 6.6698 88.5596 7.19999C88.5596 7.73018 88.9894 8.15999 89.5196 8.15999Z" fill="white"/>
<path d="M92.4004 8.15999C92.9306 8.15999 93.3604 7.73018 93.3604 7.19999C93.3604 6.6698 92.9306 6.23999 92.4004 6.23999C91.8702 6.23999 91.4404 6.6698 91.4404 7.19999C91.4404 7.73018 91.8702 8.15999 92.4004 8.15999Z" fill="white"/>
<path d="M58.9197 71.04H40.1997C39.9346 71.04 39.7197 70.8251 39.7197 70.56C39.7197 70.2949 39.9346 70.08 40.1997 70.08H58.9197C59.1848 70.08 59.3997 70.2949 59.3997 70.56C59.3997 70.8251 59.1848 71.04 58.9197 71.04Z" fill="white"/>
</g>
<rect x="0.5" y="0.5" width="95" height="71" rx="4.5" stroke="#1B2850"/>
<defs>
<clipPath id="clip0_190_492">
<rect width="96" height="72" rx="5" fill="white"/>
</clipPath>
</defs>
</svg>
