<svg width="97" height="72" viewBox="0 0 97 72" fill="none" xmlns="http://www.w3.org/2000/svg">
<g clip-path="url(#clip0_797_3868)">
<path d="M0.818359 0H96.1826V5.24503H0.818359V0Z" fill="white"/>
<mask id="mask0_797_3868" style="mask-type:luminance" maskUnits="userSpaceOnUse" x="0" y="0" width="97" height="6">
<path d="M0.818359 0H96.1826V5.24503H0.818359V0Z" fill="white"/>
</mask>
<g mask="url(#mask0_797_3868)">
<path d="M0.818489 7.27177e-06V-0.238403H0.580078V7.27177e-06H0.818489ZM96.1827 7.27177e-06H96.4211V-0.238403H96.1827V7.27177e-06ZM0.818489 0.238418H96.1827V-0.238403H0.818489V0.238418ZM95.9443 7.27177e-06V5.24504H96.4211V7.27177e-06H95.9443ZM1.0569 5.24504V7.27177e-06H0.580078V5.24504H1.0569Z" fill="#E6EAED"/>
</g>
<path d="M3.91738 3.33769C4.31239 3.33769 4.63261 3.01747 4.63261 2.62246C4.63261 2.22745 4.31239 1.90723 3.91738 1.90723C3.52237 1.90723 3.20215 2.22745 3.20215 2.62246C3.20215 3.01747 3.52237 3.33769 3.91738 3.33769Z" fill="#FF0000"/>
<path d="M6.30215 3.33769C6.69716 3.33769 7.01738 3.01747 7.01738 2.62246C7.01738 2.22745 6.69716 1.90723 6.30215 1.90723C5.90713 1.90723 5.58691 2.22745 5.58691 2.62246C5.58691 3.01747 5.90713 3.33769 6.30215 3.33769Z" fill="#3EB780"/>
<path d="M8.68593 3.33769C9.08095 3.33769 9.40117 3.01747 9.40117 2.62246C9.40117 2.22745 9.08095 1.90723 8.68593 1.90723C8.29092 1.90723 7.9707 2.22745 7.9707 2.62246C7.9707 3.01747 8.29092 3.33769 8.68593 3.33769Z" fill="#FFCA18"/>
<path d="M0.9375 5.36426H96.0633V71.404H0.9375V5.36426Z" fill="#1B2850"/>
<path d="M1.05664 5.4834H95.9441V9.29797H1.05664V5.4834Z" fill="#1B2850"/>
<mask id="mask1_797_3868" style="mask-type:luminance" maskUnits="userSpaceOnUse" x="1" y="5" width="95" height="6">
<path d="M1.77539 5.4834H95.2334V10.9668H1.77539V5.4834Z" fill="white"/>
</mask>
<g mask="url(#mask1_797_3868)">
<path d="M95.2334 10.6241H1.77539V11.3096H95.2334V10.6241Z" fill="#E6EAED"/>
</g>
<path d="M9.65539 7H4.39658C3.86851 7 3.44043 7.42696 3.44043 7.95364C3.44043 8.48032 3.86851 8.90728 4.39658 8.90728H9.65539C10.1835 8.90728 10.6115 8.48032 10.6115 7.95364C10.6115 7.42696 10.1835 7 9.65539 7Z" fill="#FE9F43"/>
<path d="M24.2378 7.2384H17.0667C16.6707 7.2384 16.3496 7.55862 16.3496 7.95364C16.3496 8.34865 16.6707 8.66887 17.0667 8.66887H24.2378C24.6339 8.66887 24.9549 8.34865 24.9549 7.95364C24.9549 7.55862 24.6339 7.2384 24.2378 7.2384Z" fill="white"/>
<path d="M33.7984 7.2384H26.6273C26.2312 7.2384 25.9102 7.55862 25.9102 7.95364C25.9102 8.34865 26.2312 8.66887 26.6273 8.66887H33.7984C34.1944 8.66887 34.5155 8.34865 34.5155 7.95364C34.5155 7.55862 34.1944 7.2384 33.7984 7.2384Z" fill="white"/>
<path d="M39.0572 7.2384H36.1888C35.7927 7.2384 35.4717 7.55862 35.4717 7.95364C35.4717 8.34865 35.7927 8.66887 36.1888 8.66887H39.0572C39.4533 8.66887 39.7743 8.34865 39.7743 7.95364C39.7743 7.55862 39.4533 7.2384 39.0572 7.2384Z" fill="white"/>
<path d="M50.531 7.2384H41.4476C41.0515 7.2384 40.7305 7.55862 40.7305 7.95364C40.7305 8.34865 41.0515 8.66887 41.4476 8.66887H50.531C50.927 8.66887 51.2481 8.34865 51.2481 7.95364C51.2481 7.55862 50.927 7.2384 50.531 7.2384Z" fill="white"/>
<path d="M57.702 7.2384H52.9212C52.5252 7.2384 52.2041 7.55862 52.2041 7.95364C52.2041 8.34865 52.5252 8.66887 52.9212 8.66887H57.702C58.098 8.66887 58.4191 8.34865 58.4191 7.95364C58.4191 7.55862 58.098 7.2384 57.702 7.2384Z" fill="white"/>
<path d="M81.8448 8.90728C82.3729 8.90728 82.801 8.48032 82.801 7.95364C82.801 7.42696 82.3729 7 81.8448 7C81.3168 7 80.8887 7.42696 80.8887 7.95364C80.8887 8.48032 81.3168 8.90728 81.8448 8.90728Z" fill="white"/>
<path d="M84.714 8.90728C85.242 8.90728 85.6701 8.48032 85.6701 7.95364C85.6701 7.42696 85.242 7 84.714 7C84.1859 7 83.7578 7.42696 83.7578 7.95364C83.7578 8.48032 84.1859 8.90728 84.714 8.90728Z" fill="white"/>
<path d="M87.5821 8.90728C88.1102 8.90728 88.5383 8.48032 88.5383 7.95364C88.5383 7.42696 88.1102 7 87.5821 7C87.0541 7 86.626 7.42696 86.626 7.95364C86.626 8.48032 87.0541 8.90728 87.5821 8.90728Z" fill="white"/>
<path d="M90.4503 8.90728C90.9784 8.90728 91.4064 8.48032 91.4064 7.95364C91.4064 7.42696 90.9784 7 90.4503 7C89.9222 7 89.4941 7.42696 89.4941 7.95364C89.4941 8.48032 89.9222 8.90728 90.4503 8.90728Z" fill="white"/>
<path d="M93.3194 8.90728C93.8475 8.90728 94.2756 8.48032 94.2756 7.95364C94.2756 7.42696 93.8475 7 93.3194 7C92.7914 7 92.3633 7.42696 92.3633 7.95364C92.3633 8.48032 92.7914 8.90728 93.3194 8.90728Z" fill="white"/>
<path d="M95.9441 9.05957H1.05664V68.6622H95.9441V9.05957Z" fill="#1B2850"/>
<path d="M57.7984 70.2446H39.2024C38.9391 70.2446 38.7256 70.0311 38.7256 69.7678C38.7256 69.5045 38.9391 69.291 39.2024 69.291H57.7984C58.0618 69.291 58.2753 69.5045 58.2753 69.7678C58.2753 70.0311 58.0618 70.2446 57.7984 70.2446Z" fill="white"/>
<path d="M95.9441 9.05957H1.05664V20.9801H95.9441V9.05957Z" fill="#1B2850"/>
<path d="M91.8909 10.9668H5.58625C4.26955 10.9668 3.20215 12.1263 3.20215 13.5566V64.8341C3.20215 66.2643 4.26955 67.4238 5.58625 67.4238H91.8909C93.2076 67.4238 94.275 66.2643 94.275 64.8341V13.5566C94.275 12.1263 93.2076 10.9668 91.8909 10.9668Z" fill="white"/>
</g>
<rect x="1.31836" y="0.5" width="94.3642" height="71" rx="2.5" stroke="#1B2850"/>
<defs>
<clipPath id="clip0_797_3868">
<rect x="0.818359" width="95.3642" height="72" rx="3" fill="white"/>
</clipPath>
</defs>
</svg>
