<svg width="96" height="72" viewBox="0 0 96 72" fill="none" xmlns="http://www.w3.org/2000/svg">
<g clip-path="url(#clip0_797_3975)">
<path d="M0 0H96V5.28H0V0Z" fill="#1B2850"/>
<mask id="mask0_797_3975" style="mask-type:luminance" maskUnits="userSpaceOnUse" x="0" y="0" width="96" height="6">
<path d="M0 0H96V5.28H0V0Z" fill="white"/>
</mask>
<g mask="url(#mask0_797_3975)">
<path d="M-0.000234365 9.76026e-06V-0.23999H-0.240234V9.76026e-06H-0.000234365ZM95.9998 9.76026e-06H96.2398V-0.23999H95.9998V9.76026e-06ZM-0.000234365 0.24001H95.9998V-0.23999H-0.000234365V0.24001ZM95.7598 9.76026e-06V5.28001H96.2398V9.76026e-06H95.7598ZM0.239766 5.28001V9.76026e-06H-0.240234V5.28001H0.239766Z" fill="#E6EAED"/>
</g>
<path d="M3.12039 3.36004C3.51804 3.36004 3.84039 3.03769 3.84039 2.64004C3.84039 2.2424 3.51804 1.92004 3.12039 1.92004C2.72275 1.92004 2.40039 2.2424 2.40039 2.64004C2.40039 3.03769 2.72275 3.36004 3.12039 3.36004Z" fill="#FF0000"/>
<path d="M5.5198 3.36004C5.91745 3.36004 6.2398 3.03769 6.2398 2.64004C6.2398 2.2424 5.91745 1.92004 5.5198 1.92004C5.12216 1.92004 4.7998 2.2424 4.7998 2.64004C4.7998 3.03769 5.12216 3.36004 5.5198 3.36004Z" fill="#3EB780"/>
<path d="M7.9202 3.36004C8.31784 3.36004 8.6402 3.03769 8.6402 2.64004C8.6402 2.2424 8.31784 1.92004 7.9202 1.92004C7.52255 1.92004 7.2002 2.2424 7.2002 2.64004C7.2002 3.03769 7.52255 3.36004 7.9202 3.36004Z" fill="#FFCA18"/>
<path d="M0.120117 5.40002H95.8801V71.88H0.120117V5.40002Z" fill="#1B2850"/>
<path d="M3.36039 8.15999C3.89058 8.15999 4.32039 7.73018 4.32039 7.19999C4.32039 6.6698 3.89058 6.23999 3.36039 6.23999C2.8302 6.23999 2.40039 6.6698 2.40039 7.19999C2.40039 7.73018 2.8302 8.15999 3.36039 8.15999Z" fill="white"/>
<path d="M6.24027 8.15999C6.77047 8.15999 7.20027 7.73018 7.20027 7.19999C7.20027 6.6698 6.77047 6.23999 6.24027 6.23999C5.71008 6.23999 5.28027 6.6698 5.28027 7.19999C5.28027 7.73018 5.71008 8.15999 6.24027 8.15999Z" fill="white"/>
<path d="M9.12016 8.15999C9.65035 8.15999 10.0802 7.73018 10.0802 7.19999C10.0802 6.6698 9.65035 6.23999 9.12016 6.23999C8.58996 6.23999 8.16016 6.6698 8.16016 7.19999C8.16016 7.73018 8.58996 8.15999 9.12016 8.15999Z" fill="white"/>
<path d="M74.8802 6.23999H57.1202C56.59 6.23999 56.1602 6.6698 56.1602 7.19999C56.1602 7.73018 56.59 8.15999 57.1202 8.15999H74.8802C75.4104 8.15999 75.8402 7.73018 75.8402 7.19999C75.8402 6.6698 75.4104 6.23999 74.8802 6.23999Z" fill="white"/>
<path d="M71.8404 9.71326H6.40039C4.19125 9.71326 2.40039 11.5041 2.40039 13.7133V64.5267C2.40039 66.7359 4.19125 68.5267 6.40039 68.5267H71.8404C74.0495 68.5267 75.8404 66.7359 75.8404 64.5267V13.7133C75.8404 11.5041 74.0495 9.71326 71.8404 9.71326Z" fill="white"/>
<path d="M47.2801 71.04H28.5601C28.295 71.04 28.0801 70.8251 28.0801 70.56C28.0801 70.2949 28.295 70.08 28.5601 70.08H47.2801C47.5452 70.08 47.7601 70.2949 47.7601 70.56C47.7601 70.8251 47.5452 71.04 47.2801 71.04Z" fill="white"/>
<mask id="mask1_797_3975" style="mask-type:luminance" maskUnits="userSpaceOnUse" x="78" y="5" width="18" height="67">
<path d="M78.2402 5.28003H96.0002V72H78.2402V5.28003Z" fill="white"/>
</mask>
<g mask="url(#mask1_797_3975)">
<path d="M95.7598 5.28003V72H96.2398V5.28003H95.7598Z" fill="#E6EAED"/>
</g>
<path d="M92.6396 10.08H81.5996C81.0695 10.08 80.6396 10.5098 80.6396 11.04C80.6396 11.5701 81.0695 12 81.5996 12H92.6396C93.1698 12 93.5996 11.5701 93.5996 11.04C93.5996 10.5098 93.1698 10.08 92.6396 10.08Z" fill="#1B2850"/>
<path d="M88.5596 17.76H81.3596C80.962 17.76 80.6396 18.0824 80.6396 18.48C80.6396 18.8777 80.962 19.2 81.3596 19.2H88.5596C88.9573 19.2 89.2796 18.8777 89.2796 18.48C89.2796 18.0824 88.9573 17.76 88.5596 17.76Z" fill="white"/>
<path d="M88.5596 20.16H81.3596C80.962 20.16 80.6396 20.4824 80.6396 20.88C80.6396 21.2777 80.962 21.6 81.3596 21.6H88.5596C88.9573 21.6 89.2796 21.2777 89.2796 20.88C89.2796 20.4824 88.9573 20.16 88.5596 20.16Z" fill="white"/>
<path d="M84.2396 22.5601H81.3596C80.962 22.5601 80.6396 22.8824 80.6396 23.2801C80.6396 23.6777 80.962 24.0001 81.3596 24.0001H84.2396C84.6373 24.0001 84.9596 23.6777 84.9596 23.2801C84.9596 22.8824 84.6373 22.5601 84.2396 22.5601Z" fill="white"/>
<path d="M90.4796 24.96H81.3596C80.962 24.96 80.6396 25.2823 80.6396 25.68C80.6396 26.0776 80.962 26.4 81.3596 26.4H90.4796C90.8773 26.4 91.1996 26.0776 91.1996 25.68C91.1996 25.2823 90.8773 24.96 90.4796 24.96Z" fill="white"/>
<path d="M86.1596 27.36H81.3596C80.962 27.36 80.6396 27.6823 80.6396 28.08C80.6396 28.4776 80.962 28.8 81.3596 28.8H86.1596C86.5573 28.8 86.8796 28.4776 86.8796 28.08C86.8796 27.6823 86.5573 27.36 86.1596 27.36Z" fill="white"/>
<path d="M90.4796 29.76H81.3596C80.962 29.76 80.6396 30.0824 80.6396 30.48C80.6396 30.8777 80.962 31.2 81.3596 31.2H90.4796C90.8773 31.2 91.1996 30.8777 91.1996 30.48C91.1996 30.0824 90.8773 29.76 90.4796 29.76Z" fill="white"/>
<path d="M85.1996 32.16H81.3596C80.962 32.16 80.6396 32.4824 80.6396 32.88C80.6396 33.2777 80.962 33.6 81.3596 33.6H85.1996C85.5973 33.6 85.9196 33.2777 85.9196 32.88C85.9196 32.4824 85.5973 32.16 85.1996 32.16Z" fill="white"/>
<path d="M92.8796 34.5601H81.3596C80.962 34.5601 80.6396 34.8824 80.6396 35.2801C80.6396 35.6777 80.962 36.0001 81.3596 36.0001H92.8796C93.2773 36.0001 93.5996 35.6777 93.5996 35.2801C93.5996 34.8824 93.2773 34.5601 92.8796 34.5601Z" fill="#E6EAED"/>
<path d="M88.5596 36.96H81.3596C80.962 36.96 80.6396 37.2823 80.6396 37.68C80.6396 38.0776 80.962 38.4 81.3596 38.4H88.5596C88.9573 38.4 89.2796 38.0776 89.2796 37.68C89.2796 37.2823 88.9573 36.96 88.5596 36.96Z" fill="white"/>
<path d="M92.8796 39.36H81.3596C80.962 39.36 80.6396 39.6823 80.6396 40.08C80.6396 40.4776 80.962 40.8 81.3596 40.8H92.8796C93.2773 40.8 93.5996 40.4776 93.5996 40.08C93.5996 39.6823 93.2773 39.36 92.8796 39.36Z" fill="white"/>
</g>
<rect x="0.5" y="0.5" width="95" height="71" rx="4.5" stroke="#1B2850"/>
<defs>
<clipPath id="clip0_797_3975">
<rect width="96" height="72" rx="5" fill="white"/>
</clipPath>
</defs>
</svg>
