<svg width="99" height="74" viewBox="0 0 99 74" fill="none" xmlns="http://www.w3.org/2000/svg">
<g clip-path="url(#clip0_190_529)">
<path d="M1.24023 1H97.2402V6.28H1.24023V1Z" fill="white"/>
<path d="M4.35965 4.35998C4.75729 4.35998 5.07965 4.03763 5.07965 3.63998C5.07965 3.24234 4.75729 2.91998 4.35965 2.91998C3.962 2.91998 3.63965 3.24234 3.63965 3.63998C3.63965 4.03763 3.962 4.35998 4.35965 4.35998Z" fill="#FF0000"/>
<path d="M6.76004 4.35998C7.15768 4.35998 7.48004 4.03763 7.48004 3.63998C7.48004 3.24234 7.15768 2.91998 6.76004 2.91998C6.36239 2.91998 6.04004 3.24234 6.04004 3.63998C6.04004 4.03763 6.36239 4.35998 6.76004 4.35998Z" fill="#3EB780"/>
<path d="M9.16043 4.35998C9.55808 4.35998 9.88043 4.03763 9.88043 3.63998C9.88043 3.24234 9.55808 2.91998 9.16043 2.91998C8.76278 2.91998 8.44043 3.24234 8.44043 3.63998C8.44043 4.03763 8.76278 4.35998 9.16043 4.35998Z" fill="#FFCA18"/>
<path d="M1.36035 6.40002H97.4805V73H1.36035V6.40002Z" fill="#1B2850"/>
<path d="M0.360352 6.40002H5.88035V73H2.64035C1.38114 73 0.360352 71.9772 0.360352 70.7159V6.40002Z" fill="#1B2850"/>
<path d="M4.59969 8.23999H3.63969C3.10949 8.23999 2.67969 8.6698 2.67969 9.19999C2.67969 9.73018 3.10949 10.16 3.63969 10.16H4.59969C5.12988 10.16 5.55969 9.73018 5.55969 9.19999C5.55969 8.6698 5.12988 8.23999 4.59969 8.23999Z" fill="#1B2850"/>
<path d="M4.59965 12.04C4.59965 11.7749 4.38475 11.56 4.11965 11.56C3.85455 11.56 3.63965 11.7749 3.63965 12.04V13.48C3.63965 13.7451 3.85455 13.96 4.11965 13.96C4.38475 13.96 4.59965 13.7451 4.59965 13.48V12.04Z" fill="white"/>
<path d="M4.59965 15.4C4.59965 15.1349 4.38475 14.92 4.11965 14.92C3.85455 14.92 3.63965 15.1349 3.63965 15.4V16.36C3.63965 16.6251 3.85455 16.84 4.11965 16.84C4.38475 16.84 4.59965 16.6251 4.59965 16.36V15.4Z" fill="white"/>
<path d="M4.59965 18.28C4.59965 18.0149 4.38475 17.8 4.11965 17.8C3.85455 17.8 3.63965 18.0149 3.63965 18.28V19.72C3.63965 19.9851 3.85455 20.2 4.11965 20.2C4.38475 20.2 4.59965 19.9851 4.59965 19.72V18.28Z" fill="white"/>
<path d="M4.59965 21.64C4.59965 21.3749 4.38475 21.16 4.11965 21.16C3.85455 21.16 3.63965 21.3749 3.63965 21.64V22.6C3.63965 22.8651 3.85455 23.08 4.11965 23.08C4.38475 23.08 4.59965 22.8651 4.59965 22.6V21.64Z" fill="white"/>
<path d="M4.59965 24.52C4.59965 24.2549 4.38475 24.04 4.11965 24.04C3.85455 24.04 3.63965 24.2549 3.63965 24.52V25.96C3.63965 26.2251 3.85455 26.44 4.11965 26.44C4.38475 26.44 4.59965 26.2251 4.59965 25.96V24.52Z" fill="white"/>
<path d="M4.59965 27.88C4.59965 27.6149 4.38475 27.4 4.11965 27.4C3.85455 27.4 3.63965 27.6149 3.63965 27.88V29.32C3.63965 29.5851 3.85455 29.8 4.11965 29.8C4.38475 29.8 4.59965 29.5851 4.59965 29.32V27.88Z" fill="white"/>
<path d="M4.59965 31.24C4.59965 30.9749 4.38475 30.76 4.11965 30.76C3.85455 30.76 3.63965 30.9749 3.63965 31.24V32.2C3.63965 32.4651 3.85455 32.68 4.11965 32.68C4.38475 32.68 4.59965 32.4651 4.59965 32.2V31.24Z" fill="white"/>
<path d="M4.59965 34.12C4.59965 33.8549 4.38475 33.64 4.11965 33.64C3.85455 33.64 3.63965 33.8549 3.63965 34.12V35.08C3.63965 35.3451 3.85455 35.56 4.11965 35.56C4.38475 35.56 4.59965 35.3451 4.59965 35.08V34.12Z" fill="white"/>
<path d="M4.59965 37C4.59965 36.7349 4.38475 36.52 4.11965 36.52C3.85455 36.52 3.63965 36.7349 3.63965 37V38.44C3.63965 38.7051 3.85455 38.92 4.11965 38.92C4.38475 38.92 4.59965 38.7051 4.59965 38.44V37Z" fill="white"/>
<path d="M15.4005 8.71997H8.20047C7.80282 8.71997 7.48047 9.04233 7.48047 9.43997C7.48047 9.83762 7.80282 10.16 8.20047 10.16H15.4005C15.7981 10.16 16.1205 9.83762 16.1205 9.43997C16.1205 9.04233 15.7981 8.71997 15.4005 8.71997Z" fill="white"/>
<path d="M15.4005 11.12H8.20047C7.80282 11.12 7.48047 11.4424 7.48047 11.84C7.48047 12.2376 7.80282 12.56 8.20047 12.56H15.4005C15.7981 12.56 16.1205 12.2376 16.1205 11.84C16.1205 11.4424 15.7981 11.12 15.4005 11.12Z" fill="white"/>
<path d="M11.0805 13.52H8.20047C7.80282 13.52 7.48047 13.8424 7.48047 14.24C7.48047 14.6377 7.80282 14.96 8.20047 14.96H11.0805C11.4781 14.96 11.8005 14.6377 11.8005 14.24C11.8005 13.8424 11.4781 13.52 11.0805 13.52Z" fill="white"/>
<path d="M17.3205 15.92H8.20047C7.80282 15.92 7.48047 16.2423 7.48047 16.64C7.48047 17.0376 7.80282 17.36 8.20047 17.36H17.3205C17.7181 17.36 18.0405 17.0376 18.0405 16.64C18.0405 16.2423 17.7181 15.92 17.3205 15.92Z" fill="white"/>
<path d="M13.0005 18.32H8.20047C7.80282 18.32 7.48047 18.6424 7.48047 19.04C7.48047 19.4377 7.80282 19.76 8.20047 19.76H13.0005C13.3981 19.76 13.7205 19.4377 13.7205 19.04C13.7205 18.6424 13.3981 18.32 13.0005 18.32Z" fill="white"/>
<path d="M17.3205 20.72H8.20047C7.80282 20.72 7.48047 21.0423 7.48047 21.44C7.48047 21.8376 7.80282 22.16 8.20047 22.16H17.3205C17.7181 22.16 18.0405 21.8376 18.0405 21.44C18.0405 21.0423 17.7181 20.72 17.3205 20.72Z" fill="white"/>
<path d="M12.0405 23.12H8.20047C7.80282 23.12 7.48047 23.4424 7.48047 23.84C7.48047 24.2376 7.80282 24.56 8.20047 24.56H12.0405C12.4381 24.56 12.7605 24.2376 12.7605 23.84C12.7605 23.4424 12.4381 23.12 12.0405 23.12Z" fill="white"/>
<path d="M19.7205 25.52H8.20047C7.80282 25.52 7.48047 25.8424 7.48047 26.24C7.48047 26.6377 7.80282 26.96 8.20047 26.96H19.7205C20.1181 26.96 20.4405 26.6377 20.4405 26.24C20.4405 25.8424 20.1181 25.52 19.7205 25.52Z" fill="white"/>
<path d="M15.4005 27.92H8.20047C7.80282 27.92 7.48047 28.2423 7.48047 28.64C7.48047 29.0376 7.80282 29.36 8.20047 29.36H15.4005C15.7981 29.36 16.1205 29.0376 16.1205 28.64C16.1205 28.2423 15.7981 27.92 15.4005 27.92Z" fill="white"/>
<path d="M19.7205 30.32H8.20047C7.80282 30.32 7.48047 30.6424 7.48047 31.04C7.48047 31.4377 7.80282 31.76 8.20047 31.76H19.7205C20.1181 31.76 20.4405 31.4377 20.4405 31.04C20.4405 30.6424 20.1181 30.32 19.7205 30.32Z" fill="white"/>
<path d="M90.1748 7.71997H27.8398C25.0784 7.71997 22.8398 9.95855 22.8398 12.72V65.12C22.8398 67.8814 25.0784 70.12 27.8398 70.12H90.1748C92.9362 70.12 95.1748 67.8814 95.1748 65.12V12.72C95.1748 9.95855 92.9362 7.71997 90.1748 7.71997Z" fill="white"/>
<path d="M68.2 72.04H49.48C49.2149 72.04 49 71.8251 49 71.56C49 71.2949 49.2149 71.08 49.48 71.08H68.2C68.4651 71.08 68.68 71.2949 68.68 71.56C68.68 71.8251 68.4651 72.04 68.2 72.04Z" fill="white"/>
</g>
<rect x="0.5" y="0.5" width="97.48" height="73" rx="4.5" stroke="#1B2850"/>
<defs>
<clipPath id="clip0_190_529">
<rect x="1" y="1" width="96.48" height="72" rx="4" fill="white"/>
</clipPath>
</defs>
</svg>
