<svg width="96" height="72" viewBox="0 0 96 72" fill="none" xmlns="http://www.w3.org/2000/svg">
<g clip-path="url(#clip0_797_3935)">
<path d="M0 0H96V5.28H0V0Z" fill="white"/>
<mask id="mask0_797_3935" style="mask-type:luminance" maskUnits="userSpaceOnUse" x="0" y="0" width="96" height="6">
<path d="M0 0H96V5.28H0V0Z" fill="white"/>
</mask>
<g mask="url(#mask0_797_3935)">
<path d="M-0.000234291 9.79006e-06V-0.23999H-0.240234V9.79006e-06H-0.000234291ZM95.9998 9.79006e-06H96.2398V-0.23999H95.9998V9.79006e-06ZM-0.000234291 0.24001H95.9998V-0.23999H-0.000234291V0.24001ZM95.7598 9.79006e-06V5.28001H96.2398V9.79006e-06H95.7598ZM0.239766 5.28001V9.79006e-06H-0.240234V5.28001H0.239766Z" fill="white"/>
</g>
<path d="M3.36063 4.08001C3.75827 4.08001 4.08063 3.75766 4.08063 3.36001C4.08063 2.96237 3.75827 2.64001 3.36063 2.64001C2.96298 2.64001 2.64062 2.96237 2.64062 3.36001C2.64062 3.75766 2.96298 4.08001 3.36063 4.08001Z" fill="#FF0000"/>
<path d="M5.76004 4.08001C6.15768 4.08001 6.48004 3.75766 6.48004 3.36001C6.48004 2.96237 6.15768 2.64001 5.76004 2.64001C5.36239 2.64001 5.04004 2.96237 5.04004 3.36001C5.04004 3.75766 5.36239 4.08001 5.76004 4.08001Z" fill="#3EB780"/>
<path d="M8.16043 4.08001C8.55807 4.08001 8.88043 3.75766 8.88043 3.36001C8.88043 2.96237 8.55807 2.64001 8.16043 2.64001C7.76278 2.64001 7.44043 2.96237 7.44043 3.36001C7.44043 3.75766 7.76278 4.08001 8.16043 4.08001Z" fill="#FFCA18"/>
<path d="M0.120117 5.40002H95.8801V71.88H0.120117V5.40002Z" fill="#1B2850"/>
<path d="M15.0065 14H3.27477C2.92454 14 2.64062 14.4298 2.64062 14.96C2.64062 15.4902 2.92454 15.92 3.27477 15.92H15.0065C15.3567 15.92 15.6406 15.4902 15.6406 14.96C15.6406 14.4298 15.3567 14 15.0065 14Z" fill="white"/>
<path d="M6.22074 18.84C6.75094 18.84 7.18074 18.4102 7.18074 17.88C7.18074 17.3499 6.75094 16.92 6.22074 16.92C5.69055 16.92 5.26074 17.3499 5.26074 17.88C5.26074 18.4102 5.69055 18.84 6.22074 18.84Z" fill="white"/>
<path d="M9.14066 18.84C9.67086 18.84 10.1007 18.4102 10.1007 17.88C10.1007 17.3499 9.67086 16.92 9.14066 16.92C8.61047 16.92 8.18066 17.3499 8.18066 17.88C8.18066 18.4102 8.61047 18.84 9.14066 18.84Z" fill="white"/>
<path d="M12.0606 18.84C12.5908 18.84 13.0206 18.4102 13.0206 17.88C13.0206 17.3499 12.5908 16.92 12.0606 16.92C11.5304 16.92 11.1006 17.3499 11.1006 17.88C11.1006 18.4102 11.5304 18.84 12.0606 18.84Z" fill="white"/>
<path d="M0.120117 5.40002H95.8801V71.88H0.120117V5.40002Z" stroke="#F9FAFB" stroke-width="0.5"/>
<path d="M9.5302 10.08H2.97078C2.65576 10.08 2.40039 10.5098 2.40039 11.04C2.40039 11.5701 2.65576 12 2.97078 12H9.5302C9.84522 12 10.1006 11.5701 10.1006 11.04C10.1006 10.5098 9.84522 10.08 9.5302 10.08Z" fill="#1B2850"/>
<path d="M10.3204 22.76H3.12039C2.72275 22.76 2.40039 23.0824 2.40039 23.48C2.40039 23.8777 2.72275 24.2 3.12039 24.2H10.3204C10.718 24.2 11.0404 23.8777 11.0404 23.48C11.0404 23.0824 10.718 22.76 10.3204 22.76Z" fill="white"/>
<path d="M10.3204 25.16H3.12039C2.72275 25.16 2.40039 25.4824 2.40039 25.88C2.40039 26.2777 2.72275 26.6 3.12039 26.6H10.3204C10.718 26.6 11.0404 26.2777 11.0404 25.88C11.0404 25.4824 10.718 25.16 10.3204 25.16Z" fill="white"/>
<path d="M6.00039 27.5601H3.12039C2.72275 27.5601 2.40039 27.8824 2.40039 28.2801C2.40039 28.6777 2.72275 29.0001 3.12039 29.0001H6.00039C6.39804 29.0001 6.72039 28.6777 6.72039 28.2801C6.72039 27.8824 6.39804 27.5601 6.00039 27.5601Z" fill="white"/>
<path d="M12.2404 29.96H3.12039C2.72275 29.96 2.40039 30.2823 2.40039 30.68C2.40039 31.0776 2.72275 31.4 3.12039 31.4H12.2404C12.638 31.4 12.9604 31.0776 12.9604 30.68C12.9604 30.2823 12.638 29.96 12.2404 29.96Z" fill="white"/>
<path d="M7.92039 32.36H3.12039C2.72275 32.36 2.40039 32.6823 2.40039 33.08C2.40039 33.4776 2.72275 33.8 3.12039 33.8H7.92039C8.31804 33.8 8.64039 33.4776 8.64039 33.08C8.64039 32.6823 8.31804 32.36 7.92039 32.36Z" fill="white"/>
<path d="M12.2404 34.76H3.12039C2.72275 34.76 2.40039 35.0824 2.40039 35.48C2.40039 35.8777 2.72275 36.2 3.12039 36.2H12.2404C12.638 36.2 12.9604 35.8777 12.9604 35.48C12.9604 35.0824 12.638 34.76 12.2404 34.76Z" fill="white"/>
<path d="M6.96039 37.16H3.12039C2.72275 37.16 2.40039 37.4824 2.40039 37.88C2.40039 38.2777 2.72275 38.6 3.12039 38.6H6.96039C7.35804 38.6 7.68039 38.2777 7.68039 37.88C7.68039 37.4824 7.35804 37.16 6.96039 37.16Z" fill="white"/>
<path d="M14.6404 39.5601H3.12039C2.72275 39.5601 2.40039 39.8824 2.40039 40.2801C2.40039 40.6777 2.72275 41.0001 3.12039 41.0001H14.6404C15.038 41.0001 15.3604 40.6777 15.3604 40.2801C15.3604 39.8824 15.038 39.5601 14.6404 39.5601Z" fill="white"/>
<path d="M10.3204 41.96H3.12039C2.72275 41.96 2.40039 42.2823 2.40039 42.68C2.40039 43.0776 2.72275 43.4 3.12039 43.4H10.3204C10.718 43.4 11.0404 43.0776 11.0404 42.68C11.0404 42.2823 10.718 41.96 10.3204 41.96Z" fill="white"/>
<path d="M14.6404 44.36H3.12039C2.72275 44.36 2.40039 44.6823 2.40039 45.08C2.40039 45.4776 2.72275 45.8 3.12039 45.8H14.6404C15.038 45.8 15.3604 45.4776 15.3604 45.08C15.3604 44.6823 15.038 44.36 14.6404 44.36Z" fill="white"/>
<mask id="mask1_797_3935" style="mask-type:luminance" maskUnits="userSpaceOnUse" x="17" y="5" width="79" height="5">
<path d="M17.7598 5.28003H95.9998V9.12003H17.7598V5.28003Z" fill="white"/>
</mask>
<g mask="url(#mask1_797_3935)">
<path d="M17.7598 5.52004H95.9998V5.04004H17.7598V5.52004Z" fill="white"/>
</g>
<path d="M89.5996 9.12H21.7598C19.5506 9.12 17.7598 10.9109 17.7598 13.12V65.12C17.7598 67.3291 19.5506 69.12 21.7598 69.12H89.5996C91.8087 69.12 93.5996 67.3291 93.5996 65.12V13.12C93.5996 10.9109 91.8087 9.12 89.5996 9.12Z" fill="white"/>
<path d="M65.0398 71.04H46.3198C46.0547 71.04 45.8398 70.8251 45.8398 70.56C45.8398 70.2949 46.0547 70.08 46.3198 70.08H65.0398C65.3049 70.08 65.5198 70.2949 65.5198 70.56C65.5198 70.8251 65.3049 71.04 65.0398 71.04Z" fill="white"/>
</g>
<rect x="0.5" y="0.5" width="95" height="71" rx="4.5" stroke="#1B2850"/>
<defs>
<clipPath id="clip0_797_3935">
<rect width="96" height="72" rx="5" fill="white"/>
</clipPath>
</defs>
</svg>
