<svg width="20" height="20" viewBox="0 0 20 20" fill="none" xmlns="http://www.w3.org/2000/svg">
<g clip-path="url(#clip0_1986_306188)">
<path d="M5.98047 0.144531C5.89062 0.253906 5.85938 0.332031 5.85938 0.441406C5.85938 0.582031 5.89453 0.628906 6.45312 1.19531C6.77734 1.52734 7.03516 1.80078 7.02734 1.80859C5.85156 2.61719 5.04297 4.08594 4.99219 5.50781L4.98047 5.80078H10H15.0195L15.0078 5.50781C14.957 4.08203 14.1641 2.64453 12.9727 1.80859C12.9609 1.80078 13.2227 1.52734 13.5469 1.19531C14.1094 0.628906 14.1406 0.585938 14.1406 0.441406C14.1406 0.332031 14.1094 0.253906 14.0195 0.144531C13.9141 0.015625 13.8789 0 13.7227 0C13.5469 0 13.543 0 12.9141 0.625C12.5664 0.96875 12.2578 1.25 12.2305 1.25C12.1992 1.25 12.0781 1.20703 11.957 1.15234C11.5977 0.992188 11.0273 0.859375 10.4961 0.8125C9.64453 0.738281 8.67578 0.875 8.04297 1.15234C7.92188 1.20703 7.80078 1.25 7.76953 1.25C7.74219 1.25 7.43359 0.96875 7.08594 0.625C6.45703 0 6.45312 0 6.27734 0C6.12109 0 6.08594 0.015625 5.98047 0.144531ZM8.27734 3.23438C8.4375 3.34766 8.51953 3.54688 8.5 3.76172C8.45312 4.38281 7.60156 4.52734 7.35938 3.95703C7.11719 3.39062 7.78516 2.86719 8.27734 3.23438ZM12.4531 3.23828C12.9297 3.57422 12.6367 4.36719 12.0547 4.3125C11.7422 4.28516 11.5195 4.06641 11.5 3.76172C11.457 3.23828 12.0195 2.92578 12.4531 3.23828Z" fill="#03C95A"/>
<path d="M4.98924 6.62875C4.94237 6.67563 4.95799 15.0428 5.00487 15.2147C5.06737 15.4373 5.23143 15.6483 5.41502 15.7381C5.55565 15.8084 5.6494 15.8202 6.11033 15.8202H6.64158V17.3319C6.64158 18.9413 6.65721 19.1053 6.83299 19.3905C6.87987 19.4647 6.98924 19.5897 7.07518 19.6678C7.71971 20.2459 8.66502 20.0506 9.05565 19.2577L9.16112 19.0428L9.17283 17.4295L9.18455 15.8202H10.001H10.8174L10.8291 17.4295L10.8408 19.0428L10.9463 19.2577C11.3369 20.0545 12.2822 20.2459 12.9267 19.6639C13.1221 19.4881 13.2666 19.2538 13.3056 19.0428C13.3252 18.9569 13.3408 18.8749 13.3447 18.8553C13.3486 18.8397 13.3525 18.1522 13.3564 17.3241L13.3603 15.8202H13.8916C14.3525 15.8202 14.4463 15.8084 14.5869 15.7381C14.7783 15.6444 14.9424 15.4256 15.001 15.1913C15.0283 15.0702 15.04 13.7459 15.0322 10.8202L15.0205 6.62094L10.0166 6.60922C7.26658 6.60532 5.00096 6.61313 4.98924 6.62875Z" fill="#03C95A"/>
<path d="M2.50838 6.6991C2.149 6.81238 1.80525 7.16004 1.69588 7.52723C1.60994 7.80848 1.61775 13.8007 1.69978 14.0819C1.87166 14.6522 2.36775 15.0077 2.94978 14.9843C3.42635 14.9686 3.84431 14.6796 4.05525 14.2264L4.16072 14.0038V10.8202V7.6366L4.05916 7.42176C3.75447 6.78895 3.13728 6.49988 2.50838 6.6991Z" fill="#03C95A"/>
<path d="M16.582 6.74946C16.3086 6.87837 16.0938 7.10493 15.9414 7.42134L15.8398 7.63618V10.8198V14.0034L15.9453 14.226C16.0664 14.4917 16.3281 14.7573 16.5859 14.8862C16.8672 15.0229 17.3203 15.019 17.6172 14.8784C17.8867 14.7495 18.0938 14.5424 18.2344 14.2612L18.3398 14.0424V10.8002V7.55806L18.25 7.37056C18.125 7.12447 17.8516 6.84712 17.625 6.74946C17.5039 6.69087 17.3398 6.65962 17.1289 6.65181C16.8516 6.64009 16.7891 6.65181 16.582 6.74946Z" fill="#03C95A"/>
</g>
<defs>
<clipPath id="clip0_1986_306188">
<rect width="20" height="20" fill="white"/>
</clipPath>
</defs>
</svg>
