<svg width="20" height="20" viewBox="0 0 20 20" fill="none" xmlns="http://www.w3.org/2000/svg">
<path d="M15.2982 10.6068C15.3254 13.5443 17.8754 14.5219 17.9036 14.5344C17.882 14.6032 17.4962 15.9275 16.5603 17.2952C15.7512 18.4777 14.9114 19.6558 13.5887 19.6805C12.289 19.7043 11.8711 18.9096 10.385 18.9096C8.89934 18.9096 8.43512 19.6558 7.20465 19.7043C5.92778 19.7527 4.95543 18.4254 4.13965 17.2474C2.47278 14.8374 1.19887 10.4372 2.90934 7.46707C3.75903 5.99207 5.27778 5.05816 6.92606 5.0341C8.17981 5.0102 9.36324 5.87754 10.1297 5.87754C10.8956 5.87754 12.3337 4.83441 13.8456 4.98754C14.4786 5.01395 16.2551 5.24316 17.3959 6.91316C17.3042 6.97019 15.2762 8.15082 15.2982 10.6068ZM12.8556 3.39332C13.5334 2.57285 13.9897 1.43035 13.8653 0.293945C12.8881 0.333164 11.7065 0.945039 11.0057 1.7652C10.3776 2.49129 9.82762 3.65379 9.9759 4.76769C11.0651 4.85207 12.1776 4.21426 12.8556 3.39332Z" fill="#111827"/>
</svg>
