<svg width="20" height="20" viewBox="0 0 20 20" fill="none" xmlns="http://www.w3.org/2000/svg">
<path d="M0.900004 0.034029C0.552348 0.139498 0.259379 0.401217 0.103129 0.74106C-0.0179645 0.994967 -0.0335895 1.44028 0.0601605 1.72153C0.282817 2.37387 1.04063 2.72934 1.71641 2.49887L1.97032 2.41684L2.67344 3.11997C3.2125 3.65903 3.37266 3.83872 3.34141 3.88169C3.31797 3.90903 3.19297 4.06528 3.05625 4.22153C2.17735 5.25278 1.43125 6.80356 1.15391 8.18637C1.09532 8.46372 1.04063 8.702 1.025 8.71372C1.00938 8.72543 0.923442 8.75668 0.833598 8.78403C0.505473 8.87387 0.138285 9.25668 0.0406292 9.60043C-0.010152 9.78793 -0.010152 10.2098 0.0406292 10.3973C0.138285 10.7411 0.505473 11.1239 0.833598 11.2137C0.923442 11.2411 1.00938 11.2723 1.025 11.284C1.04063 11.2957 1.09532 11.534 1.15391 11.8114C1.43125 13.1942 2.17735 14.745 3.05625 15.7762C3.19297 15.9325 3.31797 16.0887 3.34141 16.1161C3.37266 16.159 3.2125 16.3387 2.67344 16.8778L1.97032 17.5809L1.71641 17.4989C1.04844 17.2723 0.317973 17.6004 0.0757855 18.2411C-0.0374958 18.5379 -0.025777 18.9793 0.103129 19.2567C0.224223 19.5262 0.431254 19.7411 0.68516 19.8739C0.942973 20.0028 1.42344 20.0379 1.70469 19.9442C2.37266 19.7215 2.73594 18.9676 2.50157 18.284L2.41954 18.0301L3.12266 17.327C3.66172 16.7879 3.84141 16.6278 3.88438 16.659C3.91172 16.6825 4.07188 16.8114 4.23594 16.952C5.26719 17.8192 6.70079 18.5184 8.02891 18.8075C8.775 18.9676 8.7086 18.9364 8.78672 19.1707C8.82579 19.284 8.91172 19.4442 8.97422 19.5223C9.11485 19.702 9.41172 19.9051 9.60313 19.9598C9.79063 20.0106 10.2125 20.0106 10.4 19.9598C10.7438 19.8622 11.1266 19.495 11.2164 19.1668C11.2438 19.077 11.275 18.9911 11.2867 18.9754C11.2984 18.9598 11.5406 18.9012 11.818 18.8465C13.2125 18.5614 14.7477 17.8231 15.7789 16.9442C15.9352 16.8075 16.0914 16.6825 16.1188 16.659C16.1617 16.6278 16.3414 16.7879 16.8805 17.327L17.5836 18.0301L17.5016 18.284C17.2672 18.9676 17.6305 19.7215 18.2984 19.9442C18.5953 20.0457 19.0641 20.0067 19.3297 19.8622C19.568 19.7332 19.7633 19.5301 19.8883 19.2879C20.0055 19.0614 20.0367 18.5614 19.9469 18.2957C19.7242 17.6278 18.9703 17.2645 18.2867 17.4989L18.0328 17.5809L17.3297 16.8778C16.7906 16.3387 16.6305 16.159 16.6617 16.1161C16.6852 16.0887 16.8102 15.9325 16.9469 15.7762C17.8258 14.745 18.5641 13.2098 18.8492 11.8153C18.9039 11.534 18.9625 11.2957 18.9781 11.284C18.9938 11.2723 19.0797 11.2411 19.1695 11.2137C19.4977 11.1239 19.8648 10.7411 19.9625 10.3973C20.0133 10.2098 20.0133 9.78793 19.9625 9.60043C19.8648 9.25668 19.4977 8.87387 19.1695 8.78403C19.0797 8.75668 18.9938 8.72543 18.9781 8.71372C18.9625 8.702 18.9039 8.45981 18.8492 8.18247C18.5641 6.78793 17.8258 5.25278 16.9469 4.22153C16.8102 4.06528 16.6852 3.90903 16.6617 3.88169C16.6305 3.83872 16.7906 3.65903 17.3297 3.11997L18.0328 2.41684L18.2867 2.49887C18.9703 2.73325 19.7242 2.36997 19.9469 1.702C20.0406 1.42075 20.0055 0.940279 19.8766 0.682467C19.7555 0.448092 19.5367 0.233248 19.2984 0.112154C19.0563 -0.00893974 18.568 -0.0362835 18.2867 0.0574665C17.6266 0.276217 17.2672 1.03012 17.5016 1.71372L17.5836 1.96762L16.8805 2.67075C16.3414 3.20981 16.1617 3.36997 16.1188 3.33872C16.0914 3.31528 15.9352 3.19028 15.7789 3.05356C14.7477 2.17465 13.2125 1.43637 11.818 1.15122C11.5406 1.09653 11.2984 1.03794 11.2867 1.02231C11.275 1.00669 11.2438 0.920748 11.2164 0.830904C11.1266 0.502779 10.7438 0.135592 10.4 0.0379353C10.2125 -0.012846 9.79063 -0.012846 9.60313 0.0379353C9.25938 0.135592 8.87657 0.502779 8.78672 0.830904C8.75938 0.920748 8.72813 1.00669 8.71641 1.02231C8.70469 1.03794 8.46641 1.09262 8.18907 1.15122C6.80625 1.42856 5.25547 2.17465 4.22422 3.05356C4.06797 3.19028 3.91172 3.31528 3.88438 3.33872C3.84141 3.36997 3.66172 3.20981 3.12266 2.67075L2.41954 1.96762L2.50157 1.71372C2.73204 1.03794 2.37657 0.280123 1.72422 0.0574665C1.54454 -0.00503349 1.06797 -0.0167522 0.900004 0.034029ZM1.59141 0.690279C1.75157 0.764498 1.90782 0.987154 1.94297 1.18247C2.00547 1.5809 1.62657 1.98715 1.22422 1.94028C0.587504 1.86997 0.400004 1.07309 0.93516 0.713717C1.09532 0.604342 1.39219 0.592623 1.59141 0.690279ZM10.3844 0.737154C10.5406 0.846529 10.6656 1.08481 10.6656 1.2684C10.6656 1.68637 10.275 2.01059 9.86094 1.93637C9.68516 1.90122 9.43516 1.67465 9.37266 1.49497C9.2711 1.18637 9.41563 0.830904 9.69688 0.686373C9.87657 0.592623 10.2203 0.619967 10.3844 0.737154ZM19.068 0.713717C19.5016 1.00669 19.482 1.62387 19.0289 1.86215C18.6773 2.04575 18.3102 1.92075 18.1188 1.54575C17.9703 1.25669 18.1148 0.83481 18.4039 0.690279C18.5992 0.592623 18.9078 0.604342 19.068 0.713717ZM8.84532 1.86215C8.97032 2.10434 9.22813 2.35434 9.47422 2.46762C9.63047 2.53794 9.73985 2.55747 10.0016 2.55747C10.2633 2.55747 10.3727 2.53794 10.5289 2.46762C10.775 2.35434 11.0328 2.10434 11.1578 1.86606C11.2672 1.65122 11.2086 1.65122 11.9938 1.84262C13.482 2.202 14.7867 2.94418 15.9234 4.077C17.0563 5.21372 17.8023 6.52622 18.1578 8.00668C18.3492 8.79965 18.3492 8.73325 18.1344 8.84262C17.8961 8.96762 17.6461 9.22543 17.5328 9.47153C17.4625 9.62778 17.443 9.73715 17.443 9.99887C17.443 10.2606 17.4625 10.37 17.5328 10.5262C17.6461 10.7723 17.8961 11.0301 18.1344 11.1551C18.3492 11.2645 18.3492 11.1981 18.1578 11.9911C17.8023 13.4715 17.0523 14.784 15.9195 15.9168C14.7867 17.0497 13.482 17.7957 11.9938 18.1551C11.2086 18.3465 11.2672 18.3465 11.1578 18.1317C11.0328 17.8934 10.775 17.6434 10.5289 17.5301C10.2516 17.4051 9.75157 17.4051 9.47422 17.5301C9.22813 17.6434 8.97032 17.8934 8.84532 18.1317C8.73594 18.3465 8.79063 18.3465 8.0211 18.159C6.5211 17.7957 5.22422 17.0575 4.07969 15.9168C2.95079 14.7918 2.20079 13.4715 1.84532 11.9911C1.65391 11.1981 1.65391 11.2645 1.86875 11.1551C2.10704 11.0301 2.35704 10.7723 2.47032 10.5262C2.54063 10.37 2.56016 10.2606 2.56016 9.99887C2.56016 9.73715 2.54063 9.62778 2.47032 9.47153C2.35704 9.22543 2.10704 8.96762 1.86875 8.84262C1.65391 8.73325 1.65391 8.79184 1.84532 8.00668C2.59922 4.8895 5.15782 2.42856 8.34532 1.75669C8.53672 1.71762 8.70469 1.68247 8.72032 1.68247C8.73594 1.67856 8.79454 1.76059 8.84532 1.86215ZM1.56016 9.3895C1.9625 9.60043 2.07188 10.0926 1.78672 10.4168C1.56797 10.6668 1.26329 10.7293 0.978129 10.5848C0.739848 10.4637 0.646098 10.2997 0.646098 9.99497C0.646098 9.77622 0.661723 9.71762 0.751567 9.60043C0.81016 9.52622 0.915629 9.43637 0.985942 9.40122C1.1461 9.31918 1.41563 9.31528 1.56016 9.3895ZM19.025 9.41293C19.2633 9.53403 19.357 9.69809 19.357 9.99887C19.357 10.2997 19.2633 10.4637 19.025 10.5848C18.7398 10.7293 18.4352 10.6668 18.2164 10.4168C17.9352 10.0965 18.025 9.64731 18.4195 9.40903C18.5719 9.31137 18.8336 9.31528 19.025 9.41293ZM1.53672 18.1082C1.7125 18.1981 1.79454 18.2801 1.88047 18.4442C1.97813 18.6395 1.97422 18.8153 1.86485 19.0262C1.62266 19.4793 1.00938 19.4989 0.712504 19.0614C0.634379 18.9481 0.62266 18.8856 0.634379 18.6903C0.650004 18.4012 0.751567 18.245 0.985942 18.1278C1.18516 18.0301 1.36875 18.0223 1.53672 18.1082ZM10.2242 18.0887C10.3727 18.1434 10.5484 18.3114 10.6109 18.4637C10.7281 18.7411 10.6305 19.0887 10.3844 19.2645C10.2008 19.3934 9.80235 19.3934 9.61875 19.2645C9.37266 19.0887 9.26329 18.6903 9.39219 18.4442C9.56016 18.1239 9.91563 17.9715 10.2242 18.0887ZM19.0289 18.1356C19.6227 18.452 19.4117 19.3739 18.7438 19.3739C18.4898 19.3739 18.2984 19.2801 18.1773 19.0965C18.0406 18.8895 18.0172 18.6473 18.1188 18.452C18.3102 18.0731 18.6734 17.9481 19.0289 18.1356Z" fill="#111827"/>
<path d="M9.48242 3.59668C7.61133 3.72168 5.80664 4.75683 4.7168 6.32715C4.48242 6.6709 4.44727 6.86621 4.60742 6.99512C4.80273 7.15137 4.97461 7.08105 5.19727 6.76074L5.34961 6.53027L5.79102 6.78027C6.0332 6.91699 6.36523 7.08496 6.5332 7.15137C6.70117 7.22168 6.83789 7.28808 6.83789 7.30371C6.83789 7.31543 6.80273 7.4834 6.76367 7.6748C6.67773 8.08105 6.56445 8.91308 6.56445 9.15918C6.56445 9.24902 6.55273 9.40527 6.54102 9.50683L6.51367 9.68652H5.36914H4.2207V9.53808C4.2207 9.32715 4.32617 8.75683 4.43555 8.37793C4.49023 8.19433 4.5332 8.00293 4.5332 7.95605C4.5332 7.7334 4.1582 7.60449 4.00977 7.76855C3.91211 7.87793 3.75977 8.38183 3.66992 8.90137C3.56055 9.53027 3.56055 10.4717 3.66992 11.1006C4.13477 13.7646 6.24023 15.8701 8.89258 16.3271C9.53711 16.4404 10.4707 16.4404 11.1113 16.3271C12.8184 16.0342 14.3613 15.0381 15.3223 13.6123C15.6348 13.1475 15.9395 12.5342 15.9395 12.3701C15.9395 12.1357 15.6816 11.9951 15.4707 12.1084C15.4277 12.1318 15.3262 12.2959 15.2402 12.4795C15.1543 12.6631 14.9902 12.96 14.8691 13.1396L14.6543 13.4717L14.2246 13.2256C13.9902 13.0889 13.6543 12.9209 13.4785 12.8467C13.1816 12.7256 13.1621 12.71 13.1816 12.6162C13.252 12.2998 13.3965 11.3779 13.416 11.1123C13.4316 10.9404 13.4512 10.6904 13.4629 10.5537L13.4863 10.3115H14.6387H15.7949L15.7598 10.6123C15.709 11.1084 15.7168 11.21 15.8184 11.292C15.9355 11.3896 16.0996 11.3857 16.2207 11.2881C16.3574 11.1826 16.416 10.7607 16.416 9.95996C16.4082 8.25683 15.8027 6.76074 14.6152 5.53027C13.2715 4.14355 11.4707 3.46387 9.48242 3.59668ZM9.68945 5.74512V7.2373L9.33789 7.20996C8.93555 7.17871 8.26758 7.06543 7.89258 6.95996C7.5957 6.87793 7.59961 6.90918 7.81836 6.34668C8.1582 5.47168 8.7793 4.65527 9.31836 4.38183C9.72461 4.1709 9.68945 4.0459 9.68945 5.74512ZM10.6621 4.37012C11.2363 4.66308 11.8301 5.42871 12.1855 6.34668C12.4043 6.90918 12.4082 6.87793 12.1113 6.95996C11.7363 7.06543 11.0684 7.17871 10.666 7.20996L10.3145 7.2373V5.74512C10.3145 4.43652 10.3223 4.25683 10.373 4.25683C10.4082 4.25683 10.5371 4.30762 10.6621 4.37012ZM7.92773 4.81152C7.67383 5.16699 7.29102 5.90527 7.12305 6.37012L7.01367 6.6709L6.70117 6.52637C6.5293 6.44824 6.24805 6.30762 6.08008 6.21387L5.76758 6.04199L6.08008 5.74512C6.57227 5.27246 7.26367 4.83496 7.91211 4.58496C8.04102 4.53418 8.15039 4.49512 8.1543 4.49121C8.1582 4.49121 8.05664 4.63574 7.92773 4.81152ZM12.5254 4.78808C13.0137 5.01855 13.5371 5.37402 13.916 5.7373L14.2363 6.04199L13.9277 6.21387C13.7559 6.30762 13.4746 6.44824 13.3027 6.52637L12.9902 6.6709L12.8809 6.37012C12.7129 5.90527 12.3301 5.16699 12.0762 4.81543L11.8418 4.49512L12.0059 4.55762C12.0957 4.58887 12.3301 4.69433 12.5254 4.78808ZM14.9863 7.0459C15.2207 7.44043 15.4434 7.94824 15.5723 8.38965C15.6738 8.74512 15.7832 9.34668 15.7832 9.55762V9.68652H14.6348H13.4863L13.4629 9.44043C13.4512 9.30762 13.4316 9.05762 13.416 8.88574C13.3965 8.62012 13.252 7.69824 13.1816 7.38183C13.1621 7.28808 13.1816 7.27246 13.5059 7.13574C13.6934 7.05371 14.0254 6.88574 14.2402 6.76074L14.6309 6.53418L14.7129 6.63183C14.7598 6.68262 14.8809 6.87012 14.9863 7.0459ZM7.8418 7.59668C8.31055 7.71387 8.84961 7.7998 9.33008 7.83496L9.68945 7.8623V8.77246V9.68652H8.41992H7.15039L7.17383 9.38183C7.2207 8.70215 7.39648 7.49902 7.44727 7.49902C7.45508 7.49902 7.63086 7.54199 7.8418 7.59668ZM12.6543 7.93652C12.7324 8.35449 12.7793 8.75293 12.8301 9.40137L12.8535 9.68652H11.584H10.3145V8.77246V7.8623L10.6777 7.83496C11.1348 7.80371 11.9004 7.6748 12.2285 7.58105C12.3691 7.53808 12.502 7.50293 12.5254 7.50293C12.5527 7.49902 12.6035 7.67871 12.6543 7.93652ZM6.54102 10.4912C6.55273 10.5928 6.56445 10.749 6.56445 10.8428C6.56445 11.0889 6.66992 11.874 6.76367 12.3154C6.80664 12.5303 6.83789 12.7061 6.83008 12.7139C6.82227 12.7178 6.66602 12.7881 6.48242 12.8701C6.29492 12.9482 5.9668 13.1162 5.74805 13.2412L5.35352 13.4678L5.20117 13.249C4.68555 12.4834 4.30273 11.4443 4.23633 10.6123L4.20898 10.3115H5.36133H6.51367L6.54102 10.4912ZM9.68945 11.2295V12.1475H9.51758C9.13086 12.1475 8.02148 12.3311 7.51758 12.4795C7.43945 12.5029 7.42773 12.4795 7.34961 12.0615C7.26758 11.6123 7.21289 11.1592 7.17383 10.6123L7.15039 10.3115H8.41992H9.68945V11.2295ZM12.834 10.5732C12.7676 11.3311 12.7246 11.6982 12.6543 12.0693C12.6074 12.2959 12.5684 12.4834 12.5605 12.4912C12.5527 12.499 12.4199 12.4678 12.2598 12.4248C11.873 12.3154 11.1426 12.1943 10.6855 12.1631L10.3145 12.1357V11.2256V10.3115H11.584H12.8574L12.834 10.5732ZM9.68945 14.2568C9.68945 15.5615 9.68164 15.7412 9.63086 15.7412C9.5957 15.7412 9.45898 15.6865 9.32617 15.6201C8.7832 15.3467 8.16211 14.5381 7.81836 13.6514C7.58789 13.0654 7.56836 13.124 8.06836 12.9951C8.5293 12.8779 9.1543 12.7842 9.48633 12.7764L9.68945 12.7725V14.2568ZM11.0645 12.8311C11.5059 12.8896 12.334 13.0732 12.3613 13.1201C12.3887 13.1631 12.0879 13.9326 11.9316 14.2139C11.6855 14.6631 11.5176 14.8936 11.2129 15.1982C10.9355 15.4795 10.5293 15.7412 10.373 15.7412C10.3223 15.7412 10.3145 15.5615 10.3145 14.2568V12.7725H10.4824C10.5723 12.7725 10.834 12.7998 11.0645 12.8311ZM7.46289 14.3936C7.5918 14.6514 7.80273 15.0068 7.92773 15.1826L8.16211 15.5029L7.99805 15.4404C7.31445 15.1826 6.60742 14.749 6.0957 14.2686L5.76367 13.9561L6.07617 13.7842C6.24805 13.6904 6.5293 13.5498 6.70117 13.4717L7.01367 13.3271L7.12305 13.6279C7.18164 13.792 7.33398 14.1357 7.46289 14.3936ZM13.4785 13.5459C13.5098 13.5576 13.6934 13.6553 13.8848 13.7607L14.2363 13.9561L13.916 14.2607C13.4121 14.7373 12.623 15.2256 11.998 15.4482L11.8457 15.499L12.0762 15.1826C12.3223 14.8428 12.748 14.0146 12.8965 13.5889L12.9863 13.3271L13.2051 13.4248C13.3223 13.4795 13.4473 13.5303 13.4785 13.5459Z" fill="#111827"/>
</svg>
