<svg width="48" height="49" viewBox="0 0 48 49" fill="none" xmlns="http://www.w3.org/2000/svg">
<rect y="0.115234" width="48" height="48" rx="24" fill="#00BF6F"/>
<path fill-rule="evenodd" clip-rule="evenodd" d="M36.7671 28.2935C36.4638 28.2935 36.1872 28.1769 35.9792 27.9893C36.0501 27.3748 36.0974 26.7539 36.1053 26.122C36.2944 25.9944 36.5229 25.9172 36.7671 25.9172C37.4172 25.9172 37.949 26.4506 37.949 27.1077C37.9495 27.2632 37.9193 27.4173 37.8602 27.5612C37.801 27.705 37.714 27.8358 37.6042 27.9459C37.4944 28.0561 37.364 28.1435 37.2203 28.2031C37.0767 28.2628 36.9227 28.2935 36.7671 28.2935ZM10.7111 28.2935C10.5556 28.2935 10.4015 28.2628 10.2579 28.2031C10.1143 28.1435 9.98379 28.0561 9.874 27.9459C9.7642 27.8358 9.67722 27.705 9.61806 27.5612C9.5589 27.4173 9.52871 27.2632 9.52923 27.1077C9.52923 26.4506 10.0611 25.9164 10.7111 25.9164C10.9553 25.9164 11.1838 25.9952 11.3729 26.122C11.3808 26.7539 11.4281 27.3748 11.499 27.9893C11.283 28.1846 11.0023 28.293 10.7111 28.2935ZM36.6899 23.0775C36.3574 23.0775 36.0383 23.1232 35.7318 23.1981C34.5547 18.5164 30.7302 14.8936 25.9523 14.0371C25.7396 13.9977 25.5466 13.9701 25.3299 13.9426C25.3654 12.7694 25.4205 11.4134 27.1366 10.1937L26.8647 9.50586C26.8647 9.50586 23.5209 10.5506 23.1332 13.4281C22.9662 12.6449 21.4069 11.6655 20.6348 11.4796L20.2511 12.102C20.2511 12.102 21.2745 12.6173 21.5235 14.0371C16.7472 14.8951 12.9235 18.5171 11.7464 23.1981C11.4327 23.1198 11.1108 23.0796 10.7875 23.0783C8.57981 23.0783 6.78259 24.8811 6.78259 27.1077C6.78259 29.3296 8.57981 31.1362 10.7875 31.1362C11.3052 31.1362 11.7984 31.0322 12.2514 30.8542C12.5932 31.7117 13.0298 32.5283 13.5531 33.2888L16.878 31.0354L16.8497 30.9976C15.9704 29.8614 15.4322 28.1879 15.3424 26.5223C15.2423 24.6864 15.6883 22.8617 16.8552 21.7893C19.2599 19.7313 21.8781 20.6689 23.5185 22.6426H23.9597C25.6001 20.6689 28.2184 19.7313 30.6238 21.7893C31.7899 22.8617 32.2359 24.6864 32.1366 26.5231C32.046 28.1879 31.5079 29.8614 30.6286 30.9984L30.6002 31.0346L33.9252 33.2888C34.4483 32.5282 34.8849 31.7116 35.2268 30.8542C35.6925 31.0391 36.1888 31.1348 36.6899 31.1362C38.8984 31.1362 40.6956 29.3296 40.6956 27.1077C40.6956 24.8803 38.8984 23.0775 36.6899 23.0775Z" fill="white"/>
</svg>
