<svg width="48" height="49" viewBox="0 0 48 49" fill="none" xmlns="http://www.w3.org/2000/svg">
<rect y="0.115234" width="48" height="48" rx="24" fill="#5952FF"/>
<path d="M22.3104 10.0278C26.9504 10.0278 33.9357 11.4652 37.2139 14.7183C38.0461 15.5504 39.1304 17.1644 39.1304 19.56C39.1304 23.7965 35.7261 30.2774 31.9939 34.06C30.0522 36.0017 26.9757 38.5487 22.8148 38.5487C18.7548 38.5487 15.653 35.7748 14.7704 34.8922C11.3409 31.4374 8.86957 26.2174 8.86957 21.3252C8.86957 18.2487 9.75218 15.5504 11.9713 13.3061C14.0391 11.213 17.5948 10.0278 22.3104 10.0278ZM28.06 26.8983C29.6235 25.3348 30.0522 23.393 30.0522 22.3339C30.0522 21.5522 29.8504 20.4174 28.8922 19.4591C27.4044 17.9713 25.7904 17.5678 24 17.5678C21.7557 17.5678 20.2426 18.2739 19.2339 19.2826C18.4522 20.0643 17.7713 21.3 17.7713 23.04C17.7713 24.78 18.6791 26.4444 19.6878 27.4531C20.6209 28.3861 22.0583 29.067 23.5461 29.067C25.0339 29.067 26.4965 28.4617 28.06 26.8983Z" fill="white"/>
</svg>
