<svg width="48" height="49" viewBox="0 0 48 49" fill="none" xmlns="http://www.w3.org/2000/svg">
<rect width="48" height="48.2307" rx="24" fill="#453AFE"/>
<path d="M32.6738 11.0088C32.9157 11.2131 33.2329 11.1933 33.5126 11.2839C35.8297 12.038 37.4648 14.1693 37.4766 16.6061C37.5031 22.01 37.5583 27.4155 37.4614 32.8182C37.4007 36.2163 34.803 38.3645 31.8675 38.4133C28.9839 38.4614 26.0993 38.4614 23.2137 38.4133C16.9045 38.303 11.22 33.3579 10.1824 27.1396C10.032 26.2392 9.95786 25.3276 9.96078 24.4147C9.96836 21.9788 9.96372 19.5433 9.96457 17.1074C9.96457 14.0012 11.5423 11.9445 14.5512 11.1272C14.6388 11.1032 14.7454 11.1272 14.7825 11.0092L32.6738 11.0088ZM25.0628 30.3974V30.429H27.7001C27.872 30.429 28.0443 30.4328 28.2162 30.429C28.9555 30.4084 29.4573 29.9475 29.459 29.2916C29.4606 28.6356 28.9593 28.1541 28.2216 28.1499C26.4636 28.1402 24.7051 28.1499 22.9466 28.1469C21.1953 28.1469 20.2891 27.2525 20.2875 25.5244C20.2875 23.8114 20.2896 22.098 20.2875 20.3846C20.2875 19.542 19.859 19.026 19.1656 19.0108C18.4388 18.9952 17.9977 19.5012 17.9961 20.3703C17.9923 22.0837 17.9961 23.7971 17.9961 25.51C17.9961 26.3442 18.0723 27.1573 18.4523 27.9262C19.1066 29.2494 20.4442 30.3123 21.9697 30.3899C22.9972 30.4396 24.0311 30.3974 25.0628 30.3974ZM26.0044 19.0045C25.2397 19.0045 24.4751 18.9902 23.7109 19.0087C23.0069 19.026 22.5902 19.4683 22.5843 20.1567C22.5789 20.8257 23.0111 21.2748 23.7286 21.2824C25.2385 21.2976 26.7482 21.2976 28.2579 21.2824C28.9441 21.2761 29.4497 20.7811 29.4606 20.1626C29.472 19.5045 28.9703 19.0163 28.2389 19.0036C27.4949 18.9944 26.7496 19.0045 26.0044 19.0045ZM25.4259 23.5751C24.8913 23.5751 24.3563 23.5683 23.8221 23.5751C23.0962 23.586 22.6003 24.0385 22.5852 24.6894C22.57 25.3403 23.0714 25.8446 23.7977 25.8534C24.9048 25.8672 26.0121 25.8672 27.1195 25.8534C27.8176 25.8437 28.3059 25.3639 28.3126 24.7277C28.3198 24.0705 27.8185 23.5902 27.0867 23.5755C26.5335 23.5654 25.9795 23.5751 25.4259 23.5751Z" fill="white"/>
</svg>
