<svg width="48" height="49" viewBox="0 0 48 49" fill="none" xmlns="http://www.w3.org/2000/svg">
<rect y="0.115234" width="48" height="48" rx="24" fill="#006BFF"/>
<path d="M28.8419 28.2989C27.9734 29.0699 26.888 30.0289 24.9198 30.0289H23.7426C23.0686 30.0412 22.3989 29.919 21.7727 29.6693C21.1466 29.4195 20.5765 29.0474 20.096 28.5746C19.1787 27.6286 18.6738 26.3576 18.692 25.04V23.4293C18.6742 22.1122 19.1791 20.8418 20.096 19.8962C20.5765 19.4233 21.1466 19.0512 21.7727 18.8015C22.3989 18.5517 23.0686 18.4295 23.7426 18.4419H24.9198C26.8895 18.4419 27.9734 19.3994 28.8419 20.1646C29.7449 20.96 30.5231 21.6548 32.599 21.6548C32.9159 21.6546 33.2322 21.6291 33.5451 21.5787L33.5364 21.5601C33.4138 21.2514 33.2699 20.9515 33.1058 20.6628L31.7175 18.2595C31.0917 17.1761 30.1917 16.2765 29.1081 15.6511C28.0245 15.0256 26.7954 14.6963 25.5443 14.6963H22.7635C21.5123 14.6963 20.2832 15.0256 19.1996 15.6511C18.116 16.2765 17.2161 17.1761 16.5902 18.2595L15.202 20.6628C14.5769 21.7468 14.2479 22.9761 14.2479 24.2275C14.2479 25.4788 14.5769 26.7081 15.202 27.7921L16.5902 30.1954C17.216 31.279 18.1158 32.1788 19.1994 32.8045C20.283 33.4302 21.5122 33.7598 22.7635 33.7601H25.54C26.7912 33.7598 28.0204 33.4302 29.104 32.8045C30.1876 32.1788 31.0874 31.279 31.7132 30.1954L33.1014 27.795C33.2659 27.5069 33.4098 27.2075 33.5321 26.8992L33.5408 26.8819C33.2282 26.8292 32.9117 26.8028 32.5947 26.803C30.5187 26.803 29.7406 27.4935 28.8376 28.2917" fill="white"/>
<path d="M24.9226 19.9009H23.7453C21.5775 19.9009 20.1562 21.4485 20.1562 23.4297V25.0404C20.1562 27.0231 21.5804 28.5707 23.7453 28.5707H24.9226C28.0809 28.5707 27.8326 25.3505 32.6018 25.3505C33.0535 25.3492 33.5044 25.3906 33.9484 25.474C34.0934 24.6549 34.0934 23.8167 33.9484 22.9975C33.5042 23.0796 33.0535 23.1209 32.6018 23.121C27.8311 23.121 28.0809 19.9009 24.9226 19.9009Z" fill="#006BFF"/>
<path d="M36.687 26.6506C35.8749 26.0555 34.9383 25.6524 33.9478 25.472V25.4964C33.8616 25.9707 33.7284 26.4353 33.5501 26.8832C34.3681 27.0104 35.1441 27.3303 35.8141 27.8164C35.8154 27.8235 35.8154 27.8308 35.8141 27.8379C35.3415 29.3712 34.5713 30.7964 33.5476 32.0319C32.524 33.2674 31.2668 34.2891 29.8481 35.0385C28.4294 35.788 26.8769 36.2505 25.2793 36.3996C23.6817 36.5487 22.0704 36.3815 20.5375 35.9076C19.0047 35.4344 17.5802 34.6638 16.3453 33.6399C15.1104 32.6159 14.0893 31.3587 13.3405 29.9401C12.5916 28.5214 12.1296 26.9691 11.9808 25.3718C11.8321 23.7745 11.9995 22.1636 12.4736 20.631C12.946 19.0984 13.7159 17.6739 14.7392 16.439C15.7626 15.2041 17.0194 14.183 18.4377 13.4342C19.8559 12.6854 21.4079 12.2235 23.0049 12.075C24.6018 11.9264 26.2123 12.0941 27.7444 12.5685C29.6445 13.1534 31.3729 14.1936 32.7793 15.5988C34.1857 17.004 35.2275 18.7315 35.8141 20.631C35.8128 20.6386 35.8128 20.6464 35.8141 20.654C35.1442 21.1398 34.368 21.4588 33.5501 21.5843C33.7282 22.0333 33.8614 22.4988 33.9478 22.974C33.9463 22.9816 33.9463 22.9894 33.9478 22.997C34.938 22.8164 35.8745 22.4139 36.687 21.8197C37.4679 21.2455 37.3158 20.588 37.198 20.2018C36.128 16.7335 33.7241 13.8323 30.5153 12.1362C27.3064 10.4401 23.5552 10.088 20.0867 11.1573C16.6185 12.2274 13.7173 14.6312 12.0212 17.8401C10.3251 21.049 9.97294 24.8001 11.0422 28.2686C12.112 31.7371 14.5158 34.6385 17.7247 36.3347C20.9337 38.0308 24.6851 38.3828 28.1536 37.3131C30.2837 36.6561 32.2212 35.4887 33.7974 33.9125C35.3737 32.3362 36.5411 30.3988 37.198 28.2686C37.3158 27.8824 37.4679 27.2292 36.687 26.6521" fill="white"/>
<path d="M33.545 21.5863C33.2328 21.6377 32.9169 21.6641 32.6004 21.6653C30.5245 21.6653 29.7449 20.9747 28.8448 20.1751C27.9733 19.4027 26.8909 18.4437 24.9212 18.4437H23.744C23.0699 18.4316 22.4001 18.5541 21.774 18.8041C21.1479 19.054 20.5779 19.4264 20.0975 19.8994C19.1805 20.845 18.6756 22.1155 18.6934 23.4325V25.0433C18.6753 26.3609 19.1802 27.6319 20.0975 28.5778C20.5779 29.0506 21.148 29.4228 21.7741 29.6725C22.4003 29.9223 23.07 30.0445 23.744 30.0321H24.9212C26.8909 30.0321 27.9733 29.0731 28.8448 28.3094C29.7449 27.514 30.5245 26.8192 32.6004 26.8192C32.9168 26.8194 33.2327 26.8448 33.545 26.8953C33.7271 26.4452 33.8622 25.9776 33.9485 25.4998V25.4754C33.5037 25.3939 33.0525 25.3531 32.6004 25.3534C27.8298 25.3534 28.0796 28.575 24.9212 28.575H23.744C21.5762 28.575 20.1549 27.0259 20.1549 25.0433V23.4296C20.1549 21.4485 21.5776 19.9009 23.744 19.9009H24.9212C28.0796 19.9009 27.8312 23.121 32.6004 23.121C33.0526 23.1211 33.5039 23.0793 33.9485 22.9961V22.9746C33.8624 22.4996 33.7287 22.0344 33.5493 21.5863" fill="#0AE8F0"/>
</svg>
