<svg width="48" height="49" viewBox="0 0 48 49" fill="none" xmlns="http://www.w3.org/2000/svg">
<rect y="0.115234" width="48" height="48" rx="24" fill="#FFE01B"/>
<path d="M36.1472 27.6373L35.6982 26.3653C35.6982 26.3653 37.5688 23.5219 32.9297 22.5492C32.9297 22.5492 33.229 19.0324 31.5828 17.3863C35.1744 13.8695 34.3514 8.55692 26.1954 11.9989C22.0052 3.99258 5.84299 22.7737 12.5773 25.7667C11.9038 26.6646 11.9038 31.1541 16.543 31.6031C19.6856 38.3373 27.3178 38.7863 31.7325 36.766C36.1472 34.7457 38.6912 28.3108 36.1472 27.6373ZM16.4682 30.6303C12.6521 30.2562 12.278 25.0184 15.5703 24.4947C18.8626 23.9709 19.6856 30.9296 16.4682 30.6303ZM15.3458 23.5219C14.2982 23.5219 13.0262 24.9436 13.0262 24.9436C7.93809 22.4744 22.2297 6.08769 25.2975 12.4478C25.2975 12.4478 17.815 16.0394 15.3458 23.5219ZM30.3108 29.8821C30.3108 29.5828 28.7395 30.331 25.8961 29.3583C26.1206 27.787 29.4877 30.7052 35.0996 26.8891L35.5486 28.4604C37.6437 28.0863 35.5486 35.1947 28.8143 35.1198C23.3521 35.045 21.6311 29.4331 24.6241 26.3653C25.2227 25.7667 22.4542 24.5695 22.9779 21.9506C23.2024 20.8282 24.1751 19.1821 26.6444 19.631C29.1136 20.08 29.6374 17.8352 31.2835 18.6583C32.9297 19.4814 31.957 22.624 32.1814 23.073C32.4059 23.5219 34.8003 23.5968 35.2493 24.8688C35.6982 26.1408 32.1814 28.9094 26.7192 28.1611C25.4472 28.0115 24.6989 29.6576 25.522 30.7052C27.1682 33.0996 33.9024 31.5282 35.0248 29.2087C32.1814 31.3786 26.3451 32.2017 25.8961 29.8821C27.5423 30.6303 30.3108 30.1814 30.3108 29.8821ZM20.5087 18.0597C22.1549 16.0394 24.3248 14.8422 24.3248 14.8422L23.8758 15.9646C23.8758 15.9646 25.4472 14.7674 27.1682 14.7674L26.5696 15.366C28.515 15.4408 29.3381 16.1891 29.3381 16.1891C29.3381 16.1891 24.7737 14.8422 20.5087 18.0597ZM30.6101 20.9779C31.5828 20.9031 31.2835 23.1478 31.2835 23.1478H30.6849C30.6849 23.1478 29.6374 21.0527 30.6101 20.9779ZM26.1954 23.4471C25.522 23.5219 24.7737 23.8961 24.8486 23.5968C25.1479 22.3996 27.9164 22.6989 27.8416 23.7464C27.7668 24.794 27.1682 23.2975 26.1954 23.4471ZM27.7668 24.345C27.8416 24.4947 27.243 24.345 26.794 24.4198C26.3451 24.4947 25.8961 24.7191 25.8961 24.5695C25.8961 24.4198 27.6171 23.7464 27.7668 24.345ZM29.2633 24.5695C29.4877 24.1205 30.3856 24.5695 30.1612 25.0184C29.9367 25.4674 29.0388 25.0184 29.2633 24.5695ZM31.1339 24.7191C30.6849 24.7191 30.6849 23.7464 31.1339 23.7464C31.5828 23.7464 31.5828 24.794 31.1339 24.794V24.7191ZM17.6654 28.6849C17.8898 28.9094 17.2164 29.3583 16.6926 28.9842C16.1689 28.6101 17.2912 26.8143 15.9444 26.3653C14.5975 25.9163 14.9717 27.6373 14.5975 27.4129C14.2234 27.1884 15.1213 24.794 16.6926 25.7667C18.264 26.7394 16.2437 28.2359 17.1416 28.6849C18.0395 29.1338 17.5157 28.5352 17.6654 28.6849Z" fill="#1E1E1E"/>
</svg>
