<svg width="48" height="49" viewBox="0 0 48 49" fill="none" xmlns="http://www.w3.org/2000/svg">
<rect y="0.115234" width="48" height="48" rx="24" fill="#356AE6"/>
<path d="M33.4017 26.0537L13.6395 39.5507V36.9272C13.6395 36.0951 13.7043 35.7121 14.6802 35.0721C15.6018 34.497 30.8749 24.069 30.8749 24.069L14.8004 13.0659C14.0862 12.5544 13.5652 12.235 13.5652 11.2745V8.4624L33.4005 22.0879C34.0523 22.5357 34.4424 23.112 34.4424 23.8156V24.135C34.4424 24.775 34.1819 25.4774 33.4005 26.0537H33.4017ZM13.8375 17.878C13.8375 17.0023 14.6837 16.6888 15.3991 17.1897C16.3207 17.7519 25.0339 23.5752 25.0339 23.5752L23.7976 24.3884C22.8205 25.0779 21.9755 25.1392 20.9985 24.5133C19.8199 23.7614 13.8375 19.7555 13.8375 19.7555V17.878Z" fill="white"/>
</svg>
