<svg width="48" height="49" viewBox="0 0 48 49" fill="none" xmlns="http://www.w3.org/2000/svg">
<rect y="0.154785" width="48" height="47.9215" rx="23.9608" fill="#FF3621"/>
<path d="M35.4938 21.6316L23.887 28.2038L11.5401 21.2012L10.9559 21.5142V26.5999L23.887 33.9546L35.4938 27.3823V30.0816L23.887 36.654L11.5401 29.6513L10.9559 29.9643V30.825L23.887 38.1796L36.8571 30.825V25.7392L36.2728 25.4262L23.887 32.4289L12.3191 25.8566V23.1964L23.887 29.7296L36.8571 22.3748V17.3674L36.1949 17.0153L23.887 23.9788L12.9422 17.7586L23.887 11.5775L32.9231 16.6632L33.7411 16.2329V15.6069L23.887 10.0518L10.9559 17.3674V18.1498L23.887 25.5045L35.4938 18.9322V21.6316Z" fill="white"/>
</svg>
