<svg width="48" height="49" viewBox="0 0 48 49" fill="none" xmlns="http://www.w3.org/2000/svg">
<rect y="0.115234" width="48" height="48" rx="24" fill="#FFF382"/>
<path d="M21.2251 12.7196C21.4751 12.5689 21.7181 12.4027 21.9864 12.2869C22.3426 12.1346 22.7142 12.0213 23.0948 11.9489C23.7752 11.8085 24.4774 11.8121 25.1564 11.9594C26.1508 12.1685 27.0615 12.6664 27.7743 13.3907C28.104 13.7229 28.3833 14.1016 28.6035 14.5146C29.2246 15.6792 29.8441 16.8443 30.4619 18.01C30.8334 18.7103 31.2013 19.4121 31.5738 20.1121C32.0524 21.0127 32.5344 21.9113 33.0129 22.812C33.3844 23.5109 33.7523 24.212 34.1238 24.9109C34.724 26.0376 35.3251 27.1644 35.9269 28.2911C36.1547 28.7196 36.4061 29.1362 36.5899 29.5872C36.8195 30.1506 36.9773 30.7266 36.9674 31.3414C36.9611 31.7519 36.9783 32.1629 36.8857 32.5685C36.5977 33.8336 35.9576 34.8698 34.921 35.6624C34.5291 35.9624 34.1048 36.2121 33.6492 36.3723C33.2013 36.5293 32.7316 36.6578 32.2407 36.6332C31.9745 36.6195 31.7069 36.6311 31.44 36.6304C30.683 36.6285 29.941 36.4194 29.2943 36.0258C28.8799 35.7793 28.4919 35.492 28.1605 35.1371C27.8243 34.7769 27.5232 34.3899 27.2908 33.9533C26.9479 33.3097 26.6056 32.6658 26.2641 32.0217C25.7728 31.0977 25.2821 30.1736 24.7919 29.2492C24.5103 28.7172 24.2325 28.1834 23.9469 27.6534C23.6061 27.0196 23.2698 26.3809 22.9297 25.7454C22.5184 24.9778 22.1029 24.2123 21.7121 23.4342C21.5734 23.1585 21.448 22.8785 21.2505 22.6391C20.2593 21.4377 18.9935 20.9423 17.4513 21.1796C16.8717 21.2687 16.3478 21.5029 15.8668 21.8384C15.8612 21.8426 15.8566 21.8486 15.8506 21.8525C15.727 21.9352 15.5883 21.9465 15.5119 21.8803C15.4474 21.8243 15.4203 21.6388 15.4767 21.5377C15.5034 21.4881 15.5305 21.4377 15.559 21.3888C15.8995 20.8025 16.228 20.2096 16.5911 19.6364C16.7319 19.411 16.8474 19.1698 17.002 18.9494C17.1287 18.7684 17.2171 18.5529 17.3305 18.3575C17.6122 17.8727 17.8998 17.392 18.1822 16.9082C18.4502 16.4505 18.7132 15.9879 18.9808 15.5294C19.2484 15.071 19.5072 14.6206 19.7829 14.1741C20.0054 13.8143 20.3156 13.5266 20.6058 13.2235C20.7762 13.0446 20.9755 12.9066 21.1646 12.752L21.2251 12.7196Z" fill="#1B1F22"/>
<path d="M13.2898 26.44C13.4532 26.3974 13.5461 26.2513 13.6905 26.1721C13.9975 25.9971 14.3166 25.8441 14.6454 25.7144C15.4123 25.4247 16.2326 25.3034 17.0506 25.3587C17.9319 25.4149 18.7872 25.6804 19.5453 26.1334C20.2646 26.5559 20.8674 27.1101 21.3259 27.8052C22.0241 28.8636 22.3885 30.0252 22.2987 31.3037C22.1776 33.0322 21.4283 34.4283 20.0618 35.4979C19.6675 35.8073 19.2312 36.0591 18.7661 36.2458C18.039 36.537 17.2714 36.6525 16.4848 36.6261C16.1396 36.6099 15.796 36.5683 15.457 36.5014C14.6933 36.367 13.9732 36.0509 13.3574 35.5796C13.2088 35.4659 13.0458 35.3684 12.9253 35.2166C12.8419 35.111 12.6824 35.0811 12.6194 34.9557C12.5201 34.7592 12.3444 34.629 12.2092 34.4652C11.9275 34.1226 11.712 33.7462 11.5148 33.3526C11.262 32.8473 11.1571 32.3047 11.0786 31.7537C10.9962 31.1528 11.0092 30.5428 11.1169 29.946C11.1253 29.9322 11.1308 29.917 11.1332 29.9011C11.1356 29.8852 11.1349 29.869 11.131 29.8534C11.1976 29.5847 11.231 29.3097 11.3381 29.0484C11.4764 28.7097 11.6106 28.3703 11.8176 28.0664C11.9831 27.8231 12.1313 27.5604 12.3349 27.3531C12.4916 27.1928 12.6049 26.9957 12.8014 26.8601C12.9563 26.7545 13.0954 26.6066 13.2405 26.4763L13.2898 26.44Z" fill="#1B1F22"/>
</svg>
