<svg width="10" height="10" viewBox="0 0 10 10" fill="none" xmlns="http://www.w3.org/2000/svg">
<g clip-path="url(#clip0_559_162699)">
<path d="M7.5 1.25C7.16848 1.25 6.85054 1.3817 6.61612 1.61612C6.3817 1.85054 6.25 2.16848 6.25 2.5V7.5C6.25 7.83152 6.3817 8.14946 6.61612 8.38388C6.85054 8.6183 7.16848 8.75 7.5 8.75C7.83152 8.75 8.14946 8.6183 8.38388 8.38388C8.6183 8.14946 8.75 7.83152 8.75 7.5C8.75 7.16848 8.6183 6.85054 8.38388 6.61612C8.14946 6.3817 7.83152 6.25 7.5 6.25H2.5C2.16848 6.25 1.85054 6.3817 1.61612 6.61612C1.3817 6.85054 1.25 7.16848 1.25 7.5C1.25 7.83152 1.3817 8.14946 1.61612 8.38388C1.85054 8.6183 2.16848 8.75 2.5 8.75C2.83152 8.75 3.14946 8.6183 3.38388 8.38388C3.6183 8.14946 3.75 7.83152 3.75 7.5V2.5C3.75 2.16848 3.6183 1.85054 3.38388 1.61612C3.14946 1.3817 2.83152 1.25 2.5 1.25C2.16848 1.25 1.85054 1.3817 1.61612 1.61612C1.3817 1.85054 1.25 2.16848 1.25 2.5C1.25 2.83152 1.3817 3.14946 1.61612 3.38388C1.85054 3.6183 2.16848 3.75 2.5 3.75H7.5C7.83152 3.75 8.14946 3.6183 8.38388 3.38388C8.6183 3.14946 8.75 2.83152 8.75 2.5C8.75 2.16848 8.6183 1.85054 8.38388 1.61612C8.14946 1.3817 7.83152 1.25 7.5 1.25Z" stroke="#092C4C" stroke-linecap="round" stroke-linejoin="round"/>
</g>
<defs>
<clipPath id="clip0_559_162699">
<rect width="10" height="10" fill="white"/>
</clipPath>
</defs>
</svg>
