<svg width="24" height="24" viewBox="0 0 24 24" fill="none" xmlns="http://www.w3.org/2000/svg">
<path fill-rule="evenodd" clip-rule="evenodd" d="M6.99834 6.8454C7.49342 7.24764 7.67915 7.21695 8.60886 7.15492L17.3735 6.62864C17.5594 6.62864 17.4048 6.44319 17.3428 6.41238L15.8872 5.36008C15.6083 5.14354 15.2367 4.89556 14.5245 4.95759L6.03769 5.57659C5.72818 5.60728 5.66636 5.76204 5.78962 5.88607L6.99834 6.8454ZM7.52455 8.888V18.1099C7.52455 18.6055 7.77222 18.791 8.32965 18.7603L17.962 18.2029C18.5197 18.1723 18.5818 17.8314 18.5818 17.4288V8.26872C18.5818 7.86676 18.4272 7.65 18.0858 7.68094L8.01992 8.26872C7.64843 8.29994 7.52455 8.48576 7.52455 8.888ZM17.0336 9.38268C17.0953 9.66148 17.0336 9.94002 16.7542 9.97137L16.2901 10.0638V16.872C15.8872 17.0886 15.5156 17.2124 15.206 17.2124C14.7102 17.2124 14.5861 17.0576 14.2147 16.5937L11.179 11.8279V16.4389L12.1396 16.6557C12.1396 16.6557 12.1396 17.2124 11.3646 17.2124L9.22795 17.3364C9.16588 17.2124 9.22795 16.9032 9.44468 16.8413L10.0022 16.6868V10.5901L9.2281 10.528C9.16601 10.2493 9.32064 9.84727 9.75457 9.81608L12.0467 9.66157L15.206 14.4894V10.2186L14.4005 10.1261C14.3386 9.7853 14.5861 9.53781 14.8958 9.50713L17.0336 9.38268ZM5.32513 4.74108L14.1528 4.09099C15.2368 3.99801 15.5157 4.0603 16.1971 4.55523L19.015 6.53579C19.4799 6.87637 19.6349 6.9691 19.6349 7.34036V18.2029C19.6349 18.8837 19.3869 19.2863 18.5199 19.3479L8.26831 19.967C7.61743 19.998 7.30766 19.9053 6.9668 19.4717L4.89167 16.7794C4.51987 16.2837 4.36523 15.913 4.36523 15.4792V5.82382C4.36523 5.26711 4.61331 4.80271 5.32513 4.74108Z" fill="black"/>
</svg>
