<svg width="24" height="24" viewBox="0 0 24 24" fill="none" xmlns="http://www.w3.org/2000/svg">
<path d="M17.1077 5.28125H6.73157C6.43212 5.28184 6.14506 5.39992 5.933 5.60974C5.72094 5.81955 5.6011 6.10408 5.59961 6.40125V17.6012C5.59961 18.2172 6.10916 18.7213 6.73157 18.7213H17.1077C17.4071 18.7207 17.6942 18.6026 17.9062 18.3928C18.1183 18.1829 18.2381 17.8984 18.2396 17.6012V17.0788C18.221 16.4068 18.2018 15.0068 18.2018 14.3717C18.2018 14.0173 17.9377 13.7188 17.598 13.7188C17.2211 13.7188 16.9756 13.9428 16.7871 14.1293C16.2212 14.6333 15.3719 14.7268 14.6361 14.5957C14.2969 14.5212 13.9759 14.4277 13.7118 14.2597C12.9003 13.7933 12.3722 12.9157 12.3722 11.9828C12.3722 11.0493 12.9003 10.1908 13.7118 9.70525C13.9951 9.53725 14.3156 9.44373 14.6361 9.36925C15.3527 9.23877 16.2212 9.33173 16.7871 9.83573C16.9942 10.0228 17.2397 10.2468 17.598 10.2468C17.9377 10.2468 18.2018 9.94773 18.2018 9.59325C18.2018 8.97725 18.221 7.55877 18.2396 6.88677V6.40125C18.2396 5.78525 17.7301 5.28125 17.1077 5.28125Z" fill="#EE5A29"/>
</svg>
