<svg width="24" height="24" viewBox="0 0 24 24" fill="none" xmlns="http://www.w3.org/2000/svg">
<path d="M11.0721 4.8236L4.63265 7.49688C4.27456 7.64553 4.27827 8.1558 4.63865 8.29917L11.105 10.8718C11.6731 11.0979 12.3058 11.0979 12.874 10.8718L19.3404 8.2991C19.7007 8.15587 19.7045 7.64559 19.3462 7.49688L12.9069 4.82353C12.3195 4.57966 11.6595 4.57966 11.0721 4.82353" fill="#FFBF00"/>
<path d="M12.5635 12.2783V18.7051C12.5635 19.0108 12.8707 19.2202 13.1539 19.1075L20.3594 16.3015C20.4397 16.2696 20.5087 16.2141 20.5572 16.1424C20.6058 16.0706 20.6318 15.9859 20.6318 15.8992V9.47228C20.6318 9.16659 20.3246 8.95733 20.0413 9.06995L12.8358 11.8759C12.7555 11.9079 12.6866 11.9633 12.638 12.0351C12.5894 12.1068 12.5635 12.1916 12.5635 12.2783" fill="#26B5F8"/>
<path d="M10.8814 12.6062L8.743 13.642L8.52586 13.7474L4.01173 15.9173C3.72559 16.0558 3.36035 15.8466 3.36035 15.5277V9.4955C3.36035 9.3801 3.41935 9.28048 3.49846 9.20545C3.53087 9.17309 3.56763 9.14544 3.60767 9.1233C3.71554 9.05836 3.86944 9.04102 4.00025 9.09296L10.8454 11.814C11.1934 11.9525 11.2207 12.4416 10.8814 12.6061" fill="#ED3049"/>
<path d="M10.8811 12.6061L8.74266 13.642L3.49805 9.20545C3.53046 9.17309 3.56722 9.14544 3.60726 9.1233C3.71513 9.05836 3.86903 9.04102 3.99984 9.09296L10.845 11.814C11.193 11.9525 11.2203 12.4416 10.881 12.6061" fill="black" fill-opacity="0.25"/>
</svg>
