<svg width="24" height="24" viewBox="0 0 24 24" fill="none" xmlns="http://www.w3.org/2000/svg">
<path fill-rule="evenodd" clip-rule="evenodd" d="M12.6396 19.5339C12.6396 19.7917 12.844 20.0006 13.0962 20.0006H19.3965C19.6486 20.0006 19.8545 19.7911 19.8388 19.5338C19.6127 15.8333 16.7164 12.8726 13.0963 12.6415C12.8446 12.6254 12.6396 12.8359 12.6396 13.0936V19.5339Z" fill="#254078"/>
<path fill-rule="evenodd" clip-rule="evenodd" d="M11.2 13.1073C11.2 12.8496 10.9956 12.6406 10.7435 12.6406H4.44317C4.19102 12.6406 3.98512 12.8502 4.00085 13.1074C4.22697 16.8079 7.12328 19.7686 10.7434 19.9998C10.995 20.0158 11.2 19.8053 11.2 19.5476V13.1073Z" fill="#254078"/>
<path fill-rule="evenodd" clip-rule="evenodd" d="M11.2 10.8933C11.2 11.1511 10.9956 11.36 10.7435 11.36H4.44317C4.19102 11.36 3.98512 11.1505 4.00085 10.8932C4.22697 7.19268 7.12328 4.23201 10.7434 4.00086C10.995 3.98479 11.2 4.19526 11.2 4.45301V10.8933Z" fill="#FF62FD"/>
<path fill-rule="evenodd" clip-rule="evenodd" d="M12.6396 4.46669C12.6396 4.20894 12.844 4 13.0962 4H19.3965C19.6486 4 19.8545 4.20953 19.8388 4.46678C19.6127 8.1673 16.7164 11.128 13.0963 11.3591C12.8446 11.3752 12.6396 11.1647 12.6396 10.907V4.46669Z" fill="#0078FF"/>
</svg>
