<svg width="26" height="22" viewBox="0 0 26 22" fill="none" xmlns="http://www.w3.org/2000/svg">
<path d="M7.75586 11.0595L13.9604 13.6607L18.1252 10.5561L14.8106 5.77344L7.75645 11.0595H7.75586Z" fill="white"/>
<path d="M12.9996 16.5932L2.22586 11.0018L0.830078 12.0009V12.6128L12.9996 21.3409L25.1691 12.6128V12.0021L23.7745 11L12.9996 16.5932Z" fill="#1C0172"/>
<path d="M12.9996 0.65625L0.830078 9.38431V9.99504L12.9996 18.7231L25.1691 9.99504V9.38431L13.0002 0.65625H12.9996ZM14.5922 9.26928L13.1081 7.22364L14.3734 6.29747L17.012 10.2008L15.9489 10.9775L13.1128 9.8053L13.101 9.8136L14.7161 11.8806L13.6536 12.6573L8.3189 10.7279L9.5878 9.79937L12.3764 10.8844L12.3918 10.8726L10.8442 8.87913L11.8422 8.14981L14.5756 9.28114L14.5916 9.26928H14.5922Z" fill="#4608AD"/>
</svg>
