<svg width="24" height="24" viewBox="0 0 24 24" fill="none" xmlns="http://www.w3.org/2000/svg">
<path d="M13.4213 17.2219C10.9678 19.6785 4.48565 19.4459 4.48565 19.4459C4.48565 19.4459 4.26406 12.9688 6.72022 10.5122C9.17639 8.05556 11.5258 8.6998 13.3946 10.5523C15.2634 12.4048 15.8748 14.7625 13.4213 17.2219Z" fill="#4F88F7"/>
<path d="M13.6642 14.3235C12.1798 15.8098 8.26597 15.6735 8.26597 15.6735C8.26597 15.6735 8.12981 11.7546 9.61419 10.2683C11.0986 8.78205 12.5215 9.17233 13.6402 10.2924C14.7588 11.4124 15.1486 12.8372 13.6642 14.3235Z" fill="#F58127"/>
<path d="M15.7657 11.309C17.7508 9.32129 18.6366 6.98556 17.7441 6.09195C16.8517 5.19834 14.5189 6.08524 12.5338 8.0729C10.5487 10.0606 9.66294 12.3963 10.5554 13.2899C11.4479 14.1835 13.7806 13.2966 15.7657 11.309Z" fill="#B7CDE5"/>
<path d="M16.1122 13.3701C16.2958 11.7135 15.8411 10.3035 15.0966 10.2208C14.3521 10.1381 13.5998 11.4141 13.4163 13.0707C13.2328 14.7273 13.6875 16.1373 14.4319 16.22C15.1764 16.3027 15.9287 15.0268 16.1122 13.3701Z" fill="#B7CDE5"/>
<path d="M10.7929 10.4448C12.4474 10.261 13.7217 9.50773 13.6391 8.76232C13.5565 8.0169 12.1483 7.5616 10.4938 7.74538C8.8393 7.92915 7.56499 8.6824 7.64758 9.42782C7.73016 10.1732 9.13836 10.6285 10.7929 10.4448Z" fill="#B7CDE5"/>
<path d="M15.5683 9.32847C16.1006 9.32847 16.532 8.89641 16.532 8.36345C16.532 7.83049 16.1006 7.39844 15.5683 7.39844C15.036 7.39844 14.6045 7.83049 14.6045 8.36345C14.6045 8.89641 15.036 9.32847 15.5683 9.32847Z" fill="#F0F5FC"/>
</svg>
