<svg width="24" height="24" viewBox="0 0 24 24" fill="none" xmlns="http://www.w3.org/2000/svg">
<circle cx="12" cy="12" r="12" fill="#FF7A59"/>
<circle cx="12" cy="12" r="12" stroke="black"/>
<path d="M16.064 9.28665V7.38932C16.3151 7.27192 16.5278 7.0857 16.6773 6.85228C16.8268 6.61887 16.907 6.34784 16.9087 6.07065V6.02599C16.9076 5.6385 16.7533 5.26718 16.4793 4.99312C16.2054 4.71907 15.8342 4.56455 15.4467 4.56332H15.402C15.0146 4.56455 14.6435 4.71897 14.3696 4.99289C14.0957 5.2668 13.9412 5.63795 13.94 6.02532V6.06999C13.9412 6.34556 14.0202 6.6152 14.1679 6.84789C14.3155 7.08057 14.5259 7.26686 14.7747 7.38532L14.7833 7.38932V9.29066C14.0579 9.40149 13.3749 9.70286 12.804 10.164L12.812 10.1573L7.59334 6.09399C7.6927 5.72176 7.65987 5.32659 7.50045 4.97586C7.34104 4.62512 7.06491 4.34054 6.71914 4.17064C6.37336 4.00073 5.97937 3.95601 5.60431 4.04411C5.22926 4.13221 4.89638 4.34767 4.66242 4.65376C4.42846 4.95985 4.30791 5.33761 4.32132 5.72263C4.33474 6.10766 4.48129 6.47612 4.73598 6.76518C4.99068 7.05424 5.33775 7.24601 5.71802 7.30779C6.0983 7.36958 6.48823 7.29755 6.82134 7.10399L6.81334 7.10799L11.9447 11.102C11.4911 11.7821 11.2502 12.5818 11.2527 13.3993C11.2516 14.2609 11.5188 15.1013 12.0173 15.804L12.0087 15.7907L10.4473 17.3527C10.3223 17.3123 10.192 17.291 10.0607 17.2893H10.0593C9.79128 17.2893 9.52924 17.3688 9.30636 17.5177C9.08347 17.6667 8.90976 17.8783 8.80717 18.126C8.70459 18.3737 8.67775 18.6462 8.73005 18.9091C8.78234 19.172 8.91143 19.4135 9.10097 19.603C9.29052 19.7926 9.53202 19.9217 9.79493 19.974C10.0578 20.0263 10.3303 19.9994 10.578 19.8968C10.8257 19.7942 11.0373 19.6205 11.1863 19.3976C11.3352 19.1748 11.4147 18.9127 11.4147 18.6447C11.4129 18.5098 11.3904 18.376 11.348 18.248L11.3513 18.2573L12.896 16.7127C13.3995 17.0968 13.9839 17.3611 14.6049 17.4854C15.2259 17.6097 15.867 17.5908 16.4796 17.43C17.0921 17.2692 17.66 16.9709 18.1399 16.5577C18.6198 16.1444 18.9991 15.6272 19.249 15.0453C19.4989 14.4634 19.6129 13.8322 19.5821 13.1996C19.5514 12.5671 19.3768 11.9499 19.0716 11.3949C18.7665 10.84 18.3388 10.362 17.821 9.99724C17.3033 9.63249 16.7093 9.3906 16.084 9.28999L16.06 9.28665H16.064ZM15.4213 15.5387C14.9989 15.5375 14.5863 15.4111 14.2356 15.1756C13.8849 14.94 13.6119 14.6059 13.4511 14.2153C13.2902 13.8246 13.2487 13.3951 13.3318 12.9809C13.4149 12.5667 13.6188 12.1865 13.9179 11.8881C14.217 11.5898 14.5978 11.3868 15.0122 11.3047C15.4266 11.2227 15.856 11.2652 16.2462 11.4271C16.6364 11.5889 16.9699 11.8628 17.2046 12.214C17.4392 12.5653 17.5645 12.9782 17.5647 13.4007V13.402C17.5648 13.6828 17.5095 13.9608 17.4021 14.2203C17.2947 14.4797 17.1372 14.7154 16.9387 14.914C16.7401 15.1125 16.5044 15.27 16.245 15.3774C15.9855 15.4848 15.7075 15.5401 15.4267 15.54L15.4213 15.5387Z" fill="white"/>
</svg>
