<svg width="20" height="20" viewBox="0 0 20 20" fill="none" xmlns="http://www.w3.org/2000/svg">
<g clip-path="url(#clip0_1986_306177)">
<path d="M16.2378 3.47611C16.2026 3.49954 15.7456 3.81986 15.2222 4.18314C14.4487 4.72611 14.2612 4.87454 14.1909 5.00736C14.0855 5.19876 14.0776 5.40189 14.1714 5.56986C14.3081 5.81986 15.5308 7.53079 15.6245 7.60111C15.6987 7.65579 15.7886 7.67532 15.9839 7.67532C16.2339 7.67532 16.2534 7.66751 16.3901 7.53079C16.5073 7.41751 16.5386 7.35501 16.5542 7.19095C16.5776 6.92142 16.5581 6.86282 16.2925 6.48392C16.1636 6.30423 16.0659 6.14798 16.0737 6.14017C16.0816 6.12845 16.2534 6.20267 16.4566 6.30032C17.5464 6.83157 18.3589 7.81204 18.6792 8.98392C18.7573 9.27298 18.7691 9.40579 18.7691 9.99954C18.7691 10.5933 18.7573 10.7261 18.6792 11.0152C18.5698 11.4097 18.3159 11.9644 18.0894 12.3003C17.5503 13.0933 16.6714 13.7105 15.7222 13.9683C15.3862 14.0581 15.2534 14.0738 14.7456 14.0777C14.3003 14.0816 14.0855 14.0659 13.8511 14.0074C12.5581 13.7066 11.5581 12.898 10.9917 11.7027C10.7417 11.1753 10.6675 10.8355 10.605 9.95657C10.5425 9.10892 10.48 8.74954 10.3081 8.24954C10.0347 7.46829 9.58155 6.76907 8.96436 6.17923C8.19483 5.43704 7.37452 5.01126 6.28858 4.77689C5.82765 4.67923 4.76124 4.67923 4.3003 4.77689C3.54249 4.94095 2.97999 5.17142 2.37843 5.56595C1.1753 6.35111 0.304208 7.67923 0.0620207 9.08157C-0.0200106 9.54251 -0.0200106 10.4683 0.0581144 10.9214C0.187021 11.6597 0.530771 12.4683 0.976083 13.0972C1.27686 13.5191 1.91358 14.1363 2.32765 14.4097C2.66749 14.6324 3.24561 14.9253 3.50733 15.0034C3.59718 15.0308 3.6714 15.062 3.6714 15.0777C3.6714 15.0894 3.53468 15.1949 3.36671 15.312C2.95265 15.5933 2.90968 15.6597 2.90968 15.9839C2.90968 16.2378 2.91749 16.2534 3.05421 16.3941C3.18311 16.5191 3.22608 16.5386 3.42921 16.5542C3.56202 16.562 3.69483 16.5503 3.74171 16.5269C3.78858 16.5034 4.25343 16.1831 4.77296 15.8199C5.55811 15.2691 5.7378 15.1284 5.81202 14.9917C5.91358 14.8003 5.9214 14.5972 5.82765 14.4292C5.69093 14.1792 4.46827 12.4683 4.37452 12.398C4.3003 12.3433 4.21046 12.3238 4.01515 12.3238C3.76515 12.3238 3.74561 12.3316 3.6089 12.4683C3.49171 12.5816 3.46046 12.6441 3.44483 12.8081C3.4214 13.0777 3.44093 13.1363 3.70655 13.5152C3.83546 13.6949 3.93311 13.8511 3.9253 13.8589C3.91749 13.8706 3.74561 13.7964 3.54249 13.6988C2.45265 13.1675 1.64015 12.187 1.31983 11.0152C1.24171 10.7261 1.22999 10.5933 1.22999 9.99954C1.22999 9.20657 1.29249 8.90579 1.57765 8.29642C1.81593 7.79642 2.03077 7.49173 2.41749 7.10892C2.81593 6.71439 3.20265 6.44876 3.68311 6.24173C4.26905 5.98782 4.6128 5.92142 5.31202 5.92142C5.83546 5.92532 5.96827 5.93704 6.29249 6.02298C7.19874 6.26907 7.99952 6.80032 8.55811 7.5347C8.81202 7.87064 9.15577 8.56986 9.25733 8.96439C9.30811 9.15579 9.35499 9.51517 9.37843 9.88236C9.42921 10.7066 9.51124 11.1949 9.66749 11.6675C9.94874 12.5113 10.3198 13.105 10.9722 13.7495C11.6167 14.3902 12.2534 14.7886 13.0269 15.0386C13.6831 15.2495 13.98 15.2925 14.7261 15.2886C15.3237 15.2886 15.4644 15.273 15.8472 15.1831C16.9253 14.9331 17.8159 14.4253 18.562 13.6402C19.2847 12.8745 19.7769 11.898 19.9409 10.898C20.0191 10.4175 20.0191 9.52689 19.9409 9.07767C19.812 8.33939 19.4683 7.53079 19.023 6.90189C18.7222 6.48001 18.0855 5.86282 17.6714 5.58939C17.3316 5.36673 16.7534 5.07376 16.4956 4.99564C16.4019 4.96829 16.3276 4.93704 16.3276 4.92142C16.3276 4.90579 16.437 4.81986 16.5737 4.73001C16.7066 4.64407 16.8784 4.50736 16.9526 4.43314C17.0816 4.30032 17.0894 4.27689 17.0894 4.02298C17.0894 3.76126 17.0855 3.74564 16.9448 3.60501C16.812 3.4722 16.7769 3.46048 16.5542 3.44876C16.4175 3.44095 16.2769 3.45267 16.2378 3.47611Z" fill="#111827"/>
<path d="M2.34247 8.7887C2.26825 8.86292 2.26434 8.91761 2.26434 9.99964C2.26434 11.3825 2.22137 11.2887 2.82294 11.2887C3.38544 11.2887 3.59637 11.2223 3.85028 10.9606C4.06903 10.7379 4.16669 10.5153 4.20575 10.1481C4.25262 9.69105 4.06122 9.14417 3.77216 8.92542C3.56512 8.76917 3.31903 8.71058 2.84247 8.71058C2.47137 8.71058 2.41278 8.71839 2.34247 8.7887ZM3.31512 9.39417C3.62372 9.55042 3.6745 10.2106 3.40106 10.5153C3.31512 10.6129 3.25653 10.6403 3.09247 10.6559L2.88934 10.6754V10.0035V9.33558H3.04559C3.13544 9.33558 3.25653 9.36292 3.31512 9.39417Z" fill="#111827"/>
<path d="M4.66797 8.80859L4.57031 8.90234V10V11.0977L4.66797 11.1914C4.75781 11.2852 4.78125 11.2891 5.29297 11.2891C5.80469 11.2891 5.82812 11.2852 5.91797 11.1914C6.04688 11.0664 6.04688 10.8867 5.91797 10.7617C5.83203 10.6758 5.79297 10.6641 5.50781 10.6641H5.19531V10.4883V10.3125H5.46484C5.80859 10.3125 5.9375 10.2266 5.9375 10C5.9375 9.77344 5.80859 9.6875 5.46484 9.6875H5.19531V9.51172V9.33594H5.50781C5.79297 9.33594 5.83203 9.32422 5.91797 9.23828C5.98047 9.17969 6.01562 9.09766 6.01562 9.02344C6.01562 8.94922 5.98047 8.86719 5.91797 8.80859C5.82812 8.71484 5.80469 8.71094 5.29297 8.71094C4.78125 8.71094 4.75781 8.71484 4.66797 8.80859Z" fill="#111827"/>
<path d="M6.46484 8.80859C6.41016 8.85938 6.36719 8.94531 6.36719 9C6.36719 9.05469 6.52344 9.55078 6.71875 10.1055C7.08594 11.1602 7.15625 11.2891 7.36328 11.2891C7.5 11.2891 7.64062 11.2148 7.69141 11.1172C7.79688 10.918 8.35938 9.14844 8.35938 9.01562C8.35938 8.85547 8.22266 8.71094 8.06641 8.71094C7.87109 8.71094 7.78906 8.83984 7.59375 9.45312C7.49219 9.77734 7.39844 10.0391 7.38672 10.0391C7.375 10.0391 7.26953 9.76562 7.15234 9.43359C7.01172 9.02344 6.91797 8.80859 6.86328 8.76953C6.73828 8.68359 6.57031 8.69922 6.46484 8.80859Z" fill="#111827"/>
<path d="M12.1992 8.74609C11.9648 8.80469 11.6602 9.00781 11.5156 9.20312C11.3242 9.44922 11.25 9.67969 11.25 10C11.25 10.5156 11.4844 10.9062 11.9297 11.1328C12.1758 11.2578 12.2266 11.2695 12.5352 11.2695C12.8008 11.2695 12.9062 11.25 13.0508 11.1797C13.3359 11.0391 13.5391 10.8398 13.6758 10.5625C13.7852 10.3398 13.8047 10.2656 13.8047 10C13.8047 9.73438 13.7852 9.66016 13.6758 9.4375C13.543 9.16406 13.3359 8.95703 13.0625 8.82422C12.875 8.73438 12.4062 8.69141 12.1992 8.74609ZM12.7969 9.41016C12.8828 9.44922 12.9922 9.53125 13.0391 9.58984C13.3086 9.92969 13.1875 10.4102 12.7969 10.5898C12.5898 10.6836 12.4453 10.6836 12.2383 10.582C11.7656 10.3516 11.7578 9.67188 12.2227 9.42578C12.4297 9.31641 12.582 9.3125 12.7969 9.41016Z" fill="#111827"/>
<path d="M14.2578 8.78823C14.1836 8.86245 14.1797 8.91714 14.1797 9.99526V11.1281L14.2812 11.2062C14.3984 11.3 14.5586 11.3117 14.6562 11.2335C14.7617 11.1554 14.8047 10.9953 14.8047 10.6984V10.4289H14.9961C15.3828 10.4289 15.6602 10.2609 15.8086 9.93276C16.0039 9.50308 15.8477 9.03433 15.4336 8.81948C15.2422 8.71792 15.1914 8.71011 14.7812 8.71011C14.3867 8.71011 14.3281 8.71792 14.2578 8.78823ZM15.1836 9.42104C15.3633 9.58901 15.2383 9.80386 14.9609 9.80386H14.8047V9.56948V9.33511H14.9492C15.043 9.33511 15.125 9.36636 15.1836 9.42104Z" fill="#111827"/>
<path d="M16.9023 8.76144C16.707 8.82394 16.5117 8.988 16.4336 9.15207C16.2969 9.44113 16.3906 9.863 16.625 10.0193C16.6875 10.0583 16.8906 10.1521 17.0859 10.2302C17.4922 10.3982 17.5664 10.4763 17.4258 10.5896C17.375 10.6286 17.2891 10.6638 17.2305 10.6638C17.1055 10.6638 16.8359 10.5427 16.7617 10.4568C16.7305 10.4177 16.6523 10.3903 16.5664 10.3903C16.3789 10.3903 16.25 10.5193 16.25 10.6989C16.25 10.9489 16.6641 11.2302 17.1016 11.2732C17.4102 11.3083 17.6445 11.2419 17.8555 11.0622C18.0469 10.8982 18.125 10.7341 18.125 10.4919C18.125 10.0661 17.9336 9.87863 17.2383 9.60519C16.9805 9.50753 16.9375 9.44503 17.0742 9.37082C17.1875 9.31222 17.3984 9.35128 17.5273 9.44894C17.7188 9.60128 18.0117 9.52707 18.0625 9.31222C18.1602 8.9216 17.4609 8.58957 16.9023 8.76144Z" fill="#111827"/>
</g>
<defs>
<clipPath id="clip0_1986_306177">
<rect width="20" height="20" fill="white"/>
</clipPath>
</defs>
</svg>
