<svg width="20" height="20" viewBox="0 0 20 20" fill="none" xmlns="http://www.w3.org/2000/svg">
<path fill-rule="evenodd" clip-rule="evenodd" d="M7.81427 1.77036C7.27795 1.38868 6.52721 1.70094 6.41978 2.35038C6.33241 2.87851 5.80205 3.21065 5.28877 3.0587C4.65759 2.87184 4.04891 3.41094 4.15817 4.06007C4.24702 4.58796 3.85325 5.07431 3.31843 5.09725C2.66077 5.12546 2.26013 5.83299 2.57424 6.41148C2.82968 6.88191 2.61516 7.46977 2.11677 7.66512C1.5039 7.90534 1.3547 8.70463 1.83963 9.14977C2.23397 9.51178 2.22196 10.1374 1.814 10.484C1.31234 10.9102 1.43075 11.7147 2.03394 11.9782C2.52446 12.1926 2.71625 12.7882 2.44294 13.2485C2.10685 13.8145 2.48004 14.5369 3.13613 14.5903C3.66967 14.6338 4.04448 15.1349 3.93543 15.659C3.80133 16.3035 4.38885 16.8655 5.02675 16.703C5.54549 16.5709 6.0627 16.9232 6.12973 17.4543C6.21215 18.1073 6.95035 18.4482 7.50092 18.0874C7.94865 17.794 8.55222 17.9592 8.78806 18.4398C9.07807 19.0307 9.88694 19.1134 10.2905 18.5934C10.6187 18.1705 11.2432 18.1308 11.6223 18.5087C12.0885 18.9735 12.8804 18.789 13.0933 18.1661C13.2664 17.6596 13.8442 17.4193 14.3254 17.6536C14.9173 17.9418 15.6064 17.5103 15.6054 16.852C15.6047 16.3167 16.0732 15.9018 16.6044 15.9672C17.2578 16.0476 17.7694 15.4157 17.5548 14.7934C17.3803 14.2873 17.6886 13.7428 18.2124 13.6321C18.8564 13.4961 19.1352 12.7322 18.7301 12.2133C18.4007 11.7914 18.5156 11.1762 18.975 10.9015C19.54 10.5637 19.5556 9.75074 19.004 9.39148C18.5554 9.09933 18.4643 8.48022 18.8097 8.0712C19.2343 7.56824 18.9851 6.79428 18.3468 6.63358C17.8277 6.5029 17.5405 5.94693 17.7343 5.44794C17.9726 4.83435 17.4856 4.18323 16.8297 4.23851C16.2963 4.28347 15.8441 3.85088 15.8654 3.31599C15.8916 2.65825 15.2196 2.20054 14.6171 2.46581C14.1272 2.68153 13.5591 2.4192 13.4055 1.90638C13.2167 1.27577 12.4325 1.06107 11.9488 1.50758C11.5555 1.87069 10.933 1.80705 10.6212 1.37186C10.2379 0.836725 9.42647 0.888299 9.11399 1.46766C8.85987 1.93881 8.2504 2.08075 7.81427 1.77036ZM10.4301 7.75375C9.19531 7.75375 8.19432 8.75473 8.19432 9.98951C8.19432 11.2243 9.19531 12.2253 10.4301 12.2253C11.6649 12.2253 12.6659 11.2243 12.6659 9.98951C12.6659 8.75473 11.6649 7.75375 10.4301 7.75375Z" fill="white"/>
</svg>
