<svg width="24" height="24" viewBox="0 0 24 24" fill="none" xmlns="http://www.w3.org/2000/svg">
<rect width="24" height="24" rx="12" fill="#FFF382"/>
<path d="M10.6126 6.30194C10.7376 6.22659 10.859 6.14349 10.9932 6.08557C11.1713 6.00944 11.3571 5.95279 11.5474 5.91657C11.8876 5.84639 12.2387 5.84819 12.5782 5.92184C13.0754 6.02639 13.5308 6.27533 13.8871 6.6375C14.052 6.80361 14.1917 6.99293 14.3017 7.19945C14.6123 7.78172 14.922 8.36428 15.2309 8.94713C15.4167 9.2973 15.6007 9.64817 15.7869 9.99817C16.0262 10.4485 16.2672 10.8978 16.5064 11.3481C16.6922 11.6976 16.8762 12.0481 17.0619 12.3976C17.362 12.961 17.6625 13.5243 17.9635 14.0877C18.0774 14.3019 18.2031 14.5102 18.295 14.7357C18.4098 15.0174 18.4886 15.3054 18.4837 15.6128C18.4805 15.8181 18.4892 16.0236 18.4429 16.2264C18.2988 16.8589 17.9788 17.3771 17.4605 17.7734C17.2645 17.9234 17.0524 18.0482 16.8246 18.1283C16.6006 18.2068 16.3658 18.2711 16.1204 18.2587C15.9873 18.2519 15.8535 18.2577 15.72 18.2573C15.3415 18.2564 14.9705 18.1518 14.6472 17.955C14.4399 17.8318 14.2459 17.6881 14.0803 17.5107C13.9121 17.3306 13.7616 17.1371 13.6454 16.9188C13.4739 16.597 13.3028 16.275 13.132 15.953C12.8864 15.491 12.641 15.0289 12.396 14.5667C12.2551 14.3007 12.1162 14.0338 11.9734 13.7689C11.803 13.452 11.6349 13.1326 11.4648 12.8148C11.2592 12.431 11.0515 12.0483 10.856 11.6592C10.7867 11.5214 10.724 11.3814 10.6252 11.2617C10.1296 10.661 9.49674 10.4133 8.72563 10.532C8.43585 10.5765 8.17388 10.6936 7.93339 10.8613C7.93058 10.8635 7.92829 10.8665 7.92529 10.8684C7.8635 10.9098 7.79413 10.9154 7.75593 10.8823C7.72371 10.8543 7.71016 10.7615 7.73833 10.711C7.75171 10.6862 7.76526 10.661 7.77952 10.6365C7.94977 10.3434 8.11402 10.0469 8.29553 9.76031C8.36595 9.64764 8.4237 9.52705 8.50099 9.41684C8.56436 9.32635 8.60855 9.2186 8.66524 9.12089C8.80608 8.87847 8.94992 8.63816 9.09111 8.39626C9.22509 8.16739 9.3566 7.93606 9.4904 7.70684C9.6242 7.47762 9.7536 7.25245 9.89145 7.02921C10.0027 6.84929 10.1578 6.70545 10.3029 6.55387C10.3881 6.46444 10.4877 6.39542 10.5823 6.31813L10.6126 6.30194Z" fill="#1B1F22"/>
<path d="M6.64489 13.1619C6.72658 13.1406 6.77305 13.0676 6.84524 13.0279C6.99876 12.9404 7.15832 12.864 7.32269 12.7991C7.70617 12.6542 8.11632 12.5936 8.52531 12.6213C8.96597 12.6493 9.39358 12.7821 9.77264 13.0086C10.1323 13.2198 10.4337 13.4969 10.6629 13.8445C11.012 14.3737 11.1943 14.9545 11.1494 15.5937C11.0888 16.458 10.7142 17.156 10.0309 17.6909C9.83374 17.8456 9.6156 17.9715 9.38303 18.0648C9.01948 18.2104 8.63569 18.2681 8.24239 18.2549C8.06979 18.2469 7.89802 18.226 7.72849 18.1926C7.34666 18.1254 6.98659 17.9673 6.67869 17.7317C6.6044 17.6749 6.52288 17.6261 6.46267 17.5502C6.42095 17.4974 6.3412 17.4824 6.30968 17.4197C6.26004 17.3215 6.17219 17.2564 6.10458 17.1745C5.96374 17.0032 5.856 16.815 5.75741 16.6182C5.631 16.3655 5.57854 16.0942 5.53928 15.8187C5.4981 15.5183 5.50458 15.2133 5.55847 14.9149C5.56264 14.908 5.56541 14.9004 5.56662 14.8924C5.56782 14.8845 5.56745 14.8764 5.56551 14.8686C5.59878 14.7342 5.61551 14.5967 5.66903 14.4661C5.73822 14.2968 5.80529 14.127 5.90881 13.9751C5.99156 13.8535 6.06567 13.7221 6.16743 13.6184C6.24578 13.5383 6.30246 13.4397 6.4007 13.3719C6.47817 13.3191 6.54771 13.2452 6.62024 13.1801L6.64489 13.1619Z" fill="#1B1F22"/>
</svg>
