<svg width="24" height="24" viewBox="0 0 24 24" fill="none" xmlns="http://www.w3.org/2000/svg">
<rect width="24" height="24" rx="12" fill="#2BB673"/>
<path d="M12 21.913C17.4748 21.913 21.9131 17.4748 21.9131 12C21.9131 6.52513 17.4748 2.08691 12 2.08691C6.5252 2.08691 2.08698 6.52513 2.08698 12C2.08698 17.4748 6.5252 21.913 12 21.913Z" fill="#2BB673"/>
<path d="M13.9608 13.336C13.5513 13.336 13.2281 13.7024 13.2927 14.1334C13.3574 14.4566 13.6591 14.6721 13.9823 14.6721H15.0167L15.6201 14.5859C14.6504 16.0083 12.991 16.6548 11.1593 16.3531C9.67231 16.116 8.40085 15.1031 7.8621 13.7024C6.63375 10.513 8.96116 7.45286 11.9997 7.45286C13.5729 7.45286 14.9736 8.37952 15.771 9.50012V9.52167C15.9865 9.82337 16.3959 9.90957 16.6976 9.69407C16.9778 9.50012 17.064 9.11222 16.8916 8.81052C15.7925 7.08651 13.8099 5.98746 11.5903 6.13831C8.70256 6.37536 6.3536 8.74587 6.18119 11.6551C5.98724 15.0385 8.65946 17.7754 11.9997 17.7754C13.7453 17.7754 15.3184 17.0211 16.3744 15.7712L16.2451 16.4824V17.1289C16.2451 17.4521 16.4606 17.7538 16.7838 17.8185C17.2148 17.9047 17.5812 17.5599 17.5812 17.1504V13.336H13.9608Z" fill="white"/>
</svg>
