<svg width="24" height="24" viewBox="0 0 24 24" fill="none" xmlns="http://www.w3.org/2000/svg">
<rect width="23.8852" height="24" rx="11.9426" fill="#453AFE"/>
<path d="M16.2588 5.47803C16.3791 5.5797 16.537 5.56985 16.6762 5.61492C17.8292 5.99017 18.6428 7.05073 18.6487 8.26328C18.6619 10.9523 18.6893 13.6422 18.6411 16.3306C18.6109 18.0215 17.3183 19.0905 15.8576 19.1148C14.4227 19.1387 12.9873 19.1387 11.5514 19.1148C8.41184 19.0598 5.58319 16.5991 5.06685 13.5049C4.99202 13.0568 4.95513 12.6032 4.95658 12.1489C4.96036 10.9368 4.95805 9.72487 4.95847 8.51275C4.95847 6.96709 5.74357 5.94363 7.2408 5.53694C7.28441 5.52499 7.33744 5.53694 7.35589 5.47824L16.2588 5.47803ZM12.4715 15.126V15.1417H13.7838C13.8693 15.1417 13.9551 15.1436 14.0406 15.1417C14.4085 15.1314 14.6582 14.9021 14.6591 14.5757C14.6599 14.2493 14.4104 14.0097 14.0433 14.0076C13.1685 14.0028 12.2935 14.0076 11.4185 14.0061C10.547 14.0061 10.0961 13.561 10.0952 12.7011C10.0952 11.8487 10.0963 10.9961 10.0952 10.1435C10.0952 9.72425 9.88203 9.46744 9.53697 9.45989C9.17534 9.45213 8.95585 9.70391 8.95501 10.1364C8.95312 10.989 8.95501 11.8416 8.95501 12.694C8.95501 13.1091 8.99296 13.5137 9.18205 13.8963C9.50762 14.5547 10.1732 15.0836 10.9323 15.1222C11.4436 15.147 11.9581 15.126 12.4715 15.126ZM12.94 9.45675C12.5595 9.45675 12.179 9.44962 11.7988 9.45885C11.4484 9.46744 11.2411 9.68756 11.2382 10.0301C11.2355 10.363 11.4505 10.5865 11.8076 10.5903C12.5589 10.5978 13.3102 10.5978 14.0614 10.5903C14.4029 10.5871 14.6544 10.3408 14.6599 10.033C14.6656 9.70559 14.4159 9.46262 14.0519 9.45633C13.6817 9.45172 13.3109 9.45675 12.94 9.45675ZM12.6522 11.7311C12.3862 11.7311 12.1199 11.7278 11.8541 11.7311C11.4929 11.7366 11.2461 11.9617 11.2386 12.2856C11.2311 12.6095 11.4805 12.8604 11.8419 12.8648C12.3929 12.8717 12.9439 12.8717 13.4949 12.8648C13.8423 12.86 14.0853 12.6212 14.0886 12.3047C14.0922 11.9776 13.8427 11.7387 13.4786 11.7313C13.2033 11.7263 12.9277 11.7311 12.6522 11.7311Z" fill="white"/>
</svg>
