<svg width="97" height="24" viewBox="0 0 97 24" fill="none" xmlns="http://www.w3.org/2000/svg">
<rect width="97" height="24" rx="4" fill="#212529"/>
<g clip-path="url(#clip0_909_19917)">
<path d="M11.9199 11.9902L13.2848 13.5503L15.1202 14.7231L15.4394 12.0001L15.1202 9.3385L13.2496 10.3688L11.9199 11.9902Z" fill="#03C95A"/>
<path d="M4 14.4697V16.7901C4 17.3199 4.43006 17.7501 4.95998 17.7501H7.28037L7.76086 15.9969L7.28037 14.4697L5.68842 13.9893L4.00005 14.4697H4Z" fill="#1B84FF"/>
<path d="M7.28038 6.23047L4 9.51084L5.68853 9.99018L7.28038 9.51084L7.75211 8.00448L7.28038 6.23047Z" fill="#E70D0D"/>
<path d="M4 14.4707H7.28032V9.51074H4V14.4707Z" fill="#1B84FF"/>
<path d="M17.2157 7.61948L15.1201 9.33864V14.7232L17.2243 16.449C17.5393 16.6957 18.0001 16.4709 18.0001 16.0704V7.99037C18.0001 7.58552 17.5283 7.36174 17.2156 7.61954" fill="#03C95A"/>
<path d="M11.92 11.9902V14.4697H7.2804V17.75H14.1603C14.6902 17.75 15.1202 17.3199 15.1202 16.79V14.7231L11.92 11.9902Z" fill="#03C95A"/>
<path d="M14.1603 6.23047H7.2804V9.51084H11.92V11.9903L15.1203 9.33847V7.19051C15.1203 6.66059 14.6902 6.23052 14.1603 6.23052" fill="#FFC107"/>
</g>
<path d="M26.828 16V9.688H27.68L27.776 10.636H27.86C28.02 10.38 28.2 10.172 28.4 10.012C28.6 9.852 28.82 9.736 29.06 9.664C29.3 9.584 29.56 9.544 29.84 9.544C30.248 9.544 30.6 9.628 30.896 9.796C31.192 9.956 31.412 10.236 31.556 10.636H31.628C31.78 10.38 31.956 10.176 32.156 10.024C32.356 9.864 32.58 9.744 32.828 9.664C33.076 9.584 33.34 9.544 33.62 9.544C34.004 9.544 34.34 9.612 34.628 9.748C34.916 9.876 35.14 10.092 35.3 10.396C35.468 10.692 35.552 11.092 35.552 11.596V16H34.496V11.764C34.496 11.508 34.464 11.296 34.4 11.128C34.344 10.96 34.26 10.832 34.148 10.744C34.036 10.648 33.904 10.58 33.752 10.54C33.608 10.5 33.452 10.48 33.284 10.48C33.004 10.48 32.744 10.552 32.504 10.696C32.272 10.84 32.084 11.048 31.94 11.32C31.796 11.592 31.724 11.916 31.724 12.292V16H30.668V11.764C30.668 11.508 30.636 11.296 30.572 11.128C30.508 10.96 30.424 10.832 30.32 10.744C30.216 10.648 30.088 10.58 29.936 10.54C29.792 10.5 29.64 10.48 29.48 10.48C29.192 10.48 28.924 10.552 28.676 10.696C28.436 10.84 28.244 11.048 28.1 11.32C27.956 11.592 27.884 11.916 27.884 12.292V16H26.828ZM39.6722 16.144C39.0482 16.144 38.5202 16.028 38.0882 15.796C37.6642 15.556 37.3402 15.192 37.1162 14.704C36.9002 14.216 36.7922 13.596 36.7922 12.844C36.7922 12.084 36.9002 11.464 37.1162 10.984C37.3402 10.496 37.6682 10.136 38.1002 9.904C38.5322 9.664 39.0722 9.544 39.7202 9.544C40.3122 9.544 40.8082 9.66 41.2082 9.892C41.6082 10.116 41.9082 10.456 42.1082 10.912C42.3162 11.36 42.4202 11.924 42.4202 12.604V13.108H37.8842C37.9002 13.612 37.9722 14.028 38.1002 14.356C38.2362 14.676 38.4362 14.912 38.7002 15.064C38.9642 15.208 39.2962 15.28 39.6962 15.28C39.9682 15.28 40.2042 15.248 40.4042 15.184C40.6122 15.112 40.7842 15.012 40.9202 14.884C41.0642 14.756 41.1722 14.604 41.2442 14.428C41.3162 14.252 41.3562 14.06 41.3642 13.852H42.3962C42.3882 14.188 42.3242 14.5 42.2042 14.788C42.0842 15.068 41.9082 15.308 41.6762 15.508C41.4442 15.708 41.1602 15.864 40.8242 15.976C40.4882 16.088 40.1042 16.144 39.6722 16.144ZM37.9082 12.316H41.3282C41.3282 11.964 41.2882 11.668 41.2082 11.428C41.1282 11.188 41.0122 10.992 40.8602 10.84C40.7162 10.688 40.5442 10.58 40.3442 10.516C40.1522 10.444 39.9322 10.408 39.6842 10.408C39.3162 10.408 39.0042 10.476 38.7482 10.612C38.4922 10.748 38.2962 10.956 38.1602 11.236C38.0242 11.516 37.9402 11.876 37.9082 12.316ZM46.2464 16.144C45.6224 16.144 45.0944 16.028 44.6624 15.796C44.2384 15.556 43.9144 15.192 43.6904 14.704C43.4744 14.216 43.3664 13.596 43.3664 12.844C43.3664 12.084 43.4744 11.464 43.6904 10.984C43.9144 10.496 44.2424 10.136 44.6744 9.904C45.1064 9.664 45.6464 9.544 46.2944 9.544C46.8864 9.544 47.3824 9.66 47.7824 9.892C48.1824 10.116 48.4824 10.456 48.6824 10.912C48.8904 11.36 48.9944 11.924 48.9944 12.604V13.108H44.4584C44.4744 13.612 44.5464 14.028 44.6744 14.356C44.8104 14.676 45.0104 14.912 45.2744 15.064C45.5384 15.208 45.8704 15.28 46.2704 15.28C46.5424 15.28 46.7784 15.248 46.9784 15.184C47.1864 15.112 47.3584 15.012 47.4944 14.884C47.6384 14.756 47.7464 14.604 47.8184 14.428C47.8904 14.252 47.9304 14.06 47.9384 13.852H48.9704C48.9624 14.188 48.8984 14.5 48.7784 14.788C48.6584 15.068 48.4824 15.308 48.2504 15.508C48.0184 15.708 47.7344 15.864 47.3984 15.976C47.0624 16.088 46.6784 16.144 46.2464 16.144ZM44.4824 12.316H47.9024C47.9024 11.964 47.8624 11.668 47.7824 11.428C47.7024 11.188 47.5864 10.992 47.4344 10.84C47.2904 10.688 47.1184 10.58 46.9184 10.516C46.7264 10.444 46.5064 10.408 46.2584 10.408C45.8904 10.408 45.5784 10.476 45.3224 10.612C45.0664 10.748 44.8704 10.956 44.7344 11.236C44.5984 11.516 44.5144 11.876 44.4824 12.316ZM51.7767 16.144C51.4487 16.144 51.1927 16.084 51.0087 15.964C50.8247 15.836 50.6927 15.672 50.6127 15.472C50.5327 15.264 50.4927 15.044 50.4927 14.812V10.576H49.6767V9.688H50.5167L50.7087 7.924H51.5487V9.688H52.7367V10.576H51.5487V14.656C51.5487 14.856 51.5847 15.008 51.6567 15.112C51.7287 15.208 51.8647 15.256 52.0647 15.256H52.7367V15.952C52.6567 15.992 52.5607 16.024 52.4487 16.048C52.3367 16.072 52.2207 16.092 52.1007 16.108C51.9887 16.132 51.8807 16.144 51.7767 16.144ZM54.1032 16V14.74H55.2792V16H54.1032ZM58.2593 18.184C57.9553 18.184 57.6753 18.12 57.4193 17.992C57.1633 17.872 56.9593 17.696 56.8073 17.464C56.6553 17.232 56.5793 16.956 56.5793 16.636C56.5793 16.284 56.6753 15.992 56.8673 15.76C57.0673 15.528 57.3033 15.356 57.5753 15.244C57.3753 15.148 57.2193 15.016 57.1073 14.848C56.9953 14.672 56.9393 14.48 56.9393 14.272C56.9393 13.992 57.0393 13.756 57.2393 13.564C57.4473 13.372 57.6993 13.244 57.9953 13.18C57.7233 13.004 57.5073 12.78 57.3473 12.508C57.1953 12.228 57.1193 11.92 57.1193 11.584C57.1193 11.184 57.2113 10.832 57.3953 10.528C57.5873 10.224 57.8753 9.984 58.2593 9.808C58.6513 9.632 59.1273 9.544 59.6873 9.544C59.9433 9.544 60.1833 9.564 60.4073 9.604C60.6313 9.636 60.8313 9.692 61.0073 9.772C61.2873 9.644 61.4953 9.48 61.6313 9.28C61.7753 9.08 61.8633 8.876 61.8953 8.668H62.9393C62.9393 8.908 62.8833 9.136 62.7713 9.352C62.6673 9.56 62.5233 9.736 62.3393 9.88C62.1553 10.016 61.9313 10.108 61.6673 10.156C61.8673 10.348 62.0153 10.564 62.1113 10.804C62.2153 11.044 62.2673 11.304 62.2673 11.584C62.2673 11.984 62.1713 12.34 61.9793 12.652C61.7953 12.956 61.5153 13.196 61.1393 13.372C60.7633 13.548 60.2913 13.636 59.7233 13.636H58.7393C58.5233 13.636 58.3473 13.68 58.2113 13.768C58.0753 13.848 58.0073 13.98 58.0073 14.164C58.0073 14.324 58.0753 14.456 58.2113 14.56C58.3473 14.656 58.5233 14.704 58.7393 14.704H61.3073C61.7713 14.704 62.1513 14.86 62.4473 15.172C62.7433 15.476 62.8913 15.868 62.8913 16.348C62.8913 16.692 62.8033 17 62.6273 17.272C62.4593 17.552 62.2193 17.772 61.9073 17.932C61.6033 18.1 61.2473 18.184 60.8393 18.184H58.2593ZM58.5593 17.38H60.8273C61.0113 17.38 61.1793 17.34 61.3313 17.26C61.4833 17.188 61.6033 17.084 61.6913 16.948C61.7793 16.812 61.8233 16.664 61.8233 16.504C61.8233 16.232 61.7433 16.016 61.5833 15.856C61.4233 15.696 61.2233 15.616 60.9833 15.616H58.5593C58.3033 15.616 58.0873 15.704 57.9113 15.88C57.7353 16.048 57.6473 16.256 57.6473 16.504C57.6473 16.768 57.7353 16.98 57.9113 17.14C58.0873 17.3 58.3033 17.38 58.5593 17.38ZM59.6993 12.844C60.2113 12.844 60.5913 12.732 60.8393 12.508C61.0873 12.284 61.2113 11.976 61.2113 11.584C61.2113 11.2 61.0873 10.896 60.8393 10.672C60.5913 10.448 60.2113 10.336 59.6993 10.336C59.1873 10.336 58.8033 10.448 58.5473 10.672C58.2993 10.896 58.1753 11.2 58.1753 11.584C58.1753 11.832 58.2313 12.052 58.3433 12.244C58.4553 12.436 58.6233 12.584 58.8473 12.688C59.0713 12.792 59.3553 12.844 59.6993 12.844ZM66.4513 16.144C65.8113 16.144 65.2713 16.028 64.8313 15.796C64.3993 15.556 64.0673 15.192 63.8353 14.704C63.6113 14.216 63.4993 13.596 63.4993 12.844C63.4993 12.084 63.6113 11.464 63.8353 10.984C64.0673 10.496 64.3993 10.136 64.8313 9.904C65.2713 9.664 65.8113 9.544 66.4513 9.544C67.0913 9.544 67.6273 9.664 68.0593 9.904C68.4993 10.136 68.8313 10.496 69.0553 10.984C69.2793 11.464 69.3913 12.084 69.3913 12.844C69.3913 13.596 69.2793 14.216 69.0553 14.704C68.8313 15.192 68.4993 15.556 68.0593 15.796C67.6273 16.028 67.0913 16.144 66.4513 16.144ZM66.4513 15.256C66.8593 15.256 67.1993 15.176 67.4713 15.016C67.7433 14.856 67.9473 14.608 68.0833 14.272C68.2273 13.928 68.2993 13.496 68.2993 12.976V12.712C68.2993 12.184 68.2273 11.752 68.0833 11.416C67.9473 11.08 67.7433 10.832 67.4713 10.672C67.1993 10.512 66.8593 10.432 66.4513 10.432C66.0433 10.432 65.6993 10.512 65.4193 10.672C65.1473 10.832 64.9433 11.08 64.8073 11.416C64.6713 11.752 64.6033 12.184 64.6033 12.712V12.976C64.6033 13.496 64.6713 13.928 64.8073 14.272C64.9433 14.608 65.1473 14.856 65.4193 15.016C65.6993 15.176 66.0433 15.256 66.4513 15.256ZM73.295 16.144C72.655 16.144 72.115 16.028 71.675 15.796C71.243 15.556 70.911 15.192 70.679 14.704C70.455 14.216 70.343 13.596 70.343 12.844C70.343 12.084 70.455 11.464 70.679 10.984C70.911 10.496 71.243 10.136 71.675 9.904C72.115 9.664 72.655 9.544 73.295 9.544C73.935 9.544 74.471 9.664 74.903 9.904C75.343 10.136 75.675 10.496 75.899 10.984C76.123 11.464 76.235 12.084 76.235 12.844C76.235 13.596 76.123 14.216 75.899 14.704C75.675 15.192 75.343 15.556 74.903 15.796C74.471 16.028 73.935 16.144 73.295 16.144ZM73.295 15.256C73.703 15.256 74.043 15.176 74.315 15.016C74.587 14.856 74.791 14.608 74.927 14.272C75.071 13.928 75.143 13.496 75.143 12.976V12.712C75.143 12.184 75.071 11.752 74.927 11.416C74.791 11.08 74.587 10.832 74.315 10.672C74.043 10.512 73.703 10.432 73.295 10.432C72.887 10.432 72.543 10.512 72.263 10.672C71.991 10.832 71.787 11.08 71.651 11.416C71.515 11.752 71.447 12.184 71.447 12.712V12.976C71.447 13.496 71.515 13.928 71.651 14.272C71.787 14.608 71.991 14.856 72.263 15.016C72.543 15.176 72.887 15.256 73.295 15.256ZM78.6148 18.184C78.3108 18.184 78.0308 18.12 77.7748 17.992C77.5188 17.872 77.3148 17.696 77.1628 17.464C77.0108 17.232 76.9348 16.956 76.9348 16.636C76.9348 16.284 77.0308 15.992 77.2228 15.76C77.4228 15.528 77.6588 15.356 77.9308 15.244C77.7308 15.148 77.5748 15.016 77.4628 14.848C77.3508 14.672 77.2948 14.48 77.2948 14.272C77.2948 13.992 77.3948 13.756 77.5948 13.564C77.8028 13.372 78.0548 13.244 78.3508 13.18C78.0788 13.004 77.8628 12.78 77.7028 12.508C77.5508 12.228 77.4748 11.92 77.4748 11.584C77.4748 11.184 77.5668 10.832 77.7508 10.528C77.9428 10.224 78.2308 9.984 78.6148 9.808C79.0068 9.632 79.4828 9.544 80.0428 9.544C80.2988 9.544 80.5388 9.564 80.7628 9.604C80.9868 9.636 81.1868 9.692 81.3628 9.772C81.6428 9.644 81.8508 9.48 81.9868 9.28C82.1308 9.08 82.2188 8.876 82.2508 8.668H83.2948C83.2948 8.908 83.2388 9.136 83.1268 9.352C83.0228 9.56 82.8788 9.736 82.6948 9.88C82.5108 10.016 82.2868 10.108 82.0228 10.156C82.2228 10.348 82.3708 10.564 82.4668 10.804C82.5708 11.044 82.6228 11.304 82.6228 11.584C82.6228 11.984 82.5268 12.34 82.3348 12.652C82.1508 12.956 81.8708 13.196 81.4948 13.372C81.1188 13.548 80.6468 13.636 80.0788 13.636H79.0948C78.8788 13.636 78.7028 13.68 78.5668 13.768C78.4308 13.848 78.3628 13.98 78.3628 14.164C78.3628 14.324 78.4308 14.456 78.5668 14.56C78.7028 14.656 78.8788 14.704 79.0948 14.704H81.6628C82.1268 14.704 82.5068 14.86 82.8028 15.172C83.0988 15.476 83.2468 15.868 83.2468 16.348C83.2468 16.692 83.1588 17 82.9828 17.272C82.8148 17.552 82.5748 17.772 82.2628 17.932C81.9588 18.1 81.6028 18.184 81.1948 18.184H78.6148ZM78.9148 17.38H81.1828C81.3668 17.38 81.5348 17.34 81.6868 17.26C81.8388 17.188 81.9588 17.084 82.0468 16.948C82.1348 16.812 82.1788 16.664 82.1788 16.504C82.1788 16.232 82.0988 16.016 81.9388 15.856C81.7788 15.696 81.5788 15.616 81.3388 15.616H78.9148C78.6588 15.616 78.4428 15.704 78.2668 15.88C78.0908 16.048 78.0028 16.256 78.0028 16.504C78.0028 16.768 78.0908 16.98 78.2668 17.14C78.4428 17.3 78.6588 17.38 78.9148 17.38ZM80.0548 12.844C80.5668 12.844 80.9468 12.732 81.1948 12.508C81.4428 12.284 81.5668 11.976 81.5668 11.584C81.5668 11.2 81.4428 10.896 81.1948 10.672C80.9468 10.448 80.5668 10.336 80.0548 10.336C79.5428 10.336 79.1588 10.448 78.9028 10.672C78.6548 10.896 78.5308 11.2 78.5308 11.584C78.5308 11.832 78.5868 12.052 78.6988 12.244C78.8108 12.436 78.9788 12.584 79.2028 12.688C79.4268 12.792 79.7108 12.844 80.0548 12.844ZM84.2147 16V7.324H85.2707V16H84.2147ZM89.43 16.144C88.806 16.144 88.278 16.028 87.846 15.796C87.422 15.556 87.098 15.192 86.874 14.704C86.658 14.216 86.55 13.596 86.55 12.844C86.55 12.084 86.658 11.464 86.874 10.984C87.098 10.496 87.426 10.136 87.858 9.904C88.29 9.664 88.83 9.544 89.478 9.544C90.07 9.544 90.566 9.66 90.966 9.892C91.366 10.116 91.666 10.456 91.866 10.912C92.074 11.36 92.178 11.924 92.178 12.604V13.108H87.642C87.658 13.612 87.73 14.028 87.858 14.356C87.994 14.676 88.194 14.912 88.458 15.064C88.722 15.208 89.054 15.28 89.454 15.28C89.726 15.28 89.962 15.248 90.162 15.184C90.37 15.112 90.542 15.012 90.678 14.884C90.822 14.756 90.93 14.604 91.002 14.428C91.074 14.252 91.114 14.06 91.122 13.852H92.154C92.146 14.188 92.082 14.5 91.962 14.788C91.842 15.068 91.666 15.308 91.434 15.508C91.202 15.708 90.918 15.864 90.582 15.976C90.246 16.088 89.862 16.144 89.43 16.144ZM87.666 12.316H91.086C91.086 11.964 91.046 11.668 90.966 11.428C90.886 11.188 90.77 10.992 90.618 10.84C90.474 10.688 90.302 10.58 90.102 10.516C89.91 10.444 89.69 10.408 89.442 10.408C89.074 10.408 88.762 10.476 88.506 10.612C88.25 10.748 88.054 10.956 87.918 11.236C87.782 11.516 87.698 11.876 87.666 12.316Z" fill="white"/>
<defs>
<clipPath id="clip0_909_19917">
<rect width="14" height="11.5391" fill="white" transform="translate(4 6.23047)"/>
</clipPath>
</defs>
</svg>
