<svg width="20" height="20" viewBox="0 0 20 20" fill="none" xmlns="http://www.w3.org/2000/svg">
<g clip-path="url(#clip0_1986_306206)">
<path d="M0.679688 0.0933599C0.242188 0.296485 0 0.683204 0 1.17148C0 1.85898 0.488281 2.34336 1.17188 2.34336C1.63672 2.33945 1.98047 2.15195 2.19141 1.77305L2.3125 1.56211H4.21094L6.11328 1.56602L5.60938 1.81602C5.02734 2.10508 4.28906 2.58555 4.01562 2.85117C3.85547 3.00352 3.82812 3.0543 3.82812 3.1793C3.82812 3.37852 3.94922 3.54258 4.12109 3.57773C4.32031 3.61289 4.40625 3.58164 4.70703 3.34727C5.67188 2.60117 6.96094 2.03477 8.32812 1.75742C8.85547 1.64805 8.82812 1.64023 8.82812 1.90977C8.82812 2.10508 8.84375 2.15195 8.92969 2.2418L9.03516 2.34336H10H10.9648L11.0703 2.2418C11.1562 2.15195 11.1719 2.10508 11.1719 1.90977C11.1719 1.64023 11.1445 1.64805 11.6719 1.75742C13.0391 2.03477 14.3281 2.60117 15.293 3.34727C15.5938 3.58164 15.6797 3.61289 15.8789 3.57773C16.0508 3.54258 16.1719 3.37852 16.1719 3.1793C16.1719 3.0543 16.1445 3.00352 15.9844 2.85117C15.7109 2.58555 14.9727 2.10508 14.3906 1.81602L13.8867 1.56602L15.7891 1.56211H17.6875L17.8086 1.77305C18.0195 2.15195 18.3633 2.33945 18.8281 2.34336C19.5117 2.34336 20 1.85898 20 1.17148C20 0.483985 19.5117 -0.000390053 18.8281 -0.000390053C18.3633 0.0035162 18.0195 0.191016 17.8086 0.569922L17.6875 0.78086H14.4297H11.1719V0.491797C11.1719 0.233985 11.1602 0.194922 11.0703 0.101172L10.9648 -0.000390053H10H9.03516L8.92969 0.101172C8.83984 0.194922 8.82812 0.233985 8.82812 0.491797V0.78086H5.57031H2.3125L2.19141 0.569922C1.98047 0.191016 1.63672 0.0035162 1.17188 -0.000390053C0.945312 -0.000390053 0.835938 0.0230474 0.679688 0.0933599ZM10.3906 1.17148V1.56211H10H9.60938V1.17148V0.78086H10H10.3906V1.17148ZM1.42188 0.921485C1.64453 1.14805 1.48828 1.52305 1.17188 1.52305C1.06641 1.52305 0.996094 1.4957 0.921875 1.42148C0.699219 1.19492 0.855469 0.819922 1.17188 0.819922C1.27734 0.819922 1.34766 0.847266 1.42188 0.921485ZM19.0781 0.921485C19.1523 0.995704 19.1797 1.06602 19.1797 1.17148C19.1797 1.27695 19.1523 1.34727 19.0781 1.42148C19.0039 1.4957 18.9336 1.52305 18.8281 1.52305C18.7227 1.52305 18.6523 1.4957 18.5781 1.42148C18.5039 1.34727 18.4766 1.27695 18.4766 1.17148C18.4766 1.06602 18.5039 0.995704 18.5781 0.921485C18.6523 0.847266 18.7227 0.819922 18.8281 0.819922C18.9336 0.819922 19.0039 0.847266 19.0781 0.921485Z" fill="#111827"/>
<path d="M2.83594 4.00781C2.75391 4.08984 2.73438 4.14844 2.73438 4.29688C2.73438 4.55469 2.86719 4.6875 3.125 4.6875C3.38281 4.6875 3.51562 4.55469 3.51562 4.29688C3.51562 4.14844 3.49609 4.08984 3.41406 4.00781C3.33203 3.92578 3.27344 3.90625 3.125 3.90625C2.97656 3.90625 2.91797 3.92578 2.83594 4.00781Z" fill="#111827"/>
<path d="M9.78125 3.94922C9.67969 4 9.91406 3.58984 7.64062 7.74609C6.06641 10.625 5.70312 11.3203 5.70312 11.4375C5.70312 11.5312 5.96094 12.2578 6.40625 13.4375L7.10547 15.293L7.01953 15.3516C6.85547 15.4609 6.66797 15.6836 6.57812 15.8789C6.50781 16.0273 6.48438 16.1406 6.48438 16.3672C6.48828 16.832 6.67578 17.1758 7.05469 17.3867L7.26562 17.5078V18.6523V19.793L7.36719 19.8984L7.47266 20H10H12.5273L12.6328 19.8984L12.7344 19.793V18.6484V17.5L12.8906 17.4219C13.457 17.1328 13.6875 16.4102 13.3945 15.8281C13.2852 15.6055 13.1914 15.5 12.9805 15.3516L12.8945 15.293L13.5938 13.4375C14.043 12.2578 14.2969 11.5312 14.2969 11.4375C14.2969 11.3203 13.9297 10.6211 12.3594 7.74609C11.293 5.79688 10.3945 4.15234 10.3594 4.09375C10.2578 3.92188 9.98438 3.85156 9.78125 3.94922ZM9.60938 8.10156V10.3047L9.39844 10.4258C9.01953 10.6367 8.83203 10.9805 8.82812 11.4453C8.82812 12.1289 9.3125 12.6172 10 12.6172C10.6875 12.6172 11.1719 12.1289 11.1719 11.4453C11.168 10.9805 10.9805 10.6367 10.6016 10.4258L10.3906 10.3047V8.09375C10.3945 6.03125 10.3984 5.88672 10.457 5.99609C10.4922 6.05859 11.125 7.21875 11.8633 8.57031C12.5977 9.91797 13.2031 11.0312 13.2031 11.0391C13.2031 11.0469 12.9688 11.0547 12.6797 11.0547C12.168 11.0547 12.1562 11.0586 12.0547 11.1562C11.9102 11.3047 11.9102 11.5859 12.0547 11.7305C12.1562 11.832 12.1719 11.8359 12.7344 11.8438L13.3086 11.8555L12.6797 13.5234L12.0508 15.1953H10H7.94922L7.32031 13.5234L6.69141 11.8555L7.26562 11.8438C7.82812 11.8359 7.84375 11.832 7.94531 11.7305C8.08984 11.5859 8.08984 11.3047 7.94531 11.1562C7.84375 11.0547 7.83203 11.0547 7.31641 11.0547C7.02734 11.0547 6.79688 11.0391 6.80469 11.0195C6.82422 10.9609 9.58984 5.90234 9.60156 5.89844C9.60547 5.89844 9.60938 6.89062 9.60938 8.10156ZM10.25 11.1953C10.4727 11.4219 10.3164 11.7969 10 11.7969C9.80078 11.7969 9.64844 11.6445 9.64844 11.4453C9.64844 11.3398 9.67578 11.2695 9.75 11.1953C9.82422 11.1211 9.89453 11.0938 10 11.0938C10.1055 11.0938 10.1758 11.1211 10.25 11.1953ZM12.3789 16C12.7969 16.0859 12.7969 16.6484 12.3789 16.7344C12.2188 16.7656 7.78125 16.7656 7.62109 16.7344C7.32422 16.6719 7.19922 16.3281 7.40625 16.1211C7.46094 16.0664 7.54297 16.0117 7.58984 16.0039C7.72656 15.9766 12.2461 15.9727 12.3789 16ZM11.9531 18.3789V19.2188H10H8.04688V18.3789V17.5391H10H11.9531V18.3789Z" fill="#111827"/>
<path d="M16.5859 4.00781C16.5039 4.08984 16.4844 4.14844 16.4844 4.29688C16.4844 4.44531 16.5039 4.50391 16.5859 4.58594C16.668 4.66797 16.7266 4.6875 16.875 4.6875C17.0234 4.6875 17.082 4.66797 17.1641 4.58594C17.2461 4.50391 17.2656 4.44531 17.2656 4.29688C17.2656 4.14844 17.2461 4.08984 17.1641 4.00781C17.082 3.92578 17.0234 3.90625 16.875 3.90625C16.7266 3.90625 16.668 3.92578 16.5859 4.00781Z" fill="#111827"/>
<path d="M2.04688 5.23828C1.87891 5.32031 1.48047 6.14062 1.21094 6.96094C1.05469 7.42578 0.859375 8.28516 0.859375 8.49219C0.859375 8.59375 0.859375 8.59375 0.53125 8.59375C0.230469 8.59375 0.199219 8.60156 0.101562 8.69531L0 8.80078V9.76562V10.7305L0.101562 10.8359L0.207031 10.9375H1.17188H2.13672L2.24219 10.8359L2.34375 10.7305V9.76562V8.80078L2.24219 8.69531C2.15234 8.60938 2.10547 8.59375 1.91016 8.59375C1.78125 8.59375 1.67969 8.57812 1.67969 8.55859C1.67969 8.53906 1.70703 8.37891 1.74219 8.19922C1.87109 7.51172 2.11328 6.80078 2.47656 6.05859C2.67188 5.65625 2.6875 5.56641 2.59766 5.38672C2.50391 5.21094 2.24609 5.14453 2.04688 5.23828ZM1.5625 9.76562V10.1562H1.17188H0.78125V9.76562V9.375H1.17188H1.5625V9.76562Z" fill="#111827"/>
<path d="M17.5508 5.23438C17.4531 5.27344 17.3438 5.46094 17.3438 5.59766C17.3438 5.64844 17.4258 5.85547 17.5234 6.05859C17.8867 6.80078 18.1289 7.51172 18.2578 8.19922C18.293 8.37891 18.3203 8.53906 18.3203 8.55859C18.3203 8.57812 18.2188 8.59375 18.0898 8.59375C17.8945 8.59375 17.8477 8.60938 17.7578 8.69531L17.6562 8.80078V9.76562V10.7305L17.7578 10.8359L17.8633 10.9375H18.8281H19.793L19.8984 10.8359L20 10.7305V9.76562V8.80078L19.8984 8.69531C19.8008 8.60156 19.7695 8.59375 19.4688 8.59375C19.1406 8.59375 19.1406 8.59375 19.1406 8.49219C19.1406 8.43359 19.0977 8.17578 19.043 7.91406C18.832 6.85547 18.2148 5.36328 17.9414 5.23828C17.832 5.1875 17.6719 5.1875 17.5508 5.23438ZM19.2188 9.76562V10.1562H18.8281H18.4375V9.76562V9.375H18.8281H19.2188V9.76562Z" fill="#111827"/>
</g>
<defs>
<clipPath id="clip0_1986_306206">
<rect width="20" height="20" fill="white"/>
</clipPath>
</defs>
</svg>
