<svg width="20" height="20" viewBox="0 0 20 20" fill="none" xmlns="http://www.w3.org/2000/svg">
<path d="M2.97539 17.7934L1.41211 0.259766H18.5896L17.0246 17.7907L9.99039 19.7407L2.97539 17.7934Z" fill="#E44D26"/>
<path d="M10 18.2502L15.6841 16.6743L17.0214 1.69336H10V18.2502Z" fill="#F16529"/>
<path d="M9.99977 8.19625H7.15414L6.95758 5.99406H9.99977V3.84375H4.60742L4.65898 4.42062L5.18742 10.3467H9.99977V8.19625ZM9.99977 13.7811L9.99023 13.7838L7.59539 13.1369L7.44242 11.422H5.28352L5.58477 14.7984L9.98992 16.0213L9.99977 16.0186V13.7811Z" fill="#EBEBEB"/>
<path d="M9.99219 8.19625V10.3467H12.6402L12.3906 13.1356L9.99219 13.783V16.0203L14.4008 14.7984L14.4331 14.4352L14.9384 8.77375L14.9908 8.19625H14.4114H9.99219ZM9.99219 3.84375V5.99406H15.1866L15.2297 5.51094L15.3278 4.42062L15.3792 3.84375H9.99219Z" fill="white"/>
</svg>
