<svg width="20" height="20" viewBox="0 0 20 20" fill="none" xmlns="http://www.w3.org/2000/svg">
<path d="M19.9888 4.52454C19.9962 4.55118 20 4.57865 20 4.60628V8.89919C20 9.01136 19.9383 9.11495 19.838 9.17073L16.1289 11.2453V15.357C16.1289 15.412 16.114 15.4661 16.0858 15.5138C16.0575 15.5614 16.0168 15.601 15.9678 15.6286L8.225 19.9583C8.20727 19.9681 8.18797 19.9743 8.16859 19.981C8.16133 19.9833 8.15453 19.9876 8.14688 19.9896C8.09275 20.0035 8.03585 20.0035 7.98172 19.9896C7.97281 19.9873 7.96477 19.9826 7.95633 19.9794C7.93859 19.9731 7.92008 19.9677 7.9032 19.9583L0.161953 15.6285C0.112761 15.6011 0.071886 15.5616 0.0434516 15.5139C0.0150172 15.4662 2.93252e-05 15.4121 0 15.357L0 2.47826C0 2.45003 0.0040625 2.42263 0.01125 2.39607C0.0136719 2.38704 0.0192969 2.37884 0.0225781 2.36981C0.0285938 2.35342 0.0342969 2.33657 0.043125 2.32132C0.0491406 2.31115 0.0579687 2.30295 0.0652344 2.29354C0.0745312 2.28102 0.0829687 2.26812 0.0938281 2.25711C0.103125 2.24816 0.115234 2.24148 0.125703 2.23366C0.137422 2.22425 0.147813 2.21409 0.161094 2.20665L4.03227 0.0418229C4.08128 0.0144216 4.13684 0 4.1934 0C4.24995 0 4.30551 0.0144216 4.35453 0.0418229L8.22531 2.20665H8.22609C8.23898 2.21454 8.24992 2.22425 8.26156 2.23329C8.27203 2.2411 8.28375 2.24816 8.29297 2.25681C8.3043 2.26812 8.31234 2.2811 8.32195 2.29354C8.32883 2.30295 8.33813 2.31115 8.34375 2.32132C8.35297 2.33695 8.3582 2.35342 8.36469 2.36989C8.36789 2.37884 8.37352 2.38704 8.37594 2.39645C8.38336 2.42308 8.38719 2.45063 8.38727 2.47826V10.5221L11.6127 8.71797V4.6059C11.6127 4.57858 11.6168 4.55072 11.6241 4.52454C11.6269 4.51513 11.6321 4.50694 11.6353 4.49798C11.6418 4.48151 11.6474 4.46459 11.6562 4.44941C11.6623 4.43924 11.6711 4.43105 11.678 4.42164C11.6877 4.40911 11.6957 4.39621 11.707 4.38521C11.7163 4.37625 11.728 4.36958 11.7384 4.36176C11.7505 4.35235 11.761 4.34218 11.7739 4.33474L15.6455 2.16992C15.6945 2.14248 15.75 2.12804 15.8066 2.12804C15.8632 2.12804 15.9187 2.14248 15.9677 2.16992L19.8385 4.33474C19.8522 4.34256 19.8627 4.35235 19.8748 4.3613C19.8848 4.3692 19.8965 4.37625 19.9058 4.38483C19.917 4.39621 19.9251 4.40911 19.9347 4.42164C19.942 4.43105 19.9509 4.43924 19.9566 4.44941C19.9658 4.46459 19.971 4.48151 19.9774 4.49798C19.9811 4.50694 19.9863 4.51513 19.9888 4.52454ZM19.3548 8.71805V5.1482L18.0002 5.90565L16.1288 6.95232V10.5222L19.3548 8.71805ZM15.484 15.1759V11.6035L13.6432 12.6248L8.38688 15.5389V19.1447L15.484 15.1759ZM0.645234 3.02011V15.1759L7.74156 19.1444V15.5393L4.03438 13.5012L4.0332 13.5005L4.03164 13.4997C4.01914 13.4926 4.00859 13.4825 3.99695 13.4739C3.9868 13.466 3.97516 13.4598 3.96633 13.4511L3.96555 13.45C3.95508 13.4402 3.94781 13.4281 3.93898 13.4171C3.93086 13.4065 3.92125 13.3975 3.91477 13.3866L3.91438 13.3854C3.90711 13.3737 3.90266 13.3596 3.89742 13.3463C3.89219 13.3346 3.88539 13.3236 3.88211 13.3111C3.87812 13.2962 3.87734 13.2801 3.8757 13.2649C3.87414 13.2532 3.87086 13.2414 3.87086 13.2297V4.82431L1.99984 3.77718L0.645234 3.02011ZM4.19383 0.674893L0.968672 2.47826L4.19305 4.28154L7.41773 2.4778L4.19305 0.674893H4.19383ZM5.87102 11.9292L7.74195 10.8829V3.02011L6.3875 3.77764L4.51602 4.82423V12.687L5.87102 11.9292ZM15.8066 2.80299L12.5819 4.60628L15.8066 6.40964L19.0309 4.6059L15.8066 2.80299ZM15.4839 6.95232L13.6126 5.90565L12.258 5.1482V8.71805L14.129 9.76433L15.484 10.5222L15.4839 6.95232ZM8.06383 14.9971L12.7937 12.374L15.1581 11.0633L11.9358 9.26111L8.2257 11.3359L4.8443 13.2269L8.06383 14.9971Z" fill="#FF2D20"/>
</svg>
