<svg width="32" height="32" viewBox="0 0 32 32" fill="none" xmlns="http://www.w3.org/2000/svg">
<rect width="32" height="32" rx="16" fill="#0F7EFF"/>
<path d="M5.83848 9.87022C5.90219 8.73336 6.87491 7.86393 8.01177 7.92706C8.01636 7.92763 8.02095 7.92763 8.02612 7.92821C8.51506 7.94026 8.98679 8.11529 9.36498 8.42576C12.1661 11.0013 13.5807 14.7516 13.179 18.5352C13.179 18.7103 12.9546 18.7034 12.8984 18.5352C12.1408 15.9625 9.63872 13.0036 7.42297 12.1204C6.4336 11.8335 5.77478 10.8986 5.83848 9.87022Z" fill="white"/>
<path d="M25.0206 9.65979C24.9713 7.92609 23.5257 6.56083 21.792 6.61018C21.7443 6.61133 21.6961 6.61363 21.6485 6.61764C17.8488 6.70143 12.7384 16.4809 15.6618 25.3635C15.6618 25.5454 15.8718 25.5109 15.8862 25.3284C16.2925 19.1455 20.0014 14.3289 23.338 12.4293C24.4266 11.9341 25.0964 10.8179 25.0206 9.62478" fill="white"/>
<path d="M4.17835 18.6122C4.24951 19.6876 5.17002 20.5077 6.24662 20.4561C8.59895 20.5398 10.8652 21.3616 12.724 22.8044C12.8571 22.9169 12.8784 22.8744 12.7946 22.58C12.1496 20.3229 8.69307 16.537 6.18349 16.537C5.09541 16.5152 4.19614 17.3795 4.17433 18.467C4.17319 18.5249 4.17433 18.5829 4.17835 18.6403" fill="white"/>
<path d="M27.4744 18.6122C27.4027 19.6876 26.4828 20.5077 25.4062 20.4561C23.0538 20.5398 20.7876 21.3616 18.9282 22.8044C18.7951 22.9169 18.7744 22.8744 18.8588 22.58C19.5032 20.3229 22.9597 16.537 25.4693 16.537C26.5568 16.5152 27.4567 17.3795 27.4785 18.467C27.4796 18.5249 27.4785 18.5829 27.4744 18.6403" fill="white"/>
</svg>
