<svg width="33" height="32" viewBox="0 0 33 32" fill="none" xmlns="http://www.w3.org/2000/svg">
<rect width="32.0524" height="32" rx="16" fill="#FF3621"/>
<path d="M23.7013 14.3414L15.9507 18.7301L7.70602 14.054L7.31589 14.263V17.659L15.9507 22.5702L23.7013 18.1815V19.984L15.9507 24.3727L7.70602 19.6966L7.31589 19.9057V20.4804L15.9507 25.3915L24.6116 20.4804V17.0843L24.2215 16.8753L15.9507 21.5514L8.22616 17.1627V15.3863L15.9507 19.7489L24.6116 14.8377V11.4939L24.1695 11.2588L15.9507 15.9087L8.64228 11.7552L15.9507 7.62769L21.9847 11.0237L22.5309 10.7364V10.3184L15.9507 6.60889L7.31589 11.4939V12.0164L15.9507 16.9276L23.7013 12.5389V14.3414Z" fill="white"/>
</svg>
