<svg width="32" height="32" viewBox="0 0 32 32" fill="none" xmlns="http://www.w3.org/2000/svg">
<rect width="32" height="32" rx="16" fill="#2DA01D"/>
<path d="M16.0409 4.86967C22.2157 4.88704 27.2061 9.88357 27.1877 16.0307C27.1688 22.1692 22.1518 27.1474 16.0046 27.1269C9.84468 27.1065 4.85224 22.1084 4.86961 15.9802C4.88749 9.8381 9.89986 4.85281 16.0409 4.86967ZM16.654 14.5194C16.654 16.371 16.654 18.2229 16.654 20.0749C16.654 20.2067 16.6152 20.3395 16.8456 20.336C17.9094 20.3176 18.9753 20.3579 20.0365 20.3028C22.7624 20.1622 24.6519 17.4926 23.937 14.8632C23.4849 13.1976 21.8805 11.491 19.265 11.6755C19.1505 11.6836 19.1224 11.7265 19.1234 11.8287C19.1275 12.2613 19.1275 12.6944 19.1234 13.1281C19.1234 13.2379 19.1592 13.2814 19.2696 13.2768C19.4397 13.2711 19.6104 13.2722 19.7805 13.2768C21.2112 13.3166 22.3082 14.338 22.4671 15.7804C22.6096 17.0731 21.695 18.3285 20.3676 18.6447C19.7545 18.7909 19.1296 18.6907 18.5113 18.7265C18.2886 18.7393 18.2518 18.6611 18.2523 18.4572C18.2599 16.3588 18.2574 14.2608 18.2569 12.1624C18.2569 11.5171 18.2661 10.8712 18.2507 10.2259C18.2329 9.48554 17.6402 8.83818 16.9223 8.72833C16.7143 8.69614 16.6469 8.73752 16.6479 8.96489C16.6576 10.8155 16.6535 12.6677 16.6535 14.5194H16.654ZM15.4053 17.4982C15.4053 15.6383 15.4053 13.7785 15.4094 11.9187C15.4094 11.7393 15.3803 11.6703 15.1774 11.6729C14.1903 11.6847 13.2031 11.6668 12.2139 11.6811C9.32505 11.724 7.29507 14.5638 8.17287 17.3122C8.6787 18.8961 10.2207 20.4709 12.7714 20.3334C12.9175 20.3257 12.9339 20.2629 12.9323 20.1438C12.9272 19.7351 12.9206 19.3263 12.9323 18.9212C12.939 18.7408 12.8679 18.7081 12.7121 18.7168C12.5425 18.7275 12.3718 18.7214 12.2012 18.7168C10.8185 18.6657 9.72461 17.6157 9.58307 16.2009C9.45534 14.921 10.3602 13.6809 11.6519 13.3631C12.2395 13.218 12.8378 13.2931 13.431 13.2783C13.7953 13.2691 13.7953 13.2783 13.7953 13.639C13.7953 16.3058 13.7953 18.9723 13.7953 21.6384C13.7953 22.4789 14.3395 23.1252 15.1207 23.2698C15.3557 23.3132 15.4043 23.2586 15.4027 23.0271C15.4007 21.1836 15.4048 19.3406 15.4048 17.4961L15.4053 17.4982Z" fill="white"/>
</svg>
