<svg width="32" height="32" viewBox="0 0 32 32" fill="none" xmlns="http://www.w3.org/2000/svg">
<rect width="32" height="32" rx="16" fill="#FFD02F"/>
<path d="M10.0861 5.56543H21.9133C24.4084 5.56543 26.4341 7.59118 26.4341 10.0863V21.9135C26.4341 24.4086 24.4084 26.4344 21.9133 26.4344H10.0861C7.59097 26.4344 5.56522 24.4086 5.56522 21.9135V10.0863C5.56522 7.59118 7.59097 5.56543 10.0861 5.56543Z" fill="#FFD02F"/>
<path d="M20.068 8.17188H17.7767L19.6851 11.5255L15.4854 8.17188H13.1941L15.2939 12.2728L10.9027 8.17188H8.61141L10.9027 13.3907L8.61141 23.8282H10.9027L15.2939 12.6433L13.1941 23.8282H15.4854L19.6851 11.9022L17.7767 23.8282H20.068L24.2677 10.7782L20.068 8.17188Z" fill="#050038"/>
</svg>
