<svg width="24" height="24" viewBox="0 0 24 24" fill="none" xmlns="http://www.w3.org/2000/svg">
<path d="M21.1446 5.68775L12.8764 0.886812C12.3549 0.589812 11.676 0.589812 11.1504 0.886812L2.79394 5.68775C2.25581 5.99731 1.875 6.57913 1.875 7.20144V16.7906C1.875 17.4129 2.26575 17.9949 2.80388 18.3061L5.01169 19.5601C6.06694 20.0799 6.43988 20.0799 6.92006 20.0799C8.4825 20.0799 9.375 19.1351 9.375 17.4871V8.02025C9.375 7.88656 9.30544 7.68762 9.17419 7.68762H8.11987C7.98637 7.68762 7.6875 7.88656 7.6875 8.02006V17.4869C7.6875 18.2174 7.02675 18.9444 5.79187 18.3269L3.51056 17.012C3.43106 16.9689 3.375 16.8821 3.375 16.7906V7.20144C3.375 7.11106 3.47906 7.02031 3.55913 6.974L11.8886 2.18131C11.9664 2.13725 12.0808 2.13725 12.1584 2.18131L20.3863 6.97287C20.4651 7.02031 20.4373 7.10825 20.4373 7.20144V16.7906C20.4373 16.8821 20.4716 16.9711 20.3938 17.0152L12.1277 21.8107C12.0568 21.8533 11.9689 21.8533 11.8912 21.8107L9.77119 20.5452C9.70725 20.5081 9.63131 20.4948 9.57 20.5291C8.98013 20.8634 8.87137 20.9079 8.31806 21.0997C8.18194 21.1471 7.98112 21.2294 8.39494 21.4614L11.1696 23.1027C11.4345 23.2558 11.735 23.3363 12.0409 23.3364C12.3488 23.3364 12.6503 23.2565 12.9159 23.1027L21.1444 18.3061C21.6825 17.9926 21.9375 17.4129 21.9375 16.7906V7.20144C21.9375 6.57913 21.6825 5.99881 21.1446 5.68775ZM14.6081 15.2711C12.4095 15.2711 11.9252 14.6645 11.7638 13.5712C11.745 13.4534 11.6451 13.3126 11.5252 13.3126H10.4507C10.3177 13.3126 10.2109 13.4739 10.2109 13.6063C10.2109 15.0061 10.9719 16.7023 14.6083 16.7023C17.2406 16.7023 18.7498 15.6794 18.7498 13.8693C18.7498 12.0746 17.5372 11.6036 14.9844 11.2657C12.4041 10.9246 12.1419 10.7523 12.1419 10.1478C12.1419 9.64944 12.3639 8.98475 14.2746 8.98475C15.9817 8.98475 16.611 9.35112 16.8699 10.5018C16.8921 10.61 16.9909 10.6876 17.1024 10.6876H18.1813C18.2477 10.6876 18.3111 10.6608 18.3576 10.6134C18.4026 10.5624 18.4264 10.4984 18.4204 10.4298C18.2533 8.44831 16.9369 7.52487 14.2744 7.52487C11.9061 7.52487 10.4932 8.525 10.4932 10.2014C10.4932 12.0198 11.8989 12.5223 14.1724 12.7471C16.8921 13.0138 17.1036 13.4112 17.1036 13.9462C17.1036 14.8752 16.3577 15.2711 14.6081 15.2711Z" fill="#83CD29"/>
</svg>
