<svg width="24" height="12" viewBox="0 0 24 12" fill="none" xmlns="http://www.w3.org/2000/svg">
<path fill-rule="evenodd" clip-rule="evenodd" d="M11.9994 11.9126C18.4788 11.9126 23.7313 9.26544 23.7313 6.00024C23.7313 2.73504 18.4788 0.0878906 11.9994 0.0878906C5.52022 0.0878906 0.267578 2.73504 0.267578 6.00024C0.267578 9.26544 5.52022 11.9126 11.9994 11.9126Z" fill="#6E81B6"/>
<path fill-rule="evenodd" clip-rule="evenodd" d="M14.3765 7.91134L14.9584 4.93295C15.0898 4.26073 14.9806 3.75934 14.634 3.44249C14.2982 3.13593 13.7282 2.98681 12.8915 2.98681H11.8837L12.172 1.51116C12.1774 1.48369 12.1766 1.45538 12.1697 1.42825C12.1628 1.40112 12.1499 1.37585 12.132 1.35424C12.1141 1.33264 12.0917 1.31524 12.0662 1.3033C12.0408 1.29135 12.013 1.28516 11.9848 1.28516H10.5939C10.5025 1.28516 10.4241 1.34963 10.4066 1.43879L9.78851 4.60072C9.73233 4.24493 9.59387 3.93907 9.37228 3.68669C8.96428 3.22227 8.31894 2.98681 7.454 2.98681H4.75802C4.66666 2.98681 4.58821 3.05128 4.57076 3.1403L3.31995 9.54063C3.30903 9.59635 3.32364 9.65363 3.35995 9.69736C3.39613 9.74124 3.45004 9.76649 3.50721 9.76649H4.90911C5.00047 9.76649 5.07892 9.70202 5.09637 9.61272L5.39896 8.06469H6.44251C6.99011 8.06469 7.45031 8.00572 7.80951 7.88948C8.1768 7.77069 8.51486 7.56923 8.81277 7.29188C9.05351 7.07194 9.25241 6.82562 9.40548 6.55998L9.15566 7.83869C9.14473 7.89441 9.15934 7.95197 9.19566 7.99542C9.23184 8.0393 9.28589 8.06455 9.34292 8.06455H10.7339C10.8252 8.06455 10.9037 8.00008 10.9211 7.91106L11.6076 4.39785H12.5621C12.9688 4.39785 13.088 4.47841 13.1205 4.51297C13.1498 4.54457 13.2108 4.65588 13.1423 5.00673L12.589 7.83855C12.5837 7.866 12.5846 7.89429 12.5915 7.92138C12.5985 7.94847 12.6114 7.9737 12.6293 7.99527C12.6471 8.01684 12.6696 8.03422 12.695 8.04617C12.7204 8.05812 12.7482 8.06435 12.7763 8.06441H14.1894C14.2336 8.0645 14.2765 8.04927 14.3106 8.02133C14.3448 7.9934 14.3681 7.95451 14.3765 7.91134ZM7.92768 5.45042C7.84029 5.89692 7.67573 6.21533 7.43825 6.3969C7.19708 6.58185 6.81136 6.67552 6.29171 6.67552H5.67035L6.11963 4.37627H6.923C7.51316 4.37627 7.75092 4.50168 7.84639 4.60678C7.97875 4.75266 8.00684 5.04454 7.92768 5.45042ZM20.2356 3.68669C19.8278 3.22227 19.1824 2.98681 18.3175 2.98681H15.6215C15.53 2.98681 15.4517 3.05128 15.4343 3.1403L14.1836 9.54063C14.1725 9.59635 14.1871 9.65363 14.2235 9.69736C14.2598 9.7411 14.3138 9.76649 14.3706 9.76649H15.7726C15.8641 9.76649 15.9424 9.70202 15.9599 9.61272L16.2625 8.06469H17.3062C17.8539 8.06469 18.3137 8.00572 18.673 7.88948C19.0404 7.77069 19.3785 7.56923 19.6763 7.29188C19.9248 7.06489 20.1292 6.80968 20.2842 6.53416C20.4391 6.25864 20.5501 5.95138 20.615 5.6207C20.7743 4.80514 20.6468 4.1545 20.2356 3.68669ZM18.8708 5.45042C18.7832 5.89692 18.6187 6.21533 18.3815 6.3969C18.1402 6.58185 17.7544 6.67552 17.2349 6.67552H16.6134L17.0626 4.37627H17.8661C18.4562 4.37627 18.694 4.50168 18.7896 4.60678C18.9217 4.75266 18.9499 5.04454 18.8708 5.45042Z" fill="white"/>
<path fill-rule="evenodd" clip-rule="evenodd" d="M6.88274 4.18622C7.4153 4.18622 7.77038 4.28399 7.94786 4.47952C8.12519 4.67505 8.16746 5.01081 8.07468 5.48637C7.97765 5.98169 7.79096 6.33522 7.51432 6.54712C7.23769 6.75901 6.81663 6.86482 6.25145 6.86482H5.39856L5.92204 4.18622H6.88274ZM3.4668 9.57643H4.8687L5.20137 7.87492H6.40225C6.93211 7.87492 7.36806 7.81948 7.71024 7.70873C8.05241 7.59799 8.36352 7.41248 8.64342 7.15191C8.87834 6.93733 9.06844 6.70033 9.21399 6.44131C9.3594 6.1823 9.46268 5.89662 9.52382 5.58414C9.67221 4.82543 9.56028 4.23447 9.18832 3.81124C8.81649 3.38787 8.22478 3.17626 7.41374 3.17626H4.71775L3.4668 9.57643ZM10.5535 1.47461H11.9445L11.6119 3.17626H12.8512C13.6306 3.17626 14.1687 3.31141 14.4647 3.58185C14.7606 3.85229 14.8493 4.29062 14.7309 4.89654L14.149 7.87492H12.7359L13.2892 5.04297C13.352 4.72076 13.329 4.5011 13.2197 4.38387C13.1103 4.26677 12.8775 4.20809 12.5217 4.20809H11.41L10.6935 7.87492H9.30252L10.5535 1.47461ZM17.8259 4.18622C18.3584 4.18622 18.7134 4.28399 18.891 4.47952C19.0683 4.67505 19.1104 5.01081 19.0177 5.48637C18.9209 5.98169 18.7342 6.33522 18.4574 6.54712C18.1809 6.75901 17.7597 6.86482 17.1948 6.86482H16.342L16.8653 4.18622H17.8259ZM14.4096 9.57643H15.8117L16.1442 7.87492H17.3451C17.8751 7.87492 18.311 7.81948 18.6532 7.70873C18.9954 7.59799 19.3065 7.41248 19.5864 7.15191C19.8213 6.93733 20.0114 6.70033 20.1568 6.44131C20.3022 6.1823 20.4056 5.89662 20.4669 5.58414C20.6152 4.82543 20.5033 4.23447 20.1314 3.81124C19.7593 3.38787 19.1677 3.17626 18.3567 3.17626H15.6607L14.4096 9.57643Z" fill="#131022"/>
</svg>
