<svg width="24" height="24" viewBox="0 0 24 24" fill="none" xmlns="http://www.w3.org/2000/svg">
<rect width="22.3322" height="21.9176" rx="5" transform="matrix(0.998994 0.0448447 -0.0465609 0.998915 1.69043 0)" fill="#FC0027"/>
<rect x="0.5" y="2.58203" width="21.3331" height="20.9168" rx="4.5" fill="white" fill-opacity="0.4" stroke="white"/>
<g clip-path="url(#clip0_3440_280625)">
<path d="M7.44434 18.52V17.3024C7.44434 16.6565 7.70577 16.0371 8.17114 15.5804C8.6365 15.1238 9.26767 14.8672 9.92579 14.8672H11.1665" stroke="white" stroke-linecap="round" stroke-linejoin="round"/>
<path d="M17.3704 15.4757C17.3704 17.9109 15.8195 19.1285 15.1991 19.1285C14.5787 19.1285 13.0278 17.9109 13.0278 15.4757C13.6482 15.4757 14.5787 15.1713 15.1991 14.5625C15.8195 15.1713 16.75 15.4757 17.3704 15.4757Z" stroke="white" stroke-linecap="round" stroke-linejoin="round"/>
<path d="M8.68506 9.9977C8.68506 10.6436 8.9465 11.263 9.41186 11.7196C9.87722 12.1763 10.5084 12.4329 11.1665 12.4329C11.8246 12.4329 12.4558 12.1763 12.9212 11.7196C13.3865 11.263 13.648 10.6436 13.648 9.9977C13.648 9.35184 13.3865 8.73244 12.9212 8.27575C12.4558 7.81906 11.8246 7.5625 11.1665 7.5625C10.5084 7.5625 9.87722 7.81906 9.41186 8.27575C8.9465 8.73244 8.68506 9.35184 8.68506 9.9977Z" stroke="white" stroke-linecap="round" stroke-linejoin="round"/>
</g>
<defs>
<clipPath id="clip0_3440_280625">
<rect width="14.8887" height="14.6112" fill="white" transform="translate(3.72217 5.73438)"/>
</clipPath>
</defs>
</svg>
