<svg width="24" height="24" viewBox="0 0 24 24" fill="none" xmlns="http://www.w3.org/2000/svg">
<rect width="22.3322" height="21.9176" rx="5" transform="matrix(0.998994 0.0448447 -0.0465609 0.998915 1.69043 0)" fill="#EA00B7"/>
<rect x="0.5" y="2.58203" width="21.3331" height="20.9168" rx="4.5" fill="white" fill-opacity="0.4" stroke="white"/>
<g clip-path="url(#clip0_3440_280626)">
<path d="M9.92578 13.6473C9.92578 13.9702 10.0565 14.2799 10.2892 14.5083C10.5219 14.7366 10.8374 14.8649 11.1665 14.8649C11.4956 14.8649 11.8112 14.7366 12.0438 14.5083C12.2765 14.2799 12.4072 13.9702 12.4072 13.6473C12.4072 13.3244 12.2765 13.0147 12.0438 12.7863C11.8112 12.558 11.4956 12.4297 11.1665 12.4297C10.8374 12.4297 10.5219 12.558 10.2892 12.7863C10.0565 13.0147 9.92578 13.3244 9.92578 13.6473Z" stroke="white" stroke-linecap="round" stroke-linejoin="round"/>
<path d="M8.68506 18.5178V17.909C8.68506 17.5861 8.81578 17.2764 9.04846 17.048C9.28114 16.8197 9.59672 16.6914 9.92579 16.6914H12.4072C12.7363 16.6914 13.0519 16.8197 13.2846 17.048C13.5172 17.2764 13.648 17.5861 13.648 17.909V18.5178" stroke="white" stroke-linecap="round" stroke-linejoin="round"/>
<path d="M13.0278 8.7801C13.0278 9.10303 13.1586 9.41273 13.3912 9.64107C13.6239 9.86941 13.9395 9.9977 14.2686 9.9977C14.5976 9.9977 14.9132 9.86941 15.1459 9.64107C15.3786 9.41273 15.5093 9.10303 15.5093 8.7801C15.5093 8.45717 15.3786 8.14747 15.1459 7.91913C14.9132 7.69078 14.5976 7.5625 14.2686 7.5625C13.9395 7.5625 13.6239 7.69078 13.3912 7.91913C13.1586 8.14747 13.0278 8.45717 13.0278 8.7801Z" stroke="white" stroke-linecap="round" stroke-linejoin="round"/>
<path d="M14.2686 11.8242H15.5093C15.8383 11.8242 16.1539 11.9525 16.3866 12.1808C16.6193 12.4092 16.75 12.7189 16.75 13.0418V13.6506" stroke="white" stroke-linecap="round" stroke-linejoin="round"/>
<path d="M6.82422 8.7801C6.82422 9.10303 6.95494 9.41273 7.18762 9.64107C7.4203 9.86941 7.73588 9.9977 8.06495 9.9977C8.39401 9.9977 8.70959 9.86941 8.94227 9.64107C9.17495 9.41273 9.30567 9.10303 9.30567 8.7801C9.30567 8.45717 9.17495 8.14747 8.94227 7.91913C8.70959 7.69078 8.39401 7.5625 8.06495 7.5625C7.73588 7.5625 7.4203 7.69078 7.18762 7.91913C6.95494 8.14747 6.82422 8.45717 6.82422 8.7801Z" stroke="white" stroke-linecap="round" stroke-linejoin="round"/>
<path d="M5.5835 13.6506V13.0418C5.5835 12.7189 5.71422 12.4092 5.9469 12.1808C6.17958 11.9525 6.49516 11.8242 6.82422 11.8242H8.06495" stroke="white" stroke-linecap="round" stroke-linejoin="round"/>
</g>
<defs>
<clipPath id="clip0_3440_280626">
<rect width="14.8887" height="14.6112" fill="white" transform="translate(3.72217 5.73438)"/>
</clipPath>
</defs>
</svg>
