<svg width="24" height="24" viewBox="0 0 24 24" fill="none" xmlns="http://www.w3.org/2000/svg">
<rect width="22.3322" height="21.9176" rx="5" transform="matrix(0.998994 0.0448447 -0.0465609 0.998915 1.69043 0)" fill="#EA00B7"/>
<rect x="0.5" y="2.58203" width="21.3331" height="20.9168" rx="4.5" fill="white" fill-opacity="0.4" stroke="white"/>
<g clip-path="url(#clip0_3440_280508)">
<path d="M10.5464 13.0385C10.5464 13.2 10.6117 13.3548 10.7281 13.469C10.8444 13.5831 11.0022 13.6473 11.1668 13.6473C11.3313 13.6473 11.4891 13.5831 11.6054 13.469C11.7218 13.3548 11.7871 13.2 11.7871 13.0385C11.7871 12.877 11.7218 12.7222 11.6054 12.608C11.4891 12.4938 11.3313 12.4297 11.1668 12.4297C11.0022 12.4297 10.8444 12.4938 10.7281 12.608C10.6117 12.7222 10.5464 12.877 10.5464 13.0385Z" fill="white" stroke="white" stroke-linecap="round" stroke-linejoin="round"/>
<path d="M14.221 12.5117C14.1145 11.9188 13.8312 11.3702 13.407 10.9353C12.9828 10.5003 12.4367 10.1986 11.8378 10.0683C11.2389 9.93795 10.614 9.98483 10.0422 10.203C9.47041 10.4212 8.9774 10.8009 8.62549 11.294C8.27359 11.7872 8.0786 12.3717 8.06519 12.9736C8.05179 13.5755 8.22056 14.1678 8.55016 14.6755C8.87977 15.1833 9.35541 15.5838 9.91693 15.8263C10.4784 16.0687 11.1006 16.1424 11.7048 16.0379" stroke="white" stroke-linecap="round" stroke-linejoin="round"/>
<path d="M5.5835 13.0417C5.5835 14.1254 5.91095 15.1847 6.52445 16.0858C7.13794 16.9868 8.00993 17.6891 9.03014 18.1038C10.0504 18.5185 11.173 18.627 12.256 18.4156C13.3391 18.2042 14.3339 17.6823 15.1147 16.9161C15.8956 16.1498 16.4273 15.1735 16.6428 14.1106C16.8582 13.0478 16.7476 11.9461 16.325 10.9449C15.9025 9.9437 15.1868 9.08797 14.2687 8.48591C13.3505 7.88385 12.271 7.5625 11.1668 7.5625" stroke="white" stroke-linecap="round" stroke-linejoin="round"/>
</g>
<defs>
<clipPath id="clip0_3440_280508">
<rect width="14.8887" height="14.6112" fill="white" transform="translate(3.72217 5.73438)"/>
</clipPath>
</defs>
</svg>
