<svg width="24" height="24" viewBox="0 0 24 24" fill="none" xmlns="http://www.w3.org/2000/svg">
<rect width="22.3322" height="21.9176" rx="5" transform="matrix(0.998994 0.0448447 -0.0465609 0.998915 1.69043 0)" fill="#339DFF"/>
<rect x="0.5" y="2.58203" width="21.3331" height="20.9168" rx="4.5" fill="white" fill-opacity="0.4" stroke="white"/>
<g clip-path="url(#clip0_3440_280601)">
<path d="M16.1294 12.4326C15.9776 11.3613 15.4711 10.3687 14.688 9.60765C13.9049 8.84661 12.8886 8.35934 11.7955 8.22089C10.8193 8.09624 9.82738 8.25587 8.94292 8.67995C8.05846 9.10404 7.32051 9.77386 6.8208 10.6062" stroke="white" stroke-linecap="round" stroke-linejoin="round"/>
<path d="M6.20361 13.6484C6.34713 14.6622 6.80849 15.6069 7.52373 16.3518C8.23896 17.0966 9.17263 17.6046 10.1953 17.8053C11.2179 18.006 12.2789 17.8895 13.231 17.472C14.1831 17.0544 14.9793 16.3564 15.5091 15.4748" stroke="white" stroke-linecap="round" stroke-linejoin="round"/>
<path d="M14.8887 15.476C14.8887 15.6375 14.954 15.7923 15.0704 15.9065C15.1867 16.0206 15.3445 16.0848 15.509 16.0848C15.6736 16.0848 15.8314 16.0206 15.9477 15.9065C16.064 15.7923 16.1294 15.6375 16.1294 15.476C16.1294 15.3145 16.064 15.1597 15.9477 15.0455C15.8314 14.9313 15.6736 14.8672 15.509 14.8672C15.3445 14.8672 15.1867 14.9313 15.0704 15.0455C14.954 15.1597 14.8887 15.3145 14.8887 15.476Z" stroke="white" stroke-linecap="round" stroke-linejoin="round"/>
<path d="M6.20361 10.6049C6.20361 10.7664 6.26897 10.9212 6.38531 11.0354C6.50165 11.1496 6.65945 11.2137 6.82398 11.2137C6.98851 11.2137 7.1463 11.1496 7.26264 11.0354C7.37898 10.9212 7.44434 10.7664 7.44434 10.6049C7.44434 10.4434 7.37898 10.2886 7.26264 10.1744C7.1463 10.0602 6.98851 9.99609 6.82398 9.99609C6.65945 9.99609 6.50165 10.0602 6.38531 10.1744C6.26897 10.2886 6.20361 10.4434 6.20361 10.6049Z" stroke="white" stroke-linecap="round" stroke-linejoin="round"/>
<path d="M9.30566 13.0412C9.30566 13.5256 9.50174 13.9902 9.85076 14.3327C10.1998 14.6752 10.6732 14.8676 11.1668 14.8676C11.6603 14.8676 12.1337 14.6752 12.4827 14.3327C12.8318 13.9902 13.0278 13.5256 13.0278 13.0412C13.0278 12.5569 12.8318 12.0923 12.4827 11.7498C12.1337 11.4073 11.6603 11.2148 11.1668 11.2148C10.6732 11.2148 10.1998 11.4073 9.85076 11.7498C9.50174 12.0923 9.30566 12.5569 9.30566 13.0412Z" stroke="white" stroke-linecap="round" stroke-linejoin="round"/>
</g>
<defs>
<clipPath id="clip0_3440_280601">
<rect width="14.8887" height="14.6112" fill="white" transform="translate(3.72217 5.73438)"/>
</clipPath>
</defs>
</svg>
