<svg width="20" height="20" viewBox="0 0 20 20" fill="none" xmlns="http://www.w3.org/2000/svg">
<path d="M3.67251 1.07841C2.60611 1.30888 1.77798 2.30498 1.45767 3.75029C1.39908 4.01592 1.39126 4.60576 1.37955 9.65654L1.36392 15.2737H0.762358C-0.0306111 15.2737 -0.0188924 15.2659 0.0123576 15.8558C0.0709514 17.0159 0.777983 18.0667 1.85611 18.5979C2.59048 18.9573 1.80142 18.9261 10.0006 18.9261C18.1413 18.9261 17.4069 18.9534 18.0866 18.6292C18.7506 18.3128 19.2975 17.7894 19.6256 17.1526C19.8717 16.6683 19.9655 16.344 19.9889 15.8558C20.0202 15.2659 20.0319 15.2737 19.2389 15.2737H18.6374L18.6217 9.65654C18.61 4.60576 18.6022 4.01592 18.5436 3.75029C18.2428 2.39482 17.528 1.46513 16.5241 1.12138L16.2702 1.03545L10.0983 1.02763C4.9147 1.02373 3.88736 1.03154 3.67251 1.07841ZM16.3405 1.7581C16.946 1.9456 17.4772 2.55107 17.7585 3.37138C17.9694 3.98857 17.9694 3.94951 17.9694 9.83232V15.2737H14.8053H11.6374L11.5436 15.3714C11.4499 15.4612 11.446 15.4847 11.446 15.9769V16.4847H10.0006H8.55533V16.0394C8.55533 15.5706 8.51236 15.3753 8.39908 15.3128C8.3522 15.2894 7.15689 15.2737 5.17642 15.2737H2.02798L2.04361 9.63701L2.05533 4.0042L2.14126 3.67217C2.18814 3.48857 2.31705 3.16435 2.42251 2.9456C2.7272 2.33232 3.12564 1.9417 3.63736 1.7581C3.84048 1.68388 4.02798 1.68388 9.96548 1.67998C15.9889 1.67998 16.0905 1.67998 16.3405 1.7581ZM7.89908 16.43C7.9108 16.9339 7.9147 16.9651 8.00455 17.0354C8.09048 17.1058 8.18423 17.1097 9.99673 17.1097C11.4264 17.1058 11.9108 17.094 11.9577 17.0589C12.0827 16.9612 12.11 16.8401 12.11 16.3714V15.8987H15.7233H19.3366V15.9964C19.3366 16.1683 19.153 16.6761 18.9928 16.9495C18.6335 17.5511 18.1335 17.9495 17.4225 18.2073L17.1686 18.3011L10.1295 18.3128C2.33267 18.3245 2.80533 18.3362 2.23892 18.0667C1.71939 17.8206 1.31314 17.4495 1.00455 16.9456C0.856108 16.6956 0.664701 16.1644 0.664701 15.9925V15.8987H4.27408H7.88345L7.89908 16.43Z" fill="#111827"/>
<path d="M3.99675 4.62891C3.84441 4.73438 3.86394 5.07031 4.0241 5.15625C4.07097 5.17969 6.23113 5.19531 10.0163 5.19531C15.8874 5.19531 15.9382 5.19531 16.0163 5.11719C16.0671 5.06641 16.0944 4.98828 16.0944 4.88281C16.0944 4.77734 16.0671 4.69922 16.0163 4.64844C15.9382 4.57031 15.8874 4.57031 10.0085 4.57031C4.85222 4.57031 4.07097 4.57812 3.99675 4.62891Z" fill="#111827"/>
<path d="M4.01203 6.29688C3.85968 6.41406 3.84796 6.69531 3.9925 6.82422C4.06671 6.89062 4.33234 6.89453 10.0003 6.89453C15.7777 6.89453 15.93 6.89453 16.012 6.82031C16.1253 6.71875 16.1253 6.4375 16.0159 6.32812C15.9378 6.25 15.887 6.25 10.0081 6.25C5.32453 6.25 4.06281 6.26172 4.01203 6.29688Z" fill="#111827"/>
<path d="M9.33984 8.23828C9.29688 8.28125 9.24609 8.38281 9.22266 8.46484C9.20312 8.54688 8.94531 9.50781 8.65625 10.5977C8.36328 11.6914 8.125 12.6289 8.125 12.6797C8.125 12.8164 8.28906 12.9687 8.43359 12.9687C8.69922 12.9687 8.69922 12.9727 9.31641 10.6641C9.62891 9.49609 9.88281 8.49609 9.88281 8.44531C9.88281 8.21484 9.50781 8.07031 9.33984 8.23828Z" fill="#111827"/>
<path d="M4.54688 8.81641C4.5 8.82422 4.42969 8.86719 4.39062 8.91406C4.32031 8.98828 4.31641 9.07812 4.31641 10.1523V11.3125L4.43359 11.5469C4.62891 11.9258 4.96484 12.1094 5.46875 12.1094C5.96875 12.1094 6.30859 11.9219 6.50391 11.543L6.62109 11.3125L6.63281 10.1758C6.64453 9.08203 6.64453 9.03516 6.56641 8.9375C6.52344 8.88281 6.4375 8.82812 6.38281 8.81641C6.24609 8.79297 6.0625 8.85547 6.01562 8.94531C5.99219 8.98828 5.97656 9.47656 5.97656 10.1172V11.2148L5.88281 11.3086C5.74219 11.4492 5.50391 11.5078 5.30859 11.4492C5.21875 11.4219 5.10547 11.3594 5.05469 11.3086L4.96094 11.2148V10.1406C4.96094 9.42188 4.94531 9.03516 4.91797 8.96875C4.89062 8.91406 4.82031 8.85156 4.75391 8.82812C4.69141 8.80859 4.63672 8.79297 4.63281 8.79297C4.62891 8.79688 4.58984 8.80859 4.54688 8.81641Z" fill="#111827"/>
<path d="M7.26562 8.90658C7.19141 8.9808 7.1875 9.03549 7.1875 10.4652V11.9496L7.28906 12.0277C7.42969 12.1371 7.59766 12.1331 7.71484 12.0121L7.8125 11.9183V10.4496C7.8125 9.03549 7.80859 8.9808 7.73438 8.90658C7.68359 8.8558 7.60547 8.82846 7.5 8.82846C7.39453 8.82846 7.31641 8.8558 7.26562 8.90658Z" fill="#111827"/>
<path d="M10.3516 9.10151C10.2773 9.17573 10.2734 9.23042 10.2734 10.3164C10.2734 11.0781 10.2891 11.5078 10.3203 11.6093C10.3789 11.8046 10.6289 12.0898 10.8359 12.1953C10.9492 12.2578 11.0898 12.2851 11.332 12.2968C11.7852 12.3203 12.0195 12.2421 12.2695 11.9921C12.5586 11.7031 12.5781 11.5976 12.5781 10.2851C12.5781 9.23042 12.5742 9.17573 12.5 9.10151C12.3906 8.99214 12.1094 8.99214 12.0078 9.10542C11.9414 9.17964 11.9336 9.2773 11.9141 10.3125C11.8945 11.539 11.8945 11.5234 11.6523 11.6289C11.4883 11.6953 11.3633 11.6953 11.1719 11.6171C10.9062 11.5117 10.8984 11.4765 10.8984 10.2539C10.8984 9.23042 10.8945 9.17573 10.8203 9.10151C10.7695 9.05073 10.6914 9.02339 10.5859 9.02339C10.4805 9.02339 10.4023 9.05073 10.3516 9.10151Z" fill="#111827"/>
<path d="M13.2116 9.11376C13.0514 9.28564 13.0905 9.39501 13.5592 10.0552L13.9928 10.6645L13.5397 11.2739C13.0436 11.938 13.0085 12.0356 13.1842 12.2075C13.3131 12.3403 13.528 12.3403 13.6452 12.2114C13.6921 12.1606 13.8717 11.9224 14.0436 11.6841C14.2155 11.4458 14.3678 11.2505 14.3835 11.2505C14.3952 11.2505 14.5553 11.4575 14.735 11.7075C14.9147 11.9614 15.0905 12.1997 15.1296 12.2349C15.196 12.3052 15.3678 12.3247 15.4889 12.2817C15.5631 12.2505 15.6647 12.0669 15.6647 11.9614C15.6647 11.9185 15.5046 11.6567 15.3092 11.3833C15.1139 11.106 14.9186 10.8325 14.8796 10.7778L14.8092 10.6763L15.2194 10.1138C15.6999 9.46923 15.735 9.39501 15.6491 9.22314C15.5827 9.09423 15.4733 9.04736 15.2897 9.07079C15.1803 9.08251 15.0631 9.21533 14.4616 10.0278C14.3952 10.1138 14.3913 10.1099 14.0631 9.64111C13.8796 9.37939 13.6999 9.13329 13.6647 9.09423C13.5631 8.98876 13.3171 9.00048 13.2116 9.11376Z" fill="#111827"/>
</svg>
