<svg width="20" height="20" viewBox="0 0 20 20" fill="none" xmlns="http://www.w3.org/2000/svg">
<path d="M6.17314 0.7612C7.3864 0.258686 8.6868 0 10 0V5C9.34337 5 8.6932 5.12931 8.08657 5.38063C7.47994 5.63189 6.92874 6.00017 6.46446 6.46446C6.00017 6.92874 5.63189 7.47994 5.38063 8.08657C5.12931 8.6932 5 9.34337 5 10H0C0 8.6868 0.258686 7.3864 0.7612 6.17314C1.26377 4.95989 2.00034 3.85754 2.92891 2.92891C3.85754 2.00034 4.95989 1.26377 6.17314 0.7612Z" fill="#155EEF"/>
<path d="M0 10C0 11.3132 0.258686 12.6136 0.7612 13.8269C1.26377 15.0401 2.00034 16.1425 2.92891 17.0711C3.85754 17.9997 4.95989 18.7362 6.17314 19.2388C7.3864 19.7413 8.6868 20 10 20C11.3132 20 12.6136 19.7413 13.8269 19.2388C15.0401 18.7362 16.1425 17.9997 17.0711 17.0711C17.9997 16.1425 18.7362 15.0401 19.2388 13.8269C19.7413 12.6136 20 11.3132 20 10H15C15 10.6566 14.8707 11.3068 14.6194 11.9134C14.3681 12.5201 13.9998 13.0713 13.5355 13.5355C13.0713 13.9998 12.5201 14.3681 11.9134 14.6194C11.3068 14.8707 10.6566 15 10 15C9.34337 15 8.6932 14.8707 8.08657 14.6194C7.47994 14.3681 6.92874 13.9998 6.46446 13.5355C6.00017 13.0713 5.63189 12.5201 5.38063 11.9134C5.12931 11.3068 5 10.6566 5 10H0Z" fill="#84ADFF"/>
<path d="M10.0002 6.82031C8.24291 6.82031 6.81836 8.24486 6.81836 10.0021H13.182C13.182 8.24486 11.7574 6.82031 10.0002 6.82031Z" fill="#84ADFF"/>
<path d="M10.0002 13.1797C8.24291 13.1797 6.81836 11.7551 6.81836 9.99787H13.182C13.182 11.7551 11.7574 13.1797 10.0002 13.1797Z" fill="#155EEF"/>
</svg>
