<svg width="20" height="20" viewBox="0 0 20 20" fill="none" xmlns="http://www.w3.org/2000/svg">
<path d="M16.5033 4.16892C16.3068 3.97246 16.1103 3.77599 15.9139 3.57953C15.3245 2.95084 14.6958 2.32216 13.9099 1.92923C13.0062 1.45772 12.0239 1.5756 11.0416 1.5756C9.54844 1.5756 5.81563 1.5756 3.61523 1.5756L5.10836 3.57953C7.81956 3.57953 12.0632 3.57953 14.0278 3.57953C14.853 3.57953 15.5602 3.7367 16.2282 4.16892C16.3461 4.20821 16.464 4.20821 16.5033 4.16892Z" fill="#66C61C"/>
<path d="M18.1537 7.38767C17.9572 7.1912 17.7608 6.99474 17.5643 6.79827C16.9749 6.16959 16.3462 5.54091 15.5604 5.14798C14.6566 4.67647 13.6743 4.79435 12.692 4.79435C11.3953 4.79435 8.29121 4.79435 6.09082 4.79435L7.58395 6.79827C10.2559 6.79827 13.9101 6.79827 15.7175 6.79827C16.5427 6.79827 17.25 6.95545 17.9179 7.38767C17.9965 7.42696 18.0751 7.42696 18.1537 7.38767Z" fill="#4CA30D"/>
<path d="M20.0001 10.5283C19.8036 10.3318 19.6071 10.1354 19.4107 9.93891C18.8213 9.31022 18.1926 8.68153 17.4068 8.28861C16.503 7.81709 15.5207 7.93497 14.5384 7.93497C13.3203 7.93497 10.6484 7.93497 8.4873 7.93497L9.98042 9.93891C12.5737 9.93891 15.8743 9.93891 17.5246 9.93891C18.3498 9.93891 19.057 10.0961 19.725 10.5283C19.8429 10.5676 19.9215 10.6069 20.0001 10.5283Z" fill="#3B7C0F"/>
<path d="M3.45801 15.8342C3.65447 16.0306 3.85094 16.2271 4.0474 16.4235C4.63679 17.0522 5.26547 17.6809 6.05132 18.0738C6.95506 18.5453 7.93738 18.4275 8.9197 18.4275H16.346L14.8529 16.4235C12.1417 16.4235 7.89809 16.4235 5.93345 16.4235C5.1083 16.4235 4.40103 16.2664 3.73306 15.8342C3.61518 15.7949 3.53659 15.7949 3.45801 15.8342Z" fill="#66C61C"/>
<path d="M1.80762 12.6154C2.00408 12.8119 2.20054 13.0083 2.39701 13.2048C2.9864 13.8335 3.61508 14.4622 4.40093 14.8551C5.30467 15.3266 6.28699 15.2087 7.26931 15.2087H13.8705L12.3774 13.2048C9.70545 13.2048 6.05123 13.2048 4.24377 13.2048C3.41862 13.2048 2.71135 13.0476 2.04337 12.6154C1.96478 12.5761 1.8862 12.5761 1.80762 12.6154Z" fill="#4CA30D"/>
<path d="M0 9.42791C0.196464 9.62437 0.392927 9.82083 0.589391 10.0173C1.17878 10.646 1.80747 11.2747 2.59332 11.6676C3.49706 12.1391 4.47937 12.0212 5.46169 12.0212H11.5128L10.0196 10.0173C7.42633 10.0173 4.12574 10.0173 2.47544 10.0173C1.6503 10.0173 0.943024 9.86013 0.275048 9.42791C0.15717 9.38861 0.0785855 9.38861 0 9.42791Z" fill="#3B7C0F"/>
</svg>
