<svg width="24" height="24" viewBox="0 0 24 24" fill="none" xmlns="http://www.w3.org/2000/svg">
<rect width="24" height="24" rx="12" fill="#111827"/>
<path d="M14.8267 13.5105C14.6976 13.6958 14.5126 13.8349 14.2988 13.9075C14.0849 13.98 13.8534 13.9822 13.6383 13.9137C13.4231 13.8452 13.2355 13.7096 13.103 13.5267C12.9704 13.3438 12.8999 13.1234 12.9018 12.8975C12.9036 12.6717 12.9777 12.4524 13.1132 12.2718C13.2488 12.0911 13.4385 11.9586 13.6548 11.8936C13.8711 11.8286 14.1025 11.8346 14.3151 11.9107C14.5278 11.9867 14.7105 12.1289 14.8365 12.3163L15.6178 11.855C15.3903 11.496 15.0525 11.2206 14.6551 11.07C14.2577 10.9195 13.8222 10.9019 13.4139 11.0199C13.0057 11.138 12.6468 11.3853 12.3911 11.7247C12.1354 12.0641 11.9967 12.4774 11.9959 12.9023C11.995 13.3273 12.1321 13.741 12.3864 14.0815C12.6408 14.4219 12.9987 14.6706 13.4065 14.7903C13.8143 14.9099 14.2499 14.8941 14.6478 14.7451C15.0458 14.5961 15.3847 14.322 15.6137 13.9639L14.8269 13.5105H14.8267ZM16.9795 9.28125H16.073V14.7186H16.979V12.9062C16.979 12.6257 17.0904 12.3568 17.2887 12.1585C17.487 11.9602 17.7559 11.8488 18.0363 11.8488C18.3167 11.8488 18.5856 11.9602 18.7839 12.1585C18.9822 12.3568 19.0936 12.6257 19.0936 12.9062V14.7186H19.9998V12.7299C19.9997 12.38 19.8969 12.038 19.7043 11.746C19.5116 11.454 19.2375 11.225 18.9159 11.0873C18.5944 10.9497 18.2395 10.9093 17.8952 10.9714C17.551 11.0335 17.2325 11.1952 16.9792 11.4365V9.28125H16.9795ZM10.6361 9.28125H9.72992V13.5102C9.72989 13.7712 9.80499 14.0267 9.94627 14.2462C10.0875 14.4656 10.289 14.6397 10.5266 14.7478C10.7642 14.8558 11.0279 14.8931 11.2861 14.8553C11.5443 14.8175 11.7862 14.7061 11.9829 14.5345L11.5451 13.7916C11.5027 13.8451 11.4487 13.8884 11.3872 13.9181C11.3257 13.9479 11.2583 13.9633 11.19 13.9632H11.0891C10.969 13.9631 10.8538 13.9154 10.7689 13.8305C10.684 13.7455 10.6362 13.6303 10.6361 13.5102V11.9999H11.5421V11.0937H10.6361V9.28125ZM8.67335 9.28125C8.53983 9.28125 8.41179 9.33429 8.31737 9.4287C8.22296 9.52311 8.16992 9.65116 8.16992 9.78468C8.16992 9.9182 8.22296 10.0462 8.31737 10.1407C8.41179 10.2351 8.53983 10.2881 8.67335 10.2881C8.80687 10.2881 8.93492 10.2351 9.02933 10.1407C9.12374 10.0462 9.17678 9.9182 9.17678 9.78468C9.17678 9.65116 9.12374 9.52311 9.02933 9.4287C8.93492 9.33429 8.80687 9.28125 8.67335 9.28125V9.28125ZM9.12634 14.7186V11.0937H8.22036V14.7186H9.12634Z" fill="white"/>
<path fill-rule="evenodd" clip-rule="evenodd" d="M3.83984 14.7186H4.74582V13.6613H5.57663C5.86423 13.6613 6.14901 13.6047 6.41472 13.4946C6.68042 13.3845 6.92185 13.2232 7.12521 13.0199C7.32858 12.8165 7.48989 12.5751 7.59995 12.3094C7.71001 12.0437 7.76666 11.7589 7.76666 11.4713C7.76666 11.1837 7.71001 10.8989 7.59995 10.6332C7.48989 10.3675 7.32858 10.1261 7.12521 9.92269C6.92185 9.71933 6.68042 9.55801 6.41472 9.44796C6.14901 9.3379 5.86423 9.28125 5.57663 9.28125H3.83984V14.7186ZM4.74582 10.1872H5.57663C5.91712 10.1872 6.24366 10.3225 6.48442 10.5632C6.72517 10.804 6.86043 11.1305 6.86043 11.471C6.86043 11.8115 6.72517 12.1381 6.48442 12.3788C6.24366 12.6196 5.91712 12.7548 5.57663 12.7548H4.74607V10.1872H4.74582Z" fill="white"/>
</svg>
