<svg width="37" height="36" viewBox="0 0 37 36" fill="none" xmlns="http://www.w3.org/2000/svg">
<path opacity="0.75" d="M0.5 18.0012C5.47036 13.0308 13.5297 13.0308 18.5 18.0012C13.5297 22.9716 5.47036 22.9716 0.5 18.0012ZM18.5 18.0012C23.4704 22.9716 31.5296 22.9716 36.5 18.0012C31.5016 13.0308 23.4704 13.0308 18.5 18.0012Z" fill="#EE3F2E"/>
<path opacity="0.75" d="M18.5002 36C13.5299 31.0296 13.5299 22.9704 18.5002 18C23.4706 22.9704 23.4706 31.0296 18.5002 36ZM18.5002 18C23.4706 13.0296 23.4706 4.97036 18.5002 0C13.5299 4.97036 13.5299 13.0296 18.5002 18Z" fill="#FED624"/>
<path opacity="0.75" d="M5.75098 30.7228C5.75098 23.7025 11.4514 18.002 18.4717 18.002C18.4998 25.0223 12.7993 30.7228 5.75098 30.7228ZM18.4998 18.002C25.5201 18.002 31.2206 12.3015 31.2206 5.28125C24.1722 5.28125 18.4998 10.9536 18.4998 18.002Z" fill="#F68A1D"/>
<path opacity="0.75" d="M5.75098 5.28125C12.7713 5.28125 18.4717 10.9817 18.4717 18.002C11.4514 18.002 5.75098 12.3015 5.75098 5.28125ZM18.4998 18.002C18.4998 25.0223 24.2003 30.7228 31.2206 30.7228C31.2206 23.7025 25.5201 18.002 18.4998 18.002Z" fill="#FDC125"/>
<path opacity="0.75" d="M0.5 18.0012C5.47036 13.0308 13.5297 13.0308 18.5 18.0012C13.5297 22.9716 5.47036 22.9716 0.5 18.0012ZM18.5 18.0012C23.4704 22.9716 31.5296 22.9716 36.5 18.0012C31.5016 13.0308 23.4704 13.0308 18.5 18.0012Z" fill="#EE3F2E"/>
<path opacity="0.75" d="M18.5002 36C13.5299 31.0296 13.5299 22.9704 18.5002 18C23.4706 22.9704 23.4706 31.0296 18.5002 36ZM18.5002 18C23.4706 13.0296 23.4706 4.97036 18.5002 0C13.5299 4.97036 13.5299 13.0296 18.5002 18Z" fill="#FED624"/>
<path opacity="0.75" d="M5.75098 30.7228C5.75098 23.7025 11.4514 18.002 18.4717 18.002C18.4998 25.0223 12.7993 30.7228 5.75098 30.7228ZM18.4998 18.002C25.5201 18.002 31.2206 12.3015 31.2206 5.28125C24.1722 5.28125 18.4998 10.9536 18.4998 18.002Z" fill="#F68A1D"/>
<path opacity="0.75" d="M5.75098 5.28125C12.7713 5.28125 18.4717 10.9817 18.4717 18.002C11.4514 18.002 5.75098 12.3015 5.75098 5.28125ZM18.4998 18.002C18.4998 25.0223 24.2003 30.7228 31.2206 30.7228C31.2206 23.7025 25.5201 18.002 18.4998 18.002Z" fill="#FDC125"/>
</svg>
