<svg width="37" height="36" viewBox="0 0 37 36" fill="none" xmlns="http://www.w3.org/2000/svg">
<g clip-path="url(#clip0_2995_152292)">
<path d="M22.8118 1.73784L19.3584 0.8125L16.4482 11.6736L13.8208 1.86812L10.3673 2.79347L13.2061 13.3875L6.13546 6.31697L3.60739 8.84504L11.363 16.6007L1.70463 14.0127L0.779297 17.4661L11.3322 20.2937C11.2114 19.7726 11.1475 19.2296 11.1475 18.6717C11.1475 14.7226 14.3489 11.5212 18.298 11.5212C22.2471 11.5212 25.4484 14.7226 25.4484 18.6717C25.4484 19.226 25.3853 19.7657 25.266 20.2837L34.8567 22.8535L35.7819 19.4002L25.187 16.5612L34.846 13.9731L33.9206 10.5197L23.3262 13.3585L30.3968 6.28794L27.8687 3.75987L20.2207 11.4079L22.8118 1.73784Z" fill="#FF4405"/>
<path d="M25.2559 20.3239C24.9598 21.5757 24.3347 22.7002 23.4771 23.6012L30.4251 30.5493L32.9531 28.0212L25.2559 20.3239Z" fill="#FF4405"/>
<path d="M23.4069 23.6738C22.5389 24.5604 21.4419 25.222 20.2118 25.5629L22.74 34.9984L26.1934 34.0731L23.4069 23.6738Z" fill="#FF4405"/>
<path d="M20.0828 25.5975C19.5121 25.7442 18.9138 25.8222 18.2974 25.8222C17.6369 25.8222 16.9973 25.7326 16.3902 25.565L13.8596 35.0091L17.313 35.9344L20.0828 25.5975Z" fill="#FF4405"/>
<path d="M16.2681 25.5302C15.0567 25.1723 13.9792 24.5022 13.1289 23.6131L6.16383 30.5782L8.6919 33.1063L16.2681 25.5302Z" fill="#FF4405"/>
<path d="M13.0715 23.5515C12.2358 22.6568 11.6271 21.5473 11.3373 20.3149L1.71533 22.8931L2.64066 26.3465L13.0715 23.5515Z" fill="#FF4405"/>
</g>
<defs>
<clipPath id="clip0_2995_152292">
<rect width="36" height="36" fill="white" transform="translate(0.5)"/>
</clipPath>
</defs>
</svg>
