<svg width="40" height="40" viewBox="0 0 40 40" fill="none" xmlns="http://www.w3.org/2000/svg">
<path d="M12.0703 18.4724C12.8178 15.6831 15.685 12.8159 18.4744 12.0684L35.8643 7.40805C38.6537 6.66054 40.3089 8.31576 39.5614 11.1051L34.9011 28.4951C34.1535 31.2844 31.2864 34.1516 28.497 34.8991L11.107 39.5594C8.31771 40.307 6.66249 38.6517 7.41 35.8624L12.0703 18.4724Z" fill="#9E77ED"/>
<path d="M5.09963 11.4959C5.84715 8.70651 8.71433 5.83933 11.5037 5.09182L28.8937 0.431485C31.683 -0.316028 33.3382 1.3392 32.5907 4.12853L27.9304 21.5185C27.1829 24.3078 24.3157 27.175 21.5263 27.9225L4.13635 32.5829C1.34701 33.3304 -0.308213 31.6752 0.4393 28.8858L5.09963 11.4959Z" fill="#6941C6"/>
</svg>
