<svg width="20" height="20" viewBox="0 0 20 20" fill="none" xmlns="http://www.w3.org/2000/svg">
<path d="M14.7705 1.21094C16.1162 3.84932 16.875 6.83696 16.875 10.0018C16.875 13.1667 16.1162 16.1544 14.7705 18.7928C17.8856 17.0988 20 13.7972 20 10.0019C20 6.20649 17.8856 2.90497 14.7705 1.21094Z" fill="#0BA5EC"/>
<path d="M10.2738 0.997588C9.82152 0.356836 9.05099 0.0117544 8.27823 0.14586C3.57585 0.961912 0 5.06246 0 9.99819C0 14.9339 3.57583 19.0344 8.27819 19.8505C9.05095 19.9846 9.82148 19.6395 10.2738 18.9988C12.0699 16.4544 13.125 13.3495 13.125 9.99816C13.125 6.64687 12.0699 3.54199 10.2738 0.997588Z" fill="#0086C9"/>
</svg>
