<svg width="37" height="37" viewBox="0 0 37 37" fill="none" xmlns="http://www.w3.org/2000/svg">
<circle cx="18.5" cy="18.2031" r="17.5" stroke="#6927DA"/>
<path d="M25.6676 25.3696C22.2051 28.8322 18.2574 31.1197 14.6938 32.036C11.1177 32.9556 8.027 32.4777 6.12579 30.5765C4.22457 28.6752 3.74664 25.5846 4.66622 22.0084C5.58257 18.4448 7.87007 14.4972 11.3327 11.0346C14.7953 7.57201 18.7429 5.28451 22.3065 4.36816C25.8827 3.44857 28.9733 3.92651 30.8745 5.82772C32.7757 7.72894 33.2537 10.8196 32.3341 14.3958C31.4177 17.9593 29.1302 21.907 25.6676 25.3696Z" stroke="#6927DA"/>
<path d="M25.6674 11.0394C29.13 14.502 31.4175 18.4496 32.3339 22.0132C33.2535 25.5894 32.7755 28.68 30.8743 30.5812C28.9731 32.4825 25.8824 32.9604 22.3063 32.0408C18.7427 31.1245 14.795 28.837 11.3325 25.3744C7.86986 21.9118 5.58236 17.9641 4.66601 14.4005C3.74642 10.8244 4.22436 7.73372 6.12557 5.83251C8.02679 3.9313 11.1174 3.45336 14.6936 4.37294C18.2572 5.28929 22.2048 7.57679 25.6674 11.0394Z" stroke="#6927DA"/>
</svg>
