<svg width="37" height="36" viewBox="0 0 37 36" fill="none" xmlns="http://www.w3.org/2000/svg">
<path d="M11.6117 1.37016C13.7955 0.465634 16.1362 0 18.5 0V9C17.3181 9 16.1478 9.23277 15.0558 9.68513C13.9639 10.1374 12.9717 10.8003 12.136 11.636C11.3003 12.4717 10.6374 13.4639 10.1851 14.5558C9.73277 15.6478 9.5 16.8181 9.5 18H0.5C0.5 15.6362 0.965634 13.2955 1.87016 11.1117C2.77479 8.9278 4.10062 6.94358 5.77205 5.27205C7.44358 3.60062 9.4278 2.27479 11.6117 1.37016Z" fill="#155EEF"/>
<path d="M0.5 18C0.5 20.3638 0.965634 22.7045 1.87016 24.8883C2.77479 27.0722 4.10062 29.0564 5.77205 30.728C7.44358 32.3994 9.4278 33.7252 11.6117 34.6298C13.7955 35.5344 16.1362 36 18.5 36C20.8638 36 23.2045 35.5344 25.3883 34.6298C27.5722 33.7252 29.5564 32.3994 31.228 30.728C32.8994 29.0564 34.2252 27.0722 35.1298 24.8883C36.0344 22.7045 36.5 20.3638 36.5 18H27.5C27.5 19.1819 27.2672 20.3522 26.8149 21.4442C26.3626 22.5361 25.6997 23.5283 24.864 24.364C24.0283 25.1997 23.0361 25.8626 21.9442 26.3149C20.8522 26.7672 19.6819 27 18.5 27C17.3181 27 16.1478 26.7672 15.0558 26.3149C13.9639 25.8626 12.9717 25.1997 12.136 24.364C11.3003 23.5283 10.6374 22.5361 10.1851 21.4442C9.73277 20.3522 9.5 19.1819 9.5 18H0.5Z" fill="#84ADFF"/>
<path d="M18.4997 12.2734C15.3366 12.2734 12.7725 14.8376 12.7725 18.0007H24.227C24.227 14.8376 21.6628 12.2734 18.4997 12.2734Z" fill="#84ADFF"/>
<path d="M18.4997 23.7266C15.3366 23.7266 12.7725 21.1624 12.7725 17.9993H24.227C24.227 21.1624 21.6628 23.7266 18.4997 23.7266Z" fill="#155EEF"/>
</svg>
