<svg width="37" height="36" viewBox="0 0 37 36" fill="none" xmlns="http://www.w3.org/2000/svg">
<path fill-rule="evenodd" clip-rule="evenodd" d="M18.5 36C28.4411 36 36.5 27.9411 36.5 18C36.5 8.05888 28.4411 0 18.5 0C8.55886 0 0.5 8.05888 0.5 18C0.5 27.9411 8.55886 36 18.5 36ZM24.1154 8.38516C24.3887 7.41425 23.4465 6.84012 22.586 7.45317L10.5738 16.0106C9.64059 16.6755 9.78738 18 10.7943 18H13.9574V17.9755H20.1223L15.0991 19.7479L12.8846 27.6149C12.6113 28.5858 13.5534 29.1599 14.414 28.5468L26.4262 19.9894C27.3594 19.3246 27.2125 18 26.2057 18H21.4089L24.1154 8.38516Z" fill="#155EEF"/>
</svg>
