<svg width="37" height="36" viewBox="0 0 37 36" fill="none" xmlns="http://www.w3.org/2000/svg">
<path d="M30.2053 7.49624C29.8516 7.14261 29.498 6.78897 29.1444 6.43534C28.0835 5.30371 26.9518 4.17208 25.5373 3.46481C23.9106 2.61609 22.1424 2.82826 20.3742 2.82826C17.6866 2.82826 10.9675 2.82826 7.00684 2.82826L9.69446 6.43534C14.5746 6.43534 22.2131 6.43534 25.7495 6.43534C27.2347 6.43534 28.5078 6.71825 29.7102 7.49624C29.9224 7.56697 30.1345 7.56697 30.2053 7.49624Z" fill="#66C61C"/>
<path d="M33.1761 13.2931C32.8224 12.9395 32.4688 12.5858 32.1152 12.2322C31.0542 11.1006 29.9226 9.96895 28.5081 9.26168C26.8814 8.41295 25.1132 8.62514 23.345 8.62514C21.011 8.62514 15.4236 8.62514 11.4629 8.62514L14.1505 12.2322C18.9599 12.2322 25.5375 12.2322 28.791 12.2322C30.2763 12.2322 31.5493 12.5151 32.7517 13.2931C32.8932 13.3638 33.0346 13.3638 33.1761 13.2931Z" fill="#4CA30D"/>
<path d="M36.5003 18.9572C36.1467 18.6035 35.7931 18.2499 35.4394 17.8963C34.3785 16.7646 33.2469 15.633 31.8324 14.9257C30.2056 14.077 28.4375 14.2892 26.6693 14.2892C24.4768 14.2892 19.6673 14.2892 15.7773 14.2892L18.465 17.8963C23.1329 17.8963 29.074 17.8963 32.0445 17.8963C33.5298 17.8963 34.8029 18.1792 36.0052 18.9572C36.2174 19.0279 36.3589 19.0986 36.5003 18.9572Z" fill="#3B7C0F"/>
<path d="M6.72363 28.5062C7.07727 28.8598 7.4309 29.2134 7.78454 29.5671C8.84544 30.6987 9.97706 31.8303 11.3916 32.5376C13.0183 33.3863 14.7865 33.1741 16.5547 33.1741H29.9221L27.2344 29.5671C22.3543 29.5671 14.7158 29.5671 11.1794 29.5671C9.69417 29.5671 8.42108 29.2842 7.21872 28.5062C7.00654 28.4354 6.86509 28.4354 6.72363 28.5062Z" fill="#66C61C"/>
<path d="M3.75391 22.7015C4.10754 23.0551 4.46118 23.4088 4.81481 23.7624C5.87571 24.894 7.00734 26.0257 8.42188 26.7329C10.0486 27.5816 11.8168 27.3695 13.5849 27.3695H25.4671L22.7794 23.7624C17.97 23.7624 11.3924 23.7624 8.13897 23.7624C6.65371 23.7624 5.38062 23.4795 4.17826 22.7015C4.03681 22.6308 3.89536 22.6308 3.75391 22.7015Z" fill="#4CA30D"/>
<path d="M0.5 16.9749C0.853635 17.3286 1.20727 17.6822 1.5609 18.0358C2.62181 19.1675 3.75344 20.2991 5.16798 21.0064C6.7947 21.8551 8.56286 21.6429 10.331 21.6429H21.223L18.5354 18.0358C13.8674 18.0358 7.92633 18.0358 4.9558 18.0358C3.47053 18.0358 2.19744 17.7529 0.995086 16.9749C0.782906 16.9042 0.641454 16.9042 0.5 16.9749Z" fill="#3B7C0F"/>
</svg>
