<svg width="37" height="36" viewBox="0 0 37 36" fill="none" xmlns="http://www.w3.org/2000/svg">
<path d="M18.5 0C8.55884 0 0.5 8.05887 0.5 18C0.5 27.9411 8.55884 36 18.5 36C27.419 36 34.8229 29.5131 36.2511 21H36.1219C34.7898 26.1757 30.0915 30 24.5 30C17.8726 30 12.5 24.6274 12.5 18C12.5 11.3726 17.8726 6 24.5 6C30.0915 6 34.7898 9.82431 36.1219 15H36.2511C34.8229 6.48686 27.419 0 18.5 0Z" fill="#A4BCFD"/>
<path d="M0.5 18C0.5 8.05887 8.55887 0 18.5 0C27.419 0 34.8229 6.48686 36.2511 15H24.1219C22.7898 9.82432 18.0915 6 12.5 6C5.87258 6 0.5 11.3726 0.5 18Z" fill="#3538CD"/>
<path d="M0.5 18C0.5 27.9411 8.55887 36 18.5 36C27.419 36 34.8229 29.5131 36.2511 21H24.1219C22.7898 26.1757 18.0915 30 12.5 30C5.87258 30 0.5 24.6274 0.5 18Z" fill="#3538CD"/>
</svg>
