<svg width="20" height="20" viewBox="0 0 20 20" fill="none" xmlns="http://www.w3.org/2000/svg">
<path d="M10 0C4.47713 0 0 4.47715 0 10C0 15.5228 4.47713 20 10 20C14.955 20 19.0683 16.3962 19.8617 11.6667H19.79C19.0499 14.542 16.4397 16.6667 13.3333 16.6667C9.65145 16.6667 6.66667 13.6819 6.66667 10C6.66667 6.31809 9.65145 3.33333 13.3333 3.33333C16.4397 3.33333 19.0499 5.45795 19.79 8.33333H19.8617C19.0683 3.60381 14.955 0 10 0Z" fill="#A4BCFD"/>
<path d="M0 10C0 4.47715 4.47715 0 10 0C14.955 0 19.0683 3.60381 19.8617 8.33333H13.1233C12.3832 5.45795 9.77306 3.33333 6.66667 3.33333C2.98477 3.33333 0 6.3181 0 10Z" fill="#3538CD"/>
<path d="M0 10C0 15.5228 4.47715 20 10 20C14.955 20 19.0683 16.3962 19.8617 11.6667H13.1233C12.3832 14.542 9.77306 16.6667 6.66667 16.6667C2.98477 16.6667 0 13.6819 0 10Z" fill="#3538CD"/>
</svg>
