<svg width="20" height="20" viewBox="0 0 20 20" fill="none" xmlns="http://www.w3.org/2000/svg">
<path d="M6.03517 9.23621C6.40892 7.84154 7.84252 6.40795 9.23718 6.03419L17.9322 3.70403C19.3268 3.33027 20.1545 4.15788 19.7807 5.55255L17.4505 14.2475C17.0768 15.6422 15.6432 17.0758 14.2485 17.4496L5.55352 19.7797C4.15886 20.1535 3.33124 19.3259 3.705 17.9312L6.03517 9.23621Z" fill="#9E77ED"/>
<path d="M2.54982 5.75183C2.92357 4.35716 4.35716 2.92357 5.75183 2.54982L14.4468 0.219649C15.8415 -0.154108 16.6691 0.673505 16.2954 2.06817L13.9652 10.7632C13.5914 12.1578 12.1578 13.5914 10.7632 13.9652L2.06817 16.2953C0.673506 16.6691 -0.154107 15.8415 0.21965 14.4468L2.54982 5.75183Z" fill="#6941C6"/>
</svg>
