<svg width="14" height="14" viewBox="0 0 14 14" fill="none" xmlns="http://www.w3.org/2000/svg">
<path d="M12.1077 0.28125H1.73157C1.43212 0.281838 1.14506 0.39992 0.933001 0.609737C0.720943 0.819555 0.601099 1.10408 0.599609 1.40125V12.6012C0.599609 13.2172 1.10916 13.7213 1.73157 13.7213H12.1077C12.4071 13.7207 12.6942 13.6026 12.9062 13.3928C13.1183 13.1829 13.2381 12.8984 13.2396 12.6012V12.0788C13.221 11.4068 13.2018 10.0068 13.2018 9.37173C13.2018 9.01725 12.9377 8.71877 12.598 8.71877C12.2211 8.71877 11.9756 8.94277 11.7871 9.12925C11.2212 9.63325 10.3719 9.72677 9.63608 9.59573C9.29694 9.52125 8.97587 9.42773 8.71178 9.25973C7.90034 8.79325 7.37217 7.91573 7.37217 6.98277C7.37217 6.04925 7.90034 5.19077 8.71178 4.70525C8.99505 4.53725 9.31557 4.44373 9.63608 4.36925C10.3527 4.23877 11.2212 4.33173 11.7871 4.83573C11.9942 5.02277 12.2397 5.24677 12.598 5.24677C12.9377 5.24677 13.2018 4.94773 13.2018 4.59325C13.2018 3.97725 13.221 2.55877 13.2396 1.88677V1.40125C13.2396 0.78525 12.7301 0.28125 12.1077 0.28125Z" fill="#F26522"/>
</svg>
