<svg width="20" height="20" viewBox="0 0 20 20" fill="none" xmlns="http://www.w3.org/2000/svg">
<path d="M7.14244 14.2824C11.0873 14.2824 14.2853 11.0844 14.2853 7.13951C14.2853 6.69242 14.2442 6.25493 14.1656 5.8306C13.7413 5.75201 13.3038 5.71094 12.8567 5.71094C8.91183 5.71094 5.71387 8.9089 5.71387 12.8538C5.71387 13.3009 5.75494 13.7384 5.83353 14.1627C6.25786 14.2413 6.69535 14.2824 7.14244 14.2824Z" fill="#175CD3"/>
<path fill-rule="evenodd" clip-rule="evenodd" d="M5.83395 14.1661C2.51417 13.5512 0 10.6407 0 7.14286C0 3.19797 3.19797 0 7.14286 0C10.6407 0 13.5512 2.51417 14.1661 5.83395C13.7417 5.75536 13.3042 5.71428 12.8571 5.71428C8.91225 5.71428 5.71429 8.91225 5.71429 12.8571C5.71429 13.3042 5.75536 13.7417 5.83395 14.1661Z" fill="#1570EF"/>
<path fill-rule="evenodd" clip-rule="evenodd" d="M7.1429 14.2877C11.0878 14.2877 14.2858 11.0897 14.2858 7.14485C14.2858 6.69776 14.2447 6.26027 14.1661 5.83594C17.4859 6.45074 20 9.36133 20 12.8591C20 16.804 16.8021 20.002 12.8572 20.002C9.35938 20.002 6.44879 17.4878 5.83398 14.168C6.25832 14.2466 6.69581 14.2877 7.1429 14.2877Z" fill="#2E90FA"/>
</svg>
