<svg width="37" height="36" viewBox="0 0 37 36" fill="none" xmlns="http://www.w3.org/2000/svg">
<path d="M13.9988 26.9989L18.4986 31.5018L13.9988 36.0013L0.5 22.4991L4.99982 18L9.49928 22.4991L13.9988 18L18.4986 22.4991L13.9988 26.9989Z" fill="#FF0C5D"/>
<path d="M36.4997 22.4991L22.9975 36.0013L18.498 31.5018L22.9975 26.9989L18.498 22.4991L22.9975 18L27.497 22.4991L31.9999 18L36.4997 22.4991Z" fill="#221ECA"/>
<path d="M36.4997 13.4988L31.9999 17.9986L27.497 13.4988L22.9975 17.9986L18.498 13.4988L22.9975 8.9993L18.498 4.49948L22.9975 0L36.4997 13.4988Z" fill="#FFC005"/>
<path d="M13.9988 8.9993L18.4986 13.4988L13.9988 17.9986L9.49928 13.4988L4.99982 17.9986L0.5 13.4988L13.9988 0L18.4986 4.49948L13.9988 8.9993Z" fill="#221ECA"/>
</svg>
