<svg width="37" height="36" viewBox="0 0 37 36" fill="none" xmlns="http://www.w3.org/2000/svg">
<path d="M11.3639 16.6236C12.0367 14.1132 14.6171 11.5327 17.1275 10.86L32.7785 6.66568C35.2889 5.99292 36.7786 7.48262 36.1058 9.99303L31.9115 25.644C31.2388 28.1544 28.6583 30.7349 26.1479 31.4076L10.4969 35.6019C7.98653 36.2747 6.49683 34.785 7.16959 32.2746L11.3639 16.6236Z" fill="#9E77ED"/>
<path d="M5.08947 10.3502C5.76224 7.83977 8.3427 5.25931 10.8531 4.58654L26.5041 0.392243C29.0145 -0.280519 30.5042 1.20918 29.8314 3.71959L25.6371 19.3706C24.9644 21.881 22.3839 24.4614 19.8735 25.1342L4.22252 29.3285C1.71212 30.0013 0.222412 28.5116 0.895174 26.0012L5.08947 10.3502Z" fill="#6941C6"/>
</svg>
