<svg width="37" height="36" viewBox="0 0 37 36" fill="none" xmlns="http://www.w3.org/2000/svg">
<path d="M13.3576 25.7176C20.4584 25.7176 26.2147 19.9613 26.2147 12.8605C26.2147 12.0557 26.1408 11.2682 25.9993 10.5045C25.2355 10.363 24.448 10.2891 23.6433 10.2891C16.5425 10.2891 10.7861 16.0454 10.7861 23.1462C10.7861 23.951 10.8601 24.7384 11.0015 25.5022C11.7653 25.6437 12.5528 25.7176 13.3576 25.7176Z" fill="#175CD3"/>
<path fill-rule="evenodd" clip-rule="evenodd" d="M11.0011 25.4989C5.02551 24.3922 0.5 19.1532 0.5 12.8571C0.5 5.75634 6.25634 0 13.3571 0C19.6532 0 24.8922 4.52551 25.9989 10.5011C25.2351 10.3597 24.4476 10.2857 23.6429 10.2857C16.5421 10.2857 10.7857 16.0421 10.7857 23.1429C10.7857 23.9476 10.8597 24.7351 11.0011 25.4989Z" fill="#1570EF"/>
<path fill-rule="evenodd" clip-rule="evenodd" d="M13.357 25.7132C20.4578 25.7132 26.2142 19.9568 26.2142 12.856C26.2142 12.0513 26.1402 11.2638 25.9988 10.5C31.9744 11.6066 36.4999 16.8457 36.4999 23.1418C36.4999 30.2426 30.7435 35.9989 23.6427 35.9989C17.3467 35.9989 12.1076 31.4734 11.001 25.4978C11.7648 25.6392 12.5523 25.7132 13.357 25.7132Z" fill="#2E90FA"/>
</svg>
