<svg width="37" height="36" viewBox="0 0 37 36" fill="none" xmlns="http://www.w3.org/2000/svg">
<path d="M27.087 2.17969C29.5091 6.92878 30.875 12.3065 30.875 18.0033C30.875 23.7001 29.5091 29.0779 27.0869 33.827C32.6941 30.7778 36.5 24.835 36.5 18.0033C36.5 11.1717 32.6942 5.22894 27.087 2.17969Z" fill="#0BA5EC"/>
<path d="M18.9929 1.79566C18.1787 0.642305 16.7918 0.0211579 15.4008 0.262548C6.93652 1.73144 0.5 9.11243 0.5 17.9967C0.5 26.881 6.93649 34.262 15.4007 35.7309C16.7917 35.9723 18.1787 35.3512 18.9928 34.1978C22.2258 29.6179 24.125 24.0291 24.125 17.9967C24.125 11.9644 22.2259 6.37559 18.9929 1.79566Z" fill="#0086C9"/>
</svg>
