<svg width="267" height="188" viewBox="0 0 267 188" fill="none" xmlns="http://www.w3.org/2000/svg">
<g style="mix-blend-mode:lighten" opacity="0.1">
<path d="M-159.068 213H-173V199.105M-159.068 213V199.105M-159.068 213H-145.136M-159.068 199.105H-173M-159.068 199.105V185.211M-159.068 199.105H-145.136M-173 199.105V185.211M-159.068 185.211H-173M-159.068 185.211V171.316M-159.068 185.211H-145.136M-173 185.211V171.316M-159.068 171.316H-173M-159.068 171.316V157.421M-159.068 171.316H-145.136M-173 171.316V157.421M-159.068 157.421H-173M-159.068 157.421V143.526M-159.068 157.421H-145.136M-173 157.421V143.526M-159.068 143.526H-173M-159.068 143.526V129.632M-159.068 143.526H-145.136M-173 143.526V129.632M-159.068 129.632H-173M-159.068 129.632V115.737M-159.068 129.632H-145.136M-173 129.632V115.737M-159.068 115.737H-173M-159.068 115.737V101.842M-159.068 115.737H-145.136M-173 115.737V101.842M-159.068 101.842H-173M-159.068 101.842V87.9474M-159.068 101.842H-145.136M-173 101.842V87.9474M-159.068 87.9474H-173M-159.068 87.9474V74.0526M-159.068 87.9474H-145.136M-173 87.9474V74.0526M-159.068 74.0526H-173M-159.068 74.0526V60.1579M-159.068 74.0526H-145.136M-173 74.0526V60.1579M-159.068 60.1579H-173M-159.068 60.1579V46.2632M-159.068 60.1579H-145.136M-173 60.1579V46.2632M-159.068 46.2632H-173M-159.068 46.2632V32.3684M-159.068 46.2632H-145.136M-173 46.2632V32.3684M-159.068 32.3684H-173M-159.068 32.3684V18.4737M-159.068 32.3684H-145.136M-173 32.3684V18.4737M-159.068 18.4737H-173M-159.068 18.4737V4.57896M-159.068 18.4737H-145.136M-173 18.4737V4.57896M-159.068 4.57896H-173M-159.068 4.57896V-9.3158M-159.068 4.57896H-145.136M-173 4.57896V-9.3158M-159.068 -9.3158H-173M-159.068 -9.3158V-23.2105M-159.068 -9.3158H-145.136M-173 -9.3158V-23.2105M-159.068 -23.2105H-173M-159.068 -23.2105V-37.1053M-159.068 -23.2105H-145.136M-173 -23.2105V-37.1053M-159.068 -37.1053H-173M-159.068 -37.1053V-51M-159.068 -37.1053H-145.136M-173 -37.1053V-51H-159.068M-159.068 -51H-145.136M-145.136 213V199.105M-145.136 213H-131.205M-145.136 199.105V185.211M-145.136 199.105H-131.205M-145.136 185.211V171.316M-145.136 185.211H-131.205M-145.136 171.316V157.421M-145.136 171.316H-131.205M-145.136 157.421V143.526M-145.136 157.421H-131.205M-145.136 143.526V129.632M-145.136 143.526H-131.205M-145.136 129.632V115.737M-145.136 129.632H-131.205M-145.136 115.737V101.842M-145.136 115.737H-131.205M-145.136 101.842V87.9474M-145.136 101.842H-131.205M-145.136 87.9474V74.0526M-145.136 87.9474H-131.205M-145.136 74.0526V60.1579M-145.136 74.0526H-131.205M-145.136 60.1579V46.2632M-145.136 60.1579H-131.205M-145.136 46.2632V32.3684M-145.136 46.2632H-131.205M-145.136 32.3684V18.4737M-145.136 32.3684H-131.205M-145.136 18.4737V4.57896M-145.136 18.4737H-131.205M-145.136 4.57896V-9.3158M-145.136 4.57896H-131.205M-145.136 -9.3158V-23.2105M-145.136 -9.3158H-131.205M-145.136 -23.2105V-37.1053M-145.136 -23.2105H-131.205M-145.136 -37.1053V-51M-145.136 -37.1053H-131.205M-145.136 -51H-131.205M-131.205 213V199.105M-131.205 213H-117.273M-131.205 199.105V185.211M-131.205 199.105H-117.273M-131.205 185.211V171.316M-131.205 185.211H-117.273M-131.205 171.316V157.421M-131.205 171.316H-117.273M-131.205 157.421V143.526M-131.205 157.421H-117.273M-131.205 143.526V129.632M-131.205 143.526H-117.273M-131.205 129.632V115.737M-131.205 129.632H-117.273M-131.205 115.737V101.842M-131.205 115.737H-117.273M-131.205 101.842V87.9474M-131.205 101.842H-117.273M-131.205 87.9474V74.0526M-131.205 87.9474H-117.273M-131.205 74.0526V60.1579M-131.205 74.0526H-117.273M-131.205 60.1579V46.2632M-131.205 60.1579H-117.273M-131.205 46.2632V32.3684M-131.205 46.2632H-117.273M-131.205 32.3684V18.4737M-131.205 32.3684H-117.273M-131.205 18.4737V4.57896M-131.205 18.4737H-117.273M-131.205 4.57896V-9.3158M-131.205 4.57896H-117.273M-131.205 -9.3158V-23.2105M-131.205 -9.3158H-117.273M-131.205 -23.2105V-37.1053M-131.205 -23.2105H-117.273M-131.205 -37.1053V-51M-131.205 -37.1053H-117.273M-131.205 -51H-117.273M-117.273 213V199.105M-117.273 213H-103.341M-117.273 199.105V185.211M-117.273 199.105H-103.341M-117.273 185.211V171.316M-117.273 185.211H-103.341M-117.273 171.316V157.421M-117.273 171.316H-103.341M-117.273 157.421V143.526M-117.273 157.421H-103.341M-117.273 143.526V129.632M-117.273 143.526H-103.341M-117.273 129.632V115.737M-117.273 129.632H-103.341M-117.273 115.737V101.842M-117.273 115.737H-103.341M-117.273 101.842V87.9474M-117.273 101.842H-103.341M-117.273 87.9474V74.0526M-117.273 87.9474H-103.341M-117.273 74.0526V60.1579M-117.273 74.0526H-103.341M-117.273 60.1579V46.2632M-117.273 60.1579H-103.341M-117.273 46.2632V32.3684M-117.273 46.2632H-103.341M-117.273 32.3684V18.4737M-117.273 32.3684H-103.341M-117.273 18.4737V4.57896M-117.273 18.4737H-103.341M-117.273 4.57896V-9.3158M-117.273 4.57896H-103.341M-117.273 -9.3158V-23.2105M-117.273 -9.3158H-103.341M-117.273 -23.2105V-37.1053M-117.273 -23.2105H-103.341M-117.273 -37.1053V-51M-117.273 -37.1053H-103.341M-117.273 -51H-103.341M-103.341 213V199.105M-103.341 213H-89.4091M-103.341 199.105V185.211M-103.341 199.105H-89.4091M-103.341 185.211V171.316M-103.341 185.211H-89.4091M-103.341 171.316V157.421M-103.341 171.316H-89.4091M-103.341 157.421V143.526M-103.341 157.421H-89.4091M-103.341 143.526V129.632M-103.341 143.526H-89.4091M-103.341 129.632V115.737M-103.341 129.632H-89.4091M-103.341 115.737V101.842M-103.341 115.737H-89.4091M-103.341 101.842V87.9474M-103.341 101.842H-89.4091M-103.341 87.9474V74.0526M-103.341 87.9474H-89.4091M-103.341 74.0526V60.1579M-103.341 74.0526H-89.4091M-103.341 60.1579V46.2632M-103.341 60.1579H-89.4091M-103.341 46.2632V32.3684M-103.341 46.2632H-89.4091M-103.341 32.3684V18.4737M-103.341 32.3684H-89.4091M-103.341 18.4737V4.57896M-103.341 18.4737H-89.4091M-103.341 4.57896V-9.3158M-103.341 4.57896H-89.4091M-103.341 -9.3158V-23.2105M-103.341 -9.3158H-89.4091M-103.341 -23.2105V-37.1053M-103.341 -23.2105H-89.4091M-103.341 -37.1053V-51M-103.341 -37.1053H-89.4091M-103.341 -51H-89.4091M-89.4091 213V199.105M-89.4091 213H-75.4773M-89.4091 199.105V185.211M-89.4091 199.105H-75.4773M-89.4091 185.211V171.316M-89.4091 185.211H-75.4773M-89.4091 171.316V157.421M-89.4091 171.316H-75.4773M-89.4091 157.421V143.526M-89.4091 157.421H-75.4773M-89.4091 143.526V129.632M-89.4091 143.526H-75.4773M-89.4091 129.632V115.737M-89.4091 129.632H-75.4773M-89.4091 115.737V101.842M-89.4091 115.737H-75.4773M-89.4091 101.842V87.9474M-89.4091 101.842H-75.4773M-89.4091 87.9474V74.0526M-89.4091 87.9474H-75.4773M-89.4091 74.0526V60.1579M-89.4091 74.0526H-75.4773M-89.4091 60.1579V46.2632M-89.4091 60.1579H-75.4773M-89.4091 46.2632V32.3684M-89.4091 46.2632H-75.4773M-89.4091 32.3684V18.4737M-89.4091 32.3684H-75.4773M-89.4091 18.4737V4.57896M-89.4091 18.4737H-75.4773M-89.4091 4.57896V-9.3158M-89.4091 4.57896H-75.4773M-89.4091 -9.3158V-23.2105M-89.4091 -9.3158H-75.4773M-89.4091 -23.2105V-37.1053M-89.4091 -23.2105H-75.4773M-89.4091 -37.1053V-51M-89.4091 -37.1053H-75.4773M-89.4091 -51H-75.4773M-75.4773 213V199.105M-75.4773 213H-61.5455M-75.4773 199.105V185.211M-75.4773 199.105H-61.5455M-75.4773 185.211V171.316M-75.4773 185.211H-61.5455M-75.4773 171.316V157.421M-75.4773 171.316H-61.5455M-75.4773 157.421V143.526M-75.4773 157.421H-61.5455M-75.4773 143.526V129.632M-75.4773 143.526H-61.5455M-75.4773 129.632V115.737M-75.4773 129.632H-61.5455M-75.4773 115.737V101.842M-75.4773 115.737H-61.5455M-75.4773 101.842V87.9474M-75.4773 101.842H-61.5455M-75.4773 87.9474V74.0526M-75.4773 87.9474H-61.5455M-75.4773 74.0526V60.1579M-75.4773 74.0526H-61.5455M-75.4773 60.1579V46.2632M-75.4773 60.1579H-61.5455M-75.4773 46.2632V32.3684M-75.4773 46.2632H-61.5455M-75.4773 32.3684V18.4737M-75.4773 32.3684H-61.5455M-75.4773 18.4737V4.57896M-75.4773 18.4737H-61.5455M-75.4773 4.57896V-9.3158M-75.4773 4.57896H-61.5455M-75.4773 -9.3158V-23.2105M-75.4773 -9.3158H-61.5455M-75.4773 -23.2105V-37.1053M-75.4773 -23.2105H-61.5455M-75.4773 -37.1053V-51M-75.4773 -37.1053H-61.5455M-75.4773 -51H-61.5455M-61.5455 213V199.105M-61.5455 213H-47.6136M-61.5455 199.105V185.211M-61.5455 199.105H-47.6136M-61.5455 185.211V171.316M-61.5455 185.211H-47.6136M-61.5455 171.316V157.421M-61.5455 171.316H-47.6136M-61.5455 157.421V143.526M-61.5455 157.421H-47.6136M-61.5455 143.526V129.632M-61.5455 143.526H-47.6136M-61.5455 129.632V115.737M-61.5455 129.632H-47.6136M-61.5455 115.737V101.842M-61.5455 115.737H-47.6136M-61.5455 101.842V87.9474M-61.5455 101.842H-47.6136M-61.5455 87.9474V74.0526M-61.5455 87.9474H-47.6136M-61.5455 74.0526V60.1579M-61.5455 74.0526H-47.6136M-61.5455 60.1579V46.2632M-61.5455 60.1579H-47.6136M-61.5455 46.2632V32.3684M-61.5455 46.2632H-47.6136M-61.5455 32.3684V18.4737M-61.5455 32.3684H-47.6136M-61.5455 18.4737V4.57896M-61.5455 18.4737H-47.6136M-61.5455 4.57896V-9.3158M-61.5455 4.57896H-47.6136M-61.5455 -9.3158V-23.2105M-61.5455 -9.3158H-47.6136M-61.5455 -23.2105V-37.1053M-61.5455 -23.2105H-47.6136M-61.5455 -37.1053V-51M-61.5455 -37.1053H-47.6136M-61.5455 -51H-47.6136M-47.6136 213V199.105M-47.6136 213H-33.6818M-47.6136 199.105V185.211M-47.6136 199.105H-33.6818M-47.6136 185.211V171.316M-47.6136 185.211H-33.6818M-47.6136 171.316V157.421M-47.6136 171.316H-33.6818M-47.6136 157.421V143.526M-47.6136 157.421H-33.6818M-47.6136 143.526V129.632M-47.6136 143.526H-33.6818M-47.6136 129.632V115.737M-47.6136 129.632H-33.6818M-47.6136 115.737V101.842M-47.6136 115.737H-33.6818M-47.6136 101.842V87.9474M-47.6136 101.842H-33.6818M-47.6136 87.9474V74.0526M-47.6136 87.9474H-33.6818M-47.6136 74.0526V60.1579M-47.6136 74.0526H-33.6818M-47.6136 60.1579V46.2632M-47.6136 60.1579H-33.6818M-47.6136 46.2632V32.3684M-47.6136 46.2632H-33.6818M-47.6136 32.3684V18.4737M-47.6136 32.3684H-33.6818M-47.6136 18.4737V4.57896M-47.6136 18.4737H-33.6818M-47.6136 4.57896V-9.3158M-47.6136 4.57896H-33.6818M-47.6136 -9.3158V-23.2105M-47.6136 -9.3158H-33.6818M-47.6136 -23.2105V-37.1053M-47.6136 -23.2105H-33.6818M-47.6136 -37.1053V-51M-47.6136 -37.1053H-33.6818M-47.6136 -51H-33.6818M-33.6818 213V199.105M-33.6818 213H-19.75M-33.6818 199.105V185.211M-33.6818 199.105H-19.75M-33.6818 185.211V171.316M-33.6818 185.211H-19.75M-33.6818 171.316V157.421M-33.6818 171.316H-19.75M-33.6818 157.421V143.526M-33.6818 157.421H-19.75M-33.6818 143.526V129.632M-33.6818 143.526H-19.75M-33.6818 129.632V115.737M-33.6818 129.632H-19.75M-33.6818 115.737V101.842M-33.6818 115.737H-19.75M-33.6818 101.842V87.9474M-33.6818 101.842H-19.75M-33.6818 87.9474V74.0526M-33.6818 87.9474H-19.75M-33.6818 74.0526V60.1579M-33.6818 74.0526H-19.75M-33.6818 60.1579V46.2632M-33.6818 60.1579H-19.75M-33.6818 46.2632V32.3684M-33.6818 46.2632H-19.75M-33.6818 32.3684V18.4737M-33.6818 32.3684H-19.75M-33.6818 18.4737V4.57896M-33.6818 18.4737H-19.75M-33.6818 4.57896V-9.3158M-33.6818 4.57896H-19.75M-33.6818 -9.3158V-23.2105M-33.6818 -9.3158H-19.75M-33.6818 -23.2105V-37.1053M-33.6818 -23.2105H-19.75M-33.6818 -37.1053V-51M-33.6818 -37.1053H-19.75M-33.6818 -51H-19.75M-19.75 213V199.105M-19.75 213H-5.81819M-19.75 199.105V185.211M-19.75 199.105H-5.81819M-19.75 185.211V171.316M-19.75 185.211H-5.81819M-19.75 171.316V157.421M-19.75 171.316H-5.81819M-19.75 157.421V143.526M-19.75 157.421H-5.81819M-19.75 143.526V129.632M-19.75 143.526H-5.81819M-19.75 129.632V115.737M-19.75 129.632H-5.81819M-19.75 115.737V101.842M-19.75 115.737H-5.81819M-19.75 101.842V87.9474M-19.75 101.842H-5.81819M-19.75 87.9474V74.0526M-19.75 87.9474H-5.81819M-19.75 74.0526V60.1579M-19.75 74.0526H-5.81819M-19.75 60.1579V46.2632M-19.75 60.1579H-5.81819M-19.75 46.2632V32.3684M-19.75 46.2632H-5.81819M-19.75 32.3684V18.4737M-19.75 32.3684H-5.81819M-19.75 18.4737V4.57896M-19.75 18.4737H-5.81819M-19.75 4.57896V-9.3158M-19.75 4.57896H-5.81819M-19.75 -9.3158V-23.2105M-19.75 -9.3158H-5.81819M-19.75 -23.2105V-37.1053M-19.75 -23.2105H-5.81819M-19.75 -37.1053V-51M-19.75 -37.1053H-5.81819M-19.75 -51H-5.81819M-5.81819 213V199.105M-5.81819 213H8.11363M-5.81819 199.105V185.211M-5.81819 199.105H8.11363M-5.81819 185.211V171.316M-5.81819 185.211H8.11363M-5.81819 171.316V157.421M-5.81819 171.316H8.11363M-5.81819 157.421V143.526M-5.81819 157.421H8.11363M-5.81819 143.526V129.632M-5.81819 143.526H8.11363M-5.81819 129.632V115.737M-5.81819 129.632H8.11363M-5.81819 115.737V101.842M-5.81819 115.737H8.11363M-5.81819 101.842V87.9474M-5.81819 101.842H8.11363M-5.81819 87.9474V74.0526M-5.81819 87.9474H8.11363M-5.81819 74.0526V60.1579M-5.81819 74.0526H8.11363M-5.81819 60.1579V46.2632M-5.81819 60.1579H8.11363M-5.81819 46.2632V32.3684M-5.81819 46.2632H8.11363M-5.81819 32.3684V18.4737M-5.81819 32.3684H8.11363M-5.81819 18.4737V4.57896M-5.81819 18.4737H8.11363M-5.81819 4.57896V-9.3158M-5.81819 4.57896H8.11363M-5.81819 -9.3158V-23.2105M-5.81819 -9.3158H8.11363M-5.81819 -23.2105V-37.1053M-5.81819 -23.2105H8.11363M-5.81819 -37.1053V-51M-5.81819 -37.1053H8.11363M-5.81819 -51H8.11363M8.11363 213V199.105M8.11363 213H22.0455M8.11363 199.105V185.211M8.11363 199.105H22.0455M8.11363 185.211V171.316M8.11363 185.211H22.0455M8.11363 171.316V157.421M8.11363 171.316H22.0455M8.11363 157.421V143.526M8.11363 157.421H22.0455M8.11363 143.526V129.632M8.11363 143.526H22.0455M8.11363 129.632V115.737M8.11363 129.632H22.0455M8.11363 115.737V101.842M8.11363 115.737H22.0455M8.11363 101.842V87.9474M8.11363 101.842H22.0455M8.11363 87.9474V74.0526M8.11363 87.9474H22.0455M8.11363 74.0526V60.1579M8.11363 74.0526H22.0455M8.11363 60.1579V46.2632M8.11363 60.1579H22.0455M8.11363 46.2632V32.3684M8.11363 46.2632H22.0455M8.11363 32.3684V18.4737M8.11363 32.3684H22.0455M8.11363 18.4737V4.57896M8.11363 18.4737H22.0455M8.11363 4.57896V-9.3158M8.11363 4.57896H22.0455M8.11363 -9.3158V-23.2105M8.11363 -9.3158H22.0455M8.11363 -23.2105V-37.1053M8.11363 -23.2105H22.0455M8.11363 -37.1053V-51M8.11363 -37.1053H22.0455M8.11363 -51H22.0455M22.0455 213V199.105M22.0455 213H35.9773M22.0455 199.105V185.211M22.0455 199.105H35.9773M22.0455 185.211V171.316M22.0455 185.211H35.9773M22.0455 171.316V157.421M22.0455 171.316H35.9773M22.0455 157.421V143.526M22.0455 157.421H35.9773M22.0455 143.526V129.632M22.0455 143.526H35.9773M22.0455 129.632V115.737M22.0455 129.632H35.9773M22.0455 115.737V101.842M22.0455 115.737H35.9773M22.0455 101.842V87.9474M22.0455 101.842H35.9773M22.0455 87.9474V74.0526M22.0455 87.9474H35.9773M22.0455 74.0526V60.1579M22.0455 74.0526H35.9773M22.0455 60.1579V46.2632M22.0455 60.1579H35.9773M22.0455 46.2632V32.3684M22.0455 46.2632H35.9773M22.0455 32.3684V18.4737M22.0455 32.3684H35.9773M22.0455 18.4737V4.57896M22.0455 18.4737H35.9773M22.0455 4.57896V-9.3158M22.0455 4.57896H35.9773M22.0455 -9.3158V-23.2105M22.0455 -9.3158H35.9773M22.0455 -23.2105V-37.1053M22.0455 -23.2105H35.9773M22.0455 -37.1053V-51M22.0455 -37.1053H35.9773M22.0455 -51H35.9773M35.9773 213V199.105M35.9773 213H49.9091M35.9773 199.105V185.211M35.9773 199.105H49.9091M35.9773 185.211V171.316M35.9773 185.211H49.9091M35.9773 171.316V157.421M35.9773 171.316H49.9091M35.9773 157.421V143.526M35.9773 157.421H49.9091M35.9773 143.526V129.632M35.9773 143.526H49.9091M35.9773 129.632V115.737M35.9773 129.632H49.9091M35.9773 115.737V101.842M35.9773 115.737H49.9091M35.9773 101.842V87.9474M35.9773 101.842H49.9091M35.9773 87.9474V74.0526M35.9773 87.9474H49.9091M35.9773 74.0526V60.1579M35.9773 74.0526H49.9091M35.9773 60.1579V46.2632M35.9773 60.1579H49.9091M35.9773 46.2632V32.3684M35.9773 46.2632H49.9091M35.9773 32.3684V18.4737M35.9773 32.3684H49.9091M35.9773 18.4737V4.57896M35.9773 18.4737H49.9091M35.9773 4.57896V-9.3158M35.9773 4.57896H49.9091M35.9773 -9.3158V-23.2105M35.9773 -9.3158H49.9091M35.9773 -23.2105V-37.1053M35.9773 -23.2105H49.9091M35.9773 -37.1053V-51M35.9773 -37.1053H49.9091M35.9773 -51H49.9091M49.9091 213V199.105M49.9091 213H63.8409M49.9091 199.105V185.211M49.9091 199.105H63.8409M49.9091 185.211V171.316M49.9091 185.211H63.8409M49.9091 171.316V157.421M49.9091 171.316H63.8409M49.9091 157.421V143.526M49.9091 157.421H63.8409M49.9091 143.526V129.632M49.9091 143.526H63.8409M49.9091 129.632V115.737M49.9091 129.632H63.8409M49.9091 115.737V101.842M49.9091 115.737H63.8409M49.9091 101.842V87.9474M49.9091 101.842H63.8409M49.9091 87.9474V74.0526M49.9091 87.9474H63.8409M49.9091 74.0526V60.1579M49.9091 74.0526H63.8409M49.9091 60.1579V46.2632M49.9091 60.1579H63.8409M49.9091 46.2632V32.3684M49.9091 46.2632H63.8409M49.9091 32.3684V18.4737M49.9091 32.3684H63.8409M49.9091 18.4737V4.57896M49.9091 18.4737H63.8409M49.9091 4.57896V-9.3158M49.9091 4.57896H63.8409M49.9091 -9.3158V-23.2105M49.9091 -9.3158H63.8409M49.9091 -23.2105V-37.1053M49.9091 -23.2105H63.8409M49.9091 -37.1053V-51M49.9091 -37.1053H63.8409M49.9091 -51H63.8409M63.8409 213V199.105M63.8409 213H77.7727M63.8409 199.105V185.211M63.8409 199.105H77.7727M63.8409 185.211V171.316M63.8409 185.211H77.7727M63.8409 171.316V157.421M63.8409 171.316H77.7727M63.8409 157.421V143.526M63.8409 157.421H77.7727M63.8409 143.526V129.632M63.8409 143.526H77.7727M63.8409 129.632V115.737M63.8409 129.632H77.7727M63.8409 115.737V101.842M63.8409 115.737H77.7727M63.8409 101.842V87.9474M63.8409 101.842H77.7727M63.8409 87.9474V74.0526M63.8409 87.9474H77.7727M63.8409 74.0526V60.1579M63.8409 74.0526H77.7727M63.8409 60.1579V46.2632M63.8409 60.1579H77.7727M63.8409 46.2632V32.3684M63.8409 46.2632H77.7727M63.8409 32.3684V18.4737M63.8409 32.3684H77.7727M63.8409 18.4737V4.57896M63.8409 18.4737H77.7727M63.8409 4.57896V-9.3158M63.8409 4.57896H77.7727M63.8409 -9.3158V-23.2105M63.8409 -9.3158H77.7727M63.8409 -23.2105V-37.1053M63.8409 -23.2105H77.7727M63.8409 -37.1053V-51M63.8409 -37.1053H77.7727M63.8409 -51H77.7727M77.7727 213V199.105M77.7727 213H91.7045M77.7727 199.105V185.211M77.7727 199.105H91.7045M77.7727 185.211V171.316M77.7727 185.211H91.7045M77.7727 171.316V157.421M77.7727 171.316H91.7045M77.7727 157.421V143.526M77.7727 157.421H91.7045M77.7727 143.526V129.632M77.7727 143.526H91.7045M77.7727 129.632V115.737M77.7727 129.632H91.7045M77.7727 115.737V101.842M77.7727 115.737H91.7045M77.7727 101.842V87.9474M77.7727 101.842H91.7045M77.7727 87.9474V74.0526M77.7727 87.9474H91.7045M77.7727 74.0526V60.1579M77.7727 74.0526H91.7045M77.7727 60.1579V46.2632M77.7727 60.1579H91.7045M77.7727 46.2632V32.3684M77.7727 46.2632H91.7045M77.7727 32.3684V18.4737M77.7727 32.3684H91.7045M77.7727 18.4737V4.57896M77.7727 18.4737H91.7045M77.7727 4.57896V-9.3158M77.7727 4.57896H91.7045M77.7727 -9.3158V-23.2105M77.7727 -9.3158H91.7045M77.7727 -23.2105V-37.1053M77.7727 -23.2105H91.7045M77.7727 -37.1053V-51M77.7727 -37.1053H91.7045M77.7727 -51H91.7045M91.7045 213V199.105M91.7045 213H105.636M91.7045 199.105V185.211M91.7045 199.105H105.636M91.7045 185.211V171.316M91.7045 185.211H105.636M91.7045 171.316V157.421M91.7045 171.316H105.636M91.7045 157.421V143.526M91.7045 157.421H105.636M91.7045 143.526V129.632M91.7045 143.526H105.636M91.7045 129.632V115.737M91.7045 129.632H105.636M91.7045 115.737V101.842M91.7045 115.737H105.636M91.7045 101.842V87.9474M91.7045 101.842H105.636M91.7045 87.9474V74.0526M91.7045 87.9474H105.636M91.7045 74.0526V60.1579M91.7045 74.0526H105.636M91.7045 60.1579V46.2632M91.7045 60.1579H105.636M91.7045 46.2632V32.3684M91.7045 46.2632H105.636M91.7045 32.3684V18.4737M91.7045 32.3684H105.636M91.7045 18.4737V4.57896M91.7045 18.4737H105.636M91.7045 4.57896V-9.3158M91.7045 4.57896H105.636M91.7045 -9.3158V-23.2105M91.7045 -9.3158H105.636M91.7045 -23.2105V-37.1053M91.7045 -23.2105H105.636M91.7045 -37.1053V-51M91.7045 -37.1053H105.636M91.7045 -51H105.636M105.636 213V199.105M105.636 213H119.568M105.636 199.105V185.211M105.636 199.105H119.568M105.636 185.211V171.316M105.636 185.211H119.568M105.636 171.316V157.421M105.636 171.316H119.568M105.636 157.421V143.526M105.636 157.421H119.568M105.636 143.526V129.632M105.636 143.526H119.568M105.636 129.632V115.737M105.636 129.632H119.568M105.636 115.737V101.842M105.636 115.737H119.568M105.636 101.842V87.9474M105.636 101.842H119.568M105.636 87.9474V74.0526M105.636 87.9474H119.568M105.636 74.0526V60.1579M105.636 74.0526H119.568M105.636 60.1579V46.2632M105.636 60.1579H119.568M105.636 46.2632V32.3684M105.636 46.2632H119.568M105.636 32.3684V18.4737M105.636 32.3684H119.568M105.636 18.4737V4.57896M105.636 18.4737H119.568M105.636 4.57896V-9.3158M105.636 4.57896H119.568M105.636 -9.3158V-23.2105M105.636 -9.3158H119.568M105.636 -23.2105V-37.1053M105.636 -23.2105H119.568M105.636 -37.1053V-51M105.636 -37.1053H119.568M105.636 -51H119.568M119.568 213V199.105M119.568 213H133.5M119.568 199.105V185.211M119.568 199.105H133.5M119.568 185.211V171.316M119.568 185.211H133.5M119.568 171.316V157.421M119.568 171.316H133.5M119.568 157.421V143.526M119.568 157.421H133.5M119.568 143.526V129.632M119.568 143.526H133.5M119.568 129.632V115.737M119.568 129.632H133.5M119.568 115.737V101.842M119.568 115.737H133.5M119.568 101.842V87.9474M119.568 101.842H133.5M119.568 87.9474V74.0526M119.568 87.9474H133.5M119.568 74.0526V60.1579M119.568 74.0526H133.5M119.568 60.1579V46.2632M119.568 60.1579H133.5M119.568 46.2632V32.3684M119.568 46.2632H133.5M119.568 32.3684V18.4737M119.568 32.3684H133.5M119.568 18.4737V4.57896M119.568 18.4737H133.5M119.568 4.57896V-9.3158M119.568 4.57896H133.5M119.568 -9.3158V-23.2105M119.568 -9.3158H133.5M119.568 -23.2105V-37.1053M119.568 -23.2105H133.5M119.568 -37.1053V-51M119.568 -37.1053H133.5M119.568 -51H133.5M133.5 213V199.105M133.5 213H147.432M133.5 199.105V185.211M133.5 199.105H147.432M133.5 185.211V171.316M133.5 185.211H147.432M133.5 171.316V157.421M133.5 171.316H147.432M133.5 157.421V143.526M133.5 157.421H147.432M133.5 143.526V129.632M133.5 143.526H147.432M133.5 129.632V115.737M133.5 129.632H147.432M133.5 115.737V101.842M133.5 115.737H147.432M133.5 101.842V87.9474M133.5 101.842H147.432M133.5 87.9474V74.0526M133.5 87.9474H147.432M133.5 74.0526V60.1579M133.5 74.0526H147.432M133.5 60.1579V46.2632M133.5 60.1579H147.432M133.5 46.2632V32.3684M133.5 46.2632H147.432M133.5 32.3684V18.4737M133.5 32.3684H147.432M133.5 18.4737V4.57896M133.5 18.4737H147.432M133.5 4.57896V-9.3158M133.5 4.57896H147.432M133.5 -9.3158V-23.2105M133.5 -9.3158H147.432M133.5 -23.2105V-37.1053M133.5 -23.2105H147.432M133.5 -37.1053V-51M133.5 -37.1053H147.432M133.5 -51H147.432M147.432 213V199.105M147.432 213H161.364M147.432 199.105V185.211M147.432 199.105H161.364M147.432 185.211V171.316M147.432 185.211H161.364M147.432 171.316V157.421M147.432 171.316H161.364M147.432 157.421V143.526M147.432 157.421H161.364M147.432 143.526V129.632M147.432 143.526H161.364M147.432 129.632V115.737M147.432 129.632H161.364M147.432 115.737V101.842M147.432 115.737H161.364M147.432 101.842V87.9474M147.432 101.842H161.364M147.432 87.9474V74.0526M147.432 87.9474H161.364M147.432 74.0526V60.1579M147.432 74.0526H161.364M147.432 60.1579V46.2632M147.432 60.1579H161.364M147.432 46.2632V32.3684M147.432 46.2632H161.364M147.432 32.3684V18.4737M147.432 32.3684H161.364M147.432 18.4737V4.57896M147.432 18.4737H161.364M147.432 4.57896V-9.3158M147.432 4.57896H161.364M147.432 -9.3158V-23.2105M147.432 -9.3158H161.364M147.432 -23.2105V-37.1053M147.432 -23.2105H161.364M147.432 -37.1053V-51M147.432 -37.1053H161.364M147.432 -51H161.364M161.364 213V199.105M161.364 213H175.295M161.364 199.105V185.211M161.364 199.105H175.295M161.364 185.211V171.316M161.364 185.211H175.295M161.364 171.316V157.421M161.364 171.316H175.295M161.364 157.421V143.526M161.364 157.421H175.295M161.364 143.526V129.632M161.364 143.526H175.295M161.364 129.632V115.737M161.364 129.632H175.295M161.364 115.737V101.842M161.364 115.737H175.295M161.364 101.842V87.9474M161.364 101.842H175.295M161.364 87.9474V74.0526M161.364 87.9474H175.295M161.364 74.0526V60.1579M161.364 74.0526H175.295M161.364 60.1579V46.2632M161.364 60.1579H175.295M161.364 46.2632V32.3684M161.364 46.2632H175.295M161.364 32.3684V18.4737M161.364 32.3684H175.295M161.364 18.4737V4.57896M161.364 18.4737H175.295M161.364 4.57896V-9.3158M161.364 4.57896H175.295M161.364 -9.3158V-23.2105M161.364 -9.3158H175.295M161.364 -23.2105V-37.1053M161.364 -23.2105H175.295M161.364 -37.1053V-51M161.364 -37.1053H175.295M161.364 -51H175.295M175.295 213V199.105M175.295 213H189.227M175.295 199.105V185.211M175.295 199.105H189.227M175.295 185.211V171.316M175.295 185.211H189.227M175.295 171.316V157.421M175.295 171.316H189.227M175.295 157.421V143.526M175.295 157.421H189.227M175.295 143.526V129.632M175.295 143.526H189.227M175.295 129.632V115.737M175.295 129.632H189.227M175.295 115.737V101.842M175.295 115.737H189.227M175.295 101.842V87.9474M175.295 101.842H189.227M175.295 87.9474V74.0526M175.295 87.9474H189.227M175.295 74.0526V60.1579M175.295 74.0526H189.227M175.295 60.1579V46.2632M175.295 60.1579H189.227M175.295 46.2632V32.3684M175.295 46.2632H189.227M175.295 32.3684V18.4737M175.295 32.3684H189.227M175.295 18.4737V4.57896M175.295 18.4737H189.227M175.295 4.57896V-9.3158M175.295 4.57896H189.227M175.295 -9.3158V-23.2105M175.295 -9.3158H189.227M175.295 -23.2105V-37.1053M175.295 -23.2105H189.227M175.295 -37.1053V-51M175.295 -37.1053H189.227M175.295 -51H189.227M189.227 213V199.105M189.227 213H203.159M189.227 199.105V185.211M189.227 199.105H203.159M189.227 185.211V171.316M189.227 185.211H203.159M189.227 171.316V157.421M189.227 171.316H203.159M189.227 157.421V143.526M189.227 157.421H203.159M189.227 143.526V129.632M189.227 143.526H203.159M189.227 129.632V115.737M189.227 129.632H203.159M189.227 115.737V101.842M189.227 115.737H203.159M189.227 101.842V87.9474M189.227 101.842H203.159M189.227 87.9474V74.0526M189.227 87.9474H203.159M189.227 74.0526V60.1579M189.227 74.0526H203.159M189.227 60.1579V46.2632M189.227 60.1579H203.159M189.227 46.2632V32.3684M189.227 46.2632H203.159M189.227 32.3684V18.4737M189.227 32.3684H203.159M189.227 18.4737V4.57896M189.227 18.4737H203.159M189.227 4.57896V-9.3158M189.227 4.57896H203.159M189.227 -9.3158V-23.2105M189.227 -9.3158H203.159M189.227 -23.2105V-37.1053M189.227 -23.2105H203.159M189.227 -37.1053V-51M189.227 -37.1053H203.159M189.227 -51H203.159M203.159 213V199.105M203.159 213H217.091M203.159 199.105V185.211M203.159 199.105H217.091M203.159 185.211V171.316M203.159 185.211H217.091M203.159 171.316V157.421M203.159 171.316H217.091M203.159 157.421V143.526M203.159 157.421H217.091M203.159 143.526V129.632M203.159 143.526H217.091M203.159 129.632V115.737M203.159 129.632H217.091M203.159 115.737V101.842M203.159 115.737H217.091M203.159 101.842V87.9474M203.159 101.842H217.091M203.159 87.9474V74.0526M203.159 87.9474H217.091M203.159 74.0526V60.1579M203.159 74.0526H217.091M203.159 60.1579V46.2632M203.159 60.1579H217.091M203.159 46.2632V32.3684M203.159 46.2632H217.091M203.159 32.3684V18.4737M203.159 32.3684H217.091M203.159 18.4737V4.57896M203.159 18.4737H217.091M203.159 4.57896V-9.3158M203.159 4.57896H217.091M203.159 -9.3158V-23.2105M203.159 -9.3158H217.091M203.159 -23.2105V-37.1053M203.159 -23.2105H217.091M203.159 -37.1053V-51M203.159 -37.1053H217.091M203.159 -51H217.091M217.091 213V199.105M217.091 213H231.023M217.091 199.105V185.211M217.091 199.105H231.023M217.091 185.211V171.316M217.091 185.211H231.023M217.091 171.316V157.421M217.091 171.316H231.023M217.091 157.421V143.526M217.091 157.421H231.023M217.091 143.526V129.632M217.091 143.526H231.023M217.091 129.632V115.737M217.091 129.632H231.023M217.091 115.737V101.842M217.091 115.737H231.023M217.091 101.842V87.9474M217.091 101.842H231.023M217.091 87.9474V74.0526M217.091 87.9474H231.023M217.091 74.0526V60.1579M217.091 74.0526H231.023M217.091 60.1579V46.2632M217.091 60.1579H231.023M217.091 46.2632V32.3684M217.091 46.2632H231.023M217.091 32.3684V18.4737M217.091 32.3684H231.023M217.091 18.4737V4.57896M217.091 18.4737H231.023M217.091 4.57896V-9.3158M217.091 4.57896H231.023M217.091 -9.3158V-23.2105M217.091 -9.3158H231.023M217.091 -23.2105V-37.1053M217.091 -23.2105H231.023M217.091 -37.1053V-51M217.091 -37.1053H231.023M217.091 -51H231.023M231.023 213V199.105M231.023 213H244.955M231.023 199.105V185.211M231.023 199.105H244.955M231.023 185.211V171.316M231.023 185.211H244.955M231.023 171.316V157.421M231.023 171.316H244.955M231.023 157.421V143.526M231.023 157.421H244.955M231.023 143.526V129.632M231.023 143.526H244.955M231.023 129.632V115.737M231.023 129.632H244.955M231.023 115.737V101.842M231.023 115.737H244.955M231.023 101.842V87.9474M231.023 101.842H244.955M231.023 87.9474V74.0526M231.023 87.9474H244.955M231.023 74.0526V60.1579M231.023 74.0526H244.955M231.023 60.1579V46.2632M231.023 60.1579H244.955M231.023 46.2632V32.3684M231.023 46.2632H244.955M231.023 32.3684V18.4737M231.023 32.3684H244.955M231.023 18.4737V4.57896M231.023 18.4737H244.955M231.023 4.57896V-9.3158M231.023 4.57896H244.955M231.023 -9.3158V-23.2105M231.023 -9.3158H244.955M231.023 -23.2105V-37.1053M231.023 -23.2105H244.955M231.023 -37.1053V-51M231.023 -37.1053H244.955M231.023 -51H244.955M244.955 213V199.105M244.955 213H258.886M244.955 199.105V185.211M244.955 199.105H258.886M244.955 185.211V171.316M244.955 185.211H258.886M244.955 171.316V157.421M244.955 171.316H258.886M244.955 157.421V143.526M244.955 157.421H258.886M244.955 143.526V129.632M244.955 143.526H258.886M244.955 129.632V115.737M244.955 129.632H258.886M244.955 115.737V101.842M244.955 115.737H258.886M244.955 101.842V87.9474M244.955 101.842H258.886M244.955 87.9474V74.0526M244.955 87.9474H258.886M244.955 74.0526V60.1579M244.955 74.0526H258.886M244.955 60.1579V46.2632M244.955 60.1579H258.886M244.955 46.2632V32.3684M244.955 46.2632H258.886M244.955 32.3684V18.4737M244.955 32.3684H258.886M244.955 18.4737V4.57896M244.955 18.4737H258.886M244.955 4.57896V-9.3158M244.955 4.57896H258.886M244.955 -9.3158V-23.2105M244.955 -9.3158H258.886M244.955 -23.2105V-37.1053M244.955 -23.2105H258.886M244.955 -37.1053V-51M244.955 -37.1053H258.886M244.955 -51H258.886M258.886 213V199.105M258.886 213H272.818M258.886 199.105V185.211M258.886 199.105H272.818M258.886 185.211V171.316M258.886 185.211H272.818M258.886 171.316V157.421M258.886 171.316H272.818M258.886 157.421V143.526M258.886 157.421H272.818M258.886 143.526V129.632M258.886 143.526H272.818M258.886 129.632V115.737M258.886 129.632H272.818M258.886 115.737V101.842M258.886 115.737H272.818M258.886 101.842V87.9474M258.886 101.842H272.818M258.886 87.9474V74.0526M258.886 87.9474H272.818M258.886 74.0526V60.1579M258.886 74.0526H272.818M258.886 60.1579V46.2632M258.886 60.1579H272.818M258.886 46.2632V32.3684M258.886 46.2632H272.818M258.886 32.3684V18.4737M258.886 32.3684H272.818M258.886 18.4737V4.57896M258.886 18.4737H272.818M258.886 4.57896V-9.3158M258.886 4.57896H272.818M258.886 -9.3158V-23.2105M258.886 -9.3158H272.818M258.886 -23.2105V-37.1053M258.886 -23.2105H272.818M258.886 -37.1053V-51M258.886 -37.1053H272.818M258.886 -51H272.818M272.818 213V199.105M272.818 213H286.75M272.818 199.105V185.211M272.818 199.105H286.75M272.818 185.211V171.316M272.818 185.211H286.75M272.818 171.316V157.421M272.818 171.316H286.75M272.818 157.421V143.526M272.818 157.421H286.75M272.818 143.526V129.632M272.818 143.526H286.75M272.818 129.632V115.737M272.818 129.632H286.75M272.818 115.737V101.842M272.818 115.737H286.75M272.818 101.842V87.9474M272.818 101.842H286.75M272.818 87.9474V74.0526M272.818 87.9474H286.75M272.818 74.0526V60.1579M272.818 74.0526H286.75M272.818 60.1579V46.2632M272.818 60.1579H286.75M272.818 46.2632V32.3684M272.818 46.2632H286.75M272.818 32.3684V18.4737M272.818 32.3684H286.75M272.818 18.4737V4.57896M272.818 18.4737H286.75M272.818 4.57896V-9.3158M272.818 4.57896H286.75M272.818 -9.3158V-23.2105M272.818 -9.3158H286.75M272.818 -23.2105V-37.1053M272.818 -23.2105H286.75M272.818 -37.1053V-51M272.818 -37.1053H286.75M272.818 -51H286.75M286.75 213V199.105M286.75 213H300.682M286.75 199.105V185.211M286.75 199.105H300.682M286.75 185.211V171.316M286.75 185.211H300.682M286.75 171.316V157.421M286.75 171.316H300.682M286.75 157.421V143.526M286.75 157.421H300.682M286.75 143.526V129.632M286.75 143.526H300.682M286.75 129.632V115.737M286.75 129.632H300.682M286.75 115.737V101.842M286.75 115.737H300.682M286.75 101.842V87.9474M286.75 101.842H300.682M286.75 87.9474V74.0526M286.75 87.9474H300.682M286.75 74.0526V60.1579M286.75 74.0526H300.682M286.75 60.1579V46.2632M286.75 60.1579H300.682M286.75 46.2632V32.3684M286.75 46.2632H300.682M286.75 32.3684V18.4737M286.75 32.3684H300.682M286.75 18.4737V4.57896M286.75 18.4737H300.682M286.75 4.57896V-9.3158M286.75 4.57896H300.682M286.75 -9.3158V-23.2105M286.75 -9.3158H300.682M286.75 -23.2105V-37.1053M286.75 -23.2105H300.682M286.75 -37.1053V-51M286.75 -37.1053H300.682M286.75 -51H300.682M300.682 213V199.105M300.682 213H314.614M300.682 199.105V185.211M300.682 199.105H314.614M300.682 185.211V171.316M300.682 185.211H314.614M300.682 171.316V157.421M300.682 171.316H314.614M300.682 157.421V143.526M300.682 157.421H314.614M300.682 143.526V129.632M300.682 143.526H314.614M300.682 129.632V115.737M300.682 129.632H314.614M300.682 115.737V101.842M300.682 115.737H314.614M300.682 101.842V87.9474M300.682 101.842H314.614M300.682 87.9474V74.0526M300.682 87.9474H314.614M300.682 74.0526V60.1579M300.682 74.0526H314.614M300.682 60.1579V46.2632M300.682 60.1579H314.614M300.682 46.2632V32.3684M300.682 46.2632H314.614M300.682 32.3684V18.4737M300.682 32.3684H314.614M300.682 18.4737V4.57896M300.682 18.4737H314.614M300.682 4.57896V-9.3158M300.682 4.57896H314.614M300.682 -9.3158V-23.2105M300.682 -9.3158H314.614M300.682 -23.2105V-37.1053M300.682 -23.2105H314.614M300.682 -37.1053V-51M300.682 -37.1053H314.614M300.682 -51H314.614M314.614 213V199.105M314.614 213H328.545M314.614 199.105V185.211M314.614 199.105H328.545M314.614 185.211V171.316M314.614 185.211H328.545M314.614 171.316V157.421M314.614 171.316H328.545M314.614 157.421V143.526M314.614 157.421H328.545M314.614 143.526V129.632M314.614 143.526H328.545M314.614 129.632V115.737M314.614 129.632H328.545M314.614 115.737V101.842M314.614 115.737H328.545M314.614 101.842V87.9474M314.614 101.842H328.545M314.614 87.9474V74.0526M314.614 87.9474H328.545M314.614 74.0526V60.1579M314.614 74.0526H328.545M314.614 60.1579V46.2632M314.614 60.1579H328.545M314.614 46.2632V32.3684M314.614 46.2632H328.545M314.614 32.3684V18.4737M314.614 32.3684H328.545M314.614 18.4737V4.57896M314.614 18.4737H328.545M314.614 4.57896V-9.3158M314.614 4.57896H328.545M314.614 -9.3158V-23.2105M314.614 -9.3158H328.545M314.614 -23.2105V-37.1053M314.614 -23.2105H328.545M314.614 -37.1053V-51M314.614 -37.1053H328.545M314.614 -51H328.545M328.545 213V199.105M328.545 213H342.477M328.545 199.105V185.211M328.545 199.105H342.477M328.545 185.211V171.316M328.545 185.211H342.477M328.545 171.316V157.421M328.545 171.316H342.477M328.545 157.421V143.526M328.545 157.421H342.477M328.545 143.526V129.632M328.545 143.526H342.477M328.545 129.632V115.737M328.545 129.632H342.477M328.545 115.737V101.842M328.545 115.737H342.477M328.545 101.842V87.9474M328.545 101.842H342.477M328.545 87.9474V74.0526M328.545 87.9474H342.477M328.545 74.0526V60.1579M328.545 74.0526H342.477M328.545 60.1579V46.2632M328.545 60.1579H342.477M328.545 46.2632V32.3684M328.545 46.2632H342.477M328.545 32.3684V18.4737M328.545 32.3684H342.477M328.545 18.4737V4.57896M328.545 18.4737H342.477M328.545 4.57896V-9.3158M328.545 4.57896H342.477M328.545 -9.3158V-23.2105M328.545 -9.3158H342.477M328.545 -23.2105V-37.1053M328.545 -23.2105H342.477M328.545 -37.1053V-51M328.545 -37.1053H342.477M328.545 -51H342.477M342.477 213V199.105M342.477 213H356.409M342.477 199.105V185.211M342.477 199.105H356.409M342.477 185.211V171.316M342.477 185.211H356.409M342.477 171.316V157.421M342.477 171.316H356.409M342.477 157.421V143.526M342.477 157.421H356.409M342.477 143.526V129.632M342.477 143.526H356.409M342.477 129.632V115.737M342.477 129.632H356.409M342.477 115.737V101.842M342.477 115.737H356.409M342.477 101.842V87.9474M342.477 101.842H356.409M342.477 87.9474V74.0526M342.477 87.9474H356.409M342.477 74.0526V60.1579M342.477 74.0526H356.409M342.477 60.1579V46.2632M342.477 60.1579H356.409M342.477 46.2632V32.3684M342.477 46.2632H356.409M342.477 32.3684V18.4737M342.477 32.3684H356.409M342.477 18.4737V4.57896M342.477 18.4737H356.409M342.477 4.57896V-9.3158M342.477 4.57896H356.409M342.477 -9.3158V-23.2105M342.477 -9.3158H356.409M342.477 -23.2105V-37.1053M342.477 -23.2105H356.409M342.477 -37.1053V-51M342.477 -37.1053H356.409M342.477 -51H356.409M356.409 213V199.105M356.409 213H370.341M356.409 199.105V185.211M356.409 199.105H370.341M356.409 185.211V171.316M356.409 185.211H370.341M356.409 171.316V157.421M356.409 171.316H370.341M356.409 157.421V143.526M356.409 157.421H370.341M356.409 143.526V129.632M356.409 143.526H370.341M356.409 129.632V115.737M356.409 129.632H370.341M356.409 115.737V101.842M356.409 115.737H370.341M356.409 101.842V87.9474M356.409 101.842H370.341M356.409 87.9474V74.0526M356.409 87.9474H370.341M356.409 74.0526V60.1579M356.409 74.0526H370.341M356.409 60.1579V46.2632M356.409 60.1579H370.341M356.409 46.2632V32.3684M356.409 46.2632H370.341M356.409 32.3684V18.4737M356.409 32.3684H370.341M356.409 18.4737V4.57896M356.409 18.4737H370.341M356.409 4.57896V-9.3158M356.409 4.57896H370.341M356.409 -9.3158V-23.2105M356.409 -9.3158H370.341M356.409 -23.2105V-37.1053M356.409 -23.2105H370.341M356.409 -37.1053V-51M356.409 -37.1053H370.341M356.409 -51H370.341M370.341 213V199.105M370.341 213H384.273M370.341 199.105V185.211M370.341 199.105H384.273M370.341 185.211V171.316M370.341 185.211H384.273M370.341 171.316V157.421M370.341 171.316H384.273M370.341 157.421V143.526M370.341 157.421H384.273M370.341 143.526V129.632M370.341 143.526H384.273M370.341 129.632V115.737M370.341 129.632H384.273M370.341 115.737V101.842M370.341 115.737H384.273M370.341 101.842V87.9474M370.341 101.842H384.273M370.341 87.9474V74.0526M370.341 87.9474H384.273M370.341 74.0526V60.1579M370.341 74.0526H384.273M370.341 60.1579V46.2632M370.341 60.1579H384.273M370.341 46.2632V32.3684M370.341 46.2632H384.273M370.341 32.3684V18.4737M370.341 32.3684H384.273M370.341 18.4737V4.57896M370.341 18.4737H384.273M370.341 4.57896V-9.3158M370.341 4.57896H384.273M370.341 -9.3158V-23.2105M370.341 -9.3158H384.273M370.341 -23.2105V-37.1053M370.341 -23.2105H384.273M370.341 -37.1053V-51M370.341 -37.1053H384.273M370.341 -51H384.273M384.273 213V199.105M384.273 213H398.205M384.273 199.105V185.211M384.273 199.105H398.205M384.273 185.211V171.316M384.273 185.211H398.205M384.273 171.316V157.421M384.273 171.316H398.205M384.273 157.421V143.526M384.273 157.421H398.205M384.273 143.526V129.632M384.273 143.526H398.205M384.273 129.632V115.737M384.273 129.632H398.205M384.273 115.737V101.842M384.273 115.737H398.205M384.273 101.842V87.9474M384.273 101.842H398.205M384.273 87.9474V74.0526M384.273 87.9474H398.205M384.273 74.0526V60.1579M384.273 74.0526H398.205M384.273 60.1579V46.2632M384.273 60.1579H398.205M384.273 46.2632V32.3684M384.273 46.2632H398.205M384.273 32.3684V18.4737M384.273 32.3684H398.205M384.273 18.4737V4.57896M384.273 18.4737H398.205M384.273 4.57896V-9.3158M384.273 4.57896H398.205M384.273 -9.3158V-23.2105M384.273 -9.3158H398.205M384.273 -23.2105V-37.1053M384.273 -23.2105H398.205M384.273 -37.1053V-51M384.273 -37.1053H398.205M384.273 -51H398.205M398.205 213V199.105M398.205 213H412.136M398.205 199.105V185.211M398.205 199.105H412.136M398.205 185.211V171.316M398.205 185.211H412.136M398.205 171.316V157.421M398.205 171.316H412.136M398.205 157.421V143.526M398.205 157.421H412.136M398.205 143.526V129.632M398.205 143.526H412.136M398.205 129.632V115.737M398.205 129.632H412.136M398.205 115.737V101.842M398.205 115.737H412.136M398.205 101.842V87.9474M398.205 101.842H412.136M398.205 87.9474V74.0526M398.205 87.9474H412.136M398.205 74.0526V60.1579M398.205 74.0526H412.136M398.205 60.1579V46.2632M398.205 60.1579H412.136M398.205 46.2632V32.3684M398.205 46.2632H412.136M398.205 32.3684V18.4737M398.205 32.3684H412.136M398.205 18.4737V4.57896M398.205 18.4737H412.136M398.205 4.57896V-9.3158M398.205 4.57896H412.136M398.205 -9.3158V-23.2105M398.205 -9.3158H412.136M398.205 -23.2105V-37.1053M398.205 -23.2105H412.136M398.205 -37.1053V-51M398.205 -37.1053H412.136M398.205 -51H412.136M412.136 213V199.105M412.136 213H426.068M412.136 199.105V185.211M412.136 199.105H426.068M412.136 185.211V171.316M412.136 185.211H426.068M412.136 171.316V157.421M412.136 171.316H426.068M412.136 157.421V143.526M412.136 157.421H426.068M412.136 143.526V129.632M412.136 143.526H426.068M412.136 129.632V115.737M412.136 129.632H426.068M412.136 115.737V101.842M412.136 115.737H426.068M412.136 101.842V87.9474M412.136 101.842H426.068M412.136 87.9474V74.0526M412.136 87.9474H426.068M412.136 74.0526V60.1579M412.136 74.0526H426.068M412.136 60.1579V46.2632M412.136 60.1579H426.068M412.136 46.2632V32.3684M412.136 46.2632H426.068M412.136 32.3684V18.4737M412.136 32.3684H426.068M412.136 18.4737V4.57896M412.136 18.4737H426.068M412.136 4.57896V-9.3158M412.136 4.57896H426.068M412.136 -9.3158V-23.2105M412.136 -9.3158H426.068M412.136 -23.2105V-37.1053M412.136 -23.2105H426.068M412.136 -37.1053V-51M412.136 -37.1053H426.068M412.136 -51H426.068M426.068 213V199.105M426.068 213H440V199.105M426.068 199.105V185.211M426.068 199.105H440M426.068 185.211V171.316M426.068 185.211H440M426.068 171.316V157.421M426.068 171.316H440M426.068 157.421V143.526M426.068 157.421H440M426.068 143.526V129.632M426.068 143.526H440M426.068 129.632V115.737M426.068 129.632H440M426.068 115.737V101.842M426.068 115.737H440M426.068 101.842V87.9474M426.068 101.842H440M426.068 87.9474V74.0526M426.068 87.9474H440M426.068 74.0526V60.1579M426.068 74.0526H440M426.068 60.1579V46.2632M426.068 60.1579H440M426.068 46.2632V32.3684M426.068 46.2632H440M426.068 32.3684V18.4737M426.068 32.3684H440M426.068 18.4737V4.57896M426.068 18.4737H440M426.068 4.57896V-9.3158M426.068 4.57896H440M426.068 -9.3158V-23.2105M426.068 -9.3158H440M426.068 -23.2105V-37.1053M426.068 -23.2105H440M426.068 -37.1053V-51M426.068 -37.1053H440M426.068 -51H440V-37.1053M440 199.105V185.211M440 185.211V171.316M440 171.316V157.421M440 157.421V143.526M440 143.526V129.632M440 129.632V115.737M440 115.737V101.842M440 101.842V87.9474M440 87.9474V74.0526M440 74.0526V60.1579M440 60.1579V46.2632M440 46.2632V32.3684M440 32.3684V18.4737M440 18.4737V4.57896M440 4.57896V-9.3158M440 -9.3158V-23.2105M440 -23.2105V-37.1053" stroke="url(#paint0_radial_859_107801)" stroke-width="1.74474"/>
</g>
<defs>
<radialGradient id="paint0_radial_859_107801" cx="0" cy="0" r="1" gradientUnits="userSpaceOnUse" gradientTransform="translate(133.5 81) rotate(-90) scale(132 247.504)">
<stop stop-color="white"/>
<stop offset="1" stop-color="white" stop-opacity="0.2"/>
</radialGradient>
</defs>
</svg>
